<svg width="32" height="32" viewBox="0 0 32 32" fill="none" xmlns="http://www.w3.org/2000/svg">
<path fill-rule="evenodd" clip-rule="evenodd" d="M15.6207 4.28564C10.6059 4.28564 6.5 8.5365 6.5 13.822C6.5 15.0786 7.05138 16.58 7.93939 18.1642C8.82103 19.737 10.0031 21.3371 11.1955 22.7775C12.3864 24.2161 13.5786 25.4847 14.4738 26.3943C14.9212 26.8488 15.2936 27.2129 15.5538 27.4629C15.5772 27.4854 15.5997 27.507 15.6213 27.5277C15.6431 27.5069 15.6658 27.4851 15.6895 27.4624C15.9505 27.2123 16.3242 26.8482 16.773 26.3937C17.6711 25.4842 18.8672 24.2155 20.0618 22.7769C21.258 21.3365 22.4439 19.7364 23.3284 18.1636C24.2192 16.5793 24.7722 15.0782 24.7722 13.822C24.7722 8.53756 20.6674 4.28564 15.6207 4.28564ZM15.6207 28.2146C15.2822 28.5825 15.2821 28.5825 15.282 28.5823L15.28 28.5805L15.2743 28.5753L15.2528 28.5553C15.2339 28.5378 15.2063 28.512 15.1704 28.4783C15.0986 28.4109 14.9938 28.3118 14.8609 28.1839C14.5949 27.9283 14.2158 27.5576 13.7611 27.0958C12.8525 26.1726 11.6395 24.8821 10.4252 23.4152C9.21241 21.9501 7.98934 20.2984 7.06708 18.6531C6.15121 17.0192 5.5 15.3361 5.5 13.822C5.5 8.02439 10.0143 3.28564 15.6207 3.28564C21.2569 3.28564 25.7722 8.02333 25.7722 13.822C25.7722 15.3365 25.1188 17.0199 24.2 18.6537C23.2748 20.2991 22.0478 21.9508 20.8311 23.4158C19.6129 24.8827 18.3961 26.1731 17.4846 27.0963C17.0285 27.5582 16.6482 27.9289 16.3813 28.1845C16.2479 28.3123 16.1428 28.4114 16.0708 28.4788C16.0348 28.5125 16.0071 28.5383 15.9882 28.5558L15.9666 28.5758L15.9593 28.5825C15.9592 28.5826 15.9587 28.5831 15.6207 28.2146ZM15.6207 28.2146L15.9593 28.5825C15.7679 28.758 15.4731 28.7582 15.282 28.5823L15.6207 28.2146Z" fill="#B98D75"/>
<path fill-rule="evenodd" clip-rule="evenodd" d="M15.6297 10.0735C13.7765 10.0735 12.2891 11.5711 12.2891 13.4295C12.2891 15.2879 13.7765 16.7855 15.6297 16.7855C17.4868 16.7855 18.9933 15.284 18.9933 13.4295C18.9933 11.582 17.4861 10.0735 15.6297 10.0735ZM11.2891 13.4295C11.2891 11.024 13.219 9.07349 15.6297 9.07349C18.0371 9.07349 19.9933 11.0284 19.9933 13.4295C19.9933 15.8389 18.0365 17.7855 15.6297 17.7855C13.219 17.7855 11.2891 15.835 11.2891 13.4295Z" fill="#B98D75"/>
</svg>
