<svg width="179" height="32" viewBox="0 0 179 32" fill="none" xmlns="http://www.w3.org/2000/svg">
<path fill-rule="evenodd" clip-rule="evenodd" d="M12.3247 10.4539C12.4918 10.0352 12.6311 9.61649 12.7425 9.22569C12.8678 8.82093 12.9653 8.41617 13.0349 8.03933C13.1046 7.66248 13.1603 7.2996 13.1742 6.96462V6.95067C13.1742 6.92275 13.1742 6.9088 13.1881 6.88088C13.2021 6.86692 13.2021 6.83901 13.2299 6.82505C13.2438 6.81109 13.2578 6.79714 13.2717 6.79714H13.2856C13.2995 6.78318 13.3274 6.78318 13.3413 6.78318H19.6638C19.6778 6.78318 19.6917 6.78318 19.7195 6.78318C19.7335 6.78318 19.7613 6.79714 19.7752 6.81109C19.7892 6.82505 19.8031 6.83901 19.817 6.86692C19.817 6.88088 19.8309 6.89484 19.8309 6.9088V6.92275C19.8309 6.93671 19.8309 6.95067 19.8309 6.96462V6.99254C19.636 7.66248 19.4132 8.31847 19.1346 8.93258C18.87 9.5467 18.5637 10.1469 18.2155 10.7051C17.8673 11.2634 17.4913 11.7798 17.0736 12.2683C16.6697 12.7568 16.2241 13.1895 15.7366 13.6082C15.2631 14.013 14.7618 14.3619 14.2326 14.6829C13.7173 14.99 13.1603 15.2691 12.5754 15.4925C12.0044 15.7158 11.4056 15.8972 10.7928 16.0228C10.1801 16.1484 9.55339 16.2322 8.88493 16.274H8.84315C8.82923 16.274 8.80137 16.2601 8.78745 16.2601C8.77352 16.2601 8.75959 16.2461 8.75959 16.2322C8.74567 16.2182 8.73174 16.2043 8.71782 16.1764C8.70389 16.1624 8.70389 16.1345 8.70389 16.1066C8.70389 16.0926 8.70389 16.0787 8.71782 16.0647V16.0507C8.71782 16.0368 8.73174 16.0228 8.73174 16.0228L8.74567 15.9949C9.05205 15.6878 9.33057 15.3668 9.60909 15.0319C9.88762 14.6969 10.1522 14.334 10.4029 13.9851C10.6675 13.6082 10.9042 13.2314 11.1271 12.8545C11.3638 12.4637 11.5727 12.059 11.7677 11.6682C11.9766 11.2495 12.1437 10.8447 12.3108 10.44L12.3247 10.4539ZM12.6589 19.3446C12.9653 19.5261 13.2438 19.7354 13.5084 19.9448C13.773 20.1681 14.0237 20.4054 14.2605 20.6426C14.4972 20.8939 14.7061 21.1591 14.915 21.4382C15.5417 22.2896 16.043 23.2387 16.5444 24.1598V24.1738C16.7672 24.5925 16.99 25.0112 17.2128 25.3881C17.4356 25.7789 17.6585 26.1418 17.9091 26.4907C18.0623 26.7001 18.2016 26.8954 18.3548 27.0769C18.508 27.2583 18.6611 27.4398 18.8004 27.5933C18.9536 27.7608 19.1068 27.9143 19.26 28.0399C19.4132 28.1795 19.5663 28.3051 19.7195 28.4168C19.8727 28.5284 20.0259 28.6401 20.1652 28.7238C20.3184 28.8076 20.4716 28.8913 20.6108 28.9611C20.764 29.0309 20.9172 29.0867 21.0565 29.1286C21.2096 29.1705 21.3489 29.1984 21.5021 29.2123C21.516 29.2123 21.5299 29.2263 21.5439 29.2263C21.5578 29.2263 21.5717 29.2403 21.5856 29.2542C21.5996 29.2682 21.6135 29.2821 21.6274 29.31C21.6414 29.324 21.6414 29.3519 21.6414 29.3659C21.6414 29.3938 21.6414 29.4077 21.6274 29.4357C21.6274 29.4496 21.6135 29.4636 21.6135 29.4775L21.5996 29.5054C21.4464 29.659 21.2932 29.8125 21.1122 29.9381H21.0982C20.9033 30.0777 20.7083 30.1893 20.4855 30.301C20.2905 30.3987 20.0816 30.4824 19.8588 30.5522C19.636 30.636 19.3992 30.6918 19.1625 30.7476C18.9536 30.7895 18.7447 30.8314 18.5497 30.8593C18.3269 30.8872 18.1041 30.9151 17.8952 30.943C17.7002 30.957 17.5192 30.9709 17.3382 30.9709C17.1571 30.9709 17.0039 30.9849 16.8786 30.9849C16.6001 30.9849 16.3355 30.9709 16.0848 30.957C15.8341 30.943 15.5974 30.9012 15.3746 30.8732C15.1517 30.8314 14.9289 30.7895 14.7339 30.7337C14.5251 30.6778 14.3301 30.6081 14.149 30.5243C13.968 30.4545 13.787 30.3568 13.6198 30.2731C13.4527 30.1754 13.2856 30.0777 13.1324 29.9521C12.9792 29.8404 12.8261 29.7148 12.6868 29.5752C12.5475 29.4357 12.3943 29.2961 12.269 29.1565L12.2551 29.1426C11.5309 28.333 10.9321 27.3002 10.4307 26.2255C9.9294 25.1368 9.51161 24.0203 9.1356 23.0014L8.8153 22.1361L8.66211 21.7453L8.50892 21.3684C8.42537 21.1591 8.34181 20.9637 8.25825 20.7962C8.17469 20.6147 8.09114 20.4472 8.02151 20.2937C7.93795 20.1262 7.85439 19.9867 7.78476 19.8471C7.7012 19.7075 7.63157 19.5959 7.54801 19.4702C7.46446 19.3586 7.39483 19.2609 7.31127 19.1632C7.22771 19.0655 7.15808 18.9817 7.07452 18.912C6.99096 18.8422 6.90741 18.7724 6.82385 18.7166C6.74029 18.6607 6.65674 18.6049 6.57318 18.563L6.54533 18.5491C6.5314 18.5351 6.51747 18.5351 6.50355 18.5212C6.48962 18.5072 6.48962 18.4932 6.47569 18.4793C6.47569 18.4653 6.46177 18.4514 6.46177 18.4374C6.46177 18.4235 6.46177 18.3955 6.46177 18.3816C6.47569 18.3537 6.47569 18.3397 6.50355 18.3118C6.51747 18.2978 6.5314 18.2839 6.54533 18.2839C6.55925 18.2699 6.5871 18.2699 6.61496 18.2699C7.13023 18.2281 7.61764 18.2001 8.07721 18.2141C8.53677 18.2141 8.98242 18.256 9.4002 18.3118C9.81799 18.3676 10.2218 18.4514 10.5979 18.5491C10.9739 18.6468 11.3359 18.7724 11.6702 18.912C12.0044 19.0515 12.3247 19.219 12.6311 19.4005L12.6589 19.3446ZM22.8251 30.6081V6.97858C22.8251 6.96462 22.8251 6.95067 22.839 6.92275V6.9088C22.8529 6.88088 22.8669 6.86692 22.8808 6.85297C22.8947 6.83901 22.9086 6.82505 22.9365 6.81109C22.9643 6.79714 22.9783 6.79714 23.0061 6.79714H28.7994C28.8134 6.79714 28.8273 6.79714 28.8551 6.81109H28.8691C28.8969 6.82505 28.9108 6.82505 28.9248 6.85297C28.9387 6.86692 28.9387 6.88088 28.9526 6.89484V6.9088C28.9665 6.92275 28.9665 6.95067 28.9665 6.97858V20.8101L37.0716 6.88088C37.0855 6.86692 37.0855 6.86692 37.0995 6.85297C37.1134 6.83901 37.1412 6.82505 37.1691 6.81109H37.183C37.1969 6.81109 37.2109 6.81109 37.2248 6.81109H43.0181C43.0599 6.81109 43.1017 6.82505 43.1434 6.85297C43.1574 6.86692 43.1713 6.88088 43.1852 6.9088C43.1991 6.93671 43.1992 6.95067 43.1992 6.97858V30.6081C43.1992 30.622 43.1992 30.636 43.1992 30.6499V30.6639C43.1852 30.6778 43.1852 30.7058 43.1574 30.7197C43.1434 30.7337 43.1295 30.7476 43.1156 30.7476L43.1017 30.7616C43.0877 30.7755 43.0599 30.7755 43.046 30.7755H37.2527C37.2387 30.7755 37.2248 30.7755 37.1969 30.7616H37.183C37.1691 30.7476 37.1552 30.7476 37.1412 30.7337C37.1273 30.7197 37.1134 30.7058 37.0995 30.6778C37.0855 30.6499 37.0855 30.636 37.0855 30.6081V16.7765L28.9805 30.6918C28.9805 30.7058 28.9665 30.7197 28.9526 30.7197L28.9387 30.7337C28.9248 30.7476 28.8969 30.7616 28.8691 30.7755H28.8551C28.8412 30.7755 28.8273 30.7755 28.8134 30.7755H23.0201C23.0061 30.7755 22.9783 30.7755 22.9504 30.7616C22.9365 30.7616 22.9226 30.7476 22.9086 30.7337L22.8947 30.7197C22.8808 30.7058 22.8669 30.6918 22.8529 30.6639C22.839 30.636 22.839 30.622 22.839 30.5941L22.8251 30.6081ZM47.2099 30.6081V6.97858C47.2099 6.93671 47.2238 6.89484 47.2656 6.85297C47.2795 6.83901 47.2935 6.82505 47.3213 6.81109C47.3492 6.79714 47.3631 6.79714 47.3909 6.79714H64.5063C64.5202 6.79714 64.5341 6.79714 64.562 6.81109H64.5759C64.6038 6.82505 64.6177 6.82505 64.6316 6.85297C64.6455 6.86692 64.6595 6.88088 64.6595 6.89484V6.9088C64.6734 6.92275 64.6734 6.95067 64.6734 6.97858V11.5984C64.6734 11.6263 64.6734 11.6403 64.6595 11.6682C64.6595 11.6821 64.6455 11.6961 64.6455 11.7101L64.6316 11.724C64.6177 11.738 64.6038 11.7519 64.5898 11.7519L64.5759 11.7659C64.562 11.7798 64.5341 11.7798 64.5202 11.7798H53.3653V16.274H62.2224C62.2363 16.274 62.2502 16.2741 62.2781 16.288H62.292C62.3059 16.302 62.3338 16.3159 62.3477 16.3299C62.3616 16.3438 62.3756 16.3578 62.3756 16.3717V16.3857C62.3895 16.4136 62.3895 16.4276 62.3895 16.4555V21.0753C62.3895 21.1032 62.3895 21.1172 62.3756 21.1451C62.3616 21.173 62.3616 21.187 62.3477 21.2009C62.3338 21.2149 62.3059 21.2288 62.292 21.2428C62.2642 21.2568 62.2502 21.2568 62.2363 21.2568H53.3792V25.8487C54.549 25.8487 55.7606 25.8207 56.9861 25.8068C59.646 25.751 62.4034 25.7091 64.7987 25.8487H64.8127C64.8266 25.8487 64.8544 25.8626 64.8684 25.8626C64.8823 25.8766 64.8962 25.8905 64.9101 25.9045C64.9241 25.9184 64.938 25.9324 64.938 25.9464V25.9603C64.938 25.9743 64.9519 25.9882 64.9519 26.0022C64.9519 26.0999 64.938 26.2255 64.938 26.3232C64.8405 27.7608 64.743 29.2123 64.6595 30.636C64.6595 30.6499 64.6595 30.6639 64.6455 30.6778V30.6918C64.6316 30.7197 64.6177 30.7337 64.6038 30.7476C64.5898 30.7616 64.5759 30.7755 64.5481 30.7755C64.5202 30.7895 64.5063 30.7895 64.4784 30.7895H47.4049C47.3909 30.7895 47.377 30.7895 47.3492 30.7755H47.3352C47.3213 30.7616 47.3074 30.7616 47.2935 30.7476C47.2795 30.7337 47.2656 30.7197 47.2517 30.6918C47.2378 30.6639 47.2378 30.6499 47.2378 30.622L47.2099 30.6081ZM76.8867 20.7543H74.0875V25.8207H76.9145C77.2209 25.8207 77.4994 25.8068 77.7501 25.7789C78.0147 25.751 78.2515 25.7091 78.4743 25.6533C78.6971 25.5974 78.906 25.5277 79.101 25.4439C79.282 25.3602 79.463 25.2625 79.6023 25.1648C79.7555 25.0531 79.8808 24.9414 79.9922 24.8019C80.1037 24.6623 80.2011 24.5227 80.2708 24.3692C80.3404 24.2157 80.3961 24.0482 80.4379 23.8667C80.4797 23.6853 80.4936 23.4899 80.4936 23.2805C80.4936 23.0712 80.4797 22.8758 80.4379 22.6943C80.3961 22.5129 80.3404 22.3454 80.2708 22.1919C80.2011 22.0384 80.1037 21.8848 79.9922 21.7592C79.8808 21.6196 79.7555 21.508 79.6023 21.4103C79.4491 21.2986 79.282 21.2009 79.087 21.1311C78.8921 21.0474 78.6832 20.9776 78.4604 20.9218C78.2236 20.866 77.9869 20.8241 77.7223 20.7962C77.4577 20.7683 77.1791 20.7543 76.8728 20.7543H76.8867ZM74.0875 16.302H76.3157C76.5942 16.302 76.8449 16.288 77.0817 16.2601C77.3184 16.2322 77.5412 16.1903 77.7501 16.1484C77.959 16.0926 78.154 16.0228 78.335 15.953C78.5161 15.8693 78.6692 15.7856 78.8085 15.6878C78.9478 15.5901 79.0731 15.4785 79.1706 15.3529C79.282 15.2273 79.3656 15.0877 79.4352 14.9481C79.5048 14.7946 79.5605 14.6411 79.6023 14.4736C79.6441 14.3061 79.658 14.1246 79.658 13.9432C79.658 13.6361 79.6162 13.3151 79.463 13.0081C79.3516 12.7568 79.1706 12.5196 78.906 12.3242C78.6832 12.1567 78.3768 12.0171 78.0147 11.9194C77.6666 11.8357 77.2627 11.7798 76.7614 11.7798H74.1014V16.302H74.0875ZM67.96 30.622V6.99254C67.96 6.97858 67.96 6.96462 67.9739 6.93671V6.92275C67.9878 6.89484 68.0018 6.88088 68.0157 6.86692C68.0296 6.85297 68.0435 6.83901 68.0714 6.82505C68.0992 6.81109 68.1132 6.81109 68.141 6.81109H77.402C78.0565 6.81109 78.6553 6.83901 79.2124 6.9088C79.7973 6.97858 80.3404 7.07628 80.8278 7.2019C81.3431 7.32751 81.8026 7.495 82.2344 7.67644C82.68 7.87184 83.0699 8.09515 83.4181 8.34638C83.7941 8.61157 84.1144 8.90467 84.379 9.21173C84.6714 9.5467 84.9082 9.89563 85.0892 10.2585C85.2842 10.6493 85.4374 11.0541 85.5209 11.4588C85.6184 11.8915 85.6741 12.3381 85.6741 12.7568C85.6741 13.0499 85.6463 13.343 85.6045 13.6361C85.5627 13.9153 85.4931 14.1944 85.4095 14.4736C85.326 14.7388 85.2146 15.0039 85.0892 15.2552C84.9639 15.5064 84.8107 15.7437 84.6436 15.981C84.5043 16.1764 84.3372 16.3718 84.1562 16.5532C83.9751 16.7346 83.7941 16.9021 83.5852 17.0696C83.3763 17.2231 83.1535 17.3906 82.9167 17.5302C82.68 17.6698 82.4433 17.8093 82.1787 17.935C82.5129 18.0327 82.8332 18.1583 83.1396 18.2978C83.4459 18.4374 83.7384 18.5909 84.0169 18.7724C84.2954 18.9399 84.5461 19.1353 84.7968 19.3307C85.0335 19.5261 85.2563 19.7494 85.4513 19.9867C85.6602 20.2379 85.8691 20.5031 86.0362 20.7962C86.2033 21.0753 86.3426 21.3824 86.454 21.6894C86.5654 21.9965 86.649 22.3175 86.7047 22.6664C86.7604 23.0014 86.7882 23.3503 86.7882 23.7132C86.7882 24.2017 86.7325 24.7181 86.6211 25.2206C86.5097 25.6951 86.3426 26.1697 86.1198 26.6303C85.9109 27.0629 85.6463 27.4817 85.3121 27.8725C85.0057 28.2493 84.6436 28.5982 84.2258 28.9192C83.8359 29.2263 83.4042 29.4915 82.9167 29.7288C82.4572 29.9521 81.9419 30.1614 81.3849 30.315C80.8557 30.4685 80.2708 30.5801 79.6301 30.6639C79.0174 30.7476 78.3768 30.7755 77.6805 30.7755H68.1132C68.0992 30.7755 68.0853 30.7755 68.0575 30.7616H68.0435C68.0157 30.7476 68.0018 30.7337 67.9878 30.7197C67.9739 30.7058 67.96 30.6918 67.9461 30.6639C67.9321 30.636 67.9321 30.622 67.9321 30.5941L67.96 30.622ZM89.9495 25.9882C89.5456 25.3183 89.2114 24.6065 88.9468 23.8528C88.6822 23.0851 88.4733 22.2756 88.334 21.4382C88.1948 20.5868 88.1252 19.7075 88.1252 18.8143C88.1252 17.8931 88.1948 17.0138 88.334 16.1903C88.4733 15.3389 88.6961 14.5434 88.9747 13.8036C89.2532 13.0499 89.6153 12.3381 90.0191 11.6961C90.4369 11.0401 90.9243 10.44 91.4674 9.89563C92.0106 9.3513 92.6233 8.8628 93.2778 8.44408C93.9463 8.02537 94.6565 7.66248 95.4225 7.38334C96.1884 7.09024 96.9962 6.88088 97.8317 6.72735C98.6673 6.58778 99.5446 6.50404 100.45 6.50404C100.687 6.50404 100.951 6.50404 101.202 6.51799C101.453 6.53195 101.717 6.54591 101.968 6.57382C102.205 6.60174 102.469 6.62965 102.72 6.65757C102.97 6.68548 103.221 6.72735 103.472 6.76922C103.709 6.8111 103.959 6.86692 104.21 6.92275C104.461 6.97858 104.711 7.03441 104.948 7.1042C105.185 7.17398 105.435 7.24377 105.672 7.31355C105.909 7.3973 106.16 7.46708 106.382 7.56478L106.424 7.5927C106.438 7.60665 106.452 7.60665 106.452 7.62061C106.466 7.63457 106.466 7.64852 106.48 7.66248C106.48 7.67644 106.494 7.70435 106.494 7.71831L106.536 8.48595C106.605 9.68627 106.745 11.7938 106.717 12.1148C106.717 12.1288 106.717 12.1427 106.703 12.1567C106.703 12.1706 106.689 12.1846 106.689 12.1986L106.675 12.2265C106.661 12.2404 106.647 12.2544 106.633 12.2683C106.619 12.2823 106.591 12.2823 106.577 12.2823H106.563C106.55 12.2823 106.522 12.2823 106.508 12.2683C106.299 12.1986 106.076 12.1288 105.853 12.0729C105.63 12.0171 105.408 11.9473 105.199 11.9055C104.976 11.8496 104.753 11.8078 104.53 11.7519C104.307 11.7101 104.085 11.6682 103.862 11.6263C103.639 11.5844 103.416 11.5565 103.207 11.5286C102.998 11.5007 102.776 11.4728 102.567 11.4588C102.358 11.4449 102.149 11.4309 101.954 11.417C101.759 11.403 101.564 11.403 101.369 11.403C100.84 11.403 100.325 11.4449 99.8232 11.5147C99.3497 11.5844 98.904 11.7101 98.4723 11.8636C98.0545 12.0171 97.6785 12.2125 97.3165 12.4498C96.9683 12.6731 96.6619 12.9383 96.3695 13.2593C96.0909 13.5664 95.8403 13.9013 95.6314 14.2921C95.4225 14.669 95.2415 15.0877 95.1022 15.5483C94.9629 15.9949 94.8515 16.4834 94.7819 17.0277C94.7123 17.5442 94.6705 18.1164 94.6705 18.7305C94.6705 19.3446 94.7123 19.9308 94.7819 20.4612C94.8515 21.0055 94.9629 21.494 95.1161 21.9546C95.2693 22.4152 95.4503 22.8479 95.6732 23.2247C95.896 23.6155 96.1467 23.9505 96.4391 24.2575C96.7316 24.5646 97.0658 24.8298 97.4279 25.0671C97.8039 25.3043 98.2077 25.4858 98.6394 25.6393C99.0851 25.7928 99.5586 25.9045 100.06 25.9882C100.575 26.072 101.118 26.0999 101.703 26.0999C101.996 26.0999 102.274 26.0859 102.553 26.072C102.831 26.058 103.096 26.0301 103.36 25.9882C103.625 25.9464 103.89 25.9045 104.14 25.8487C104.405 25.7928 104.656 25.723 104.906 25.6533C105.157 25.5835 105.394 25.4997 105.644 25.402C105.895 25.3043 106.132 25.2066 106.368 25.1089C106.605 24.9973 106.842 24.8856 107.079 24.76C107.315 24.6344 107.552 24.5088 107.775 24.3692C107.789 24.3552 107.803 24.3552 107.817 24.3413C107.845 24.3413 107.859 24.3273 107.886 24.3273C107.9 24.3273 107.914 24.3273 107.942 24.3413H107.956C107.97 24.3552 107.998 24.3692 108.012 24.3832C108.026 24.3971 108.04 24.4111 108.04 24.439C108.054 24.4669 108.054 24.5088 108.068 24.5646C108.068 24.6065 108.081 24.6483 108.081 24.7042C108.095 24.8019 108.081 24.9135 108.081 24.9973C108.081 25.5695 107.914 26.5186 107.371 27.5096C106.981 28.2074 106.424 28.9192 105.589 29.5334C104.92 30.0219 104.071 30.4545 103.026 30.7476C102.107 30.9989 101.021 31.1524 99.7535 31.1524C98.8762 31.1524 98.0406 31.0826 97.2607 30.943C96.453 30.8035 95.701 30.5941 95.0047 30.315C94.2805 30.0358 93.626 29.6869 93.0133 29.2682C92.3866 28.8495 91.8295 28.361 91.3143 27.8306C90.799 27.2863 90.3394 26.6721 89.9495 26.0162V25.9882ZM110.435 30.622V6.99254C110.435 6.97858 110.435 6.96462 110.449 6.93671V6.92275C110.463 6.89484 110.477 6.88088 110.491 6.86692C110.505 6.85297 110.519 6.83901 110.546 6.82505C110.574 6.81109 110.588 6.81109 110.616 6.81109H116.409C116.451 6.81109 116.493 6.82505 116.535 6.86692C116.549 6.88088 116.562 6.89484 116.562 6.9088V6.92275C116.576 6.93671 116.576 6.96462 116.576 6.99254V30.622C116.576 30.636 116.576 30.6499 116.562 30.6778V30.6918C116.549 30.7058 116.549 30.7337 116.521 30.7476C116.507 30.7616 116.493 30.7755 116.465 30.7895C116.451 30.8035 116.423 30.8035 116.395 30.8035H110.602C110.574 30.8035 110.56 30.8035 110.532 30.7895C110.519 30.7895 110.505 30.7755 110.491 30.7616L110.477 30.7476C110.463 30.7337 110.449 30.7197 110.435 30.6918C110.421 30.6639 110.421 30.6499 110.421 30.622H110.435ZM118.721 20.7962C118.638 20.6147 118.568 20.4472 118.484 20.2937C118.401 20.1262 118.317 19.9867 118.248 19.8471C118.164 19.7075 118.094 19.5959 118.011 19.4702C117.927 19.3586 117.858 19.2609 117.774 19.1632C117.691 19.0655 117.621 18.9817 117.537 18.912C117.454 18.8422 117.37 18.7724 117.287 18.7166C117.203 18.6607 117.12 18.6049 117.036 18.563L117.008 18.5491C116.994 18.5351 116.98 18.5351 116.966 18.5212C116.952 18.5072 116.952 18.4932 116.939 18.4793C116.939 18.4653 116.925 18.4514 116.925 18.4374C116.925 18.4235 116.925 18.3955 116.925 18.3816C116.939 18.3537 116.939 18.3397 116.952 18.3118C116.966 18.2978 116.98 18.2839 116.994 18.2839C117.008 18.2699 117.036 18.2699 117.064 18.2699C117.579 18.2281 118.067 18.2001 118.526 18.2141C118.986 18.2141 119.431 18.256 119.849 18.3118C120.267 18.3676 120.671 18.4514 121.047 18.5491C121.423 18.6468 121.785 18.7724 122.119 18.912C122.453 19.0515 122.774 19.219 123.08 19.4005C123.386 19.5819 123.665 19.7913 123.929 20.0006C124.194 20.2239 124.445 20.4612 124.681 20.6985C124.918 20.9497 125.127 21.2149 125.336 21.494C125.963 22.3454 126.464 23.2945 126.965 24.2157C127.188 24.6344 127.411 25.0531 127.634 25.4299C127.857 25.8207 128.079 26.1836 128.33 26.5326C128.483 26.7419 128.623 26.9373 128.776 27.1188C128.929 27.3002 129.082 27.4817 129.221 27.6352C129.375 27.8027 129.528 27.9562 129.681 28.0818C129.834 28.2214 129.987 28.347 130.141 28.4587C130.294 28.5703 130.447 28.682 130.586 28.7657C130.739 28.8495 130.893 28.9332 131.032 29.003C131.185 29.0728 131.338 29.1286 131.477 29.1705C131.631 29.2123 131.77 29.2403 131.923 29.2542C131.937 29.2542 131.951 29.2542 131.965 29.2682H131.979C131.993 29.2682 132.007 29.2821 132.021 29.2961C132.035 29.31 132.048 29.324 132.062 29.338C132.076 29.3519 132.076 29.3798 132.076 29.4077C132.076 29.4357 132.076 29.4496 132.062 29.4775C132.062 29.4915 132.048 29.5054 132.048 29.5194L132.035 29.5334C131.881 29.6869 131.728 29.8404 131.547 29.966H131.533C131.338 30.1056 131.143 30.2173 130.92 30.3289C130.725 30.4266 130.517 30.5104 130.308 30.5801C130.071 30.6639 129.848 30.7197 129.611 30.7755C129.402 30.8174 129.194 30.8593 128.999 30.8872C128.776 30.9151 128.553 30.943 128.344 30.9709C128.149 30.9849 127.968 30.9989 127.801 30.9989C127.62 30.9989 127.467 31.0128 127.341 31.0128C127.063 31.0128 126.798 30.9989 126.548 30.9849C126.297 30.9709 126.06 30.9291 125.837 30.9012C125.615 30.8593 125.392 30.8174 125.197 30.7616C124.988 30.7058 124.793 30.636 124.612 30.5522C124.431 30.4824 124.25 30.3847 124.083 30.301C123.916 30.2033 123.748 30.1056 123.595 29.98C123.442 29.8683 123.289 29.7427 123.15 29.6031C123.01 29.4636 122.871 29.324 122.732 29.1844L122.718 29.1705C121.994 28.361 121.395 27.3281 120.894 26.2534C120.392 25.1648 119.974 24.0482 119.598 23.0293L119.278 22.164L119.125 21.7732L118.972 21.3963C118.888 21.187 118.805 20.9916 118.721 20.8241V20.7962ZM121.256 16.0787C120.643 16.2043 120.016 16.288 119.348 16.3299H119.32C119.306 16.3299 119.278 16.3159 119.264 16.302L119.236 16.274C119.222 16.2601 119.208 16.2322 119.195 16.2182C119.181 16.1903 119.181 16.1763 119.181 16.1484C119.181 16.1205 119.181 16.1066 119.195 16.0787C119.208 16.0647 119.208 16.0368 119.222 16.0228C119.529 15.7158 119.807 15.3947 120.072 15.0598C120.35 14.7248 120.615 14.3619 120.866 14.013C121.13 13.6361 121.367 13.2593 121.59 12.8825C121.827 12.4917 122.036 12.0869 122.23 11.6961C122.425 11.2774 122.606 10.8726 122.774 10.4679C122.941 10.0492 123.08 9.63044 123.191 9.23964C123.317 8.83488 123.414 8.43013 123.484 8.05328C123.553 7.67644 123.609 7.31355 123.623 6.99254V6.97858C123.623 6.96462 123.623 6.95067 123.637 6.92275V6.9088C123.651 6.88088 123.665 6.86692 123.679 6.85297C123.693 6.83901 123.707 6.82505 123.721 6.82505H123.735C123.748 6.81109 123.776 6.81109 123.79 6.81109H124.709C126.339 6.81109 129.5 6.79714 130.085 6.82505C130.113 6.81109 130.141 6.81109 130.168 6.82505C130.182 6.82505 130.196 6.83901 130.224 6.85297C130.238 6.86692 130.266 6.89484 130.28 6.9088C130.294 6.92275 130.294 6.95067 130.294 6.96462C130.294 6.97858 130.294 6.99254 130.294 7.02045V7.03441C130.099 7.70435 129.876 8.36034 129.597 8.97446C129.333 9.58857 129.026 10.1887 128.678 10.747C128.33 11.3053 127.954 11.8217 127.536 12.3102C127.132 12.7848 126.687 13.2314 126.199 13.6501C125.726 14.0549 125.239 14.4038 124.695 14.7248C124.18 15.0319 123.623 15.311 123.038 15.5343C122.467 15.7576 121.868 15.9391 121.256 16.0647V16.0787ZM142.549 15.1575L146.699 8.02537C146.866 7.76018 147.033 7.53687 147.172 7.34147C147.312 7.14607 147.437 6.99254 147.548 6.86692C147.562 6.83901 147.59 6.82505 147.618 6.82505H147.632C147.646 6.82505 147.66 6.82505 147.674 6.82505H153.467C153.481 6.82505 153.495 6.82505 153.523 6.83901H153.537C153.551 6.85297 153.578 6.85297 153.592 6.88088C153.606 6.89484 153.606 6.90879 153.62 6.92275V6.93671C153.634 6.95067 153.634 6.97858 153.634 7.0065V30.636C153.634 30.6639 153.634 30.6778 153.62 30.7058C153.62 30.7197 153.606 30.7337 153.606 30.7337L153.592 30.7476C153.578 30.7616 153.564 30.7755 153.551 30.7755L153.537 30.7895C153.523 30.8035 153.495 30.8035 153.481 30.8035H147.688C147.674 30.8035 147.66 30.8035 147.632 30.7895H147.618C147.59 30.7755 147.576 30.7616 147.562 30.7476C147.548 30.7337 147.534 30.7197 147.534 30.7058V30.6918C147.52 30.6639 147.52 30.6499 147.52 30.622V16.7905C146.643 18.2978 145.835 19.6936 145.042 21.0753C143.176 24.2994 141.309 27.5235 139.415 30.7197L139.402 30.7476C139.388 30.7616 139.374 30.7755 139.36 30.7755C139.346 30.7895 139.332 30.7895 139.318 30.7895C139.304 30.7895 139.29 30.7895 139.276 30.7895H133.483C133.469 30.7895 133.455 30.7895 133.427 30.7755H133.413C133.399 30.7616 133.371 30.7476 133.358 30.7337C133.344 30.7197 133.33 30.7058 133.316 30.6778C133.302 30.6499 133.302 30.636 133.302 30.6081V6.97858C133.302 6.96462 133.302 6.95067 133.316 6.92275V6.9088C133.33 6.88088 133.344 6.86692 133.358 6.85297C133.371 6.83901 133.385 6.82505 133.413 6.81109C133.441 6.79714 133.455 6.79714 133.483 6.79714H139.276C139.29 6.79714 139.304 6.79714 139.332 6.81109H139.346C139.36 6.82505 139.388 6.82505 139.402 6.85297C139.415 6.86692 139.429 6.88088 139.429 6.89484V6.9088C139.443 6.92275 139.443 6.95067 139.443 6.97858V20.8101C139.889 20.0285 140.502 18.912 141.198 17.6558C141.616 16.9021 142.061 16.0926 142.577 15.1714V15.1575H142.549ZM157.673 30.622V6.99254C157.673 6.97858 157.673 6.95067 157.687 6.92275C157.701 6.89484 157.701 6.88088 157.714 6.86692C157.728 6.85297 157.756 6.83901 157.77 6.82505C157.798 6.81109 157.812 6.81109 157.826 6.81109H163.619C163.633 6.81109 163.647 6.81109 163.675 6.82505H163.689C163.703 6.83901 163.731 6.83901 163.745 6.86692C163.758 6.88088 163.772 6.89484 163.772 6.9088V6.92275C163.786 6.93671 163.786 6.96462 163.786 6.99254V20.8241C164.204 20.0983 164.775 19.0515 165.444 17.8512C166.015 16.8184 166.655 15.6739 167.254 14.5992C168.298 12.6591 169.802 10.0073 171 8.1789C171.195 7.87184 171.376 7.60665 171.529 7.38334C171.683 7.17398 171.822 6.99254 171.919 6.88088C171.933 6.85297 171.961 6.83901 172.003 6.83901C172.017 6.83901 172.031 6.83901 172.045 6.83901H177.838C177.852 6.83901 177.866 6.83901 177.894 6.85297H177.908C177.935 6.86692 177.949 6.86692 177.963 6.89484C177.977 6.9088 177.991 6.92275 178.005 6.95067C178.019 6.97858 178.019 6.99254 178.019 7.02045V30.6499C178.019 30.6639 178.019 30.6778 178.005 30.7058V30.7197C177.991 30.7337 177.977 30.7616 177.963 30.7755C177.949 30.7895 177.935 30.8035 177.908 30.8174C177.894 30.8314 177.866 30.8314 177.838 30.8314H172.045C172.031 30.8314 172.017 30.8314 171.989 30.8174H171.975C171.961 30.8035 171.933 30.8035 171.933 30.7895C171.919 30.7755 171.905 30.7616 171.891 30.7337C171.877 30.7058 171.877 30.6918 171.877 30.6639V16.8323C171.418 17.6419 170.791 18.7724 170.095 20.0564C169.719 20.7403 169.315 21.4661 168.842 22.3315C167.727 24.4809 165.889 27.6491 164.58 29.659C164.413 29.9102 164.26 30.1335 164.121 30.315C163.981 30.5104 163.856 30.6639 163.745 30.7895C163.731 30.8174 163.703 30.8314 163.675 30.8314C163.661 30.8314 163.647 30.8314 163.633 30.8314H157.84C157.826 30.8314 157.812 30.8314 157.784 30.8174H157.77C157.756 30.8035 157.728 30.7895 157.714 30.7755C157.701 30.7616 157.687 30.7476 157.687 30.7337V30.7197C157.673 30.6918 157.673 30.6778 157.673 30.6499V30.622ZM166.934 5.24789C166.558 5.19206 166.209 5.12228 165.861 5.02458C165.527 4.92688 165.221 4.80126 164.914 4.64773C164.622 4.49421 164.357 4.32672 164.093 4.11736C163.842 3.92196 163.605 3.69865 163.396 3.44742C163.187 3.19619 163.006 2.931 162.839 2.62395C162.672 2.33084 162.533 2.00983 162.408 1.6609C162.282 1.32593 162.185 0.949086 162.101 0.558286V0.530371C162.101 0.516414 162.101 0.488501 162.115 0.474544C162.115 0.460587 162.129 0.432672 162.143 0.418715C162.157 0.404758 162.171 0.3908 162.199 0.376843C162.213 0.362886 162.241 0.362887 162.254 0.362887C163.174 0.362887 164.9 0.111657 165.875 0C165.889 0 165.903 0 165.931 0H165.945C165.959 0 165.973 0.0139575 165.987 0.0139575L166.001 0.0279136C166.015 0.0418708 166.015 0.0418714 166.028 0.0558286L166.042 0.0837422C166.056 0.0976994 166.056 0.125615 166.056 0.139572C166.084 0.293101 166.112 0.460587 166.168 0.628073C166.209 0.781602 166.265 0.935131 166.335 1.0747C166.391 1.21427 166.46 1.33989 166.544 1.4655C166.613 1.57716 166.697 1.68882 166.794 1.78652C166.878 1.87026 166.975 1.954 167.073 2.03774C167.17 2.10753 167.282 2.16336 167.393 2.21919C167.505 2.26106 167.616 2.30293 167.741 2.33085C167.867 2.35876 167.992 2.37272 168.131 2.37272C168.271 2.37272 168.396 2.35876 168.521 2.33085C168.647 2.30293 168.758 2.27502 168.869 2.23315C168.981 2.19127 169.092 2.12149 169.19 2.06566C169.287 1.99587 169.385 1.91213 169.468 1.82839C169.566 1.73069 169.649 1.61903 169.719 1.50737C169.802 1.38176 169.872 1.25614 169.928 1.11657C169.997 0.977 170.039 0.823472 170.081 0.669943C170.137 0.502457 170.165 0.334972 170.192 0.181443V0.167486C170.192 0.139571 170.206 0.125614 170.206 0.111657C170.22 0.0977 170.234 0.0697858 170.248 0.0558286C170.262 0.0418714 170.29 0.0279136 170.304 0.0279136C170.318 0.0279136 170.346 0.0139565 170.359 0.0279136L171.571 0.153528C172.365 0.237271 173.159 0.321014 173.98 0.3908H173.994C174.008 0.3908 174.036 0.404758 174.05 0.418715L174.078 0.446629L174.092 0.474544C174.106 0.488501 174.106 0.516414 174.12 0.530371C174.12 0.544328 174.12 0.558287 174.12 0.586201V0.600158C174.036 0.990959 173.939 1.3678 173.813 1.70277C173.688 2.0517 173.549 2.37272 173.382 2.66582C173.214 2.95892 173.019 3.23806 172.811 3.48929C172.602 3.74052 172.365 3.96383 172.114 4.15923C171.864 4.35463 171.585 4.53608 171.293 4.68961C171 4.84314 170.68 4.96875 170.346 5.06645C170.011 5.16415 169.649 5.24789 169.273 5.28976C168.883 5.34559 168.493 5.35955 168.076 5.35955C167.672 5.35955 167.268 5.33163 166.892 5.28976L166.934 5.24789ZM0.167115 6.81109H5.96042C5.97435 6.81109 5.98828 6.81109 6.01613 6.82505H6.03006C6.04398 6.83901 6.07183 6.83901 6.08576 6.86692C6.09969 6.88088 6.11361 6.89484 6.11361 6.9088V6.92275C6.12754 6.93671 6.12754 6.96462 6.12754 6.99254V30.622C6.12754 30.6499 6.12754 30.6639 6.11361 30.6918C6.11361 30.7058 6.09969 30.7197 6.09969 30.7197L6.08576 30.7337C6.07183 30.7476 6.05791 30.7616 6.04398 30.7616L6.03006 30.7755C6.01613 30.7895 5.98828 30.7895 5.97435 30.7895H0.181041C0.139262 30.7895 0.0974836 30.7755 0.0557049 30.7337C0.0417787 30.7197 0.0278524 30.7058 0.0139262 30.6778C0 30.6499 0 30.636 0 30.6081V6.97858C0 6.96462 0 6.95067 0.0139262 6.92275V6.9088C0.0278524 6.88088 0.0417787 6.86692 0.0557049 6.85297C0.0696311 6.83901 0.0835574 6.82505 0.11141 6.81109C0.125336 6.79714 0.153188 6.79714 0.181041 6.79714L0.167115 6.81109Z" fill="#B98D75"/>
</svg>
