<svg width="38" height="38" viewBox="0 0 38 38" fill="none" xmlns="http://www.w3.org/2000/svg">
<g opacity="0.5" clip-path="url(#clip0_6_91149)">
<path fill-rule="evenodd" clip-rule="evenodd" d="M18.9987 2.5835C9.93202 2.5835 2.58203 9.93349 2.58203 19.0002C2.58203 28.0668 9.93202 35.4168 18.9987 35.4168C28.0654 35.4168 35.4154 28.0668 35.4154 19.0002C35.4154 9.93349 28.0654 2.5835 18.9987 2.5835ZM0.582031 19.0002C0.582032 8.82892 8.82746 0.583495 18.9987 0.583496C29.1699 0.583497 37.4154 8.82892 37.4154 19.0002C37.4154 29.1714 29.1699 37.4168 18.9987 37.4168C8.82745 37.4168 0.58203 29.1714 0.582031 19.0002ZM13.5679 10.6124C13.2721 10.4628 12.9227 10.4628 12.6269 10.6124C12.5141 10.6694 12.3755 10.7903 11.7772 11.3886L11.6162 11.5496C11.0448 12.121 10.8881 12.2887 10.7631 12.5112C10.6185 12.7687 10.4978 13.2326 10.4987 13.528C10.4995 13.791 10.5387 13.9501 10.7074 14.5443C11.5412 17.4822 13.1143 20.2547 15.4292 22.5696C17.7442 24.8846 20.5167 26.4576 23.4546 27.2915C24.0488 27.4601 24.2079 27.4994 24.4708 27.5002C24.7662 27.501 25.2301 27.3804 25.4877 27.2357C25.7102 27.1107 25.8778 26.9541 26.4493 26.3827L26.6102 26.2217L27.3174 26.9288L26.6102 26.2217C27.2085 25.6234 27.3294 25.4847 27.3865 25.3719C27.5361 25.0761 27.5361 24.7268 27.3865 24.431C27.3294 24.3182 27.2085 24.1795 26.6102 23.5812L27.2388 22.9527L26.6102 23.5812L26.4112 23.3822C26.0181 22.9891 25.9277 22.9064 25.8582 22.8612C25.5127 22.6366 25.0673 22.6366 24.7218 22.8612C24.6523 22.9064 24.5619 22.9891 24.1688 23.3822C24.161 23.39 24.1531 23.398 24.145 23.4061C24.0531 23.4982 23.9384 23.6134 23.8005 23.7121C23.3085 24.0644 22.6392 24.1786 22.0582 24.0092C21.8962 23.962 21.7629 23.8977 21.6579 23.8471C21.6496 23.8431 21.6415 23.8393 21.6336 23.8355C20.0529 23.0765 18.5724 22.0423 17.2645 20.7344C15.9565 19.4264 14.9223 17.9459 14.1634 16.3652L15.0649 15.9324L14.1634 16.3652C14.1596 16.3573 14.1557 16.3492 14.1517 16.341C14.1011 16.236 14.0369 16.1027 13.9896 15.9407L14.7922 15.7067L13.9896 15.9407C13.8203 15.3597 13.9344 14.6903 14.2867 14.1983L15.0854 14.7702L14.2867 14.1983C14.3854 14.0605 14.5006 13.9457 14.5927 13.8539C14.6009 13.8458 14.6089 13.8378 14.6166 13.8301C15.0098 13.4369 15.0924 13.3465 15.1376 13.277L15.911 13.7799L15.1376 13.277C15.3622 12.9315 15.3622 12.4861 15.1376 12.1406C15.0924 12.0712 15.0098 11.9807 14.6166 11.5876L14.4176 11.3886C13.8193 10.7903 13.6807 10.6694 13.5679 10.6124ZM11.7242 8.82768C12.5876 8.39099 13.6072 8.39099 14.4706 8.82768C14.9092 9.04951 15.2903 9.43154 15.735 9.87735C15.7669 9.90938 15.7992 9.94174 15.8319 9.9744L16.0309 10.1734C16.0524 10.1949 16.0737 10.2162 16.0948 10.2372C16.3882 10.5302 16.6387 10.7803 16.8144 11.0504L15.976 11.5955L16.8144 11.0504C17.47 12.0588 17.47 13.3588 16.8144 14.3672C16.6387 14.6374 16.3882 14.8875 16.0947 15.1805C16.0737 15.2015 16.0524 15.2228 16.0309 15.2443C15.9686 15.3066 15.9383 15.337 15.9169 15.3598C15.916 15.3632 15.9149 15.3675 15.9141 15.3723C15.9132 15.3775 15.9128 15.3821 15.9126 15.3857C15.9162 15.3938 15.9214 15.4052 15.9292 15.4217C15.939 15.4427 15.9506 15.4668 15.9664 15.4996C16.6289 16.8796 17.5325 18.174 18.6787 19.3202C19.8249 20.4663 21.1193 21.3699 22.4993 22.0325C22.5321 22.0483 22.5562 22.0598 22.5772 22.0697C22.5937 22.0775 22.605 22.0827 22.6131 22.0863C22.6168 22.0861 22.6214 22.0856 22.6265 22.0848C22.6314 22.0839 22.6356 22.0829 22.6391 22.0819C22.6619 22.0605 22.6923 22.0303 22.7546 21.968C22.7761 21.9465 22.7974 21.9252 22.8184 21.9041C23.1114 21.6107 23.3615 21.3601 23.6316 21.1845C24.64 20.5289 25.94 20.5289 26.9484 21.1845C27.2185 21.3601 27.4687 21.6107 27.7616 21.9041C27.7827 21.9252 27.804 21.9465 27.8255 21.968L27.1826 22.6108L27.8255 21.968L28.0245 22.167L27.3174 22.8741L28.0245 22.167C28.0571 22.1997 28.0895 22.232 28.1215 22.2639C28.5673 22.7086 28.9493 23.0897 29.1712 23.5283C29.6079 24.3916 29.6079 25.4113 29.1712 26.2746C28.9493 26.7132 28.5673 27.0943 28.1215 27.539C28.0895 27.571 28.0571 27.6032 28.0245 27.6359L27.8635 27.7969L27.1564 27.0898L27.8635 27.7969C27.8405 27.8199 27.8177 27.8427 27.7952 27.8652C27.3192 28.3416 26.9569 28.7044 26.4672 28.9794C25.9088 29.2931 25.1054 29.5021 24.4649 29.5001C23.9043 29.4985 23.4958 29.3824 22.9653 29.2316C22.9465 29.2263 22.9276 29.2209 22.9085 29.2155C19.6509 28.2909 16.5773 26.5461 14.015 23.9838C11.4528 21.4216 9.70796 18.3479 8.78337 15.0904C8.77795 15.0713 8.77258 15.0524 8.76725 15.0336C8.61647 14.5031 8.50038 14.0946 8.49871 13.534C8.49681 12.8935 8.70573 12.0901 9.01942 11.5317L9.86054 12.0042L9.01942 11.5317C9.29449 11.042 9.65723 10.6796 10.1336 10.2037C10.1562 10.1812 10.179 10.1584 10.202 10.1354L10.363 9.9744L11.0701 10.6815L10.363 9.9744C10.3956 9.94174 10.4279 9.90938 10.4598 9.87735C10.9046 9.43154 11.2856 9.04951 11.7242 8.82768Z" fill="#B98D75"/>
</g>
<defs>
<clipPath id="clip0_6_91149">
<rect width="38" height="38" fill="white"/>
</clipPath>
</defs>
</svg>
