<svg width="27" height="27" viewBox="0 0 27 27" fill="none" xmlns="http://www.w3.org/2000/svg">
<path fill-rule="evenodd" clip-rule="evenodd" d="M25.2645 20.2776C25.5785 20.8984 25.5785 21.6314 25.2645 22.2522C25.1158 22.5463 24.8339 22.837 24.092 23.5789L23.8802 23.7907C23.1533 24.5177 22.8489 24.8166 22.4377 25.0476C21.9761 25.3069 21.2272 25.5016 20.6978 25.5001C20.2223 25.4986 19.9076 25.4123 19.1403 25.1945C15.1442 24.0603 11.3734 21.9204 8.2265 18.7736C5.07962 15.6267 2.93977 11.8558 1.80557 7.8598C1.58778 7.09245 1.50142 6.7778 1.50001 6.3023C1.49843 5.77287 1.69319 5.02399 1.95249 4.5624C2.18348 4.1512 2.4824 3.84677 3.20934 3.11983L3.42115 2.90802C4.16304 2.16613 4.45375 1.88431 4.74788 1.73554C5.36862 1.42157 6.10168 1.42157 6.72242 1.73554C7.01655 1.88431 7.30726 2.16613 8.04914 2.90801L8.31099 3.16985C8.7988 3.65767 8.98577 3.84851 9.10356 4.02968C9.57494 4.75468 9.57494 5.68933 9.10356 6.41433C8.98577 6.5955 8.7988 6.78634 8.31099 7.27415C8.30356 7.28158 8.29621 7.28892 8.28895 7.29618C8.1565 7.42853 8.05203 7.53291 7.96333 7.65679C7.64554 8.1006 7.53957 8.72208 7.69233 9.24613C7.73491 9.3922 7.79177 9.51053 7.86283 9.65841L7.87317 9.67994C8.83247 11.6779 10.14 13.5501 11.795 15.2051C13.45 16.8601 15.3221 18.1676 17.3201 19.1269C17.3274 19.1304 17.3345 19.1338 17.3416 19.1372C17.4895 19.2083 17.6079 19.2652 17.7539 19.3077C18.278 19.4605 18.8995 19.3545 19.3433 19.0367C19.4671 18.948 19.5715 18.8436 19.7039 18.7111C19.7111 18.7038 19.7185 18.6965 19.7259 18.6891C20.2137 18.2013 20.4046 18.0143 20.5857 17.8965C21.3107 17.4251 22.2454 17.4251 22.9704 17.8965C23.1515 18.0143 23.3424 18.2013 23.8302 18.6891L24.092 18.9509C24.8339 19.6928 25.1158 19.9835 25.2645 20.2776ZM26.1569 22.7035C26.6144 21.799 26.6144 20.7308 26.1569 19.8263C25.9263 19.3704 25.5162 18.9605 24.8719 18.3166C24.848 18.2926 24.8237 18.2684 24.7992 18.2438L24.5373 17.982C24.5211 17.9658 24.5052 17.9499 24.4895 17.9341C24.0656 17.5101 23.7963 17.2407 23.5155 17.0581C22.459 16.3713 21.0971 16.3713 20.0406 17.0581C19.7599 17.2407 19.4905 17.5101 19.0667 17.9341C19.0509 17.9498 19.035 17.9658 19.0188 17.982C18.8546 18.1462 18.81 18.1887 18.7611 18.2237C18.5668 18.3628 18.2632 18.4146 18.0338 18.3477C17.9749 18.3305 17.9299 18.3104 17.7529 18.2254C15.8553 17.3143 14.0762 16.0721 12.5021 14.498C10.928 12.9239 9.68577 11.1448 8.77465 9.24711C8.68968 9.07012 8.66955 9.02519 8.65237 8.96627C8.58551 8.7369 8.63729 8.43323 8.77638 8.23898C8.81139 8.19009 8.85388 8.14547 9.0181 7.98126C9.03428 7.96507 9.05025 7.94911 9.066 7.93336C9.48995 7.50955 9.75938 7.24019 9.94194 6.95942C10.6288 5.90297 10.6288 4.54103 9.94194 3.48459C9.75938 3.2038 9.48994 2.93445 9.06598 2.51062L9.01809 2.46274L8.75624 2.2009C8.73166 2.17632 8.70741 2.15206 8.68349 2.12812C8.03955 1.48388 7.62962 1.07376 7.17377 0.843187C6.26925 0.385685 5.20105 0.385685 4.29653 0.843187C3.84067 1.07376 3.43074 1.48388 2.7868 2.12814C2.76288 2.15207 2.73863 2.17632 2.71405 2.2009L2.50224 2.41271L2.45711 2.45783C1.78794 3.12689 1.38634 3.52841 1.08063 4.07264C0.736824 4.68467 0.497925 5.60329 0.500015 6.30527C0.501871 6.92923 0.62668 7.36886 0.833286 8.09661L0.843573 8.13284C2.02313 12.2887 4.24886 16.2101 7.5194 19.4807C10.7899 22.7512 14.7114 24.9769 18.8672 26.1565L18.9034 26.1668C19.6312 26.3734 20.0708 26.4982 20.6948 26.5C21.3968 26.5021 22.3154 26.2632 22.9274 25.9194C23.4716 25.6137 23.8732 25.2121 24.5422 24.543C24.5571 24.5281 24.5722 24.513 24.5873 24.4978C24.5873 24.4978 24.5873 24.4978 24.5873 24.4978L24.7992 24.286C24.8237 24.2614 24.848 24.2372 24.8719 24.2133C25.5162 23.5693 25.9263 23.1594 26.1569 22.7035Z" fill="#C6CBD8"/>
</svg>
