<svg width="32" height="32" viewBox="0 0 32 32" fill="none" xmlns="http://www.w3.org/2000/svg">
<path fill-rule="evenodd" clip-rule="evenodd" d="M16 8.28564C16.2761 8.28564 16.5 8.5095 16.5 8.78564V15.0052L20.2095 18.7147C20.4048 18.91 20.4048 19.2266 20.2095 19.4218C20.0143 19.6171 19.6977 19.6171 19.5024 19.4218L15.6464 15.5658C15.5527 15.4721 15.5 15.3449 15.5 15.2123V8.78564C15.5 8.5095 15.7239 8.28564 16 8.28564Z" fill="#B98D75"/>
<path fill-rule="evenodd" clip-rule="evenodd" d="M16.2145 4.28564C9.7484 4.28564 4.5 9.53405 4.5 16.0001C4.5 22.4737 9.7482 27.7146 16.2145 27.7146C22.6807 27.7146 27.9289 22.4737 27.9289 16.0001C27.9289 9.53405 22.6805 4.28564 16.2145 4.28564ZM3.5 16.0001C3.5 8.98177 9.19612 3.28564 16.2145 3.28564C23.2328 3.28564 28.9289 8.98177 28.9289 16.0001C28.9289 23.0264 23.2326 28.7146 16.2145 28.7146C9.19632 28.7146 3.5 23.0264 3.5 16.0001Z" fill="#B98D75"/>
</svg>
