<svg width="22" height="22" viewBox="0 0 22 22" fill="none" xmlns="http://www.w3.org/2000/svg">
<path fill-rule="evenodd" clip-rule="evenodd" d="M9.6873 4.30957C6.69578 4.30957 4.27148 6.73387 4.27148 9.72539C4.27148 12.7169 6.69578 15.1412 9.6873 15.1412C12.6788 15.1412 15.1031 12.7169 15.1031 9.72539C15.1031 6.73387 12.6788 4.30957 9.6873 4.30957ZM2.27148 9.72539C2.27148 5.6293 5.59121 2.30957 9.6873 2.30957C13.7834 2.30957 17.1031 5.6293 17.1031 9.72539C17.1031 13.8215 13.7834 17.1412 9.6873 17.1412C5.59121 17.1412 2.27148 13.8215 2.27148 9.72539Z" fill="#617085"/>
<path fill-rule="evenodd" clip-rule="evenodd" d="M13.5605 13.6034C13.951 13.2129 14.5842 13.2129 14.9747 13.6034L18.6402 17.269C19.0307 17.6595 19.0307 18.2927 18.6402 18.6832C18.2497 19.0737 17.6165 19.0737 17.226 18.6832L13.5605 15.0177C13.1699 14.6271 13.1699 13.994 13.5605 13.6034Z" fill="#617085"/>
</svg>
