<svg width="35" height="16" viewBox="0 0 35 16" fill="none" xmlns="http://www.w3.org/2000/svg">
<path fill-rule="evenodd" clip-rule="evenodd" d="M0 8.05127C0 7.49898 0.447715 7.05127 1 7.05127H33C33.5523 7.05127 34 7.49898 34 8.05127C34 8.60355 33.5523 9.05127 33 9.05127H1C0.447715 9.05127 0 8.60355 0 8.05127Z" fill="white"/>
<path fill-rule="evenodd" clip-rule="evenodd" d="M26.0429 0.292893C26.4334 -0.0976311 27.0666 -0.0976311 27.4571 0.292893L34.3321 7.16789C34.7226 7.55842 34.7226 8.19158 34.3321 8.58211L27.4571 15.4571C27.0666 15.8476 26.4334 15.8476 26.0429 15.4571C25.6524 15.0666 25.6524 14.4334 26.0429 14.0429L32.2108 7.875L26.0429 1.70711C25.6524 1.31658 25.6524 0.683417 26.0429 0.292893Z" fill="white"/>
</svg>
