<svg width="24" height="24" viewBox="0 0 24 24" fill="none" xmlns="http://www.w3.org/2000/svg">
<g clip-path="url(#clip0_6_91098)">
<path fill-rule="evenodd" clip-rule="evenodd" d="M3.55404 1.63965C2.49729 1.63965 1.64062 2.49631 1.64062 3.55306V20.4469C1.64062 21.5037 2.49729 22.3604 3.55404 22.3604H20.4479C21.5047 22.3604 22.3613 21.5037 22.3613 20.4469V3.55306C22.3613 2.49631 21.5047 1.63965 20.4479 1.63965H3.55404ZM0.640625 3.55306C0.640625 1.94403 1.945 0.639648 3.55404 0.639648H20.4479C22.0569 0.639648 23.3613 1.94403 23.3613 3.55306V20.4469C23.3613 22.056 22.0569 23.3604 20.4479 23.3604H3.55404C1.945 23.3604 0.640625 22.056 0.640625 20.4469V3.55306Z" fill="#B98D75"/>
<path fill-rule="evenodd" clip-rule="evenodd" d="M7.88086 5.96649C7.88086 5.69035 8.10472 5.46649 8.38086 5.46649H13.2077C14.3004 5.46649 15.3484 5.90057 16.121 6.67325C16.8937 7.44592 17.3278 8.49389 17.3278 9.58661C17.3278 10.6793 16.8937 11.7273 16.121 12.5C15.3484 13.2726 14.3004 13.7067 13.2077 13.7067H8.88086V18.0336C8.88086 18.3097 8.657 18.5336 8.38086 18.5336C8.10472 18.5336 7.88086 18.3097 7.88086 18.0336V5.96649ZM8.88086 12.7067H13.2077C14.0352 12.7067 14.8288 12.378 15.4139 11.7929C15.9991 11.2077 16.3278 10.4141 16.3278 9.58661C16.3278 8.7591 15.9991 7.96549 15.4139 7.38035C14.8288 6.79522 14.0352 6.46649 13.2077 6.46649H8.88086V12.7067Z" fill="#B98D75"/>
</g>
<defs>
<clipPath id="clip0_6_91098">
<rect width="24" height="24" fill="white"/>
</clipPath>
</defs>
</svg>
