<svg width="36" height="36" viewBox="0 0 36 36" fill="none" xmlns="http://www.w3.org/2000/svg">
<path d="M22.15 23.6C22.15 23.6 27.75 17.9585 27.75 14.9846C27.75 12.9915 26.6238 11.2514 24.95 10.3204M22.15 23.6C22.15 23.6 21.5536 22.9991 20.75 22.0862M22.15 23.6V27.8M13.75 25V32M20.75 11C20.75 14.866 13.75 22.2 13.75 22.2C13.75 22.2 6.75 14.866 6.75 11C6.75 7.13401 9.88401 4 13.75 4C17.616 4 20.75 7.13401 20.75 11ZM13.255 22.695L12.145 23.805C11.704 24.246 12.0163 25 12.6399 25H14.8601C15.4837 25 15.796 24.246 15.355 23.805L14.245 22.695C13.9716 22.4216 13.5284 22.4216 13.255 22.695Z" stroke="#B98D75" stroke-width="2" stroke-linecap="round"/>
</svg>
