<svg width="36" height="36" viewBox="0 0 36 36" fill="none" xmlns="http://www.w3.org/2000/svg">
<path fill-rule="evenodd" clip-rule="evenodd" d="M11.6689 5.19005C12.2404 4.8472 12.9773 4.97963 13.3935 5.49999L12.6127 6.12469L13.3935 5.49999C15.6463 8.31592 19.9291 8.31592 22.1819 5.49999C22.5982 4.97963 23.3351 4.8472 23.9065 5.19005L28.7896 8.11993C30.0852 8.89731 30.7736 10.388 30.5252 11.8784L29.7637 16.4479C29.5303 17.848 27.9105 18.4551 26.8216 17.6545V27.3223C26.8216 29.3536 25.1749 31.0003 23.1437 31.0003H12.4318C10.4005 31.0003 8.7538 29.3536 8.7538 27.3223V17.6545C7.66495 18.4551 6.04513 17.848 5.81177 16.4479L5.0502 11.8784C4.80179 10.388 5.49018 8.89731 6.78583 8.11993L11.6689 5.19005ZM12.2159 7.19426L7.81482 9.83491C7.22372 10.1896 6.90966 10.8697 7.02298 11.5496L7.74575 15.8862C8.93701 14.9562 10.7538 15.7879 10.7538 17.3698V27.3223C10.7538 28.2491 11.5051 29.0003 12.4318 29.0003H23.1437C24.0704 29.0003 24.8216 28.2491 24.8216 27.3223V17.3698C24.8216 15.7879 26.6384 14.9562 27.8297 15.8862L28.5524 11.5496C28.6658 10.8697 28.3517 10.1896 27.7606 9.83491L23.3595 7.19426C20.3569 10.4178 15.2185 10.4178 12.2159 7.19426ZM22.8781 6.90543L22.8775 6.90504L23.2215 6.33169L22.8775 6.90504C22.8777 6.90517 22.8779 6.9053 22.8781 6.90543Z" fill="#B98D75"/>
</svg>
