<svg width="36" height="36" viewBox="0 0 36 36" fill="none" xmlns="http://www.w3.org/2000/svg">
<mask id="path-1-outside-1_114_16393" maskUnits="userSpaceOnUse" x="3.875" y="2" width="28" height="32" fill="black">
<rect fill="white" x="3.875" y="2" width="28" height="32"/>
<path d="M22.8602 32.9718C21.5126 32.9406 20.1758 32.7165 18.8889 32.3062L19.0599 31.7062C22.1515 32.6218 24.4335 32.5593 25.8479 31.5125C26.2237 31.2319 26.5389 30.875 26.7738 30.4643C27.0088 30.0535 27.1584 29.5976 27.2134 29.125C24.6015 23.3343 25.5363 13.0249 25.5791 12.5874L26.19 12.6468C26.1778 12.753 25.2186 23.3124 27.7939 28.9375L27.8275 29.0062V29.0812C27.7794 29.6614 27.6099 30.2243 27.3306 30.7317C27.0512 31.239 26.6685 31.679 26.2084 32.0218C25.3499 32.6531 24.2319 32.9718 22.8602 32.9718Z"/>
<path d="M15.1221 33C14.563 33 14.1384 32.9719 13.9948 32.9625C8.81679 32.4094 8.21803 29.2875 8.19054 29.1531L8.17527 29.0656L8.20887 28.9812C10.0754 24.2781 10.6864 18.9375 10.0326 12.6499L10.6436 12.5843C11.2912 18.9312 10.6955 24.3468 8.81068 29.1469C8.93899 29.5969 9.76992 31.8875 14.0468 32.3437C15.4581 32.4531 19.1698 32.4 19.3806 30.8781V13.6249C19.1393 13.3124 17.9356 12.0343 14.5936 11.5687C13.0478 11.4093 10.1212 10.3812 10.2159 7.63741C10.2518 6.8907 10.4797 6.16691 10.8766 5.53918C11.2736 4.91145 11.8255 4.40203 12.4765 4.0624C13.8971 3.3124 15.7819 2.95615 18.0762 3.02802C19.2508 2.95306 20.4299 3.02864 21.5862 3.25303C24.0362 3.75615 25.5209 4.96553 25.8844 6.74991C25.8844 6.77179 26.4404 9.45617 23.5383 10.8124C23.2034 10.9525 22.8553 11.0572 22.4996 11.1249C21.9681 11.2437 20.6667 11.6343 19.9946 12.6874V30.9375C19.7747 32.7438 16.8206 33 15.1221 33ZM17.4743 3.6249C15.5498 3.6249 13.9673 3.9374 12.7607 4.59991C12.2047 4.88927 11.7334 5.32373 11.3944 5.85932C11.0553 6.39491 10.8606 7.01261 10.83 7.64992C10.7902 8.82804 11.4043 9.7343 12.6629 10.3468C13.294 10.6515 13.9666 10.857 14.6577 10.9562C17.2788 11.3218 18.6841 12.1718 19.3714 12.7562V12.5281L19.4142 12.4531C20.1749 11.1781 21.5832 10.6968 22.3591 10.5249C22.674 10.4607 22.9812 10.3623 23.2756 10.2312C25.7195 9.09992 25.2949 6.97179 25.2765 6.88116C24.5281 3.1499 18.1739 3.64678 18.1098 3.65303H18.0731L17.4743 3.6249Z"/>
<path d="M18.3602 10.6811L14.6149 6.45292C14.5266 6.35189 14.4687 6.22689 14.4482 6.09298C14.4277 5.95906 14.4454 5.82194 14.4993 5.69812C14.5532 5.57429 14.641 5.46905 14.752 5.39505C14.863 5.32105 14.9926 5.28146 15.1251 5.28104H21.1615C21.2922 5.28166 21.4201 5.32038 21.53 5.39267C21.6399 5.46496 21.7275 5.56781 21.7823 5.68918C21.8371 5.81054 21.857 5.94538 21.8396 6.07788C21.8221 6.21038 21.7682 6.33506 21.6839 6.43729L18.3602 10.6811ZM15.1251 5.90604C15.1104 5.90531 15.0959 5.90909 15.0834 5.91688C15.0709 5.92468 15.0609 5.93614 15.0548 5.94979C15.0482 5.96366 15.0461 5.97936 15.0488 5.99456C15.0516 6.00976 15.059 6.02365 15.0701 6.03416L18.3236 9.71543L21.2196 6.03104C21.2276 6.01908 21.2319 6.00491 21.2319 5.99041C21.2319 5.97591 21.2276 5.96175 21.2196 5.94979C21.214 5.93639 21.2046 5.92504 21.1926 5.91723C21.1806 5.90942 21.1666 5.90551 21.1524 5.90604H15.1251Z"/>
<path d="M18.6103 10.0414L18.0792 10.3503L19.4229 12.7681L19.9541 12.4592L18.6103 10.0414Z"/>
<path d="M27.1343 27.5752H26.8288L26.8471 26.9502C28.8144 27.0127 29.8103 26.3908 30.2961 25.8595C30.3993 25.7419 30.4694 25.5978 30.499 25.4426C30.5286 25.2875 30.5165 25.127 30.4641 24.9783C29.4987 22.2126 28.7686 18.3345 28.4204 16.2689C28.2737 15.3845 28.1485 14.4189 28.0324 13.2345C27.6169 8.95322 26.6577 7.56884 26.1231 7.12196C25.971 6.9664 25.7668 6.87589 25.5518 6.86884L25.4571 6.24384C25.6357 6.2303 25.8152 6.25316 25.9851 6.31109C26.155 6.36903 26.312 6.46088 26.4469 6.58134C27.2137 7.17509 28.2187 8.80009 28.6403 13.1657C28.7564 14.3345 28.8755 15.2845 29.0222 16.1564C29.3674 18.2001 30.0883 22.0376 31.0384 24.7626C31.1296 25.02 31.1494 25.2981 31.0954 25.5662C31.0415 25.8343 30.916 26.0818 30.7329 26.2814C30.2105 26.8814 29.1444 27.5752 27.1343 27.5752Z"/>
<path d="M8.88728 27.5746C6.87411 27.5746 5.79879 26.8809 5.26724 26.284C5.08412 26.0844 4.95864 25.8369 4.90471 25.5688C4.85079 25.3007 4.87053 25.0226 4.96175 24.7652C5.91182 22.0402 6.62972 18.2027 6.97492 16.159C7.12156 15.2871 7.24375 14.3371 7.35678 13.1683C7.78141 8.79331 8.78647 7.17768 9.55325 6.58393C9.68772 6.46273 9.84463 6.3704 10.0147 6.31243C10.1847 6.25445 10.3644 6.23201 10.543 6.24643L10.4483 6.87143C10.2333 6.87817 10.0289 6.96872 9.87706 7.12456C9.34246 7.57143 8.38323 8.95581 7.96471 13.2371C7.85168 14.4215 7.72642 15.3871 7.57674 16.2715C7.22848 18.3371 6.50142 22.209 5.53607 24.9809C5.48364 25.1296 5.47158 25.2901 5.50116 25.4452C5.53074 25.6004 5.60087 25.7445 5.70409 25.8621C6.18982 26.3934 7.18266 27.0184 9.15 26.9528L9.17139 27.5778L8.88728 27.5746Z"/>
<path d="M21.8885 15.0284C21.6468 15.0284 21.4105 14.955 21.2096 14.8177C21.0086 14.6803 20.852 14.4851 20.7595 14.2567C20.667 14.0283 20.6428 13.777 20.69 13.5345C20.7371 13.292 20.8535 13.0693 21.0244 12.8945C21.1953 12.7197 21.413 12.6006 21.6501 12.5524C21.8871 12.5041 22.1328 12.5289 22.3561 12.6235C22.5794 12.7181 22.7702 12.8783 22.9045 13.0839C23.0387 13.2895 23.1104 13.5311 23.1104 13.7784C23.1104 14.1099 22.9817 14.4278 22.7525 14.6622C22.5234 14.8967 22.2125 15.0284 21.8885 15.0284ZM21.8885 13.1534C21.7676 13.1534 21.6495 13.19 21.549 13.2587C21.4485 13.3274 21.3702 13.425 21.324 13.5392C21.2777 13.6534 21.2656 13.779 21.2892 13.9003C21.3128 14.0215 21.371 14.1329 21.4564 14.2203C21.5419 14.3077 21.6507 14.3672 21.7693 14.3913C21.8878 14.4155 22.0106 14.4031 22.1223 14.3558C22.2339 14.3085 22.3293 14.2284 22.3965 14.1256C22.4636 14.0228 22.4994 13.902 22.4994 13.7784C22.4986 13.6131 22.4339 13.455 22.3194 13.3384C22.2049 13.2219 22.05 13.1565 21.8885 13.1565V13.1534Z"/>
<path d="M20.9754 13.4686H19.6893V14.0936H20.9754V13.4686Z"/>
</mask>
<path d="M22.8602 32.9718C21.5126 32.9406 20.1758 32.7165 18.8889 32.3062L19.0599 31.7062C22.1515 32.6218 24.4335 32.5593 25.8479 31.5125C26.2237 31.2319 26.5389 30.875 26.7738 30.4643C27.0088 30.0535 27.1584 29.5976 27.2134 29.125C24.6015 23.3343 25.5363 13.0249 25.5791 12.5874L26.19 12.6468C26.1778 12.753 25.2186 23.3124 27.7939 28.9375L27.8275 29.0062V29.0812C27.7794 29.6614 27.6099 30.2243 27.3306 30.7317C27.0512 31.239 26.6685 31.679 26.2084 32.0218C25.3499 32.6531 24.2319 32.9718 22.8602 32.9718Z" fill="#B98D75"/>
<path d="M15.1221 33C14.563 33 14.1384 32.9719 13.9948 32.9625C8.81679 32.4094 8.21803 29.2875 8.19054 29.1531L8.17527 29.0656L8.20887 28.9812C10.0754 24.2781 10.6864 18.9375 10.0326 12.6499L10.6436 12.5843C11.2912 18.9312 10.6955 24.3468 8.81068 29.1469C8.93899 29.5969 9.76992 31.8875 14.0468 32.3437C15.4581 32.4531 19.1698 32.4 19.3806 30.8781V13.6249C19.1393 13.3124 17.9356 12.0343 14.5936 11.5687C13.0478 11.4093 10.1212 10.3812 10.2159 7.63741C10.2518 6.8907 10.4797 6.16691 10.8766 5.53918C11.2736 4.91145 11.8255 4.40203 12.4765 4.0624C13.8971 3.3124 15.7819 2.95615 18.0762 3.02802C19.2508 2.95306 20.4299 3.02864 21.5862 3.25303C24.0362 3.75615 25.5209 4.96553 25.8844 6.74991C25.8844 6.77179 26.4404 9.45617 23.5383 10.8124C23.2034 10.9525 22.8553 11.0572 22.4996 11.1249C21.9681 11.2437 20.6667 11.6343 19.9946 12.6874V30.9375C19.7747 32.7438 16.8206 33 15.1221 33ZM17.4743 3.6249C15.5498 3.6249 13.9673 3.9374 12.7607 4.59991C12.2047 4.88927 11.7334 5.32373 11.3944 5.85932C11.0553 6.39491 10.8606 7.01261 10.83 7.64992C10.7902 8.82804 11.4043 9.7343 12.6629 10.3468C13.294 10.6515 13.9666 10.857 14.6577 10.9562C17.2788 11.3218 18.6841 12.1718 19.3714 12.7562V12.5281L19.4142 12.4531C20.1749 11.1781 21.5832 10.6968 22.3591 10.5249C22.674 10.4607 22.9812 10.3623 23.2756 10.2312C25.7195 9.09992 25.2949 6.97179 25.2765 6.88116C24.5281 3.1499 18.1739 3.64678 18.1098 3.65303H18.0731L17.4743 3.6249Z" fill="#B98D75"/>
<path d="M18.3602 10.6811L14.6149 6.45292C14.5266 6.35189 14.4687 6.22689 14.4482 6.09298C14.4277 5.95906 14.4454 5.82194 14.4993 5.69812C14.5532 5.57429 14.641 5.46905 14.752 5.39505C14.863 5.32105 14.9926 5.28146 15.1251 5.28104H21.1615C21.2922 5.28166 21.4201 5.32038 21.53 5.39267C21.6399 5.46496 21.7275 5.56781 21.7823 5.68918C21.8371 5.81054 21.857 5.94538 21.8396 6.07788C21.8221 6.21038 21.7682 6.33506 21.6839 6.43729L18.3602 10.6811ZM15.1251 5.90604C15.1104 5.90531 15.0959 5.90909 15.0834 5.91688C15.0709 5.92468 15.0609 5.93614 15.0548 5.94979C15.0482 5.96366 15.0461 5.97936 15.0488 5.99456C15.0516 6.00976 15.059 6.02365 15.0701 6.03416L18.3236 9.71543L21.2196 6.03104C21.2276 6.01908 21.2319 6.00491 21.2319 5.99041C21.2319 5.97591 21.2276 5.96175 21.2196 5.94979C21.214 5.93639 21.2046 5.92504 21.1926 5.91723C21.1806 5.90942 21.1666 5.90551 21.1524 5.90604H15.1251Z" fill="#B98D75"/>
<path d="M18.6103 10.0414L18.0792 10.3503L19.4229 12.7681L19.9541 12.4592L18.6103 10.0414Z" fill="#B98D75"/>
<path d="M27.1343 27.5752H26.8288L26.8471 26.9502C28.8144 27.0127 29.8103 26.3908 30.2961 25.8595C30.3993 25.7419 30.4694 25.5978 30.499 25.4426C30.5286 25.2875 30.5165 25.127 30.4641 24.9783C29.4987 22.2126 28.7686 18.3345 28.4204 16.2689C28.2737 15.3845 28.1485 14.4189 28.0324 13.2345C27.6169 8.95322 26.6577 7.56884 26.1231 7.12196C25.971 6.9664 25.7668 6.87589 25.5518 6.86884L25.4571 6.24384C25.6357 6.2303 25.8152 6.25316 25.9851 6.31109C26.155 6.36903 26.312 6.46088 26.4469 6.58134C27.2137 7.17509 28.2187 8.80009 28.6403 13.1657C28.7564 14.3345 28.8755 15.2845 29.0222 16.1564C29.3674 18.2001 30.0883 22.0376 31.0384 24.7626C31.1296 25.02 31.1494 25.2981 31.0954 25.5662C31.0415 25.8343 30.916 26.0818 30.7329 26.2814C30.2105 26.8814 29.1444 27.5752 27.1343 27.5752Z" fill="#B98D75"/>
<path d="M8.88728 27.5746C6.87411 27.5746 5.79879 26.8809 5.26724 26.284C5.08412 26.0844 4.95864 25.8369 4.90471 25.5688C4.85079 25.3007 4.87053 25.0226 4.96175 24.7652C5.91182 22.0402 6.62972 18.2027 6.97492 16.159C7.12156 15.2871 7.24375 14.3371 7.35678 13.1683C7.78141 8.79331 8.78647 7.17768 9.55325 6.58393C9.68772 6.46273 9.84463 6.3704 10.0147 6.31243C10.1847 6.25445 10.3644 6.23201 10.543 6.24643L10.4483 6.87143C10.2333 6.87817 10.0289 6.96872 9.87706 7.12456C9.34246 7.57143 8.38323 8.95581 7.96471 13.2371C7.85168 14.4215 7.72642 15.3871 7.57674 16.2715C7.22848 18.3371 6.50142 22.209 5.53607 24.9809C5.48364 25.1296 5.47158 25.2901 5.50116 25.4452C5.53074 25.6004 5.60087 25.7445 5.70409 25.8621C6.18982 26.3934 7.18266 27.0184 9.15 26.9528L9.17139 27.5778L8.88728 27.5746Z" fill="#B98D75"/>
<path d="M21.8885 15.0284C21.6468 15.0284 21.4105 14.955 21.2096 14.8177C21.0086 14.6803 20.852 14.4851 20.7595 14.2567C20.667 14.0283 20.6428 13.777 20.69 13.5345C20.7371 13.292 20.8535 13.0693 21.0244 12.8945C21.1953 12.7197 21.413 12.6006 21.6501 12.5524C21.8871 12.5041 22.1328 12.5289 22.3561 12.6235C22.5794 12.7181 22.7702 12.8783 22.9045 13.0839C23.0387 13.2895 23.1104 13.5311 23.1104 13.7784C23.1104 14.1099 22.9817 14.4278 22.7525 14.6622C22.5234 14.8967 22.2125 15.0284 21.8885 15.0284ZM21.8885 13.1534C21.7676 13.1534 21.6495 13.19 21.549 13.2587C21.4485 13.3274 21.3702 13.425 21.324 13.5392C21.2777 13.6534 21.2656 13.779 21.2892 13.9003C21.3128 14.0215 21.371 14.1329 21.4564 14.2203C21.5419 14.3077 21.6507 14.3672 21.7693 14.3913C21.8878 14.4155 22.0106 14.4031 22.1223 14.3558C22.2339 14.3085 22.3293 14.2284 22.3965 14.1256C22.4636 14.0228 22.4994 13.902 22.4994 13.7784C22.4986 13.6131 22.4339 13.455 22.3194 13.3384C22.2049 13.2219 22.05 13.1565 21.8885 13.1565V13.1534Z" fill="#B98D75"/>
<path d="M20.9754 13.4686H19.6893V14.0936H20.9754V13.4686Z" fill="#B98D75"/>
<path d="M22.8602 32.9718C21.5126 32.9406 20.1758 32.7165 18.8889 32.3062L19.0599 31.7062C22.1515 32.6218 24.4335 32.5593 25.8479 31.5125C26.2237 31.2319 26.5389 30.875 26.7738 30.4643C27.0088 30.0535 27.1584 29.5976 27.2134 29.125C24.6015 23.3343 25.5363 13.0249 25.5791 12.5874L26.19 12.6468C26.1778 12.753 25.2186 23.3124 27.7939 28.9375L27.8275 29.0062V29.0812C27.7794 29.6614 27.6099 30.2243 27.3306 30.7317C27.0512 31.239 26.6685 31.679 26.2084 32.0218C25.3499 32.6531 24.2319 32.9718 22.8602 32.9718Z" stroke="#B98D75" stroke-width="1.2" mask="url(#path-1-outside-1_114_16393)"/>
<path d="M15.1221 33C14.563 33 14.1384 32.9719 13.9948 32.9625C8.81679 32.4094 8.21803 29.2875 8.19054 29.1531L8.17527 29.0656L8.20887 28.9812C10.0754 24.2781 10.6864 18.9375 10.0326 12.6499L10.6436 12.5843C11.2912 18.9312 10.6955 24.3468 8.81068 29.1469C8.93899 29.5969 9.76992 31.8875 14.0468 32.3437C15.4581 32.4531 19.1698 32.4 19.3806 30.8781V13.6249C19.1393 13.3124 17.9356 12.0343 14.5936 11.5687C13.0478 11.4093 10.1212 10.3812 10.2159 7.63741C10.2518 6.8907 10.4797 6.16691 10.8766 5.53918C11.2736 4.91145 11.8255 4.40203 12.4765 4.0624C13.8971 3.3124 15.7819 2.95615 18.0762 3.02802C19.2508 2.95306 20.4299 3.02864 21.5862 3.25303C24.0362 3.75615 25.5209 4.96553 25.8844 6.74991C25.8844 6.77179 26.4404 9.45617 23.5383 10.8124C23.2034 10.9525 22.8553 11.0572 22.4996 11.1249C21.9681 11.2437 20.6667 11.6343 19.9946 12.6874V30.9375C19.7747 32.7438 16.8206 33 15.1221 33ZM17.4743 3.6249C15.5498 3.6249 13.9673 3.9374 12.7607 4.59991C12.2047 4.88927 11.7334 5.32373 11.3944 5.85932C11.0553 6.39491 10.8606 7.01261 10.83 7.64992C10.7902 8.82804 11.4043 9.7343 12.6629 10.3468C13.294 10.6515 13.9666 10.857 14.6577 10.9562C17.2788 11.3218 18.6841 12.1718 19.3714 12.7562V12.5281L19.4142 12.4531C20.1749 11.1781 21.5832 10.6968 22.3591 10.5249C22.674 10.4607 22.9812 10.3623 23.2756 10.2312C25.7195 9.09992 25.2949 6.97179 25.2765 6.88116C24.5281 3.1499 18.1739 3.64678 18.1098 3.65303H18.0731L17.4743 3.6249Z" stroke="#B98D75" stroke-width="1.2" mask="url(#path-1-outside-1_114_16393)"/>
<path d="M18.3602 10.6811L14.6149 6.45292C14.5266 6.35189 14.4687 6.22689 14.4482 6.09298C14.4277 5.95906 14.4454 5.82194 14.4993 5.69812C14.5532 5.57429 14.641 5.46905 14.752 5.39505C14.863 5.32105 14.9926 5.28146 15.1251 5.28104H21.1615C21.2922 5.28166 21.4201 5.32038 21.53 5.39267C21.6399 5.46496 21.7275 5.56781 21.7823 5.68918C21.8371 5.81054 21.857 5.94538 21.8396 6.07788C21.8221 6.21038 21.7682 6.33506 21.6839 6.43729L18.3602 10.6811ZM15.1251 5.90604C15.1104 5.90531 15.0959 5.90909 15.0834 5.91688C15.0709 5.92468 15.0609 5.93614 15.0548 5.94979C15.0482 5.96366 15.0461 5.97936 15.0488 5.99456C15.0516 6.00976 15.059 6.02365 15.0701 6.03416L18.3236 9.71543L21.2196 6.03104C21.2276 6.01908 21.2319 6.00491 21.2319 5.99041C21.2319 5.97591 21.2276 5.96175 21.2196 5.94979C21.214 5.93639 21.2046 5.92504 21.1926 5.91723C21.1806 5.90942 21.1666 5.90551 21.1524 5.90604H15.1251Z" stroke="#B98D75" stroke-width="1.2" mask="url(#path-1-outside-1_114_16393)"/>
<path d="M18.6103 10.0414L18.0792 10.3503L19.4229 12.7681L19.9541 12.4592L18.6103 10.0414Z" stroke="#B98D75" stroke-width="1.2" mask="url(#path-1-outside-1_114_16393)"/>
<path d="M27.1343 27.5752H26.8288L26.8471 26.9502C28.8144 27.0127 29.8103 26.3908 30.2961 25.8595C30.3993 25.7419 30.4694 25.5978 30.499 25.4426C30.5286 25.2875 30.5165 25.127 30.4641 24.9783C29.4987 22.2126 28.7686 18.3345 28.4204 16.2689C28.2737 15.3845 28.1485 14.4189 28.0324 13.2345C27.6169 8.95322 26.6577 7.56884 26.1231 7.12196C25.971 6.9664 25.7668 6.87589 25.5518 6.86884L25.4571 6.24384C25.6357 6.2303 25.8152 6.25316 25.9851 6.31109C26.155 6.36903 26.312 6.46088 26.4469 6.58134C27.2137 7.17509 28.2187 8.80009 28.6403 13.1657C28.7564 14.3345 28.8755 15.2845 29.0222 16.1564C29.3674 18.2001 30.0883 22.0376 31.0384 24.7626C31.1296 25.02 31.1494 25.2981 31.0954 25.5662C31.0415 25.8343 30.916 26.0818 30.7329 26.2814C30.2105 26.8814 29.1444 27.5752 27.1343 27.5752Z" stroke="#B98D75" stroke-width="1.2" mask="url(#path-1-outside-1_114_16393)"/>
<path d="M8.88728 27.5746C6.87411 27.5746 5.79879 26.8809 5.26724 26.284C5.08412 26.0844 4.95864 25.8369 4.90471 25.5688C4.85079 25.3007 4.87053 25.0226 4.96175 24.7652C5.91182 22.0402 6.62972 18.2027 6.97492 16.159C7.12156 15.2871 7.24375 14.3371 7.35678 13.1683C7.78141 8.79331 8.78647 7.17768 9.55325 6.58393C9.68772 6.46273 9.84463 6.3704 10.0147 6.31243C10.1847 6.25445 10.3644 6.23201 10.543 6.24643L10.4483 6.87143C10.2333 6.87817 10.0289 6.96872 9.87706 7.12456C9.34246 7.57143 8.38323 8.95581 7.96471 13.2371C7.85168 14.4215 7.72642 15.3871 7.57674 16.2715C7.22848 18.3371 6.50142 22.209 5.53607 24.9809C5.48364 25.1296 5.47158 25.2901 5.50116 25.4452C5.53074 25.6004 5.60087 25.7445 5.70409 25.8621C6.18982 26.3934 7.18266 27.0184 9.15 26.9528L9.17139 27.5778L8.88728 27.5746Z" stroke="#B98D75" stroke-width="1.2" mask="url(#path-1-outside-1_114_16393)"/>
<path d="M21.8885 15.0284C21.6468 15.0284 21.4105 14.955 21.2096 14.8177C21.0086 14.6803 20.852 14.4851 20.7595 14.2567C20.667 14.0283 20.6428 13.777 20.69 13.5345C20.7371 13.292 20.8535 13.0693 21.0244 12.8945C21.1953 12.7197 21.413 12.6006 21.6501 12.5524C21.8871 12.5041 22.1328 12.5289 22.3561 12.6235C22.5794 12.7181 22.7702 12.8783 22.9045 13.0839C23.0387 13.2895 23.1104 13.5311 23.1104 13.7784C23.1104 14.1099 22.9817 14.4278 22.7525 14.6622C22.5234 14.8967 22.2125 15.0284 21.8885 15.0284ZM21.8885 13.1534C21.7676 13.1534 21.6495 13.19 21.549 13.2587C21.4485 13.3274 21.3702 13.425 21.324 13.5392C21.2777 13.6534 21.2656 13.779 21.2892 13.9003C21.3128 14.0215 21.371 14.1329 21.4564 14.2203C21.5419 14.3077 21.6507 14.3672 21.7693 14.3913C21.8878 14.4155 22.0106 14.4031 22.1223 14.3558C22.2339 14.3085 22.3293 14.2284 22.3965 14.1256C22.4636 14.0228 22.4994 13.902 22.4994 13.7784C22.4986 13.6131 22.4339 13.455 22.3194 13.3384C22.2049 13.2219 22.05 13.1565 21.8885 13.1565V13.1534Z" stroke="#B98D75" stroke-width="1.2" mask="url(#path-1-outside-1_114_16393)"/>
<path d="M20.9754 13.4686H19.6893V14.0936H20.9754V13.4686Z" stroke="#B98D75" stroke-width="1.2" mask="url(#path-1-outside-1_114_16393)"/>
</svg>
