<svg width="48" height="48" viewBox="0 0 48 48" fill="none" xmlns="http://www.w3.org/2000/svg">
<path d="M40.8939 2.2793H7.10612C4.44034 2.2793 2.2793 4.44034 2.2793 7.10612V40.8939C2.2793 43.5597 4.44034 45.7207 7.10612 45.7207H40.8939C43.5597 45.7207 45.7207 43.5597 45.7207 40.8939V7.10612C45.7207 4.44034 43.5597 2.2793 40.8939 2.2793Z" stroke="#B98D75" stroke-width="2" stroke-linecap="round" stroke-linejoin="round"/>
<path d="M16.7598 36.0671V11.933H26.4134C28.3336 11.933 30.1752 12.6958 31.533 14.0536C32.8908 15.4114 33.6536 17.253 33.6536 19.1732C33.6536 21.0934 32.8908 22.935 31.533 24.2928C30.1752 25.6506 28.3336 26.4135 26.4134 26.4135H16.7598" stroke="#B98D75" stroke-width="2" stroke-linecap="round" stroke-linejoin="round"/>
</svg>
