<svg width="48" height="48" viewBox="0 0 48 48" fill="none" xmlns="http://www.w3.org/2000/svg">
<path d="M19.031 20.1252C19.9288 21.9951 21.1526 23.7477 22.7026 25.2976C24.2526 26.8476 26.0051 28.0715 27.8751 28.9693C28.0359 29.0465 28.1163 29.0851 28.2181 29.1148C28.5797 29.2202 29.0238 29.1445 29.3301 28.9252C29.4163 28.8635 29.49 28.7897 29.6375 28.6423C30.0884 28.1913 30.3139 27.9658 30.5407 27.8184C31.3958 27.2624 32.4981 27.2624 33.3532 27.8184C33.58 27.9658 33.8054 28.1913 34.2564 28.6423L34.5078 28.8937C35.1933 29.5792 35.5361 29.9219 35.7223 30.2901C36.0926 31.0222 36.0926 31.8868 35.7223 32.6189C35.5361 32.987 35.1933 33.3298 34.5078 34.0153L34.3044 34.2187C33.6213 34.9019 33.2797 35.2435 32.8152 35.5043C32.2999 35.7938 31.4995 36.002 30.9084 36.0002C30.3757 35.9986 30.0117 35.8953 29.2836 35.6887C25.3707 34.5781 21.6784 32.4826 18.598 29.4022C15.5177 26.3218 13.4222 22.6296 12.3116 18.7167C12.1049 17.9886 12.0016 17.6245 12 17.0918C11.9983 16.5007 12.2064 15.7003 12.4959 15.185C12.7568 14.7206 13.0984 14.379 13.7816 13.6958L13.9849 13.4925C14.6704 12.8069 15.0132 12.4642 15.3813 12.278C16.1134 11.9077 16.978 11.9077 17.7102 12.278C18.0783 12.4642 18.4211 12.8069 19.1066 13.4925L19.358 13.7438C19.8089 14.1948 20.0344 14.4203 20.1818 14.647C20.7378 15.5021 20.7378 16.6045 20.1818 17.4596C20.0344 17.6863 19.8089 17.9118 19.358 18.3628C19.2105 18.5102 19.1368 18.584 19.0751 18.6701C18.8558 18.9764 18.78 19.4205 18.8855 19.7821C18.9151 19.8839 18.9537 19.9643 19.031 20.1252Z" stroke="#B98D75" stroke-width="2"/>
<path d="M2 24.0002C2 11.85 11.8497 2.00024 24 2.00024C36.1503 2.00025 46 11.85 46 24.0002C46 36.1505 36.1503 46.0002 24 46.0002C11.8497 46.0002 2 36.1505 2 24.0002Z" stroke="#B98D75" stroke-width="2"/>
</svg>
