<svg width="36" height="36" viewBox="0 0 36 36" fill="none" xmlns="http://www.w3.org/2000/svg">
<path fill-rule="evenodd" clip-rule="evenodd" d="M15 7C8.92487 7 4 11.9249 4 18C4 24.0751 8.92487 29 15 29C15.9511 29 16.8726 28.8795 17.7507 28.6535C18.2856 28.5158 18.8308 28.8378 18.9684 29.3727C19.1061 29.9075 18.7841 30.4527 18.2493 30.5904C17.2097 30.858 16.1207 31 15 31C7.8203 31 2 25.1797 2 18C2 10.8203 7.8203 5 15 5C17.3662 5 19.5876 5.63309 21.5007 6.73978C21.9788 7.01632 22.1421 7.62805 21.8656 8.10611C21.5891 8.58417 20.9773 8.74754 20.4993 8.47099C18.8823 7.53565 17.0052 7 15 7ZM21.5 15C21.5 12.7909 23.2909 11 25.5 11H28.5C30.7091 11 32.5 12.7909 32.5 15V18C32.5 20.6961 30.5601 22.9391 28 23.4093V29H30C30.5523 29 31 29.4477 31 30C31 30.5523 30.5523 31 30 31H24C23.4477 31 23 30.5523 23 30C23 29.4477 23.4477 29 24 29H26V23.4093C23.4399 22.9391 21.5 20.6961 21.5 18V15ZM25.5 13C24.3954 13 23.5 13.8954 23.5 15V18C23.5 19.933 25.067 21.5 27 21.5C28.933 21.5 30.5 19.933 30.5 18V15C30.5 13.8954 29.6046 13 28.5 13H25.5ZM15 14.5C13.067 14.5 11.5 16.067 11.5 18C11.5 19.933 13.067 21.5 15 21.5C15.8971 21.5 16.7132 21.1638 17.3331 20.609C17.7446 20.2407 18.3768 20.2757 18.7451 20.6872C19.1135 21.0988 19.0784 21.731 18.6669 22.0993C17.6945 22.9696 16.408 23.5 15 23.5C11.9624 23.5 9.5 21.0376 9.5 18C9.5 14.9624 11.9624 12.5 15 12.5C16.408 12.5 17.6945 13.0304 18.6669 13.9007C19.0784 14.269 19.1135 14.9012 18.7451 15.3128C18.3768 15.7243 17.7446 15.7593 17.3331 15.391C16.7132 14.8362 15.8971 14.5 15 14.5Z" fill="#B98D75"/>
</svg>
