<svg width="36" height="36" viewBox="0 0 36 36" fill="none" xmlns="http://www.w3.org/2000/svg">
<path fill-rule="evenodd" clip-rule="evenodd" d="M23.4564 4.0637C23.9735 4.25762 24.2355 4.83403 24.0416 5.35115L20.5154 14.7542L29.2613 10.6728C29.7618 10.4392 30.3568 10.6556 30.5904 11.1561C30.8239 11.6566 30.6076 12.2516 30.1071 12.4852L19.5122 17.4294L18.0904 21.2209C18.4342 21.1452 18.7914 21.1053 19.1579 21.1053C21.8903 21.1053 24.1053 23.3203 24.1053 26.0527C24.1053 28.785 21.8903 31 19.1579 31C16.4255 31 14.2105 28.785 14.2105 26.0527C14.2105 24.8767 14.622 23.7946 15.3076 22.9457L16.9231 18.6377L13.5848 20.1955C12.6821 21.1742 11.3862 21.7895 9.94737 21.7895C7.21501 21.7895 5 19.5745 5 16.8421C5 14.1098 7.21501 11.8948 9.94737 11.8948C12.6797 11.8948 14.8947 14.1098 14.8947 16.8421C14.8947 17.0277 14.8845 17.2109 14.8645 17.3913L17.9264 15.9624L22.1689 4.6489C22.3629 4.13178 22.9393 3.86978 23.4564 4.0637ZM9.94737 13.8948C8.31958 13.8948 7 15.2143 7 16.8421C7 18.4699 8.31958 19.7895 9.94737 19.7895C10.8541 19.7895 11.6646 19.3812 12.2068 18.7349C12.6367 18.2224 12.8947 17.5637 12.8947 16.8421C12.8947 15.2143 11.5752 13.8948 9.94737 13.8948ZM19.1579 23.1053C18.2723 23.1053 17.4788 23.4946 16.937 24.1149C16.484 24.6335 16.2105 25.3099 16.2105 26.0527C16.2105 27.6804 17.5301 29 19.1579 29C20.7857 29 22.1053 27.6804 22.1053 26.0527C22.1053 24.4249 20.7857 23.1053 19.1579 23.1053Z" fill="#B98D75"/>
</svg>
