<svg width="36" height="36" viewBox="0 0 36 36" fill="none" xmlns="http://www.w3.org/2000/svg">
<mask id="path-1-outside-1_113_1381" maskUnits="userSpaceOnUse" x="5.76562" y="3" width="24" height="30" fill="black">
<rect fill="white" x="5.76562" y="3" width="24" height="30"/>
<path d="M23.1512 8.0915C23.0719 8.039 23.003 7.983 22.9307 7.92817C22.7639 7.213 22.4104 6.55733 21.862 6.00433C20.5973 4.72917 18.4098 4 15.8572 4C14.1982 4 12.2078 5.09317 10.3983 6.996C8.79646 8.68183 7.12695 11.3033 7.19579 13.6483C7.08962 14.038 6.74662 15.5022 6.76645 18.0047C6.77928 19.533 8.55613 22.7577 9.44863 23.7132C9.6493 24.7025 10.2373 26.7908 10.9886 27.7755L11.1485 27.9878C11.9651 29.0833 14.1328 32 17.3248 32C20.5168 32 22.6857 29.0845 23.5012 27.9878L23.6599 27.7755C24.3109 26.925 25.1135 24.9498 25.2232 23.6548C26.2837 22.4345 26.9662 20.9867 27.5087 19.8095C27.721 19.351 27.9159 18.9252 28.113 18.5623C30.0789 14.9515 28.5015 11.623 23.1512 8.0915ZM9.53846 21.8605C8.80113 20.6565 7.94129 18.8552 7.93429 17.9942C7.91679 15.8708 8.17579 14.5642 8.28779 14.0963C9.16979 13.5737 12.6336 11.5273 13.5355 11.1062C16.2562 9.83683 18.341 9.02133 19.2557 8.86967C19.5742 8.81717 19.7888 8.51617 19.7363 8.19883C19.6838 7.88033 19.3828 7.66217 19.0655 7.71817C17.676 7.94917 14.6952 9.278 13.042 10.0492C12.2638 10.412 9.8453 11.8237 8.46746 12.6357C8.76846 11.1353 9.77413 9.34683 11.2441 7.79983C12.8121 6.15133 14.5365 5.16667 15.8572 5.16667C18.068 5.16667 20.0035 5.78617 21.0337 6.82333C21.5855 7.37867 21.8644 8.0425 21.8749 8.795C21.8749 8.81717 21.8807 8.83817 21.8807 8.86033V8.86267C21.8784 9.1905 21.8375 9.4985 21.7815 9.7995C21.7699 9.86133 21.7605 9.9255 21.7465 9.98617C21.6847 10.258 21.5995 10.5182 21.498 10.769C21.4665 10.846 21.4315 10.9207 21.3965 10.9965C21.288 11.2298 21.169 11.4573 21.029 11.6732C20.987 11.7385 20.9392 11.8003 20.8937 11.8645C20.7665 12.0465 20.63 12.2227 20.483 12.393C20.4305 12.4548 20.3792 12.5178 20.3243 12.5785C20.1423 12.778 19.9463 12.9693 19.741 13.1548C19.6815 13.2085 19.622 13.2622 19.5613 13.3147C19.342 13.5037 19.1157 13.688 18.8777 13.8653C18.8368 13.8957 18.7948 13.9248 18.754 13.9552C18.2197 14.3448 17.6515 14.7088 17.0693 15.0553C17.0425 15.0705 17.0168 15.088 16.99 15.1032C16.6703 15.2933 16.3542 15.473 16.0473 15.6492C16.0042 15.6737 15.9598 15.6993 15.9178 15.7227C15.807 15.7857 15.7032 15.8452 15.597 15.907C15.3333 16.0575 15.0825 16.2033 14.8842 16.3258C14.743 16.3888 11.4075 17.8915 10.2105 19.9962C9.84063 20.6472 9.64463 21.3005 9.53846 21.8605ZM22.7335 27.0662L22.5644 27.2913C21.7757 28.3507 19.93 30.8333 17.3248 30.8333C14.7197 30.8333 12.874 28.3518 12.0853 27.2913L11.9161 27.0662C11.3515 26.3277 10.7728 24.4528 10.5721 23.3877C10.5733 23.3608 10.5733 23.3247 10.5745 23.292C10.5745 23.271 10.5768 23.264 10.5768 23.2407C10.585 22.7682 10.606 21.6645 11.2266 20.5737C12.2335 18.8027 15.3298 17.4073 15.4243 17.3595C15.7568 17.1588 16.1185 16.9535 16.4965 16.7377C16.7648 16.5848 17.0437 16.425 17.326 16.2605C17.6037 16.4215 17.8755 16.5778 18.1415 16.7283C18.523 16.9465 18.8893 17.1553 19.2265 17.3583C19.2463 17.37 19.2662 17.3805 19.2883 17.3898L19.2895 17.391C19.3128 17.4027 21.0605 18.1902 22.3579 19.33C22.7907 19.7103 23.1722 20.1292 23.4242 20.5725C23.5794 20.8443 23.6972 21.1185 23.7859 21.3822C23.9644 21.9107 24.0297 22.4018 24.0565 22.7752C24.0694 22.9618 24.0729 23.1193 24.0752 23.2372C24.0775 23.3433 24.0799 23.4227 24.0822 23.425C24.0822 24.2848 23.3519 26.2588 22.7335 27.0662ZM27.0899 18.0058C26.8822 18.3885 26.6745 18.8365 26.4505 19.3218C26.0714 20.142 25.6584 21.0368 25.1159 21.8757C25.1007 21.794 25.0785 21.7053 25.0587 21.6202C25.0459 21.5653 25.0365 21.514 25.0225 21.458C24.9934 21.346 24.9572 21.2293 24.9199 21.1127C24.907 21.0707 24.8965 21.031 24.8825 20.9878C24.7729 20.6647 24.6282 20.3287 24.438 19.9938C24.298 19.7477 24.1254 19.5097 23.9352 19.281C23.9294 19.274 23.9247 19.2658 23.9177 19.2588C23.7299 19.0348 23.521 18.8213 23.3017 18.6183C23.29 18.6078 23.2795 18.5962 23.2679 18.5857C23.0485 18.3838 22.8187 18.1937 22.5842 18.014C22.5725 18.0047 22.5609 17.9953 22.5492 17.9872C22.3112 17.8063 22.0732 17.6383 21.8387 17.4832L21.82 17.4703C21.5797 17.3117 21.3487 17.1693 21.1317 17.0422L21.127 17.0398C20.9088 16.9127 20.7093 16.8018 20.5332 16.7085C20.5227 16.7027 20.5145 16.698 20.5052 16.6933C20.3558 16.614 20.2263 16.5487 20.1213 16.4973C19.9708 16.4227 19.8507 16.3655 19.797 16.341C19.461 16.1392 19.097 15.9315 18.7178 15.7157C18.635 15.6678 18.5463 15.6153 18.4623 15.5675C18.4658 15.5652 18.4693 15.5628 18.4728 15.5605C19.0107 15.2152 19.5438 14.8395 20.049 14.4265C20.0653 14.4125 20.0817 14.3997 20.098 14.3868C20.5798 13.989 21.0302 13.555 21.4303 13.0802C21.4607 13.044 21.4922 13.0067 21.5213 12.9693C21.8959 12.5073 22.219 12.0068 22.4699 11.4597C22.499 11.3967 22.5247 11.3325 22.5515 11.2695C22.6495 11.0362 22.7347 10.7947 22.8047 10.545C22.8187 10.4972 22.8362 10.4505 22.8479 10.4015C22.9214 10.1122 22.9727 9.80883 23.0042 9.495C23.0065 9.467 23.0159 9.4425 23.0182 9.41333C28.6392 13.296 28.1597 16.0377 27.0899 18.0058Z"/>
</mask>
<path d="M23.1512 8.0915C23.0719 8.039 23.003 7.983 22.9307 7.92817C22.7639 7.213 22.4104 6.55733 21.862 6.00433C20.5973 4.72917 18.4098 4 15.8572 4C14.1982 4 12.2078 5.09317 10.3983 6.996C8.79646 8.68183 7.12695 11.3033 7.19579 13.6483C7.08962 14.038 6.74662 15.5022 6.76645 18.0047C6.77928 19.533 8.55613 22.7577 9.44863 23.7132C9.6493 24.7025 10.2373 26.7908 10.9886 27.7755L11.1485 27.9878C11.9651 29.0833 14.1328 32 17.3248 32C20.5168 32 22.6857 29.0845 23.5012 27.9878L23.6599 27.7755C24.3109 26.925 25.1135 24.9498 25.2232 23.6548C26.2837 22.4345 26.9662 20.9867 27.5087 19.8095C27.721 19.351 27.9159 18.9252 28.113 18.5623C30.0789 14.9515 28.5015 11.623 23.1512 8.0915ZM9.53846 21.8605C8.80113 20.6565 7.94129 18.8552 7.93429 17.9942C7.91679 15.8708 8.17579 14.5642 8.28779 14.0963C9.16979 13.5737 12.6336 11.5273 13.5355 11.1062C16.2562 9.83683 18.341 9.02133 19.2557 8.86967C19.5742 8.81717 19.7888 8.51617 19.7363 8.19883C19.6838 7.88033 19.3828 7.66217 19.0655 7.71817C17.676 7.94917 14.6952 9.278 13.042 10.0492C12.2638 10.412 9.8453 11.8237 8.46746 12.6357C8.76846 11.1353 9.77413 9.34683 11.2441 7.79983C12.8121 6.15133 14.5365 5.16667 15.8572 5.16667C18.068 5.16667 20.0035 5.78617 21.0337 6.82333C21.5855 7.37867 21.8644 8.0425 21.8749 8.795C21.8749 8.81717 21.8807 8.83817 21.8807 8.86033V8.86267C21.8784 9.1905 21.8375 9.4985 21.7815 9.7995C21.7699 9.86133 21.7605 9.9255 21.7465 9.98617C21.6847 10.258 21.5995 10.5182 21.498 10.769C21.4665 10.846 21.4315 10.9207 21.3965 10.9965C21.288 11.2298 21.169 11.4573 21.029 11.6732C20.987 11.7385 20.9392 11.8003 20.8937 11.8645C20.7665 12.0465 20.63 12.2227 20.483 12.393C20.4305 12.4548 20.3792 12.5178 20.3243 12.5785C20.1423 12.778 19.9463 12.9693 19.741 13.1548C19.6815 13.2085 19.622 13.2622 19.5613 13.3147C19.342 13.5037 19.1157 13.688 18.8777 13.8653C18.8368 13.8957 18.7948 13.9248 18.754 13.9552C18.2197 14.3448 17.6515 14.7088 17.0693 15.0553C17.0425 15.0705 17.0168 15.088 16.99 15.1032C16.6703 15.2933 16.3542 15.473 16.0473 15.6492C16.0042 15.6737 15.9598 15.6993 15.9178 15.7227C15.807 15.7857 15.7032 15.8452 15.597 15.907C15.3333 16.0575 15.0825 16.2033 14.8842 16.3258C14.743 16.3888 11.4075 17.8915 10.2105 19.9962C9.84063 20.6472 9.64463 21.3005 9.53846 21.8605ZM22.7335 27.0662L22.5644 27.2913C21.7757 28.3507 19.93 30.8333 17.3248 30.8333C14.7197 30.8333 12.874 28.3518 12.0853 27.2913L11.9161 27.0662C11.3515 26.3277 10.7728 24.4528 10.5721 23.3877C10.5733 23.3608 10.5733 23.3247 10.5745 23.292C10.5745 23.271 10.5768 23.264 10.5768 23.2407C10.585 22.7682 10.606 21.6645 11.2266 20.5737C12.2335 18.8027 15.3298 17.4073 15.4243 17.3595C15.7568 17.1588 16.1185 16.9535 16.4965 16.7377C16.7648 16.5848 17.0437 16.425 17.326 16.2605C17.6037 16.4215 17.8755 16.5778 18.1415 16.7283C18.523 16.9465 18.8893 17.1553 19.2265 17.3583C19.2463 17.37 19.2662 17.3805 19.2883 17.3898L19.2895 17.391C19.3128 17.4027 21.0605 18.1902 22.3579 19.33C22.7907 19.7103 23.1722 20.1292 23.4242 20.5725C23.5794 20.8443 23.6972 21.1185 23.7859 21.3822C23.9644 21.9107 24.0297 22.4018 24.0565 22.7752C24.0694 22.9618 24.0729 23.1193 24.0752 23.2372C24.0775 23.3433 24.0799 23.4227 24.0822 23.425C24.0822 24.2848 23.3519 26.2588 22.7335 27.0662ZM27.0899 18.0058C26.8822 18.3885 26.6745 18.8365 26.4505 19.3218C26.0714 20.142 25.6584 21.0368 25.1159 21.8757C25.1007 21.794 25.0785 21.7053 25.0587 21.6202C25.0459 21.5653 25.0365 21.514 25.0225 21.458C24.9934 21.346 24.9572 21.2293 24.9199 21.1127C24.907 21.0707 24.8965 21.031 24.8825 20.9878C24.7729 20.6647 24.6282 20.3287 24.438 19.9938C24.298 19.7477 24.1254 19.5097 23.9352 19.281C23.9294 19.274 23.9247 19.2658 23.9177 19.2588C23.7299 19.0348 23.521 18.8213 23.3017 18.6183C23.29 18.6078 23.2795 18.5962 23.2679 18.5857C23.0485 18.3838 22.8187 18.1937 22.5842 18.014C22.5725 18.0047 22.5609 17.9953 22.5492 17.9872C22.3112 17.8063 22.0732 17.6383 21.8387 17.4832L21.82 17.4703C21.5797 17.3117 21.3487 17.1693 21.1317 17.0422L21.127 17.0398C20.9088 16.9127 20.7093 16.8018 20.5332 16.7085C20.5227 16.7027 20.5145 16.698 20.5052 16.6933C20.3558 16.614 20.2263 16.5487 20.1213 16.4973C19.9708 16.4227 19.8507 16.3655 19.797 16.341C19.461 16.1392 19.097 15.9315 18.7178 15.7157C18.635 15.6678 18.5463 15.6153 18.4623 15.5675C18.4658 15.5652 18.4693 15.5628 18.4728 15.5605C19.0107 15.2152 19.5438 14.8395 20.049 14.4265C20.0653 14.4125 20.0817 14.3997 20.098 14.3868C20.5798 13.989 21.0302 13.555 21.4303 13.0802C21.4607 13.044 21.4922 13.0067 21.5213 12.9693C21.8959 12.5073 22.219 12.0068 22.4699 11.4597C22.499 11.3967 22.5247 11.3325 22.5515 11.2695C22.6495 11.0362 22.7347 10.7947 22.8047 10.545C22.8187 10.4972 22.8362 10.4505 22.8479 10.4015C22.9214 10.1122 22.9727 9.80883 23.0042 9.495C23.0065 9.467 23.0159 9.4425 23.0182 9.41333C28.6392 13.296 28.1597 16.0377 27.0899 18.0058Z" fill="#B98D75"/>
<path d="M23.1512 8.0915C23.0719 8.039 23.003 7.983 22.9307 7.92817C22.7639 7.213 22.4104 6.55733 21.862 6.00433C20.5973 4.72917 18.4098 4 15.8572 4C14.1982 4 12.2078 5.09317 10.3983 6.996C8.79646 8.68183 7.12695 11.3033 7.19579 13.6483C7.08962 14.038 6.74662 15.5022 6.76645 18.0047C6.77928 19.533 8.55613 22.7577 9.44863 23.7132C9.6493 24.7025 10.2373 26.7908 10.9886 27.7755L11.1485 27.9878C11.9651 29.0833 14.1328 32 17.3248 32C20.5168 32 22.6857 29.0845 23.5012 27.9878L23.6599 27.7755C24.3109 26.925 25.1135 24.9498 25.2232 23.6548C26.2837 22.4345 26.9662 20.9867 27.5087 19.8095C27.721 19.351 27.9159 18.9252 28.113 18.5623C30.0789 14.9515 28.5015 11.623 23.1512 8.0915ZM9.53846 21.8605C8.80113 20.6565 7.94129 18.8552 7.93429 17.9942C7.91679 15.8708 8.17579 14.5642 8.28779 14.0963C9.16979 13.5737 12.6336 11.5273 13.5355 11.1062C16.2562 9.83683 18.341 9.02133 19.2557 8.86967C19.5742 8.81717 19.7888 8.51617 19.7363 8.19883C19.6838 7.88033 19.3828 7.66217 19.0655 7.71817C17.676 7.94917 14.6952 9.278 13.042 10.0492C12.2638 10.412 9.8453 11.8237 8.46746 12.6357C8.76846 11.1353 9.77413 9.34683 11.2441 7.79983C12.8121 6.15133 14.5365 5.16667 15.8572 5.16667C18.068 5.16667 20.0035 5.78617 21.0337 6.82333C21.5855 7.37867 21.8644 8.0425 21.8749 8.795C21.8749 8.81717 21.8807 8.83817 21.8807 8.86033V8.86267C21.8784 9.1905 21.8375 9.4985 21.7815 9.7995C21.7699 9.86133 21.7605 9.9255 21.7465 9.98617C21.6847 10.258 21.5995 10.5182 21.498 10.769C21.4665 10.846 21.4315 10.9207 21.3965 10.9965C21.288 11.2298 21.169 11.4573 21.029 11.6732C20.987 11.7385 20.9392 11.8003 20.8937 11.8645C20.7665 12.0465 20.63 12.2227 20.483 12.393C20.4305 12.4548 20.3792 12.5178 20.3243 12.5785C20.1423 12.778 19.9463 12.9693 19.741 13.1548C19.6815 13.2085 19.622 13.2622 19.5613 13.3147C19.342 13.5037 19.1157 13.688 18.8777 13.8653C18.8368 13.8957 18.7948 13.9248 18.754 13.9552C18.2197 14.3448 17.6515 14.7088 17.0693 15.0553C17.0425 15.0705 17.0168 15.088 16.99 15.1032C16.6703 15.2933 16.3542 15.473 16.0473 15.6492C16.0042 15.6737 15.9598 15.6993 15.9178 15.7227C15.807 15.7857 15.7032 15.8452 15.597 15.907C15.3333 16.0575 15.0825 16.2033 14.8842 16.3258C14.743 16.3888 11.4075 17.8915 10.2105 19.9962C9.84063 20.6472 9.64463 21.3005 9.53846 21.8605ZM22.7335 27.0662L22.5644 27.2913C21.7757 28.3507 19.93 30.8333 17.3248 30.8333C14.7197 30.8333 12.874 28.3518 12.0853 27.2913L11.9161 27.0662C11.3515 26.3277 10.7728 24.4528 10.5721 23.3877C10.5733 23.3608 10.5733 23.3247 10.5745 23.292C10.5745 23.271 10.5768 23.264 10.5768 23.2407C10.585 22.7682 10.606 21.6645 11.2266 20.5737C12.2335 18.8027 15.3298 17.4073 15.4243 17.3595C15.7568 17.1588 16.1185 16.9535 16.4965 16.7377C16.7648 16.5848 17.0437 16.425 17.326 16.2605C17.6037 16.4215 17.8755 16.5778 18.1415 16.7283C18.523 16.9465 18.8893 17.1553 19.2265 17.3583C19.2463 17.37 19.2662 17.3805 19.2883 17.3898L19.2895 17.391C19.3128 17.4027 21.0605 18.1902 22.3579 19.33C22.7907 19.7103 23.1722 20.1292 23.4242 20.5725C23.5794 20.8443 23.6972 21.1185 23.7859 21.3822C23.9644 21.9107 24.0297 22.4018 24.0565 22.7752C24.0694 22.9618 24.0729 23.1193 24.0752 23.2372C24.0775 23.3433 24.0799 23.4227 24.0822 23.425C24.0822 24.2848 23.3519 26.2588 22.7335 27.0662ZM27.0899 18.0058C26.8822 18.3885 26.6745 18.8365 26.4505 19.3218C26.0714 20.142 25.6584 21.0368 25.1159 21.8757C25.1007 21.794 25.0785 21.7053 25.0587 21.6202C25.0459 21.5653 25.0365 21.514 25.0225 21.458C24.9934 21.346 24.9572 21.2293 24.9199 21.1127C24.907 21.0707 24.8965 21.031 24.8825 20.9878C24.7729 20.6647 24.6282 20.3287 24.438 19.9938C24.298 19.7477 24.1254 19.5097 23.9352 19.281C23.9294 19.274 23.9247 19.2658 23.9177 19.2588C23.7299 19.0348 23.521 18.8213 23.3017 18.6183C23.29 18.6078 23.2795 18.5962 23.2679 18.5857C23.0485 18.3838 22.8187 18.1937 22.5842 18.014C22.5725 18.0047 22.5609 17.9953 22.5492 17.9872C22.3112 17.8063 22.0732 17.6383 21.8387 17.4832L21.82 17.4703C21.5797 17.3117 21.3487 17.1693 21.1317 17.0422L21.127 17.0398C20.9088 16.9127 20.7093 16.8018 20.5332 16.7085C20.5227 16.7027 20.5145 16.698 20.5052 16.6933C20.3558 16.614 20.2263 16.5487 20.1213 16.4973C19.9708 16.4227 19.8507 16.3655 19.797 16.341C19.461 16.1392 19.097 15.9315 18.7178 15.7157C18.635 15.6678 18.5463 15.6153 18.4623 15.5675C18.4658 15.5652 18.4693 15.5628 18.4728 15.5605C19.0107 15.2152 19.5438 14.8395 20.049 14.4265C20.0653 14.4125 20.0817 14.3997 20.098 14.3868C20.5798 13.989 21.0302 13.555 21.4303 13.0802C21.4607 13.044 21.4922 13.0067 21.5213 12.9693C21.8959 12.5073 22.219 12.0068 22.4699 11.4597C22.499 11.3967 22.5247 11.3325 22.5515 11.2695C22.6495 11.0362 22.7347 10.7947 22.8047 10.545C22.8187 10.4972 22.8362 10.4505 22.8479 10.4015C22.9214 10.1122 22.9727 9.80883 23.0042 9.495C23.0065 9.467 23.0159 9.4425 23.0182 9.41333C28.6392 13.296 28.1597 16.0377 27.0899 18.0058Z" stroke="#B98D75" stroke-width="0.911659" mask="url(#path-1-outside-1_113_1381)"/>
</svg>
