<svg width="36" height="36" viewBox="0 0 36 36" fill="none" xmlns="http://www.w3.org/2000/svg">
<path fill-rule="evenodd" clip-rule="evenodd" d="M5 7C5 6.44772 5.44772 6 6 6H6.83369C8.41474 6 9.78624 6.98355 10.3323 8.39829C10.5024 8.26452 10.7169 8.18472 10.95 8.18472H27.2108C29.6578 8.18472 31.4492 10.4903 30.8445 12.8614L28.9471 20.3017C28.5235 21.9627 27.0276 23.125 25.3134 23.125H13.4164C11.5027 23.125 9.896 21.6841 9.68846 19.7817L8.57339 9.56022C8.47654 8.67244 7.72675 8 6.83369 8H6C5.44772 8 5 7.55228 5 7ZM10.6483 10.1384L11.6767 19.5648C11.7735 20.4526 12.5233 21.125 13.4164 21.125H25.3134C26.1134 21.125 26.8115 20.5826 27.0092 19.8074L28.9066 12.3672C29.1887 11.2607 28.3528 10.1847 27.2108 10.1847H10.95C10.8449 10.1847 10.7435 10.1685 10.6483 10.1384ZM9.12503 27.625C9.12503 26.3133 10.1884 25.25 11.5 25.25C12.8117 25.25 13.875 26.3133 13.875 27.625C13.875 28.9367 12.8117 30 11.5 30C10.1884 30 9.12503 28.9367 9.12503 27.625ZM24.2501 27.625C24.2501 26.3133 25.3135 25.25 26.6251 25.25C27.9368 25.25 29.0001 26.3133 29.0001 27.625C29.0001 28.9367 27.9368 30 26.6251 30C25.3135 30 24.2501 28.9367 24.2501 27.625Z" fill="#B98D75"/>
</svg>
