<svg width="40" height="40" viewBox="0 0 40 40" fill="none" xmlns="http://www.w3.org/2000/svg">
<path d="M20.0898 4C15.8473 4 11.7748 5.68675 8.77734 8.68625C5.77675 11.6869 4.09067 15.7565 4.08984 20C4.08984 24.2417 5.77734 28.3142 8.77734 31.3137C11.7748 34.3132 15.8473 36 20.0898 36C24.3323 36 28.4048 34.3132 31.4023 31.3137C34.4023 28.3142 36.0898 24.2417 36.0898 20C36.0898 15.7583 34.4023 11.6858 31.4023 8.68625C28.4048 5.68675 24.3323 4 20.0898 4Z" fill="url(#paint0_linear_6_91117)"/>
<path d="M11.2583 20.027C15.8226 18.0514 18.8654 16.7489 20.3869 16.1196C24.7359 14.3227 25.6385 14.0107 26.2279 14.0001C26.3576 13.998 26.6462 14.0299 26.8346 14.1812C26.9911 14.3088 27.0351 14.4813 27.0571 14.6025C27.0767 14.7235 27.1036 14.9994 27.0816 15.2148C26.8468 17.6745 25.8268 23.6434 25.3082 26.3984C25.0905 27.5641 24.6576 27.9549 24.2393 27.9931C23.3294 28.0762 22.6396 27.3961 21.7591 26.8228C20.382 25.9252 19.6041 25.3666 18.2662 24.4909C16.7203 23.4788 17.7232 22.9225 18.6037 22.0135C18.8336 21.7755 22.8402 18.1552 22.916 17.8269C22.9258 17.7858 22.9356 17.6327 22.8427 17.552C22.7522 17.471 22.6176 17.4987 22.5198 17.5206C22.3804 17.5517 20.1814 18.9974 15.9155 21.8574C15.2918 22.2837 14.7268 22.4915 14.218 22.4806C13.6603 22.4687 12.5841 22.1666 11.7842 21.9085C10.8058 21.5918 10.0255 21.4243 10.094 20.8864C10.1283 20.6064 10.5172 20.3199 11.2583 20.027Z" fill="white"/>
<defs>
<linearGradient id="paint0_linear_6_91117" x1="1604.09" y1="4" x2="1604.09" y2="3204" gradientUnits="userSpaceOnUse">
<stop stop-color="#2AABEE"/>
<stop offset="1" stop-color="#229ED9"/>
</linearGradient>
</defs>
</svg>
