<svg width="40" height="40" viewBox="0 0 40 40" fill="none" xmlns="http://www.w3.org/2000/svg">
<path d="M17.1559 10.0008C18.3844 9.98822 19.586 10.1232 20.1723 10.1399C22.3453 10.2019 22.7291 11.2908 22.7013 12.1864C22.6607 13.4981 21.8088 19.0467 23.3873 19.5879C25.6872 18.3694 27.2296 14.5849 28.3527 12.1864C28.9209 10.9732 28.8311 10.9129 30.1403 10.9113L35.3415 10.9034C36.594 10.9018 36.5452 10.8583 36.9464 11.3652C37.8796 12.544 34.0015 17.4476 32.7489 18.8034C30.4373 21.3055 31.786 22.2744 32.1583 22.6182C33.8834 24.2117 35.5502 25.8641 36.5862 27.3881C37.4098 28.5997 37.0697 29.7278 36.0221 29.7705L30.4449 29.9987C28.5941 30.0741 25.7163 26.7872 25.2569 26.071C24.8855 25.4803 23.0951 24.74 22.9265 26.2494L22.6907 28.3562C22.5196 29.8622 21.3972 29.8271 20.5112 29.8648C14.3764 30.1263 12.2872 27.8123 9.19779 24.397C6.93356 21.2245 4.77282 18.0339 2.98232 14.2117C2.44639 13.0677 2.16252 12.2284 2.08984 11.3388C2.99075 10.6412 6.15299 10.9417 8.27621 10.8954C8.85694 10.8827 9.24878 11.2124 9.55532 11.8688C10.7515 14.4306 12.056 16.9462 13.782 19.1706C14.5337 19.8565 15.1982 20.1087 15.5298 18.7141C15.7224 18.6965 15.7069 16.3869 15.7179 14.6447C15.7253 13.4484 15.5835 12.0138 13.5383 11.3519C13.952 10.2776 15.5764 10.0171 17.1559 10.0008Z" fill="#445285"/>
</svg>
