<svg width="180" height="32" viewBox="0 0 180 32" fill="none" xmlns="http://www.w3.org/2000/svg">
<path fill-rule="evenodd" clip-rule="evenodd" d="M13.3149 10.4539C13.4821 10.0352 13.6213 9.61649 13.7327 9.22569C13.8581 8.82093 13.9555 8.41617 14.0252 8.03933C14.0948 7.66248 14.1505 7.2996 14.1644 6.96462V6.95067C14.1644 6.92275 14.1644 6.9088 14.1784 6.88088C14.1923 6.86692 14.1923 6.83901 14.2201 6.82505C14.2341 6.81109 14.248 6.79714 14.2619 6.79714H14.2759C14.2898 6.78318 14.3176 6.78318 14.3316 6.78318H20.6541C20.668 6.78318 20.6819 6.78318 20.7098 6.78318C20.7237 6.78318 20.7515 6.79714 20.7655 6.81109C20.7794 6.82505 20.7933 6.83901 20.8073 6.86692C20.8073 6.88088 20.8212 6.89484 20.8212 6.9088V6.92275C20.8212 6.93671 20.8212 6.95067 20.8212 6.96462V6.99254C20.6262 7.66248 20.4034 8.31847 20.1249 8.93258C19.8603 9.5467 19.5539 10.1469 19.2057 10.7051C18.8576 11.2634 18.4816 11.7798 18.0638 12.2683C17.6599 12.7568 17.2143 13.1895 16.7269 13.6082C16.2534 14.013 15.752 14.3619 15.2228 14.6829C14.7076 14.99 14.1505 15.2691 13.5656 15.4925C12.9946 15.7158 12.3958 15.8972 11.7831 16.0228C11.1703 16.1484 10.5436 16.2322 9.87516 16.274H9.83339C9.81946 16.274 9.79161 16.2601 9.77768 16.2601C9.76376 16.2601 9.74983 16.2461 9.74983 16.2322C9.7359 16.2182 9.72198 16.2043 9.70805 16.1764C9.69412 16.1624 9.69413 16.1345 9.69413 16.1066C9.69413 16.0926 9.69412 16.0787 9.70805 16.0647V16.0507C9.70805 16.0368 9.72198 16.0228 9.72198 16.0228L9.7359 15.9949C10.0423 15.6878 10.3208 15.3668 10.5993 15.0319C10.8779 14.6969 11.1425 14.334 11.3931 13.9851C11.6577 13.6082 11.8945 13.2314 12.1173 12.8545C12.354 12.4637 12.5629 12.059 12.7579 11.6682C12.9668 11.2495 13.1339 10.8447 13.301 10.44L13.3149 10.4539ZM13.6492 19.3446C13.9556 19.5261 14.2341 19.7354 14.4987 19.9448C14.7633 20.1681 15.0139 20.4054 15.2507 20.6426C15.4874 20.8939 15.6963 21.1591 15.9052 21.4382C16.5319 22.2896 17.0332 23.2387 17.5346 24.1598V24.1738C17.7574 24.5925 17.9802 25.0112 18.203 25.3881C18.4259 25.7789 18.6487 26.1418 18.8994 26.4907C19.0525 26.7001 19.1918 26.8955 19.345 27.0769C19.4982 27.2583 19.6514 27.4398 19.7906 27.5933C19.9438 27.7608 20.097 27.9143 20.2502 28.0399C20.4034 28.1795 20.5566 28.3051 20.7098 28.4168C20.863 28.5284 21.0161 28.6401 21.1554 28.7238C21.3086 28.8076 21.4618 28.8913 21.601 28.9611C21.7542 29.0309 21.9074 29.0867 22.0467 29.1286C22.1999 29.1705 22.3391 29.1984 22.4923 29.2123C22.5063 29.2123 22.5202 29.2263 22.5341 29.2263C22.548 29.2263 22.562 29.2403 22.5759 29.2542C22.5898 29.2682 22.6037 29.2821 22.6177 29.31C22.6316 29.324 22.6316 29.3519 22.6316 29.3659C22.6316 29.3938 22.6316 29.4077 22.6177 29.4357C22.6177 29.4496 22.6037 29.4636 22.6037 29.4775L22.5898 29.5054C22.4366 29.659 22.2834 29.8125 22.1024 29.9381H22.0885C21.8935 30.0777 21.6985 30.1893 21.4757 30.301C21.2807 30.3987 21.0718 30.4824 20.849 30.5522C20.6262 30.636 20.3895 30.6918 20.1527 30.7476C19.9438 30.7895 19.7349 30.8314 19.54 30.8593C19.3171 30.8872 19.0943 30.9151 18.8854 30.943C18.6905 30.957 18.5094 30.9709 18.3284 30.9709C18.1473 30.9709 17.9942 30.9849 17.8688 30.9849C17.5903 30.9849 17.3257 30.9709 17.075 30.957C16.8244 30.943 16.5876 30.9012 16.3648 30.8732C16.142 30.8314 15.9191 30.7895 15.7242 30.7337C15.5153 30.6778 15.3203 30.6081 15.1393 30.5243C14.9582 30.4545 14.7772 30.3568 14.6101 30.2731C14.443 30.1754 14.2759 30.0777 14.1227 29.9521C13.9695 29.8404 13.8163 29.7148 13.677 29.5752C13.5378 29.4357 13.3846 29.2961 13.2592 29.1565L13.2453 29.1426C12.5211 28.333 11.9223 27.3002 11.421 26.2255C10.9196 25.1368 10.5018 24.0203 10.1258 23.0014L9.80553 22.1361L9.65235 21.7453L9.49916 21.3684C9.4156 21.1591 9.33204 20.9637 9.24849 20.7962C9.16493 20.6147 9.08137 20.4472 9.01174 20.2937C8.92818 20.1262 8.84462 19.9867 8.77499 19.8471C8.69144 19.7075 8.62181 19.5959 8.53825 19.4702C8.45469 19.3586 8.38506 19.2609 8.3015 19.1632C8.21795 19.0655 8.14831 18.9817 8.06476 18.912C7.9812 18.8422 7.89764 18.7724 7.81408 18.7166C7.73053 18.6607 7.64697 18.6049 7.56341 18.563L7.53556 18.5491C7.52163 18.5351 7.50771 18.5351 7.49378 18.5212C7.47985 18.5072 7.47985 18.4932 7.46593 18.4793C7.46593 18.4653 7.452 18.4514 7.452 18.4374C7.452 18.4235 7.452 18.3955 7.452 18.3816C7.46593 18.3537 7.46593 18.3397 7.49378 18.3118C7.50771 18.2978 7.52163 18.2839 7.53556 18.2839C7.54949 18.2699 7.57734 18.2699 7.60519 18.2699C8.12046 18.2281 8.60788 18.2001 9.06744 18.2141C9.52701 18.2141 9.97265 18.256 10.3904 18.3118C10.8082 18.3676 11.2121 18.4514 11.5881 18.5491C11.9641 18.6468 12.3262 18.7724 12.6604 18.912C12.9946 19.0515 13.3149 19.219 13.6213 19.4005L13.6492 19.3446ZM23.8153 30.6081V6.97858C23.8153 6.96462 23.8153 6.95067 23.8292 6.92275V6.9088C23.8432 6.88088 23.8571 6.86692 23.871 6.85297C23.8849 6.83901 23.8989 6.82505 23.9267 6.81109C23.9546 6.79714 23.9685 6.79714 23.9964 6.79714H29.7897C29.8036 6.79714 29.8175 6.79714 29.8454 6.81109H29.8593C29.8871 6.82505 29.9011 6.82505 29.915 6.85297C29.9289 6.86692 29.9289 6.88088 29.9429 6.89484V6.9088C29.9568 6.92275 29.9568 6.95067 29.9568 6.97858V20.8101L38.0618 6.88088C38.0758 6.86692 38.0758 6.86692 38.0897 6.85297C38.1036 6.83901 38.1315 6.82505 38.1593 6.81109H38.1733C38.1872 6.81109 38.2011 6.81109 38.215 6.81109H44.0083C44.0501 6.81109 44.0919 6.82505 44.1337 6.85297C44.1476 6.86692 44.1615 6.88088 44.1755 6.9088C44.1894 6.93671 44.1894 6.95067 44.1894 6.97858V30.6081C44.1894 30.622 44.1894 30.636 44.1894 30.6499V30.6639C44.1755 30.6778 44.1755 30.7058 44.1476 30.7197C44.1337 30.7337 44.1198 30.7476 44.1058 30.7476L44.0919 30.7616C44.078 30.7755 44.0501 30.7755 44.0362 30.7755H38.2429C38.229 30.7755 38.215 30.7755 38.1872 30.7616H38.1733C38.1593 30.7476 38.1454 30.7476 38.1315 30.7337C38.1175 30.7197 38.1036 30.7058 38.0897 30.6778C38.0758 30.6499 38.0758 30.636 38.0758 30.6081V16.7765L29.9707 30.6918C29.9707 30.7058 29.9568 30.7197 29.9429 30.7197L29.9289 30.7337C29.915 30.7476 29.8871 30.7616 29.8593 30.7755H29.8454C29.8314 30.7755 29.8175 30.7755 29.8036 30.7755H24.0103C23.9964 30.7755 23.9685 30.7755 23.9407 30.7616C23.9267 30.7616 23.9128 30.7476 23.8989 30.7337L23.8849 30.7197C23.871 30.7058 23.8571 30.6918 23.8432 30.6639C23.8292 30.636 23.8292 30.622 23.8292 30.5941L23.8153 30.6081ZM48.2001 30.6081V6.97858C48.2001 6.93671 48.2141 6.89484 48.2558 6.85297C48.2698 6.83901 48.2837 6.82505 48.3116 6.81109C48.3394 6.79714 48.3533 6.79714 48.3812 6.79714H65.4965C65.5104 6.79714 65.5244 6.79714 65.5522 6.81109H65.5661C65.594 6.82505 65.6079 6.82505 65.6218 6.85297C65.6358 6.86692 65.6497 6.88088 65.6497 6.89484V6.9088C65.6636 6.92275 65.6636 6.95067 65.6636 6.97858V11.5984C65.6636 11.6263 65.6636 11.6403 65.6497 11.6682C65.6497 11.6821 65.6358 11.6961 65.6358 11.7101L65.6218 11.724C65.6079 11.738 65.594 11.7519 65.5801 11.7519L65.5661 11.7659C65.5522 11.7798 65.5244 11.7798 65.5104 11.7798H54.3555V16.274H63.2126C63.2265 16.274 63.2405 16.2741 63.2683 16.288H63.2822C63.2962 16.302 63.324 16.3159 63.3379 16.3299C63.3519 16.3438 63.3658 16.3578 63.3658 16.3717V16.3857C63.3797 16.4136 63.3797 16.4276 63.3797 16.4555V21.0753C63.3797 21.1032 63.3797 21.1172 63.3658 21.1451C63.3519 21.173 63.3519 21.187 63.3379 21.2009C63.324 21.2149 63.2962 21.2288 63.2822 21.2428C63.2544 21.2568 63.2405 21.2568 63.2265 21.2568H54.3695V25.8487C55.5393 25.8487 56.7508 25.8207 57.9763 25.8068C60.6363 25.751 63.3937 25.7091 65.789 25.8487H65.8029C65.8168 25.8487 65.8447 25.8626 65.8586 25.8626C65.8725 25.8766 65.8864 25.8905 65.9004 25.9045C65.9143 25.9184 65.9282 25.9324 65.9282 25.9464V25.9603C65.9282 25.9743 65.9422 25.9882 65.9422 26.0022C65.9422 26.0999 65.9282 26.2255 65.9282 26.3232C65.8307 27.7608 65.7333 29.2123 65.6497 30.636C65.6497 30.6499 65.6497 30.6639 65.6358 30.6778V30.6918C65.6218 30.7197 65.6079 30.7337 65.594 30.7476C65.5801 30.7616 65.5661 30.7755 65.5383 30.7755C65.5104 30.7895 65.4965 30.7895 65.4687 30.7895H48.3951C48.3812 30.7895 48.3673 30.7895 48.3394 30.7755H48.3255C48.3116 30.7616 48.2976 30.7616 48.2837 30.7476C48.2698 30.7337 48.2558 30.7197 48.2419 30.6918C48.228 30.6639 48.228 30.6499 48.228 30.622L48.2001 30.6081ZM77.8769 20.7543H75.0778V25.8207H77.9048C78.2112 25.8207 78.4897 25.8068 78.7403 25.7789C79.005 25.751 79.2417 25.7091 79.4645 25.6533C79.6873 25.5974 79.8962 25.5277 80.0912 25.4439C80.2722 25.3602 80.4533 25.2625 80.5925 25.1648C80.7457 25.0531 80.8711 24.9414 80.9825 24.8019C81.0939 24.6623 81.1914 24.5227 81.261 24.3692C81.3306 24.2157 81.3863 24.0482 81.4281 23.8667C81.4699 23.6853 81.4838 23.4899 81.4838 23.2805C81.4838 23.0712 81.4699 22.8758 81.4281 22.6943C81.3863 22.5129 81.3306 22.3454 81.261 22.1919C81.1914 22.0384 81.0939 21.8848 80.9825 21.7592C80.8711 21.6196 80.7457 21.508 80.5925 21.4103C80.4393 21.2986 80.2722 21.2009 80.0773 21.1311C79.8823 21.0474 79.6734 20.9776 79.4506 20.9218C79.2138 20.866 78.9771 20.8241 78.7125 20.7962C78.4479 20.7683 78.1694 20.7543 77.863 20.7543H77.8769ZM75.0778 16.302H77.3059C77.5845 16.302 77.8351 16.288 78.0719 16.2601C78.3086 16.2322 78.5315 16.1903 78.7403 16.1484C78.9492 16.0926 79.1442 16.0228 79.3252 15.953C79.5063 15.8693 79.6595 15.7856 79.7987 15.6878C79.938 15.5901 80.0633 15.4785 80.1608 15.3529C80.2722 15.2273 80.3558 15.0877 80.4254 14.9481C80.4951 14.7946 80.5508 14.6411 80.5925 14.4736C80.6343 14.3061 80.6482 14.1246 80.6482 13.9432C80.6482 13.6361 80.6065 13.3151 80.4533 13.0081C80.3419 12.7568 80.1608 12.5196 79.8962 12.3242C79.6734 12.1567 79.367 12.0171 79.0049 11.9194C78.6568 11.8357 78.2529 11.7798 77.7516 11.7798H75.0917V16.302H75.0778ZM68.9502 30.622V6.99254C68.9502 6.97858 68.9502 6.96462 68.9641 6.93671V6.92275C68.9781 6.89484 68.992 6.88088 69.0059 6.86692C69.0198 6.85297 69.0338 6.83901 69.0616 6.82505C69.0895 6.81109 69.1034 6.81109 69.1313 6.81109H78.3922C79.0467 6.81109 79.6456 6.83901 80.2026 6.9088C80.7875 6.97858 81.3306 7.07628 81.818 7.2019C82.3333 7.32751 82.7929 7.495 83.2246 7.67644C83.6702 7.87184 84.0602 8.09515 84.4083 8.34638C84.7843 8.61157 85.1046 8.90467 85.3692 9.21173C85.6617 9.5467 85.8984 9.89563 86.0795 10.2585C86.2744 10.6493 86.4276 11.0541 86.5112 11.4588C86.6087 11.8915 86.6644 12.3381 86.6644 12.7568C86.6644 13.0499 86.6365 13.343 86.5947 13.6361C86.553 13.9153 86.4833 14.1944 86.3998 14.4736C86.3162 14.7388 86.2048 15.0039 86.0795 15.2552C85.9541 15.5064 85.8009 15.7437 85.6338 15.981C85.4946 16.1764 85.3275 16.3718 85.1464 16.5532C84.9654 16.7346 84.7843 16.9021 84.5754 17.0696C84.3665 17.2231 84.1437 17.3906 83.907 17.5302C83.6702 17.6698 83.4335 17.8093 83.1689 17.935C83.5031 18.0327 83.8234 18.1583 84.1298 18.2978C84.4362 18.4374 84.7286 18.5909 85.0071 18.7724C85.2857 18.9399 85.5363 19.1353 85.787 19.3307C86.0238 19.5261 86.2466 19.7494 86.4416 19.9867C86.6504 20.2379 86.8593 20.5031 87.0265 20.7962C87.1936 21.0753 87.3328 21.3824 87.4442 21.6894C87.5556 21.9965 87.6392 22.3175 87.6949 22.6664C87.7506 23.0014 87.7785 23.3503 87.7785 23.7132C87.7785 24.2017 87.7228 24.7181 87.6114 25.2206C87.4999 25.6951 87.3328 26.1697 87.11 26.6303C86.9011 27.0629 86.6365 27.4817 86.3023 27.8725C85.9959 28.2493 85.6338 28.5982 85.216 28.9192C84.8261 29.2263 84.3944 29.4915 83.907 29.7288C83.4474 29.9521 82.9321 30.1614 82.3751 30.315C81.8459 30.4685 81.261 30.5801 80.6204 30.6639C80.0076 30.7476 79.367 30.7755 78.6707 30.7755H69.1034C69.0895 30.7755 69.0756 30.7755 69.0477 30.7616H69.0338C69.0059 30.7476 68.992 30.7337 68.9781 30.7197C68.9641 30.7058 68.9502 30.6918 68.9363 30.6639C68.9224 30.636 68.9224 30.622 68.9224 30.5941L68.9502 30.622ZM90.9397 25.9882C90.5359 25.3183 90.2016 24.6065 89.937 23.8528C89.6724 23.0851 89.4635 22.2756 89.3243 21.4382C89.185 20.5868 89.1154 19.7075 89.1154 18.8143C89.1154 17.8931 89.185 17.0138 89.3243 16.1903C89.4635 15.3389 89.6864 14.5434 89.9649 13.8036C90.2434 13.0499 90.6055 12.3381 91.0094 11.6961C91.4271 11.0401 91.9146 10.44 92.4577 9.89563C93.0008 9.3513 93.6135 8.8628 94.2681 8.44408C94.9365 8.02537 95.6468 7.66248 96.4127 7.38334C97.1787 7.09024 97.9864 6.88088 98.822 6.72735C99.6575 6.58778 100.535 6.50404 101.44 6.50404C101.677 6.50404 101.941 6.50404 102.192 6.51799C102.443 6.53195 102.707 6.54591 102.958 6.57382C103.195 6.60174 103.459 6.62965 103.71 6.65757C103.961 6.68548 104.211 6.72735 104.462 6.76922C104.699 6.8111 104.949 6.86692 105.2 6.92275C105.451 6.97858 105.702 7.03441 105.938 7.1042C106.175 7.17398 106.426 7.24377 106.662 7.31355C106.899 7.3973 107.15 7.46708 107.373 7.56478L107.414 7.5927C107.428 7.60665 107.442 7.60665 107.442 7.62061C107.456 7.63457 107.456 7.64852 107.47 7.66248C107.47 7.67644 107.484 7.70435 107.484 7.71831L107.526 8.48595C107.595 9.68627 107.735 11.7938 107.707 12.1148C107.707 12.1288 107.707 12.1427 107.693 12.1567C107.693 12.1706 107.679 12.1846 107.679 12.1986L107.665 12.2265C107.651 12.2404 107.637 12.2544 107.623 12.2683C107.609 12.2823 107.582 12.2823 107.568 12.2823H107.554C107.54 12.2823 107.512 12.2823 107.498 12.2683C107.289 12.1986 107.066 12.1288 106.843 12.0729C106.621 12.0171 106.398 11.9473 106.189 11.9055C105.966 11.8496 105.743 11.8078 105.52 11.7519C105.298 11.7101 105.075 11.6682 104.852 11.6263C104.629 11.5844 104.406 11.5565 104.197 11.5286C103.989 11.5007 103.766 11.4728 103.557 11.4588C103.348 11.4449 103.139 11.4309 102.944 11.417C102.749 11.403 102.554 11.403 102.359 11.403C101.83 11.403 101.315 11.4449 100.813 11.5147C100.34 11.5844 99.8943 11.7101 99.4626 11.8636C99.0448 12.0171 98.6688 12.2125 98.3067 12.4498C97.9585 12.6731 97.6522 12.9383 97.3597 13.2593C97.0812 13.5664 96.8305 13.9013 96.6216 14.2921C96.4127 14.669 96.2317 15.0877 96.0924 15.5483C95.9532 15.9949 95.8418 16.4834 95.7721 17.0277C95.7025 17.5442 95.6607 18.1164 95.6607 18.7305C95.6607 19.3446 95.7025 19.9308 95.7721 20.4612C95.8418 21.0055 95.9532 21.494 96.1063 21.9546C96.2595 22.4152 96.4406 22.8479 96.6634 23.2247C96.8862 23.6155 97.1369 23.9505 97.4293 24.2575C97.7218 24.5646 98.056 24.8298 98.4181 25.0671C98.7941 25.3043 99.198 25.4858 99.6297 25.6393C100.075 25.7928 100.549 25.9045 101.05 25.9882C101.565 26.072 102.109 26.0999 102.693 26.0999C102.986 26.0999 103.264 26.0859 103.543 26.072C103.821 26.058 104.086 26.0301 104.351 25.9882C104.615 25.9464 104.88 25.9045 105.131 25.8487C105.395 25.7928 105.646 25.723 105.896 25.6533C106.147 25.5835 106.384 25.4997 106.635 25.402C106.885 25.3043 107.122 25.2066 107.359 25.1089C107.595 24.9973 107.832 24.8856 108.069 24.76C108.306 24.6344 108.542 24.5088 108.765 24.3692C108.779 24.3552 108.793 24.3552 108.807 24.3413C108.835 24.3413 108.849 24.3273 108.877 24.3273C108.891 24.3273 108.905 24.3273 108.932 24.3413H108.946C108.96 24.3552 108.988 24.3692 109.002 24.3832C109.016 24.3971 109.03 24.4111 109.03 24.439C109.044 24.4669 109.044 24.5088 109.058 24.5646C109.058 24.6065 109.072 24.6483 109.072 24.7042C109.086 24.8019 109.072 24.9135 109.072 24.9973C109.072 25.5695 108.905 26.5186 108.361 27.5096C107.971 28.2074 107.414 28.9192 106.579 29.5334C105.91 30.0219 105.061 30.4545 104.016 30.7476C103.097 30.9989 102.011 31.1524 100.744 31.1524C99.8664 31.1524 99.0309 31.0826 98.251 30.943C97.4433 30.8035 96.6913 30.5941 95.9949 30.315C95.2708 30.0358 94.6162 29.6869 94.0035 29.2682C93.3768 28.8495 92.8198 28.361 92.3045 27.8306C91.7892 27.2863 91.3297 26.6721 90.9397 26.0162V25.9882ZM111.425 30.622V6.99254C111.425 6.97858 111.425 6.96462 111.439 6.93671V6.92275C111.453 6.89484 111.467 6.88088 111.481 6.86692C111.495 6.85297 111.509 6.83901 111.537 6.82505C111.564 6.81109 111.578 6.81109 111.606 6.81109H117.4C117.441 6.81109 117.483 6.82505 117.525 6.86692C117.539 6.88088 117.553 6.89484 117.553 6.9088V6.92275C117.567 6.93671 117.567 6.96462 117.567 6.99254V30.622C117.567 30.636 117.567 30.6499 117.553 30.6778V30.6918C117.539 30.7058 117.539 30.7337 117.511 30.7476C117.497 30.7616 117.483 30.7755 117.455 30.7895C117.441 30.8035 117.413 30.8035 117.386 30.8035H111.592C111.564 30.8035 111.551 30.8035 111.523 30.7895C111.509 30.7895 111.495 30.7755 111.481 30.7616L111.467 30.7476C111.453 30.7337 111.439 30.7197 111.425 30.6918C111.411 30.6639 111.411 30.6499 111.411 30.622H111.425ZM119.711 20.7962C119.628 20.6147 119.558 20.4472 119.475 20.2937C119.391 20.1262 119.307 19.9867 119.238 19.8471C119.154 19.7075 119.085 19.5959 119.001 19.4702C118.918 19.3586 118.848 19.2609 118.764 19.1632C118.681 19.0655 118.611 18.9817 118.528 18.912C118.444 18.8422 118.36 18.7724 118.277 18.7166C118.193 18.6607 118.11 18.6049 118.026 18.563L117.998 18.5491C117.984 18.5351 117.971 18.5351 117.957 18.5212C117.943 18.5072 117.943 18.4932 117.929 18.4793C117.929 18.4653 117.915 18.4514 117.915 18.4374C117.915 18.4235 117.915 18.3955 117.915 18.3816C117.929 18.3537 117.929 18.3397 117.943 18.3118C117.957 18.2978 117.971 18.2839 117.984 18.2839C117.998 18.2699 118.026 18.2699 118.054 18.2699C118.569 18.2281 119.057 18.2001 119.516 18.2141C119.976 18.2141 120.422 18.256 120.839 18.3118C121.257 18.3676 121.661 18.4514 122.037 18.5491C122.413 18.6468 122.775 18.7724 123.109 18.912C123.444 19.0515 123.764 19.219 124.07 19.4005C124.377 19.5819 124.655 19.7913 124.92 20.0006C125.184 20.2239 125.435 20.4612 125.672 20.6985C125.908 20.9497 126.117 21.2149 126.326 21.494C126.953 22.3454 127.454 23.2945 127.956 24.2157C128.178 24.6344 128.401 25.0531 128.624 25.4299C128.847 25.8207 129.07 26.1836 129.32 26.5326C129.474 26.7419 129.613 26.9373 129.766 27.1188C129.919 27.3002 130.072 27.4817 130.212 27.6352C130.365 27.8027 130.518 27.9562 130.671 28.0818C130.824 28.2214 130.978 28.347 131.131 28.4587C131.284 28.5703 131.437 28.682 131.576 28.7657C131.73 28.8495 131.883 28.9332 132.022 29.003C132.175 29.0728 132.328 29.1286 132.468 29.1705C132.621 29.2123 132.76 29.2403 132.913 29.2542C132.927 29.2542 132.941 29.2542 132.955 29.2682H132.969C132.983 29.2682 132.997 29.2821 133.011 29.2961C133.025 29.31 133.039 29.324 133.053 29.338C133.067 29.3519 133.067 29.3798 133.067 29.4077C133.067 29.4357 133.067 29.4496 133.053 29.4775C133.053 29.4915 133.039 29.5054 133.039 29.5194L133.025 29.5334C132.872 29.6869 132.718 29.8404 132.537 29.966H132.523C132.328 30.1056 132.133 30.2173 131.911 30.3289C131.716 30.4266 131.507 30.5104 131.298 30.5801C131.061 30.6639 130.838 30.7197 130.602 30.7755C130.393 30.8174 130.184 30.8593 129.989 30.8872C129.766 30.9151 129.543 30.943 129.334 30.9709C129.139 30.9849 128.958 30.9989 128.791 30.9989C128.61 30.9989 128.457 31.0128 128.332 31.0128C128.053 31.0128 127.789 30.9989 127.538 30.9849C127.287 30.9709 127.05 30.9291 126.828 30.9012C126.605 30.8593 126.382 30.8174 126.187 30.7616C125.978 30.7058 125.783 30.636 125.602 30.5522C125.421 30.4824 125.24 30.3847 125.073 30.301C124.906 30.2033 124.739 30.1056 124.585 29.98C124.432 29.8683 124.279 29.7427 124.14 29.6031C124.001 29.4636 123.861 29.324 123.722 29.1844L123.708 29.1705C122.984 28.361 122.385 27.3281 121.884 26.2534C121.382 25.1648 120.965 24.0482 120.589 23.0293L120.268 22.164L120.115 21.7732L119.962 21.3963C119.878 21.187 119.795 20.9916 119.711 20.8241V20.7962ZM122.246 16.0787C121.633 16.2043 121.006 16.288 120.338 16.3299H120.31C120.296 16.3299 120.268 16.3159 120.254 16.302L120.227 16.274C120.213 16.2601 120.199 16.2322 120.185 16.2182C120.171 16.1903 120.171 16.1763 120.171 16.1484C120.171 16.1205 120.171 16.1066 120.185 16.0787C120.199 16.0647 120.199 16.0368 120.213 16.0228C120.519 15.7158 120.798 15.3947 121.062 15.0598C121.341 14.7248 121.605 14.3619 121.856 14.013C122.121 13.6361 122.357 13.2593 122.58 12.8825C122.817 12.4917 123.026 12.0869 123.221 11.6961C123.416 11.2774 123.597 10.8726 123.764 10.4679C123.931 10.0492 124.07 9.63044 124.182 9.23964C124.307 8.83488 124.404 8.43013 124.474 8.05328C124.544 7.67644 124.599 7.31355 124.613 6.99254V6.97858C124.613 6.96462 124.613 6.95067 124.627 6.92275V6.9088C124.641 6.88088 124.655 6.86692 124.669 6.85297C124.683 6.83901 124.697 6.82505 124.711 6.82505H124.725C124.739 6.81109 124.767 6.81109 124.78 6.81109H125.7C127.329 6.81109 130.49 6.79714 131.075 6.82505C131.103 6.81109 131.131 6.81109 131.159 6.82505C131.173 6.82505 131.187 6.83901 131.214 6.85297C131.228 6.86692 131.256 6.89484 131.27 6.9088C131.284 6.92275 131.284 6.95067 131.284 6.96462C131.284 6.97858 131.284 6.99254 131.284 7.02045V7.03441C131.089 7.70435 130.866 8.36034 130.588 8.97446C130.323 9.58857 130.017 10.1887 129.669 10.747C129.32 11.3053 128.944 11.8217 128.527 12.3102C128.123 12.7848 127.677 13.2314 127.19 13.6501C126.716 14.0549 126.229 14.4038 125.686 14.7248C125.17 15.0319 124.613 15.311 124.028 15.5343C123.457 15.7576 122.859 15.9391 122.246 16.0647V16.0787ZM143.539 15.1575L147.689 8.02537C147.856 7.76018 148.023 7.53687 148.163 7.34147C148.302 7.14607 148.427 6.99254 148.539 6.86692C148.553 6.83901 148.58 6.82505 148.608 6.82505H148.622C148.636 6.82505 148.65 6.82505 148.664 6.82505H154.457C154.471 6.82505 154.485 6.82505 154.513 6.83901H154.527C154.541 6.85297 154.569 6.85297 154.583 6.88088C154.596 6.89484 154.596 6.90879 154.61 6.92275V6.93671C154.624 6.95067 154.624 6.97858 154.624 7.0065V30.636C154.624 30.6639 154.624 30.6778 154.61 30.7058C154.61 30.7197 154.596 30.7337 154.596 30.7337L154.583 30.7476C154.569 30.7616 154.555 30.7755 154.541 30.7755L154.527 30.7895C154.513 30.8035 154.485 30.8035 154.471 30.8035H148.678C148.664 30.8035 148.65 30.8035 148.622 30.7895H148.608C148.58 30.7755 148.566 30.7616 148.553 30.7476C148.539 30.7337 148.525 30.7197 148.525 30.7058V30.6918C148.511 30.6639 148.511 30.6499 148.511 30.622V16.7905C147.633 18.2978 146.826 19.6936 146.032 21.0753C144.166 24.2994 142.3 27.5235 140.406 30.7197L140.392 30.7476C140.378 30.7616 140.364 30.7755 140.35 30.7755C140.336 30.7895 140.322 30.7895 140.308 30.7895C140.294 30.7895 140.28 30.7895 140.266 30.7895H134.473C134.459 30.7895 134.445 30.7895 134.417 30.7755H134.403C134.39 30.7616 134.362 30.7476 134.348 30.7337C134.334 30.7197 134.32 30.7058 134.306 30.6778C134.292 30.6499 134.292 30.636 134.292 30.6081V6.97858C134.292 6.96462 134.292 6.95067 134.306 6.92275V6.9088C134.32 6.88088 134.334 6.86692 134.348 6.85297C134.362 6.83901 134.376 6.82505 134.403 6.81109C134.431 6.79714 134.445 6.79714 134.473 6.79714H140.266C140.28 6.79714 140.294 6.79714 140.322 6.81109H140.336C140.35 6.82505 140.378 6.82505 140.392 6.85297C140.406 6.86692 140.42 6.88088 140.42 6.89484V6.9088C140.434 6.92275 140.434 6.95067 140.434 6.97858V20.8101C140.879 20.0285 141.492 18.912 142.188 17.6558C142.606 16.9021 143.052 16.0926 143.567 15.1714V15.1575H143.539ZM158.663 30.622V6.99254C158.663 6.97858 158.663 6.95067 158.677 6.92275C158.691 6.89484 158.691 6.88088 158.705 6.86692C158.719 6.85297 158.747 6.83901 158.76 6.82505C158.788 6.81109 158.802 6.81109 158.816 6.81109H164.609C164.623 6.81109 164.637 6.81109 164.665 6.82505H164.679C164.693 6.83901 164.721 6.83901 164.735 6.86692C164.749 6.88088 164.763 6.89484 164.763 6.9088V6.92275C164.777 6.93671 164.777 6.96462 164.777 6.99254V20.8241C165.194 20.0983 165.765 19.0515 166.434 17.8512C167.005 16.8184 167.645 15.6739 168.244 14.5992C169.289 12.6591 170.793 10.0073 171.99 8.1789C172.185 7.87184 172.366 7.60665 172.52 7.38334C172.673 7.17398 172.812 6.99254 172.909 6.88088C172.923 6.85297 172.951 6.83901 172.993 6.83901C173.007 6.83901 173.021 6.83901 173.035 6.83901H178.828C178.842 6.83901 178.856 6.83901 178.884 6.85297H178.898C178.926 6.86692 178.94 6.86692 178.953 6.89484C178.967 6.9088 178.981 6.92275 178.995 6.95067C179.009 6.97858 179.009 6.99254 179.009 7.02045V30.6499C179.009 30.6639 179.009 30.6778 178.995 30.7058V30.7197C178.981 30.7337 178.967 30.7616 178.953 30.7755C178.94 30.7895 178.926 30.8035 178.898 30.8174C178.884 30.8314 178.856 30.8314 178.828 30.8314H173.035C173.021 30.8314 173.007 30.8314 172.979 30.8174H172.965C172.951 30.8035 172.923 30.8035 172.923 30.7895C172.909 30.7755 172.896 30.7616 172.882 30.7337C172.868 30.7058 172.868 30.6918 172.868 30.6639V16.8323C172.408 17.6419 171.781 18.7724 171.085 20.0564C170.709 20.7403 170.305 21.4661 169.832 22.3315C168.718 24.4809 166.879 27.6491 165.57 29.659C165.403 29.9102 165.25 30.1335 165.111 30.315C164.972 30.5104 164.846 30.6639 164.735 30.7895C164.721 30.8174 164.693 30.8314 164.665 30.8314C164.651 30.8314 164.637 30.8314 164.623 30.8314H158.83C158.816 30.8314 158.802 30.8314 158.774 30.8174H158.76C158.747 30.8035 158.719 30.7895 158.705 30.7755C158.691 30.7616 158.677 30.7476 158.677 30.7337V30.7197C158.663 30.6918 158.663 30.6778 158.663 30.6499V30.622ZM167.924 5.24789C167.548 5.19206 167.2 5.12228 166.852 5.02458C166.517 4.92688 166.211 4.80126 165.905 4.64773C165.612 4.49421 165.348 4.32672 165.083 4.11736C164.832 3.92196 164.596 3.69865 164.387 3.44742C164.178 3.19619 163.997 2.931 163.83 2.62395C163.662 2.33084 163.523 2.00983 163.398 1.6609C163.273 1.32593 163.175 0.949086 163.091 0.558286V0.530371C163.091 0.516414 163.091 0.488501 163.105 0.474544C163.105 0.460587 163.119 0.432672 163.133 0.418715C163.147 0.404758 163.161 0.3908 163.189 0.376843C163.203 0.362886 163.231 0.362887 163.245 0.362887C164.164 0.362887 165.891 0.111657 166.865 0C166.879 0 166.893 0 166.921 0H166.935C166.949 0 166.963 0.0139575 166.977 0.0139575L166.991 0.0279136C167.005 0.0418708 167.005 0.0418714 167.019 0.0558286L167.033 0.0837422C167.047 0.0976994 167.047 0.125615 167.047 0.139572C167.074 0.293101 167.102 0.460587 167.158 0.628073C167.2 0.781602 167.255 0.93513 167.325 1.0747C167.381 1.21427 167.45 1.33989 167.534 1.4655C167.604 1.57716 167.687 1.68882 167.785 1.78652C167.868 1.87026 167.966 1.954 168.063 2.03774C168.161 2.10753 168.272 2.16336 168.383 2.21919C168.495 2.26106 168.606 2.30293 168.732 2.33085C168.857 2.35876 168.982 2.37272 169.122 2.37272C169.261 2.37272 169.386 2.35876 169.511 2.33085C169.637 2.30293 169.748 2.27502 169.86 2.23315C169.971 2.19127 170.082 2.12149 170.18 2.06566C170.277 1.99587 170.375 1.91213 170.458 1.82839C170.556 1.73069 170.639 1.61903 170.709 1.50737C170.793 1.38176 170.862 1.25614 170.918 1.11657C170.988 0.977 171.029 0.823472 171.071 0.669943C171.127 0.502457 171.155 0.334972 171.183 0.181443V0.167486C171.183 0.139571 171.197 0.125614 171.197 0.111657C171.21 0.0977 171.224 0.0697858 171.238 0.0558286C171.252 0.0418714 171.28 0.0279136 171.294 0.0279136C171.308 0.0279136 171.336 0.0139565 171.35 0.0279136L172.561 0.153528C173.355 0.237271 174.149 0.321014 174.971 0.3908H174.984C174.998 0.3908 175.026 0.404758 175.04 0.418715L175.068 0.446629L175.082 0.474544C175.096 0.488501 175.096 0.516414 175.11 0.530371C175.11 0.544328 175.11 0.558287 175.11 0.586201V0.600158C175.026 0.990959 174.929 1.3678 174.803 1.70277C174.678 2.0517 174.539 2.37272 174.372 2.66582C174.205 2.95892 174.01 3.23806 173.801 3.48929C173.592 3.74052 173.355 3.96383 173.104 4.15923C172.854 4.35463 172.575 4.53608 172.283 4.68961C171.99 4.84314 171.67 4.96875 171.336 5.06645C171.002 5.16415 170.639 5.24789 170.263 5.28976C169.874 5.34559 169.484 5.35955 169.066 5.35955C168.662 5.35955 168.258 5.33163 167.882 5.28976L167.924 5.24789ZM1.15735 6.81109H6.95066C6.96458 6.81109 6.97851 6.81109 7.00636 6.82505H7.02029C7.03422 6.83901 7.06207 6.83901 7.07599 6.86692C7.08992 6.88088 7.10385 6.89484 7.10385 6.9088V6.92275C7.11777 6.93671 7.11777 6.96462 7.11777 6.99254V30.622C7.11777 30.6499 7.11777 30.6639 7.10385 30.6918C7.10385 30.7058 7.08992 30.7197 7.08992 30.7197L7.07599 30.7337C7.06207 30.7476 7.04814 30.7616 7.03422 30.7616L7.02029 30.7755C7.00636 30.7895 6.97851 30.7895 6.96458 30.7895H1.17128C1.1295 30.7895 1.08772 30.7755 1.04594 30.7337C1.03201 30.7197 1.01809 30.7058 1.00416 30.6778C0.990234 30.6499 0.990234 30.636 0.990234 30.6081V6.97858C0.990234 6.96462 0.990234 6.95067 1.00416 6.92275V6.9088C1.01809 6.88088 1.03201 6.86692 1.04594 6.85297C1.05987 6.83901 1.07379 6.82505 1.10164 6.81109C1.11557 6.79714 1.14342 6.79714 1.17128 6.79714L1.15735 6.81109Z" fill="#B98D75"/>
</svg>
