<svg width="68" height="16" viewBox="0 0 68 16" fill="none" xmlns="http://www.w3.org/2000/svg">
<path fill-rule="evenodd" clip-rule="evenodd" d="M0.5 8.05078C0.5 7.77464 0.723858 7.55078 1 7.55078H66C66.2761 7.55078 66.5 7.77464 66.5 8.05078C66.5 8.32692 66.2761 8.55078 66 8.55078H1C0.723858 8.55078 0.5 8.32692 0.5 8.05078Z" fill="#B98D75"/>
<path fill-rule="evenodd" clip-rule="evenodd" d="M59.3964 0.646447C59.5917 0.451184 59.9083 0.451184 60.1036 0.646447L66.9786 7.52145C67.1738 7.71671 67.1738 8.03329 66.9786 8.22855L60.1036 15.1036C59.9083 15.2988 59.5917 15.2988 59.3964 15.1036C59.2012 14.9083 59.2012 14.5917 59.3964 14.3964L65.9179 7.875L59.3964 1.35355C59.2012 1.15829 59.2012 0.841709 59.3964 0.646447Z" fill="#B98D75"/>
</svg>
