<svg width="36" height="36" viewBox="0 0 36 36" fill="none" xmlns="http://www.w3.org/2000/svg">
<g clip-path="url(#clip0_6_91352)">
<path d="M6.54566 10.9052C5.87068 11.7394 4.83863 12.2727 3.68202 12.2727C1.64861 12.2727 0.000205098 10.6243 0.000205098 8.59087C0.000205098 8.52009 0.00919291 8.4514 0.0260916 8.38589C-0.0185475 8.21325 -0.00732277 8.02489 0.0707236 7.84928L2.91155 1.45742C3.30551 0.571012 4.18453 -0.000244141 5.15454 -0.000244141H30.8459C31.8159 -0.000244141 32.6949 0.571012 33.0889 1.45742L35.9297 7.84928C36.0077 8.02489 36.019 8.21325 35.9743 8.38589C35.9912 8.4514 36.0002 8.52009 36.0002 8.59087C36.0002 10.6243 34.3518 12.2727 32.3184 12.2727C31.1618 12.2727 30.1297 11.7394 29.4548 10.9052C28.7798 11.7394 27.7477 12.2727 26.5911 12.2727C25.4345 12.2727 24.4025 11.7394 23.7275 10.9052C23.0525 11.7394 22.0204 12.2727 20.8638 12.2727C19.7072 12.2727 18.6752 11.7394 18.0002 10.9052C17.3252 11.7394 16.2932 12.2727 15.1366 12.2727C13.98 12.2727 12.9479 11.7394 12.2729 10.9052C11.598 11.7394 10.5659 12.2727 9.4093 12.2727C8.25269 12.2727 7.22064 11.7394 6.54566 10.9052ZM5.96712 8.01233C6.11518 7.86427 6.31973 7.77269 6.54566 7.77269C6.99753 7.77269 7.36384 8.139 7.36384 8.59087C7.36384 9.72054 8.27962 10.6363 9.4093 10.6363C10.539 10.6363 11.4548 9.72054 11.4548 8.59087C11.4548 8.36494 11.5463 8.16039 11.6944 8.01233C11.8425 7.86427 12.047 7.77269 12.2729 7.77269C12.7248 7.77269 13.0911 8.139 13.0911 8.59087C13.0911 9.72054 14.0069 10.6363 15.1366 10.6363C16.2662 10.6363 17.182 9.72054 17.182 8.59087C17.182 8.139 17.5483 7.77269 18.0002 7.77269C18.2261 7.77269 18.4307 7.86427 18.5787 8.01233C18.7268 8.16039 18.8184 8.36494 18.8184 8.59087C18.8184 9.72054 19.7342 10.6363 20.8638 10.6363C21.9935 10.6363 22.9093 9.72054 22.9093 8.59087C22.9093 8.36494 23.0009 8.16039 23.1489 8.01233C23.297 7.86427 23.5015 7.77269 23.7275 7.77269C24.1793 7.77269 24.5457 8.139 24.5457 8.59087C24.5457 9.72054 25.4614 10.6363 26.5911 10.6363C27.7208 10.6363 28.6366 9.72054 28.6366 8.59087C28.6366 8.139 29.0029 7.77269 29.4548 7.77269C29.6807 7.77269 29.8852 7.86427 30.0333 8.01233C30.1814 8.16039 30.2729 8.36494 30.2729 8.59087C30.2729 9.72054 31.1887 10.6363 32.3184 10.6363C33.4481 10.6363 34.3638 9.72054 34.3638 8.59087C34.3638 8.52645 34.3713 8.46377 34.3854 8.40364L31.5935 2.12201C31.4622 1.82654 31.1692 1.63612 30.8459 1.63612H5.15454C4.8312 1.63612 4.5382 1.82654 4.40688 2.12201L1.61505 8.40364C1.62912 8.46377 1.63657 8.52645 1.63657 8.59087C1.63657 9.72054 2.55235 10.6363 3.68202 10.6363C4.8117 10.6363 5.72748 9.72054 5.72748 8.59087C5.72748 8.36494 5.81906 8.16039 5.96712 8.01233ZM11.6465 24.1169L10.4876 23.8974C10.4249 23.8856 10.3642 23.8651 10.3071 23.8365C9.96562 23.6658 9.8272 23.2505 9.99794 22.9091L10.1809 22.5431C10.3195 22.266 10.6028 22.0909 10.9127 22.0909H12.3212C12.4496 22.0909 12.5731 22.1209 12.6836 22.1755L13.2626 20.1488C13.7644 18.3926 15.3696 17.1818 17.1961 17.1818H26.9861C28.8126 17.1818 30.4179 18.3926 30.9196 20.1488L31.4838 22.1233C31.5567 22.1021 31.6333 22.0909 31.7119 22.0909H33.2516C33.5558 22.0909 33.8348 22.2596 33.9761 22.529L34.1755 22.9091C34.3509 23.2435 34.222 23.6569 33.8875 23.8323C33.8276 23.8638 33.7633 23.8861 33.6968 23.8987L32.5366 24.1179L33.5326 25.2336C34.068 25.8333 34.3638 26.6091 34.3638 27.4131V33.5454C34.3638 34.901 33.2649 36 31.9093 36H29.4548C28.386 36 27.4768 35.3169 27.1399 34.3636H17.0424C16.7054 35.3169 15.7962 36 14.7275 36H12.2729C10.9173 36 9.81839 34.901 9.81839 33.5454V27.4131C9.81839 26.6091 10.1143 25.8333 10.6496 25.2336L11.6465 24.1169ZM32.7216 27.2747C32.6918 26.9229 32.5487 26.5886 32.3118 26.3233L30.81 24.6409L28.994 25.0949C28.2801 25.2734 27.547 25.3636 26.8112 25.3636H17.3711C16.6352 25.3636 15.9021 25.2734 15.1882 25.0949L13.3723 24.6409L11.8704 26.3233C11.6336 26.5886 11.4905 26.9228 11.4606 27.2746L15.546 28.6363C15.5373 29.2571 13.8805 29.8939 11.4548 29.5888V33.5454C11.4548 33.9973 11.8211 34.3636 12.2729 34.3636H14.7275C15.1793 34.3636 15.5457 33.9973 15.5457 33.5454C15.5457 33.4575 15.5598 33.3701 15.5876 33.2867L16.2193 31.3916C16.4421 30.7234 17.0674 30.2727 17.7717 30.2727H26.4105C27.1148 30.2727 27.7402 30.7234 27.9629 31.3916L28.5946 33.2867C28.6224 33.3701 28.6366 33.4575 28.6366 33.5454C28.6366 33.9973 29.0029 34.3636 29.4548 34.3636H31.9093C32.3612 34.3636 32.7275 33.9973 32.7275 33.5454V29.5889C30.3019 29.8938 28.6453 29.2571 28.6366 28.6363L32.7216 27.2747ZM17.499 32.7272H26.6832L26.4105 31.9091H17.7717L17.499 32.7272ZM29.3462 20.5984C29.0452 19.5446 28.082 18.8181 26.9861 18.8181H17.1961C16.1002 18.8181 15.1371 19.5446 14.836 20.5984L14.1102 23.1386L15.5851 23.5074C16.1692 23.6534 16.769 23.7272 17.3711 23.7272H26.8112C27.4132 23.7272 28.013 23.6534 28.5971 23.5074L30.072 23.1386L29.3462 20.5984ZM31.9093 13.9091C31.9093 13.4572 32.2756 13.0909 32.7275 13.0909C33.1793 13.0909 33.5457 13.4572 33.5457 13.9091V16.3636C33.5457 16.8155 33.1793 17.1818 32.7275 17.1818C32.2756 17.1818 31.9093 16.8155 31.9093 16.3636V13.9091ZM7.36384 33.5454C7.81571 33.5454 8.18202 33.9117 8.18202 34.3636C8.18202 34.8155 7.81571 35.1818 7.36384 35.1818H4.9093C3.55369 35.1818 2.45475 34.0828 2.45475 32.7272V13.9091C2.45475 13.4572 2.82106 13.0909 3.27293 13.0909C3.7248 13.0909 4.09111 13.4572 4.09111 13.9091V32.7272C4.09111 33.1791 4.45743 33.5454 4.9093 33.5454H7.36384Z" fill="#B98D75"/>
</g>
<defs>
<clipPath id="clip0_6_91352">
<rect width="36" height="36" fill="white"/>
</clipPath>
</defs>
</svg>
