<svg width="36" height="36" viewBox="0 0 36 36" fill="none" xmlns="http://www.w3.org/2000/svg">
<path d="M15 18C15 20.4853 12.9853 22.5 10.5 22.5C8.01472 22.5 6 20.4853 6 18M15 18C15 15.5147 12.9853 13.5 10.5 13.5C8.01472 13.5 6 15.5147 6 18M15 18C15 17 15.6 15 18 15C20.4 15 21 17 21 18M6 18L3 12M30 18C30 20.4853 27.9853 22.5 25.5 22.5C23.0147 22.5 21 20.4853 21 18M30 18C30 15.5147 27.9853 13.5 25.5 13.5C23.0147 13.5 21 15.5147 21 18M30 18L33 12" stroke="#B98D75" stroke-width="2" stroke-linecap="round"/>
</svg>
