<svg width="49" height="46" viewBox="0 0 49 46" fill="none" xmlns="http://www.w3.org/2000/svg">
<path fill-rule="evenodd" clip-rule="evenodd" d="M4.87744 25.6478H6.61903L16.3378 0L23.4684 14.0674L30.7271 0L41.1947 25.6478H42.985V27.4374H30.4286V25.6478H32.2372L28.955 16.7294L23.4684 26.7404L18.3533 16.7294L15.0772 25.6478H16.8736V27.4374H4.87744V25.6478Z" fill="#CE474D"/>
<path d="M0 38.7172H1.05807V41.4805C1.39253 41.4805 1.62969 41.4146 1.76347 41.281C1.89725 41.1496 2.09792 40.765 2.35941 40.1256C2.56616 39.62 2.73646 39.2867 2.86417 39.1266C2.99187 38.9664 3.14389 38.8573 3.30808 38.8019C3.47835 38.7461 3.74588 38.7173 4.11682 38.7173H4.3297V39.6115L4.03782 39.6057C3.75809 39.6057 3.58172 39.6487 3.50267 39.7333C3.42361 39.8215 3.29593 40.0844 3.12566 40.5223C2.96755 40.9417 2.82158 41.2317 2.6878 41.3923C2.55402 41.5526 2.34729 41.6985 2.07364 41.8321C2.52364 41.9575 2.97359 42.3913 3.41142 43.1353L4.5729 45.1192H3.41142L2.26823 43.1417C2.04323 42.741 1.84256 42.4775 1.67229 42.3502C1.49594 42.2227 1.29523 42.1591 1.05807 42.1591V45.1193H0V38.7173V38.7172Z" fill="#C6CBD8"/>
<path d="M5.48682 38.7172H6.489V43.6002L9.28707 38.7172H10.3646V45.1193H9.35657V40.2674L6.5701 45.1193H5.48682V38.7172Z" fill="#C6CBD8"/>
<path d="M16.2385 43.0011L17.3404 43.1432C17.168 43.7682 16.8479 44.2554 16.3801 44.6008C15.9061 44.9458 15.309 45.1193 14.5765 45.1193C13.6593 45.1193 12.933 44.8434 12.3913 44.2908C11.8558 43.7408 11.585 42.9655 11.585 41.9696C11.585 40.9401 11.8558 40.1391 12.4036 39.5713C12.9453 39.0011 13.6532 38.7172 14.5211 38.7172C15.3582 38.7172 16.0477 38.9953 16.577 39.5535C17.1064 40.1118 17.3773 40.8967 17.3773 41.9083C17.3773 41.9698 17.3773 42.0626 17.3711 42.1847H12.6806C12.7176 42.857 12.9145 43.374 13.2654 43.7308C13.6163 44.0879 14.0533 44.2675 14.5765 44.2675C14.9704 44.2675 15.3029 44.1666 15.5799 43.9657C15.8569 43.7643 16.0723 43.4432 16.2385 43.0012V43.0011ZM12.7422 41.3324H16.2447C16.2016 40.8159 16.0662 40.4291 15.8446 40.1709C15.506 39.7703 15.069 39.5691 14.5273 39.5691C14.0348 39.5691 13.6285 39.729 13.29 40.0485C12.9576 40.3678 12.7791 40.7959 12.7422 41.3324Z" fill="#C6CBD8"/>
<path d="M18.5962 38.7172H21.209C21.8507 38.7172 22.3287 38.7686 22.643 38.8715C22.9574 38.9744 23.2258 39.1613 23.4485 39.4348C23.6777 39.7104 23.789 40.0372 23.789 40.4197C23.789 40.7259 23.7235 40.9932 23.5926 41.2195C23.455 41.4478 23.2586 41.6389 22.9901 41.7911C23.3044 41.8916 23.5663 42.0787 23.7759 42.3544C23.9789 42.6279 24.0837 42.9547 24.0837 43.3307C24.0444 43.9373 23.8152 44.3879 23.4026 44.6796C22.9966 44.9733 22.3942 45.1193 21.615 45.1193H18.5962V38.7173V38.7172ZM19.7356 41.4186H20.9405C21.4185 41.4186 21.7525 41.3939 21.9293 41.3468C22.1061 41.2976 22.2698 41.2008 22.4139 41.0527C22.5579 40.9068 22.6234 40.7299 22.6234 40.5244C22.6234 40.1852 22.499 39.9508 22.2502 39.8171C22.0013 39.6835 21.5757 39.6176 20.9732 39.6176H19.7356V41.4185V41.4186ZM19.7356 44.2314H21.222C21.8638 44.2314 22.309 44.1593 22.5448 44.0175C22.7871 43.8736 22.9115 43.629 22.9246 43.2773C22.9246 43.074 22.8526 42.8827 22.7151 42.708C22.5776 42.533 22.3942 42.422 22.1715 42.377C21.9554 42.3294 21.5953 42.3071 21.1042 42.3071H19.7356V44.2314Z" fill="#C6CBD8"/>
<path d="M29.379 42.7409L30.4867 42.8827C30.3629 43.583 30.0566 44.1294 29.5549 44.5257C29.0598 44.9221 28.4408 45.1193 27.7176 45.1193C26.8054 45.1193 26.0756 44.8453 25.5218 44.2969C24.968 43.7486 24.6943 42.9636 24.6943 41.9417C24.6943 41.2792 24.8116 40.7013 25.0462 40.2046C25.2873 39.7095 25.6456 39.3364 26.1343 39.0897C26.6229 38.8418 27.1507 38.7172 27.7241 38.7172C28.4473 38.7172 29.0402 38.8848 29.4963 39.2222C29.9589 39.5596 30.2521 40.0385 30.3824 40.6579L29.2878 40.8117C29.1836 40.3998 29.0012 40.0899 28.734 39.8807C28.4669 39.6737 28.1476 39.5692 27.7697 39.5692C27.2029 39.5692 26.7402 39.7565 26.3819 40.1314C26.0235 40.5078 25.8476 41.0998 25.8476 41.9124C25.8476 42.7366 26.017 43.3344 26.3624 43.7072C26.7077 44.0797 27.1507 44.2673 27.7045 44.2673C28.1476 44.2673 28.519 44.143 28.8122 43.8924C29.1119 43.6439 29.3008 43.2595 29.379 42.7409Z" fill="#C6CBD8"/>
<path d="M31.0962 38.7172H32.1497V41.4805C32.4845 41.4805 32.722 41.4146 32.862 41.281C32.996 41.1496 33.1909 40.765 33.4527 40.1256C33.6658 39.62 33.8302 39.2867 33.9581 39.1266C34.092 38.9664 34.2382 38.8573 34.4087 38.8019C34.5792 38.7461 34.847 38.7173 35.2185 38.7173H35.4316V39.6115L35.1332 39.6057C34.8592 39.6057 34.6765 39.6487 34.5974 39.7333C34.5182 39.8215 34.3904 40.0844 34.226 40.5223C34.0616 40.9417 33.9154 41.2317 33.7815 41.3923C33.6536 41.5526 33.4466 41.6985 33.1665 41.8321C33.6232 41.9575 34.0677 42.3913 34.5122 43.1353L35.6691 45.1192H34.5061L33.3675 43.1417C33.1361 42.741 32.9351 42.4775 32.7646 42.3502C32.5941 42.2227 32.3871 42.1591 32.1497 42.1591V45.1193H31.0962V38.7173V38.7172Z" fill="#C6CBD8"/>
<path d="M40.5144 44.2197C40.1415 44.5495 39.7804 44.7801 39.4308 44.9162C39.0871 45.0525 38.7143 45.1193 38.3182 45.1193C37.6599 45.1193 37.1589 44.9557 36.8035 44.6263C36.454 44.299 36.2793 43.8788 36.2793 43.368C36.2793 43.0682 36.3434 42.7941 36.4774 42.5454C36.6113 42.2969 36.7861 42.0995 36.9958 41.95C37.2172 41.8002 37.456 41.6855 37.724 41.6086C37.922 41.5556 38.225 41.504 38.6269 41.4527C39.4425 41.3542 40.0425 41.234 40.427 41.0958C40.4328 40.9538 40.4328 40.863 40.4328 40.8255C40.4328 40.4033 40.3396 40.1056 40.1473 39.9321C39.891 39.6976 39.5066 39.5809 38.9939 39.5809C38.5162 39.5809 38.1667 39.6676 37.9395 39.8395C37.7123 40.0111 37.5434 40.3147 37.4385 40.7524L36.4482 40.6105C36.5414 40.1745 36.6871 39.8219 36.891 39.5534C37.1007 39.285 37.3978 39.08 37.7881 38.9341C38.1784 38.7899 38.6327 38.7172 39.1454 38.7172C39.6522 38.7172 40.0716 38.7782 40.3862 38.9027C40.7066 39.027 40.9396 39.1807 41.091 39.3679C41.2425 39.5556 41.3474 39.7922 41.4056 40.0782C41.4406 40.2557 41.4581 40.5754 41.4581 41.0347V42.4154C41.4581 43.3798 41.4755 43.9893 41.5221 44.2477C41.5629 44.5061 41.6444 44.7526 41.7668 44.9889H40.7124C40.6076 44.7702 40.5435 44.5139 40.5144 44.2197ZM40.4328 41.9124C40.0658 42.0661 39.5182 42.1962 38.7783 42.303C38.3647 42.3639 38.0677 42.4329 37.8987 42.51C37.724 42.5871 37.59 42.6992 37.4968 42.8452C37.4036 42.9932 37.357 43.1568 37.357 43.3385C37.357 43.6126 37.456 43.8432 37.6657 44.0265C37.8696 44.2101 38.1667 44.3029 38.557 44.3029C38.9473 44.3029 39.2968 44.2161 39.5997 44.0406C39.9026 43.8671 40.1241 43.6282 40.2639 43.3262C40.3745 43.0918 40.427 42.7464 40.427 42.2911L40.4328 41.9123V41.9124Z" fill="#C6CBD8"/>
<path d="M48.1678 38.7174V45.1193H47.0578V42.6278H46.4199C46.0372 42.6278 45.7438 42.677 45.5524 42.7779C45.361 42.8786 45.0867 43.193 44.7167 43.7255L43.747 45.1192H42.3755L43.5684 43.4008C43.9321 42.8741 44.302 42.5784 44.6593 42.5102C44.0277 42.4262 43.562 42.2021 43.2558 41.8401C42.9496 41.4785 42.7965 41.061 42.7965 40.5904C42.7965 40.0331 42.9943 39.5828 43.3962 39.2376C43.7981 38.8901 44.3786 38.7172 45.1377 38.7172H48.1678V38.7174ZM47.0578 39.6179H45.4886C44.8315 39.6179 44.4041 39.7186 44.2127 39.9199C44.0213 40.1216 43.9256 40.3579 43.9256 40.6275C43.9256 41.0099 44.066 41.2914 44.3467 41.4703C44.6273 41.6495 45.1249 41.7399 45.8394 41.7399H47.0578V39.618V39.6179Z" fill="#C6CBD8"/>
</svg>
