<svg width="36" height="36" viewBox="0 0 36 36" fill="none" xmlns="http://www.w3.org/2000/svg">
<path d="M12 13.5L14.8446 3.54396C14.9366 3.22198 15.2309 3 15.5657 3H20.4343C20.7691 3 21.0634 3.22198 21.1554 3.54396L24 13.5M24 22.5L21.1554 32.456C21.0634 32.778 20.7691 33 20.4343 33H15.5657C15.2309 33 14.9366 32.778 14.8446 32.456L12 22.5M18 18V15M25.5 18C25.5 22.1421 22.1421 25.5 18 25.5C13.8579 25.5 10.5 22.1421 10.5 18C10.5 13.8579 13.8579 10.5 18 10.5C22.1421 10.5 25.5 13.8579 25.5 18Z" stroke="#B98D75" stroke-width="2" stroke-linecap="round"/>
</svg>
