<svg width="49" height="48" viewBox="0 0 49 48" fill="none" xmlns="http://www.w3.org/2000/svg">
<path d="M18.3335 42H10.3335C8.12436 42 6.3335 40.2091 6.3335 38V32C6.3335 29.7909 8.12436 28 10.3335 28H14.3335C16.5426 28 18.3335 29.7909 18.3335 32V42ZM18.3335 42V20C18.3335 17.7909 20.1244 16 22.3335 16H26.3335C28.5426 16 30.3335 17.7909 30.3335 20V42M18.3335 42H30.3335M30.3335 42V12C30.3335 9.79086 32.1244 8 34.3335 8H38.3335C40.5426 8 42.3335 9.79086 42.3335 12V38C42.3335 40.2091 40.5426 42 38.3335 42H30.3335Z" stroke="#B98D75" stroke-width="2"/>
</svg>
