<svg width="220" height="120" viewBox="0 0 220 120" fill="none" xmlns="http://www.w3.org/2000/svg">
<path d="M85.7027 45.7507C85.4762 44.3931 85.0309 42.4563 84.1501 40.0268C83.2694 37.5974 82.3709 35.8241 81.6754 34.6379C80.9601 33.4183 79.5533 32.7858 78.1681 33.0656C76.844 33.3316 74.9387 33.8202 72.4916 34.7049C70.0463 35.5916 68.275 36.4369 67.0869 37.0812C65.8436 37.755 65.1697 39.1422 65.4003 40.5352C65.6269 41.8928 66.0722 43.8296 66.9529 46.259C67.8336 48.6885 68.7321 50.4618 69.4276 51.648C70.1429 52.8676 71.5497 53.5001 72.9349 53.2203C74.259 52.9543 76.1623 52.4676 78.6075 51.581C81.0547 50.6943 82.828 49.849 84.0161 49.2047C85.2594 48.5309 85.9333 47.1437 85.7008 45.7507H85.7027Z" fill="black"/>
<path d="M106.957 36.4605C105.724 35.9088 103.891 35.1975 101.385 34.4981C98.8806 33.7986 96.9457 33.4577 95.6058 33.2922C94.2029 33.1188 92.8473 33.8557 92.2267 35.1246C91.6218 36.36 90.8592 38.1964 90.1637 40.685C89.4682 43.1755 89.1707 45.1379 89.0465 46.5093C88.9204 47.9181 89.6987 49.2501 90.9873 49.8274C92.2208 50.3791 94.0512 51.0884 96.5555 51.7879C99.0618 52.4874 100.997 52.8302 102.339 52.9957C103.741 53.1691 105.097 52.4322 105.718 51.1633C106.323 49.9259 107.085 48.0915 107.779 45.603C108.474 43.1124 108.774 41.1499 108.896 39.7786C109.022 38.3698 108.244 37.0378 106.955 36.4605H106.957Z" fill="black"/>
<path d="M132.367 45.7507C132.14 44.3931 131.695 42.4563 130.814 40.0268C129.933 37.5974 129.035 35.8241 128.339 34.6379C127.624 33.4183 126.217 32.7858 124.832 33.0656C123.508 33.3316 121.603 33.8202 119.156 34.7049C116.71 35.5916 114.939 36.4369 113.751 37.0812C112.508 37.755 111.834 39.1422 112.064 40.5352C112.291 41.8928 112.736 43.8296 113.617 46.259C114.498 48.6885 115.396 50.4618 116.092 51.648C116.807 52.8676 118.214 53.5001 119.599 53.2203C120.923 52.9543 122.826 52.4676 125.272 51.581C127.719 50.6943 129.492 49.849 130.68 49.2047C131.923 48.5309 132.597 47.1437 132.365 45.7507H132.367Z" fill="black"/>
<path d="M153.623 36.4605C152.39 35.9088 150.557 35.1975 148.051 34.4981C145.547 33.7986 143.612 33.4577 142.272 33.2922C140.869 33.1188 139.513 33.8557 138.893 35.1246C138.288 36.36 137.525 38.1964 136.83 40.685C136.134 43.1755 135.837 45.1379 135.713 46.5093C135.586 47.9181 136.365 49.2501 137.653 49.8274C138.887 50.3791 140.717 51.0884 143.222 51.7879C145.73 52.4874 147.665 52.8302 149.005 52.9957C150.407 53.1691 151.763 52.4322 152.384 51.1633C152.989 49.9259 153.751 48.0915 154.445 45.603C155.14 43.1124 155.44 41.1499 155.562 39.7786C155.688 38.3698 154.912 37.0378 153.621 36.4605H153.623Z" fill="black"/>
<path d="M33.2537 71.1031H31.1651L31.1021 71.6646C30.9563 72.8488 30.7592 73.8261 30.511 74.5945C30.2607 75.363 29.9908 75.9659 29.7012 76.4033H33.2537V71.1031ZM27.3624 82.6986C27.3624 83.0316 27.2481 83.3114 27.0195 83.5399C26.791 83.7685 26.5092 83.8828 26.1782 83.8828H24.1842C23.8512 83.8828 23.5714 83.7685 23.3428 83.5399C23.1143 83.3114 23 83.0296 23 82.6986V77.5875C23 77.2545 23.1143 76.9747 23.3428 76.7461C23.5714 76.5176 23.8512 76.4033 24.1842 76.4033H24.8068C25.0768 76.0506 25.3152 75.6231 25.524 75.1246C25.7329 74.6261 25.9082 74.0803 26.054 73.4872C26.1999 72.8941 26.3201 72.2833 26.4127 71.6489C26.5053 71.0144 26.5722 70.3859 26.6156 69.7632L26.7397 67.9249C26.7594 67.5919 26.8895 67.3121 27.1299 67.0836C27.3683 66.855 27.654 66.7407 27.987 66.7407H36.7471C37.0801 66.7407 37.3599 66.855 37.5885 67.0836C37.8171 67.3121 37.9313 67.5939 37.9313 67.9249V76.4033H39.084C39.417 76.4033 39.6968 76.5176 39.9253 76.7461C40.1539 76.9747 40.2682 77.2565 40.2682 77.5875V82.6986C40.2682 83.0316 40.1539 83.3114 39.9253 83.5399C39.6968 83.7685 39.415 83.8828 39.084 83.8828H37.09C36.757 83.8828 36.4772 83.7685 36.2486 83.5399C36.0201 83.3114 35.9058 83.0296 35.9058 82.6986V80.7657H27.3643V82.6986H27.3624Z" fill="black"/>
<path d="M51.2393 72.1926C51.2393 71.7138 51.0462 71.2724 50.662 70.8685C50.2778 70.4626 49.7103 70.2617 48.9636 70.2617C48.1735 70.2617 47.5705 70.4271 47.1548 70.7601C46.739 71.0931 46.4179 71.57 46.1893 72.1946H51.2393V72.1926ZM46.345 75.3097C46.5735 75.9757 46.9834 76.4623 47.5764 76.7737C48.1695 77.085 48.8493 77.2406 49.6177 77.2406C50.1379 77.2406 50.595 77.2091 50.9891 77.148C51.3832 77.085 51.7694 76.9825 52.1418 76.8367C52.3703 76.754 52.5989 76.7126 52.8274 76.7126C53.3259 76.7126 53.6905 76.9313 53.919 77.3667L54.4175 78.3637C54.5003 78.5312 54.5417 78.7164 54.5417 78.9253C54.5417 79.3824 54.3545 79.7252 53.9801 79.9538C53.0855 80.4523 52.2659 80.7735 51.5171 80.9193C50.7684 81.0651 49.9685 81.138 49.1173 81.138C47.9528 81.138 46.9046 80.9607 45.9687 80.608C45.0327 80.2553 44.2387 79.7568 43.5845 79.1125C42.9304 78.4682 42.42 77.6899 42.0575 76.7737C41.693 75.8594 41.5117 74.8526 41.5117 73.7492C41.5117 72.7305 41.693 71.7749 42.0575 70.8823C42.42 69.9898 42.9304 69.2036 43.5845 68.5277C44.2387 67.8539 45.0327 67.3219 45.9687 66.9377C46.9046 66.5535 47.9528 66.3604 49.1173 66.3604C50.0098 66.3604 50.8669 66.516 51.6886 66.8273C52.5102 67.1386 53.2313 67.5859 53.854 68.1672C54.4766 68.7484 54.9771 69.4459 55.3495 70.2557C55.7239 71.0656 55.911 71.9699 55.911 72.9669C55.911 73.5285 55.8795 73.9955 55.8165 74.3698C55.7751 74.5984 55.6451 74.8112 55.4263 75.0082C55.2076 75.2053 54.985 75.3038 54.7564 75.3038H46.3411L46.345 75.3097Z" fill="black"/>
<path d="M62.3993 80.7657C62.0663 80.7657 61.7865 80.6514 61.558 80.4229C61.3294 80.1943 61.2151 79.9145 61.2151 79.5815V71.4144H58.3482C58.0153 71.4144 57.7355 71.3001 57.5069 71.0716C57.2783 70.843 57.1641 70.5632 57.1641 70.2302V67.923C57.1641 67.59 57.2783 67.3102 57.5069 67.0816C57.7355 66.853 58.0153 66.7388 58.3482 66.7388H68.7596C69.0926 66.7388 69.3724 66.853 69.6009 67.0816C69.8295 67.3102 69.9438 67.5919 69.9438 67.923V70.2302C69.9438 70.5632 69.8295 70.843 69.6009 71.0716C69.3724 71.3001 69.0926 71.4144 68.7596 71.4144H65.8927V79.5815C65.8927 79.9145 65.7785 80.1943 65.5499 80.4229C65.3213 80.6514 65.0396 80.7657 64.7085 80.7657H62.4012H62.3993Z" fill="black"/>
<path d="M81.2901 71.2901C80.5413 70.9157 79.8261 70.7286 79.1384 70.7286C78.7641 70.7286 78.3995 70.7916 78.0468 70.9157C77.6942 71.0399 77.371 71.233 77.0814 71.4931C76.7898 71.7531 76.5553 72.0704 76.3799 72.4447C76.2026 72.8191 76.1139 73.2545 76.1139 73.753C76.1139 74.2318 76.2065 74.6574 76.3937 75.0318C76.5809 75.4062 76.8193 75.7234 77.1109 75.9835C77.4025 76.2436 77.7296 76.4406 78.0922 76.5765C78.4547 76.7125 78.8251 76.7795 79.1995 76.7795C79.9266 76.7795 80.6536 76.5509 81.3807 76.0938C81.6506 75.9066 81.9422 75.814 82.2535 75.814C82.6476 75.814 82.9708 75.9815 83.219 76.3125L84.1865 77.5913C84.352 77.8198 84.4347 78.0701 84.4347 78.34C84.4347 78.7558 84.2672 79.0887 83.9362 79.337C83.0003 80.0857 82.1176 80.5744 81.2861 80.803C80.4546 81.0315 79.6645 81.1458 78.9177 81.1458C77.7336 81.1458 76.6578 80.9685 75.6923 80.6158C74.7248 80.2631 73.9052 79.7646 73.2293 79.1203C72.5535 78.476 72.0333 77.6977 71.6708 76.7815C71.3082 75.8672 71.125 74.8604 71.125 73.757C71.125 72.7383 71.3004 71.7827 71.655 70.8881C72.0077 69.9956 72.5121 69.2114 73.1663 68.5356C73.8204 67.8597 74.6047 67.3297 75.5189 66.9455C76.4331 66.5612 77.44 66.3682 78.5434 66.3682C79.4793 66.3682 80.3206 66.4509 81.0674 66.6184C81.8161 66.7859 82.6043 67.1386 83.4358 67.6785C83.8929 67.9701 84.1215 68.3326 84.1215 68.77C84.1215 68.9769 84.0584 69.1759 83.9343 69.3631L83.0299 70.8586C82.7796 71.2743 82.4269 71.4812 81.9698 71.4812C81.7196 71.4812 81.491 71.4201 81.2841 71.294L81.2901 71.2901Z" fill="black"/>
<path d="M91.7635 74.0645V79.5815C91.7635 79.9145 91.6493 80.1943 91.4207 80.4229C91.1921 80.6514 90.9123 80.7657 90.5793 80.7657H88.2721C87.9391 80.7657 87.6593 80.6514 87.4307 80.4229C87.2022 80.1943 87.0879 79.9145 87.0879 79.5815V67.923C87.0879 67.59 87.2022 67.3102 87.4307 67.0816C87.6593 66.853 87.9391 66.7388 88.2721 66.7388H90.5793C90.9123 66.7388 91.1921 66.853 91.4207 67.0816C91.6493 67.3102 91.7635 67.5919 91.7635 67.923V72.8488L95.3791 67.519C95.5446 67.2905 95.7575 67.1033 96.0175 66.9575C96.2776 66.8117 96.5515 66.7388 96.8431 66.7388H99.0243C99.377 66.7388 99.6686 66.8629 99.8971 67.1131C100.126 67.3634 100.24 67.6431 100.24 67.9545C100.24 68.2047 100.157 68.4431 99.9897 68.6717L96.6855 73.036L98.2125 75.1246C98.7937 75.893 99.3553 76.3403 99.8952 76.4644C100.374 76.5689 100.689 76.7245 100.847 76.9314C101.003 77.1403 101.081 77.4831 101.081 77.9599V79.8613C101.081 80.1115 100.987 80.3401 100.802 80.547C100.614 80.7539 100.396 80.88 100.147 80.9214C99.9799 80.9411 99.8242 80.9568 99.6804 80.9686C99.5346 80.9785 99.379 80.9844 99.2134 80.9844C98.8391 80.9844 98.4509 80.943 98.045 80.8603C97.6391 80.7775 97.2352 80.6258 96.8293 80.4091C96.4234 80.1904 96.0195 79.8849 95.6136 79.4889C95.2077 79.0948 94.7979 78.5845 94.3821 77.9619L91.7635 74.0645Z" fill="black"/>
<path d="M114.579 80.7657C114.246 80.7657 113.966 80.6514 113.738 80.4229C113.509 80.1943 113.395 79.9145 113.395 79.5815V73.4399L108.936 79.9854C108.771 80.214 108.578 80.4012 108.359 80.547C108.14 80.6928 107.886 80.7657 107.596 80.7657H104.915C104.582 80.7657 104.302 80.6514 104.073 80.4229C103.845 80.1943 103.73 79.9145 103.73 79.5815V67.923C103.73 67.59 103.845 67.3102 104.073 67.0816C104.302 66.853 104.582 66.7388 104.915 66.7388H107.222C107.555 66.7388 107.835 66.853 108.063 67.0816C108.292 67.3102 108.406 67.5919 108.406 67.923V74.0645L112.863 67.519C113.029 67.2905 113.216 67.1033 113.425 66.9575C113.631 66.8117 113.882 66.7388 114.173 66.7388H116.885C117.218 66.7388 117.497 66.853 117.726 67.0816C117.954 67.3102 118.069 67.5919 118.069 67.923V79.5815C118.069 79.9145 117.954 80.1943 117.726 80.4229C117.497 80.6514 117.216 80.7657 116.885 80.7657H114.577H114.579Z" fill="black"/>
<path d="M131.663 60.5972C132.286 60.5972 132.759 60.7745 133.082 61.1272C133.403 61.4819 133.564 61.939 133.564 62.4986C133.564 63.3084 133.164 63.994 132.365 64.5556C131.565 65.1171 130.374 65.3969 128.796 65.3969C127.05 65.3969 125.797 65.1171 125.041 64.5556C124.282 63.994 123.904 63.3084 123.904 62.4986C123.904 61.937 124.059 61.4799 124.371 61.1272C124.682 60.7745 125.151 60.5972 125.774 60.5972C126.314 60.5972 126.71 60.7075 126.958 60.9302C127.208 61.1528 127.383 61.4346 127.488 61.7794C127.592 62.0611 127.738 62.2936 127.925 62.4749C128.112 62.6582 128.402 62.7488 128.798 62.7488C129.151 62.7488 129.411 62.6582 129.578 62.4749C129.744 62.2936 129.88 62.0611 129.984 61.7794C130.089 61.4365 130.264 61.1528 130.514 60.9302C130.765 60.7075 131.149 60.5972 131.667 60.5972H131.663ZM132.349 80.7657C132.016 80.7657 131.736 80.6514 131.507 80.4228C131.279 80.1943 131.165 79.9145 131.165 79.5815V73.4399L126.708 79.9854C126.54 80.214 126.349 80.4012 126.13 80.547C125.912 80.6928 125.657 80.7657 125.366 80.7657H122.684C122.351 80.7657 122.071 80.6514 121.843 80.4228C121.614 80.1943 121.5 79.9145 121.5 79.5815V67.9229C121.5 67.59 121.614 67.3102 121.843 67.0816C122.071 66.853 122.351 66.7388 122.684 66.7388H124.991C125.324 66.7388 125.604 66.853 125.833 67.0816C126.061 67.3102 126.176 67.5919 126.176 67.9229V74.0645L130.633 67.519C130.798 67.2905 130.985 67.1033 131.194 66.9575C131.401 66.8117 131.651 66.7388 131.943 66.7388H134.654C134.987 66.7388 135.267 66.853 135.495 67.0816C135.724 67.3102 135.838 67.5919 135.838 67.9229V79.5815C135.838 79.9145 135.724 80.1943 135.495 80.4228C135.267 80.6514 134.987 80.7657 134.654 80.7657H132.347H132.349Z" fill="black"/>
<path d="M150.18 79.5815C150.18 79.9145 150.065 80.1943 149.837 80.4229C149.608 80.6514 149.328 80.7657 148.995 80.7657H146.688C146.355 80.7657 146.075 80.6514 145.847 80.4229C145.618 80.1943 145.504 79.9145 145.504 79.5815V67.923C145.504 67.59 145.618 67.3102 145.847 67.0816C146.075 66.853 146.355 66.7388 146.688 66.7388H148.901C149.441 66.7388 149.917 66.9772 150.333 67.456L153.919 71.509L157.224 67.4875C157.411 67.2589 157.618 67.0777 157.846 66.9417C158.075 66.8077 158.335 66.7388 158.626 66.7388H160.715C161.048 66.7388 161.328 66.853 161.556 67.0816C161.785 67.3102 161.899 67.5919 161.899 67.923V79.5815C161.899 79.9145 161.785 80.1943 161.556 80.4229C161.328 80.6514 161.046 80.7657 160.715 80.7657H158.408C158.075 80.7657 157.795 80.6514 157.566 80.4229C157.338 80.1943 157.224 79.9145 157.224 79.5815V73.8773L154.573 76.8703C154.345 77.1205 154.075 77.2447 153.764 77.2447C153.452 77.2447 153.182 77.1304 152.952 76.9018L150.178 73.8773V79.5815H150.18Z" fill="black"/>
<path d="M176.175 80.7657C175.842 80.7657 175.562 80.6514 175.334 80.4229C175.105 80.1943 174.991 79.9145 174.991 79.5815V73.4399L170.532 79.9854C170.364 80.214 170.173 80.4012 169.955 80.547C169.736 80.6928 169.482 80.7657 169.19 80.7657H166.508C166.175 80.7657 165.896 80.6514 165.667 80.4229C165.438 80.1943 165.324 79.9145 165.324 79.5815V67.923C165.324 67.59 165.438 67.3102 165.667 67.0816C165.896 66.853 166.175 66.7388 166.508 66.7388H168.816C169.149 66.7388 169.428 66.853 169.657 67.0816C169.886 67.3102 170 67.5919 170 67.923V74.0645L174.457 67.519C174.622 67.2905 174.809 67.1033 175.018 66.9575C175.225 66.8117 175.475 66.7388 175.767 66.7388H178.478C178.811 66.7388 179.091 66.853 179.32 67.0816C179.548 67.3102 179.662 67.5919 179.662 67.923V79.5815C179.662 79.9145 179.548 80.1943 179.32 80.4229C179.091 80.6514 178.809 80.7657 178.478 80.7657H176.171H176.175Z" fill="black"/>
<path d="M187.769 76.2456C188.122 76.4544 188.449 76.5943 188.751 76.6672C189.052 76.7401 189.452 76.7756 189.951 76.7756C190.969 76.7756 191.722 76.4682 192.211 75.8555C192.699 75.2427 192.944 74.4998 192.944 73.627C192.944 72.8172 192.709 72.1295 192.242 71.5699C191.775 71.0084 191.093 70.7286 190.201 70.7286C189.328 70.7286 188.518 71.1443 187.769 71.9758V76.2456ZM187.769 85.8156C187.769 86.1486 187.655 86.4283 187.427 86.6569C187.198 86.8855 186.918 86.9997 186.585 86.9997H184.278C183.945 86.9997 183.665 86.8855 183.437 86.6569C183.208 86.4283 183.094 86.1466 183.094 85.8156V67.9228C183.094 67.5898 183.208 67.31 183.437 67.0815C183.665 66.8529 183.945 66.7386 184.278 66.7386H186.741C187.032 66.7386 187.275 66.8371 187.474 67.0342C187.671 67.2312 187.769 67.4755 187.769 67.7671C188.163 67.3928 188.693 67.0657 189.359 66.7859C190.025 66.5061 190.794 66.3643 191.667 66.3643C192.603 66.3643 193.46 66.5416 194.238 66.8943C195.018 67.247 195.676 67.7475 196.218 68.3898C196.758 69.0341 197.18 69.7927 197.481 70.6655C197.783 71.5384 197.932 72.494 197.932 73.5324C197.932 74.5924 197.749 75.5855 197.387 76.5096C197.022 77.4337 196.514 78.2396 195.86 78.9252C195.205 79.6109 194.415 80.1508 193.491 80.5468C192.565 80.9409 191.533 81.1399 190.39 81.1399C189.911 81.1399 189.438 81.1044 188.971 81.0315C188.504 80.9586 188.102 80.8503 187.771 80.7045V85.8156H187.769Z" fill="black"/>
</svg>
