<svg width="220" height="120" viewBox="0 0 220 120" fill="none" xmlns="http://www.w3.org/2000/svg">
<path d="M37.1303 49.0229C37.8214 48.9882 38.5155 49.0084 39.2052 49.0113C39.5912 48.9809 39.7575 49.3887 39.9006 49.6721C42.0651 54.1687 44.2729 58.6423 46.4186 63.1462C46.514 63.0551 46.5965 62.9539 46.6644 62.8411C48.9677 58.3574 51.2898 53.8825 53.5974 49.4002C53.6986 49.2137 53.8663 48.9997 54.1049 49.0156C54.7454 49.0128 55.3903 48.9679 56.0265 49.0446C56.1739 49.1906 56.2057 49.4002 56.2404 49.594C57.1138 56.0816 57.9842 62.5707 58.8575 69.0584C58.9182 69.3418 58.8835 69.8001 58.496 69.7914C57.228 69.8131 55.9599 69.7972 54.6905 69.7987C54.3926 69.8478 54.0774 69.6252 54.0615 69.3157C53.7275 65.101 53.3805 60.8718 52.5896 56.7135C50.4656 60.7359 48.4197 64.8003 46.3116 68.8314C46.0196 69.3736 45.3053 69.3866 44.7848 69.2449C44.3684 69.1133 44.2122 68.6738 44.043 68.3181C42.2979 64.7063 40.5426 61.0988 38.7931 57.4885C38.6398 57.1603 38.4851 56.8321 38.2942 56.5241C37.46 60.7272 37.0277 64.9998 36.6633 69.2666C36.6474 69.5167 36.4768 69.7799 36.2021 69.7856C35.469 69.829 34.7331 69.7842 34 69.8044C34.9311 63.1129 35.9129 56.4301 36.844 49.7386C36.8874 49.487 36.9019 49.1863 37.1318 49.0229H37.1303ZM106.284 50.2027C106.427 49.7285 106.995 49.8557 107.374 49.8311C107.831 49.8065 108.429 49.8542 108.607 50.3618C109.712 53.0945 110.84 55.817 111.925 58.557C110.566 58.8953 109.186 59.1339 107.825 59.4621C107.33 58.1782 106.868 56.8812 106.412 55.5828C105.721 57.1472 105.338 58.8462 104.669 60.4178C103.658 60.8791 102.659 61.3938 101.8 62.1052C101.554 62.3119 101.314 62.5259 101.042 62.6951C102.812 58.5411 104.527 54.3625 106.285 50.2027H106.284ZM140.941 49.9396C143.347 49.6938 145.872 49.8846 148.08 50.9343C150.663 52.1705 152.715 54.5533 153.369 57.3627C153.856 59.4997 153.792 61.7928 153.046 63.8648C152.063 66.544 149.791 68.681 147.118 69.6338C144.821 70.4233 142.312 70.4883 139.933 70.0748C137.188 69.5876 134.673 67.919 133.194 65.5536C131.805 63.3356 131.479 60.5827 131.905 58.0336C132.26 55.8662 133.404 53.8478 135.077 52.425C136.69 50.9777 138.798 50.1593 140.943 49.9381L140.941 49.9396ZM141.459 51.6977C140.049 51.9421 138.803 52.8255 138.019 54.0111C136.745 55.8084 136.437 58.0798 136.473 60.2298C136.446 62.4666 136.89 64.8292 138.35 66.5975C140.37 69.2145 144.844 69.2695 146.949 66.7305C148.231 65.2514 148.802 63.2922 148.902 61.3678C148.967 59.5243 148.972 57.6244 148.344 55.8648C147.879 54.5852 147.109 53.3779 146.005 52.5609C144.706 51.6254 143.005 51.4129 141.459 51.6963V51.6977ZM62.4794 50.9762C62.4433 50.7131 62.6037 50.3849 62.9001 50.382C64.0193 50.3545 65.1398 50.3704 66.2575 50.3748C66.5828 50.3401 66.7838 50.69 66.765 50.9791C66.7722 55.136 66.7664 59.2944 66.7679 63.4513C66.9573 63.3067 67.1293 63.1418 67.2869 62.9626C70.8105 59.0601 74.0218 54.8902 77.2027 50.7088C77.745 50.142 78.6154 50.4326 79.3079 50.3777C79.5855 50.3227 79.6911 50.5902 79.668 50.8172C79.6737 56.8942 79.6651 62.9727 79.6723 69.0497C79.7099 69.3736 79.5523 69.816 79.159 69.79C78.0847 69.8073 77.0076 69.7972 75.9318 69.7943C75.6629 69.8334 75.3809 69.6194 75.3882 69.3389C75.3607 65.1241 75.4041 60.9051 75.365 56.6889C71.8328 60.3643 68.8253 64.4981 65.6733 68.493C65.2728 68.9369 65.0169 69.6136 64.3908 69.7712C63.7995 69.816 63.1994 69.8218 62.6081 69.7668C62.4259 69.6324 62.4982 69.3736 62.4751 69.1827C62.4823 63.1129 62.4751 57.0446 62.478 50.9734L62.4794 50.9762ZM84.4914 50.9806C84.4495 50.6582 84.7011 50.3068 85.051 50.3733C86.9769 50.3661 88.9071 50.3719 90.8345 50.3719C92.3917 50.4124 93.998 50.5627 95.415 51.2625C97.3221 52.2183 98.5887 54.3104 98.5742 56.4417C98.6046 57.8861 98.2677 59.3956 97.3481 60.5422C96.4372 61.6989 95.0535 62.3755 93.6525 62.7312C92.0635 63.1259 90.4065 63.2373 88.7755 63.1635C88.7813 65.1704 88.7813 67.1787 88.777 69.1856C88.8189 69.4936 88.5933 69.8362 88.2565 69.7958C87.1388 69.7987 86.0197 69.8175 84.9035 69.7871C84.6215 69.7712 84.4654 69.4516 84.4928 69.1986C84.49 63.1259 84.49 57.0533 84.4928 50.982L84.4914 50.9806ZM88.7799 52.1185C88.7799 55.2806 88.7741 58.4427 88.7828 61.6034C90.1679 61.6757 91.6716 61.4343 92.7343 60.4728C93.8621 59.4722 94.2265 57.8904 94.212 56.4388C94.2323 55.2372 93.8448 53.9533 92.8818 53.1769C91.7483 52.2399 90.2012 52.0563 88.7799 52.1185ZM116.471 50.369C121.179 50.3878 125.887 50.3401 130.59 50.3921C130.625 50.4297 130.693 50.5063 130.726 50.5439C130.755 51.2307 130.785 51.9291 130.709 52.613C130.55 52.9152 130.168 52.8009 129.901 52.772C128.515 52.5132 127.107 52.438 125.702 52.4178C125.697 58.0104 125.705 63.6016 125.699 69.1943C125.732 69.508 125.475 69.8637 125.134 69.7972C124.066 69.8015 122.999 69.8059 121.932 69.7958C121.601 69.8319 121.376 69.4994 121.415 69.1957C121.409 63.6016 121.418 58.009 121.41 52.4149C119.911 52.4308 118.412 52.5436 116.932 52.8096C116.639 52.8978 116.317 52.6824 116.347 52.3628C116.353 51.7021 116.204 50.9936 116.471 50.369ZM157.123 50.9661C157.074 50.6813 157.283 50.3589 157.595 50.3777C159.525 50.3603 161.457 50.3762 163.388 50.3719C165.015 50.4152 166.713 50.557 168.173 51.3435C170.06 52.3383 171.24 54.4709 171.202 56.5877C171.196 58.1362 170.764 59.7614 169.656 60.8921C168.39 62.2208 166.548 62.7746 164.781 63.0233C163.666 63.1491 162.537 63.246 161.418 63.1563C161.39 65.1719 161.424 67.1888 161.402 69.2058C161.431 69.5355 161.146 69.8522 160.806 69.7972C159.736 69.8015 158.665 69.8073 157.595 69.7943C157.283 69.8102 157.067 69.4892 157.122 69.2001C157.121 63.1216 157.119 57.0431 157.122 50.9647L157.123 50.9661ZM161.409 52.1243C161.412 55.2835 161.409 58.4427 161.41 61.6034C162.745 61.6699 164.179 61.4531 165.238 60.5769C166.28 59.7252 166.727 58.3618 166.812 57.0562C166.934 55.7216 166.665 54.2251 165.631 53.2868C164.499 52.2587 162.88 52.0505 161.409 52.1228V52.1243ZM174.542 50.9762C174.504 50.6755 174.728 50.3357 175.06 50.3748C178.404 50.369 181.75 50.3632 185.094 50.3777C185.406 50.3603 185.395 50.7536 185.412 50.969C185.416 51.5098 185.529 52.0852 185.325 52.6C185.163 52.9267 184.753 52.7908 184.472 52.7706C182.607 52.467 180.713 52.4409 178.828 52.425C178.828 58.0177 178.83 63.6089 178.826 69.2015C178.865 69.5211 178.603 69.8594 178.262 69.7987C177.194 69.803 176.125 69.8088 175.058 69.7958C174.739 69.8232 174.507 69.495 174.539 69.1986C174.539 63.1259 174.536 57.0504 174.54 50.9777L174.542 50.9762ZM113.831 63.4932L113.899 63.444C114.719 65.3121 115.436 67.2279 116.227 69.1104C116.35 69.3345 116.419 69.8146 116.035 69.7885C114.767 69.8175 113.499 69.79 112.229 69.8001C111.87 69.8391 111.502 69.6382 111.396 69.2839C110.981 68.1475 110.543 67.0153 110.167 65.8673C110.868 65.5391 111.626 65.2962 112.264 64.8335C112.855 64.4706 113.324 63.9544 113.831 63.4918V63.4932Z" fill="black"/>
<path d="M113.394 58.9836C114.172 58.7089 114.854 58.2404 115.495 57.7314C115.119 59.721 114.315 61.7018 112.901 63.1838C111.779 64.3492 110.24 65.0172 108.669 65.3093C106.987 65.6534 105.219 65.5334 103.594 66.1522C103.965 65.6274 104.37 65.1112 104.902 64.7382C106.212 63.7564 107.836 63.3906 109.361 62.886C110.4 62.5506 111.465 62.1211 112.216 61.297C110.436 62.2079 108.38 62.218 106.519 62.8918C105.199 63.3414 103.97 64.1772 103.248 65.3931C102.509 66.6308 102.188 68.0579 101.638 69.3794C101.532 69.6281 101.277 69.806 101.004 69.7973C100.031 69.8117 99.0595 69.8045 98.0879 69.7929C98.9381 67.8656 99.5598 65.7792 100.951 64.1482C102.278 62.5187 104.162 61.4372 106.15 60.8198C108.521 60.0376 111.053 59.867 113.394 58.9865V58.9836Z" fill="black"/>
</svg>
