<svg width="220" height="120" viewBox="0 0 220 120" fill="none" xmlns="http://www.w3.org/2000/svg">
<path fill-rule="evenodd" clip-rule="evenodd" d="M120.252 63.2284C124.585 63.2284 132.391 60.3626 133.301 54.3263C133.808 50.9201 130.84 49.605 129.659 49.471C135.274 47.8864 137.179 44.1261 137.584 42.6261C138.932 37.6692 135.46 36 130.722 36H115.447L113.526 39.3385L121.769 39.9113L121.465 40.4673L112.563 41.0402L109.95 45.609L118.212 46.148L117.891 46.704L89.7034 48.5411L88.4561 50.7155L114.639 52.3678L114.319 52.9238L99.7358 53.7661L100.849 57.8962L111.1 58.5199L110.78 59.0758L101.322 59.7333L102.215 63.2228H120.255L120.252 63.2284ZM95.6551 38.1758L108.114 38.9519L107.321 36.0014H96.9024L95.6551 38.1758ZM92.0302 44.4478L109.833 45.6104L108.703 41.2941L93.2931 42.272L92.0288 44.4464L92.0302 44.4478ZM95.9923 60.1101L82.4719 61.054L81.2246 63.2284L94.189 63.2115L95.9923 60.1101ZM97.3751 57.6817L99.6342 53.7704L86.0799 54.799L84.8326 56.9734L97.3751 57.6817ZM118.584 57.1596H115.6L118.735 51.7145H121.719C122.63 51.7145 123.928 52.6585 123.219 54.4956C122.443 56.4682 119.966 57.1596 118.583 57.1596H118.584ZM124.367 46.505L121.753 46.522L124.738 41.3294H127.249C128.329 41.3294 129.154 42.5937 128.564 44.0936C127.907 45.6951 126.103 46.4881 124.367 46.505Z" fill="black"/>
<path fill-rule="evenodd" clip-rule="evenodd" d="M60 73.4609V82.7341H62.2252V78.3501C62.2252 77.5571 62.2252 76.5962 62.6301 76.0233C63.0351 75.3996 63.742 75.1979 64.147 75.1979C66.018 75.1979 66.018 77.3892 66.018 78.1652V82.7341H68.2432V77.7264C68.2432 77.0181 68.2432 75.4504 67.3839 74.4387C66.6247 73.5117 65.3943 73.1575 64.6028 73.1575C63.1861 73.1575 62.4284 73.9167 62.0573 74.2694V73.4609H60ZM149.437 78.1314C149.437 80.8292 151.562 83.0375 154.327 83.0375C156.501 83.0375 158.272 81.4868 158.811 79.8175H156.467C156.045 80.5767 155.304 80.9971 154.327 80.9971C152.725 80.9971 151.866 79.699 151.764 79.0923H158.963C159.031 78.8058 159.099 78.4178 159.099 77.9804C159.099 75.6536 157.245 73.1081 154.311 73.1081C151.462 73.1081 149.439 75.5026 149.439 78.1328L149.437 78.1314ZM156.821 77.3214H151.696C152.101 75.6014 153.484 75.1471 154.31 75.1471C155.423 75.1471 156.569 75.8215 156.821 77.3214ZM139.524 78.0636C139.524 81.1326 142.069 83.0375 144.447 83.0375C146.604 83.0375 148.324 81.7901 149.083 79.7159H146.572C145.982 80.643 145.257 80.9971 144.514 80.9971C142.845 80.9971 141.733 79.6821 141.716 78.0975C141.716 76.1926 143.065 75.1979 144.414 75.1979C145.78 75.1979 146.302 76.0741 146.572 76.5468H149.083C148.139 73.6979 145.594 73.1575 144.43 73.1575C141.884 73.1575 139.524 75.2317 139.524 78.0636ZM130.437 73.4609V82.7341H132.662V78.3501C132.662 77.5571 132.662 76.5962 133.067 76.0233C133.472 75.3996 134.179 75.1979 134.584 75.1979C136.455 75.1979 136.455 77.3892 136.455 78.1652V82.7341H138.68L138.663 77.7264C138.663 77.0181 138.663 75.4504 137.821 74.4387C137.061 73.5117 135.848 73.1575 135.039 73.1575C133.623 73.1575 132.865 73.9167 132.494 74.2694V73.4609H130.437ZM127.149 78.0806C127.149 79.8006 125.986 80.9971 124.451 80.9971C122.85 80.9971 121.686 79.7159 121.686 78.1483C121.686 76.7655 122.629 75.1979 124.451 75.1979C125.766 75.1979 127.166 76.1588 127.149 78.0806ZM124.114 73.1575C121.551 73.1575 119.477 75.2148 119.477 78.0467C119.477 81.1326 121.585 83.0375 123.978 83.0375C125.141 83.0375 126.507 82.4307 127.215 81.587V82.7341H129.256V73.4609H127.215V74.6405H127.181C127.131 74.505 126.002 73.1575 124.112 73.1575H124.114ZM116.578 70.3764V82.7341H118.803V70.3764H116.578ZM113.307 78.0806C113.307 79.8006 112.127 80.9971 110.592 80.9971C109.008 80.9971 107.843 79.7159 107.843 78.1483C107.843 76.7655 108.77 75.1979 110.592 75.1979C111.907 75.1979 113.307 76.1588 113.307 78.0806ZM105.637 78.0467C105.637 81.1326 107.745 83.0375 110.138 83.0375C111.3 83.0375 112.666 82.4307 113.375 81.587V82.7341H115.398V73.4609H113.375V74.6405H113.341C113.273 74.505 112.161 73.1575 110.273 73.1575C107.711 73.1575 105.637 75.2148 105.637 78.0467ZM95.2684 70.3764V82.7341H97.3087V81.6208C97.8647 82.2276 98.6407 83.0375 100.427 83.0375C103.816 83.0375 105.047 79.9191 105.03 78.0636C105.03 75.6198 103.193 73.1575 100.376 73.1575C99.3477 73.1575 98.2697 73.5286 97.4936 74.3033V70.375H95.2684V70.3764ZM100.141 80.9971C98.8425 80.9971 97.3595 80.0362 97.3595 77.979C97.3595 76.63 98.4051 75.1979 100.108 75.1979C101.508 75.1979 102.823 76.2773 102.823 78.0806C102.823 79.8853 101.593 80.9971 100.142 80.9971H100.141ZM77.9707 73.4609L81.3261 82.7341H82.692L84.4459 76.7147H84.4798L86.2167 82.7341H87.5826L90.9719 73.4609H88.5943L86.8912 79.1247H86.8573L85.3574 73.4609H83.5866L82.0697 79.1247H82.0359L80.3497 73.4609H77.9722H77.9707ZM73.6714 73.1067C70.8225 73.1067 68.7991 75.5012 68.7991 78.1314C68.7991 80.8292 70.9396 83.0375 73.6883 83.0375C75.8627 83.0375 77.6335 81.4868 78.1725 79.8175H75.8288C75.4069 80.5767 74.6661 80.9971 73.6883 80.9971C72.1037 80.9971 71.2261 79.699 71.1259 79.0923H78.3249C78.4096 78.8058 78.4604 78.4178 78.4604 77.9804C78.4604 75.6536 76.6063 73.1081 73.6728 73.1081L73.6714 73.1067ZM71.0582 77.3214C71.4801 75.6014 72.8614 75.1471 73.6883 75.1471C74.8002 75.1471 75.9473 75.8215 76.183 77.3214H71.0582Z" fill="black"/>
</svg>
