<svg width="220" height="120" viewBox="0 0 220 120" fill="none" xmlns="http://www.w3.org/2000/svg">
<path fill-rule="evenodd" clip-rule="evenodd" d="M44 77.4204H53.5498V43H44V77.4204ZM166.071 77.4204H175.621V43H166.071V77.4204ZM62.1203 43H71.6701V49.9662H67.3707V70.4542H71.6701V77.4204H62.1203V43Z" fill="black"/>
<path fill-rule="evenodd" clip-rule="evenodd" d="M62.1211 77.4204H71.6709V70.4542H67.3715V49.9662H71.6709V43H62.1211V77.4204ZM149.315 70.4542H153.614V49.9662H149.315V43H158.865V77.4204H149.315V70.4542Z" fill="black"/>
<path fill-rule="evenodd" clip-rule="evenodd" d="M149.314 77.4204H158.863V43H149.314V49.9662H153.613V70.4542H149.314V77.4204ZM79.5584 77.4204H89.1096V70.4542H79.5584V77.4204ZM96.9972 77.4204H106.547V70.4542H96.9972V77.4204ZM114.436 77.4204H123.987V70.4542H114.436V77.4204ZM131.875 77.4204H141.425V70.4542H131.875V77.4204ZM79.5584 43H89.1096V49.9662H79.5584V43ZM96.9972 43H106.547V49.9662H96.9972V43ZM114.436 43H123.987V49.9662H114.436V43ZM131.875 43H141.425V49.9662H131.875V43ZM73.3203 52.1462H76.3879L78.8571 62.8403L81.651 52.1462H85.6597L88.438 63.0238L90.9073 52.1462H93.9776L90.1368 67.7154H86.6234L83.6476 56.0773L80.6054 67.7154H76.9099L73.3203 52.1462ZM145.549 67.7168V52.1462H142.555V57.597L141.853 56.9169L141.093 56.4287L140.269 56.1352L139.381 56.0364L138.423 56.1352L137.554 56.4146L136.775 56.8915L136.077 57.5504L135.501 58.397L135.093 59.4186L134.851 60.6152L134.77 61.981L134.851 63.3328L135.099 64.5166L135.505 65.5509L136.081 66.4201L136.77 67.1171L137.523 67.6124L138.341 67.9101L139.223 68.0089L140.124 67.8861L141.017 67.5193L141.845 66.9154L142.555 66.0702V67.7112H145.55V67.714L145.549 67.7168ZM137.764 61.8173L137.934 60.3428L138.452 59.2846L139.219 58.6496L140.159 58.4351L141.114 58.6496L141.88 59.2944L142.388 60.4275L142.555 62.1066L142.381 63.6418L141.862 64.7396L141.096 65.3999L140.179 65.6215L139.589 65.5495L139.071 65.3308L138.621 64.9653L138.241 64.4461L137.881 63.3836L137.766 61.8188L137.764 61.8173ZM128.402 67.7168V56.3398H131.396V57.93L132.02 56.9945L132.582 56.4244L133.138 56.1394L133.774 56.0406L134.697 56.2015L135.59 56.6728L134.844 59.5216L134.103 59.1576L133.42 59.0348L132.83 59.1251L132.342 59.3763L131.95 59.856L131.649 60.5982L131.457 61.9683L131.398 64.3022V67.7182H128.404L128.402 67.7168ZM116.499 61.8639L116.677 63.694L117.213 65.2179L118.093 66.43L119.305 67.3062L120.715 67.8353L122.198 68.0131L123.366 67.9115L124.437 67.5884L125.398 67.0607L126.263 66.3086L126.964 65.4013L127.471 64.3769L127.776 63.2453L127.877 61.9951L127.776 60.7647L127.477 59.6416L126.976 58.6299L126.279 57.7282L125.417 56.9931L124.454 56.4654L123.369 56.1465L122.182 56.0392H114.179V55.6004L114.241 54.9358L114.453 54.5238L114.824 54.3121L115.369 54.243L116.723 54.4109L117.172 52.245L115.932 51.9501L114.667 51.8457L113.527 51.9586L112.604 52.2831L111.916 52.784L111.487 53.4105L111.257 54.2797L111.182 55.5016V56.0378H109.684V58.4337H111.182V67.7154H114.176V58.4351H117.568L117.216 58.9445L116.68 60.3823L116.5 61.8653L116.499 61.8639ZM119.493 62.029L119.685 60.4952L120.269 59.3608L121.138 58.6694L122.19 58.4351L123.238 58.6694L124.104 59.3608L124.686 60.4896L124.883 62.005L124.686 63.5628L124.104 64.693L123.238 65.3915L122.19 65.6215L121.138 65.3915L120.269 64.693L119.685 63.5656L119.493 62.0276V62.029ZM105.469 67.7182H108.465V52.1476H105.469V67.7182ZM93.1197 61.8653L93.2989 63.6954L93.8365 65.2193L94.717 66.4314L95.9262 67.3076L97.3359 67.8368L98.8202 68.0145L99.9886 67.913L101.06 67.5898L102.019 67.0621L102.885 66.31L103.587 65.4027L104.093 64.3783L104.397 63.2467L104.5 61.9965L104.397 60.7661L104.096 59.643L103.595 58.6313L102.898 57.7296L102.036 56.9945L101.074 56.4668L99.9886 56.1479L98.7991 56.0406L97.2554 56.2283L95.867 56.7843L94.6972 57.7028L93.8365 58.9459L93.2989 60.3838L93.1197 61.8667V61.8653ZM96.1153 62.0304L96.3072 60.4966L96.8914 59.3622L97.7606 58.6708L98.8118 58.4365L99.8602 58.6708L100.727 59.3622L101.308 60.491L101.504 62.0064L101.308 63.5642L100.727 64.6944L99.8602 65.3929L98.8118 65.6229L97.7606 65.3929L96.8914 64.6944L96.3072 63.567L96.1153 62.029V62.0304Z" fill="black"/>
</svg>
