<svg width="494" height="426" viewBox="0 0 494 426" fill="none" xmlns="http://www.w3.org/2000/svg">
<path d="M5 51.3844C31.8461 78.8925 108.351 125.656 199.602 92.6465C313.666 51.3844 353.357 -13.0153 489 9.73669" stroke="#617085" stroke-width="9" stroke-linecap="round"/>
<path fill-rule="evenodd" clip-rule="evenodd" d="M158 15C135.909 15 118 32.9086 118 55V386C118 408.091 135.909 426 158 426H285C307.091 426 325 408.091 325 386V55C325 32.9086 307.091 15 285 15H158ZM221 140C249.167 140 272 117.167 272 89C272 60.8335 249.167 38 221 38C192.833 38 170 60.8335 170 89C170 117.167 192.833 140 221 140Z" fill="#B98D75"/>
<g clip-path="url(#clip0_1324_9836)">
<path d="M5 51.3844C31.8461 78.8925 108.351 125.656 199.602 92.6465C313.666 51.3844 353.357 -13.0153 489 9.73669" stroke="#617085" stroke-width="9" stroke-linecap="round"/>
</g>
<path d="M171.174 261V250.24H141.112V239.479C146.388 229.431 152.961 218.838 165.354 200.583H183.19V240.108H191.061V250.24H183.19V261H171.174ZM152.207 240.149V240.484H171.425V209.543H171.174C162.381 222.439 157.106 230.687 152.207 240.149ZM221.374 262.34C206.176 262.34 196.923 250.24 196.923 230.687C196.923 211.176 206.26 199.202 221.374 199.202C236.489 199.202 245.784 211.134 245.784 230.645C245.784 250.156 236.573 262.34 221.374 262.34ZM221.374 252.208C228.576 252.208 232.93 244.462 232.93 230.687C232.93 217.038 228.534 209.334 221.374 209.334C214.257 209.334 209.777 217.08 209.777 230.687C209.777 244.42 214.173 252.208 221.374 252.208ZM282.377 261V250.24H252.315V239.479C257.591 229.431 264.164 218.838 276.557 200.583H294.393V240.108H302.265V250.24H294.393V261H282.377ZM263.411 240.149V240.484H282.628V209.543H282.377C273.585 222.439 268.309 230.687 263.411 240.149Z" fill="white"/>
<path d="M181.438 315H176.328V281.18H181.086L198.617 306.117H198.805V281.18H203.914V315H199.18L181.648 290.086H181.438V315ZM224.797 280.617C234.523 280.617 240.641 287.344 240.641 298.102C240.641 308.859 234.523 315.562 224.797 315.562C215.047 315.562 208.953 308.859 208.953 298.102C208.953 287.344 215.047 280.617 224.797 280.617ZM224.797 285.234C218.375 285.234 214.32 290.203 214.32 298.102C214.32 305.977 218.375 310.945 224.797 310.945C231.219 310.945 235.25 305.977 235.25 298.102C235.25 290.203 231.219 285.234 224.797 285.234ZM257.281 315H252.031V285.703H241.672V281.18H267.617V285.703H257.281V315ZM148.578 363H143.328V329.18H164.445V333.703H148.578V344.414H163.109V348.844H148.578V363ZM183.641 328.617C193.367 328.617 199.484 335.344 199.484 346.102C199.484 356.859 193.367 363.562 183.641 363.562C173.891 363.562 167.797 356.859 167.797 346.102C167.797 335.344 173.891 328.617 183.641 328.617ZM183.641 333.234C177.219 333.234 173.164 338.203 173.164 346.102C173.164 353.977 177.219 358.945 183.641 358.945C190.062 358.945 194.094 353.977 194.094 346.102C194.094 338.203 190.062 333.234 183.641 333.234ZM209.75 329.18V350.672C209.75 355.5 212.797 358.898 218.188 358.898C223.578 358.898 226.648 355.5 226.648 350.672V329.18H231.875V351.117C231.875 358.406 226.672 363.562 218.188 363.562C209.703 363.562 204.5 358.406 204.5 351.117V329.18H209.75ZM243.219 363H238.109V329.18H242.867L260.398 354.117H260.586V329.18H265.695V363H260.961L243.43 338.086H243.219V363ZM271.953 329.18H283.883C293.938 329.18 299.891 335.367 299.891 346.031C299.891 356.719 293.961 363 283.883 363H271.953V329.18ZM277.203 333.703V358.453H283.391C290.562 358.453 294.523 354.07 294.523 346.078C294.523 338.109 290.539 333.703 283.391 333.703H277.203Z" fill="#EBEBEB"/>
<defs>
<clipPath id="clip0_1324_9836">
<rect width="241" height="99" fill="white" transform="translate(248 5)"/>
</clipPath>
</defs>
</svg>
