<svg width="48" height="48" viewBox="0 0 48 48" fill="none" xmlns="http://www.w3.org/2000/svg">
<path d="M29.8466 14.1763L25.7217 6.99594C24.9558 5.66272 23.0347 5.65634 22.26 6.98444L17.9073 14.4462C17.3308 15.4345 16.3586 16.1286 15.2366 16.353L9.28919 17.5425C7.74883 17.8506 7.14861 19.7328 8.22625 20.8757L12.5279 25.4381C13.4478 26.4137 13.8176 27.7852 13.5129 29.091L11.5658 37.4356C11.1656 39.151 13.0178 40.5086 14.5331 39.6107L21.9616 35.2086C23.2189 34.4635 24.7826 34.4635 26.04 35.2086L33.4684 39.6107C34.9838 40.5086 36.836 39.151 36.4357 37.4356L34.4716 29.018C34.1763 27.7526 34.5141 26.4227 35.3773 25.4516L39.6843 20.6063C40.7105 19.4518 40.0963 17.6193 38.5817 17.3164L32.5306 16.1062C31.3995 15.88 30.4212 15.1765 29.8466 14.1763Z" stroke="#B98D75" stroke-width="2" stroke-miterlimit="10"/>
</svg>
