<svg width="289" height="114" viewBox="0 0 289 114" fill="none" xmlns="http://www.w3.org/2000/svg">
<path d="M173.479 3.09045C174.532 2.04215 175.711 1.12728 176.715 0.0302734C174.72 3.66436 172.196 6.99349 169.451 10.0897C163.617 16.4641 156.209 21.3265 148.144 24.3952C144.142 25.8501 140.022 27.0212 135.812 27.6989C125.393 29.3359 114.628 28.6477 104.461 25.8776L104.472 25.7739C116.941 26.693 129.658 25.6764 141.604 21.856C148.051 19.8018 154.224 16.9068 159.934 13.2748C164.783 10.3523 169.199 6.7796 173.479 3.09045Z" fill="white"/>
<path d="M64.3005 45.6217C67.0176 45.2278 69.7982 45.3082 72.4941 45.8313C75.5649 46.4666 78.4895 47.8983 80.7428 50.1007C83.5277 52.6929 85.133 56.3545 85.6497 60.0839C86.321 64.6498 85.6327 69.5524 83.1168 73.483C81.3972 76.2509 78.7394 78.3645 75.7724 79.669C72.4687 81.0329 68.8092 81.4056 65.2704 81.0371C61.0095 80.6749 56.865 78.7499 53.9848 75.5627C51.4223 72.71 49.9928 68.9573 49.7133 65.1538C49.3236 60.7976 50.1432 56.1957 52.6697 52.5573C55.2576 48.6543 59.6943 46.1892 64.3005 45.6217ZM65.4928 51.6869C62.655 52.0957 59.9188 53.6776 58.4279 56.1703C56.6087 59.0674 56.3864 62.6655 56.8735 65.9734C57.3394 69.0781 59.1246 72.0662 61.9625 73.536C64.4699 74.7494 67.3628 75.029 70.0968 74.6075C72.7652 74.2729 75.3213 72.8477 76.8631 70.624C78.553 68.0933 79.055 64.9357 78.8495 61.9475C78.5912 59.1288 77.6593 56.2126 75.5416 54.2325C72.8668 51.7865 68.9829 51.1151 65.4928 51.6869Z" fill="white"/>
<path d="M154.452 45.4968C158.224 45.1368 162.142 45.5497 165.604 47.1635C169.016 48.8132 171.89 51.6574 173.364 55.1708C174.533 57.7735 174.927 60.6388 175.026 63.4661C174.916 67.0408 174.092 70.694 172.072 73.6928C170.507 76.1367 168.188 78.0342 165.608 79.3281C161.553 81.2468 156.879 81.5497 152.504 80.7767C148.978 80.1117 145.674 78.3413 143.217 75.7237C140.805 73.0786 139.318 69.6457 138.903 66.0984C138.348 61.6893 138.958 56.9772 141.368 53.1695C143.044 50.3634 145.678 48.1737 148.675 46.9009C150.5 46.0961 152.476 45.6938 154.452 45.4968ZM155.653 51.5473C152.891 51.7569 150.127 52.9026 148.319 55.0479C145.591 58.4046 145.195 63.1357 146.229 67.2145C146.938 70.0333 148.874 72.5958 151.565 73.7754C154.338 74.9338 157.468 75.046 160.377 74.3874C162.904 73.7478 165.233 72.1341 166.451 69.7918C167.995 67.0557 168.122 63.7964 167.8 60.7405C167.343 57.9281 166.059 55.0458 163.609 53.4342C161.32 51.8162 158.399 51.3355 155.653 51.5473Z" fill="white"/>
<path d="M29.1014 45.9836C31.3102 45.9772 33.519 45.9794 35.73 45.9815C35.7194 57.4831 35.7575 68.9868 35.7109 80.4884C33.6609 80.5223 31.5558 80.5138 29.5927 79.8446C26.6024 78.7476 24.0505 76.706 21.9094 74.3871C18.0551 70.3951 15.069 65.6894 11.7505 61.2675C10.124 59.1858 8.55689 56.9981 6.46877 55.3484C6.43912 63.7262 6.4963 72.1041 6.44124 80.482C4.30653 80.499 2.17182 80.4863 0.0371094 80.4905V45.9772C1.65085 46.0259 3.326 45.7993 4.87409 46.3775C7.59754 47.3157 9.77884 49.2915 11.7462 51.3288C16.6955 56.564 20.4545 62.7584 25.0988 68.2477C26.2995 69.6687 27.5956 71.0262 29.0865 72.1486C29.1077 63.4276 29.0781 54.7067 29.1014 45.9836Z" fill="white"/>
<path d="M225.241 45.9712C233.585 45.9945 241.931 45.9564 250.275 45.9903C250.324 48.053 250.282 50.1157 250.297 52.1784C248.206 52.3668 246.097 52.2123 244 52.2631C239.955 52.2991 235.904 52.189 231.866 52.3181C231.889 54.7917 231.861 57.2652 231.88 59.7388C237.569 59.8066 243.259 59.7282 248.947 59.779C248.99 61.8375 248.964 63.9002 248.962 65.9608C247.173 66.1175 245.377 65.9396 243.585 65.982C240.055 66.0032 236.529 65.9883 233.001 65.9904C232.617 66.001 232.238 66.0413 231.866 66.0985C231.944 68.2416 231.571 70.6199 232.819 72.5153C234.013 74.2815 236.332 74.5695 238.289 74.722C242.313 74.8491 246.351 74.6796 250.33 74.038C250.301 76.0731 250.379 78.1147 250.292 80.1456C248.151 80.6581 245.947 80.8508 243.759 81.0774C240.243 81.2151 236.664 81.3337 233.221 80.4845C230.635 79.8512 228.132 78.3646 226.796 75.999C225.5 73.7436 225.214 71.09 225.19 68.536C225.186 61.6871 225.19 54.8383 225.188 47.9894C225.184 47.316 225.167 46.6404 225.241 45.9712Z" fill="white"/>
<path d="M264.653 45.9862C266.891 45.9947 269.134 45.929 271.372 46.0201C271.372 53.6674 271.372 61.3146 271.372 68.9619C271.366 70.2495 271.54 71.5943 272.234 72.7061C272.963 73.8518 274.335 74.3897 275.623 74.6121C280.049 75.0208 284.498 74.5613 288.901 74.0954V80.1988C285.83 80.7642 282.719 81.1009 279.598 81.1475C276.635 81.2153 273.564 81.1772 270.777 80.042C269.39 79.519 268.107 78.6846 267.154 77.5431C265.737 75.7642 265.021 73.5214 264.814 71.2787C264.566 69.5972 264.674 67.8945 264.651 66.2046C264.651 59.4637 264.648 52.725 264.653 45.9862Z" fill="white"/>
<path d="M93.9844 46.0013C96.5151 45.9865 99.0437 46.0056 101.574 45.9928C105.219 53.8879 108.644 61.8867 112.282 69.7838C115.895 61.874 119.332 53.8794 122.983 45.9844C125.533 46.0161 128.083 45.9823 130.632 46.0034C125.084 57.5982 119.438 69.1485 113.845 80.7242C112.794 80.7391 111.746 80.7391 110.698 80.7242C105.128 69.1506 99.5245 57.5897 93.9844 46.0013Z" fill="white"/>
<path d="M182.512 46.0111C193.024 45.9857 203.537 46.0026 214.052 46.0026C214.056 47.9848 214.048 49.9692 214.056 51.9535C209.909 52.0044 205.763 51.9599 201.616 51.9768C201.601 61.4792 201.612 70.9796 201.612 80.482C199.39 80.5243 197.169 80.4756 194.947 80.5095C194.791 79.7725 194.837 79.0207 194.839 78.2753C194.837 69.5098 194.837 60.7465 194.839 51.9811C190.725 51.9387 186.608 52.0382 182.497 51.9302C182.491 49.9565 182.465 47.9827 182.512 46.0111Z" fill="white"/>
<path d="M185.71 101.503C187.362 101.001 189.189 101.194 190.794 101.784C190.788 102.172 190.788 102.562 190.79 102.951C189.206 102.515 187.41 101.882 185.852 102.731C184.733 103.299 184.765 105.135 185.896 105.673C187.393 106.435 189.242 106.429 190.568 107.551C192.095 108.978 191.652 111.873 189.727 112.738C187.851 113.597 185.6 113.258 183.766 112.435C183.766 112.043 183.766 111.653 183.768 111.266C185.456 111.837 187.366 112.46 189.088 111.662C190.377 111.187 190.617 109.25 189.568 108.415C188.141 107.426 186.218 107.574 184.827 106.526C183.181 105.196 183.721 102.21 185.71 101.503Z" fill="white"/>
<path d="M245.036 102.399C245.574 101.662 246.487 101.323 247.372 101.262C248.7 101.143 250.064 101.306 251.316 101.776C251.311 102.166 251.311 102.558 251.313 102.952C249.738 102.52 247.957 101.889 246.4 102.721C245.25 103.274 245.282 105.159 246.443 105.686C247.982 106.461 249.924 106.431 251.222 107.681C252.658 109.199 252.01 111.971 250.108 112.785C248.266 113.585 246.102 113.227 244.308 112.456C244.295 112.033 244.27 111.607 244.268 111.186C245.758 111.834 247.457 112.314 249.075 111.863C249.59 111.711 250.132 111.469 250.43 110.997C250.981 110.173 250.822 108.877 249.96 108.327C248.588 107.475 246.849 107.528 245.496 106.641C244.164 105.705 244.028 103.621 245.036 102.399Z" fill="white"/>
<path d="M56.8109 101.395C58.0922 101.16 59.4687 101.376 60.6081 102.011C62.135 102.854 63.0075 104.561 63.1939 106.253C63.4501 108.168 62.9948 110.283 61.6056 111.69C59.6 113.82 55.7478 113.771 53.8376 111.535C52.4377 109.94 52.1455 107.624 52.55 105.601C52.9672 103.515 54.6529 101.681 56.8109 101.395ZM56.9041 102.566C56.0337 102.738 55.2459 103.25 54.7207 103.962C53.3823 105.787 53.3844 108.458 54.6021 110.345C55.8664 112.302 58.9647 112.511 60.5615 110.859C62.207 109.18 62.279 106.395 61.1799 104.4C60.3413 102.941 58.5433 102.172 56.9041 102.566Z" fill="white"/>
<path d="M114.19 101.975C115.954 100.927 118.123 101.317 120.001 101.825C120.004 102.229 120.006 102.634 120.014 103.045C118.441 102.547 116.6 102.145 115.046 102.892C113.932 103.432 114.034 105.162 115.04 105.76C116.363 106.584 118.036 106.564 119.362 107.392C120.757 108.218 121.105 110.285 120.19 111.59C119.552 112.496 118.477 113.055 117.384 113.17C115.859 113.335 114.277 113.108 112.898 112.422C112.903 112.037 112.905 111.651 112.909 111.268C114.622 111.848 116.573 112.477 118.307 111.624C119.565 111.096 119.728 109.135 118.631 108.365C117.272 107.49 115.537 107.532 114.167 106.681C112.6 105.647 112.572 102.979 114.19 101.975Z" fill="white"/>
<path d="M136.401 101.555C137.661 101.139 139.046 101.25 140.287 101.684C140.285 102.052 140.285 102.421 140.289 102.791C139.239 102.44 138.095 102.272 137.011 102.573C136.225 102.87 135.649 103.719 135.804 104.574C135.954 105.621 136.827 106.332 137.475 107.097C138.345 107.967 139.19 108.871 140.12 109.685C140.372 108.802 140.414 107.88 140.302 106.974C140.668 106.974 141.035 106.974 141.401 106.976C141.651 108.202 141.541 109.492 141.009 110.633C141.799 111.402 142.579 112.182 143.36 112.959C142.809 112.959 142.261 112.959 141.715 112.961C141.253 112.508 140.795 112.05 140.332 111.601C139.25 112.783 137.572 113.31 136.001 113.079C134.565 113.02 133.112 111.98 132.926 110.496C132.6 108.797 133.625 107.067 135.152 106.336C134.62 105.487 134.262 104.45 134.561 103.454C134.768 102.539 135.531 101.845 136.401 101.555ZM134.207 110.451C134.347 111.207 135.044 111.72 135.753 111.904C137.089 112.29 138.616 111.838 139.535 110.792C138.297 109.598 137.111 108.344 135.85 107.173C134.671 107.753 133.885 109.14 134.207 110.451Z" fill="white"/>
<path d="M201.949 101.478C203.328 101.122 204.848 101.315 206.098 101.997C207.567 102.801 208.446 104.407 208.675 106.031C208.995 108.015 208.556 110.235 207.11 111.698C205.092 113.831 201.22 113.765 199.323 111.506C197.984 109.957 197.686 107.744 198.02 105.783C198.38 103.765 199.884 101.895 201.949 101.478ZM202.402 102.571C200.581 102.916 199.435 104.724 199.257 106.469C199.115 108.028 199.435 109.752 200.577 110.898C202.023 112.355 204.645 112.317 206.079 110.86C207.72 109.172 207.794 106.383 206.684 104.386C205.839 102.929 204.037 102.173 202.402 102.571Z" fill="white"/>
<path d="M36.443 101.522C36.8623 101.52 37.2816 101.52 37.7009 101.522C37.7009 103.18 37.7009 104.839 37.7009 106.497C39.8843 106.499 42.0677 106.499 44.2512 106.497C44.2512 104.839 44.2512 103.18 44.2512 101.522C44.6705 101.52 45.0919 101.52 45.5134 101.522C45.5112 105.334 45.5155 109.146 45.5112 112.958C45.0919 112.958 44.6705 112.958 44.2512 112.958C44.2512 111.211 44.2512 109.464 44.2512 107.719C42.0677 107.714 39.8843 107.717 37.7009 107.717C37.7009 109.464 37.7009 111.211 37.6988 112.958C37.2795 112.958 36.8602 112.958 36.4408 112.958C36.4408 109.146 36.4366 105.334 36.443 101.522Z" fill="white"/>
<path d="M68.2383 101.522C71.4488 101.52 74.6593 101.522 77.8699 101.522C77.8678 101.927 77.8657 102.334 77.8657 102.74C76.4722 102.744 75.0787 102.734 73.6852 102.746C73.6894 106.15 73.6852 109.553 73.6873 112.956C73.2722 112.958 72.8571 112.96 72.4442 112.969C72.4018 109.559 72.4357 106.15 72.4251 102.742C71.0316 102.74 69.6381 102.738 68.2446 102.742C68.2425 102.336 68.2404 101.929 68.2383 101.522Z" fill="white"/>
<path d="M84.811 108.784C84.8237 106.361 84.7941 103.936 84.8259 101.514C87.0834 101.533 89.3409 101.516 91.5985 101.522C91.5964 101.927 91.5964 102.331 91.5985 102.74C89.7581 102.742 87.9178 102.742 86.0775 102.738C86.0732 103.941 86.0669 105.141 86.0817 106.344C87.8416 106.336 89.6014 106.336 91.3613 106.344C91.3592 106.747 91.357 107.151 91.357 107.558C89.5972 107.558 87.8352 107.558 86.0753 107.558C86.1007 108.532 85.9991 109.517 86.16 110.485C86.2363 111.114 86.7805 111.613 87.3989 111.696C88.8157 111.939 90.2537 111.692 91.6768 111.634C91.6747 112.016 91.6768 112.401 91.6768 112.787C89.9996 112.969 88.2736 113.265 86.6069 112.848C85.8953 112.691 85.3256 112.124 85.0821 111.448C84.7708 110.597 84.8153 109.676 84.811 108.784Z" fill="white"/>
<path d="M99.8839 101.632C100.299 101.628 100.716 101.624 101.133 101.617C101.172 104.559 101.116 107.502 101.159 110.444C101.144 111.029 101.424 111.668 102.05 111.797C103.488 112.138 104.979 111.863 106.434 111.791C106.43 112.181 106.43 112.575 106.426 112.968C104.691 113.142 102.883 113.439 101.188 112.879C100.305 112.577 99.8945 111.615 99.903 110.741C99.8606 107.706 99.9009 104.669 99.8839 101.632Z" fill="white"/>
<path d="M154.335 101.523C155.845 101.533 157.355 101.5 158.865 101.538C159.811 101.553 160.722 101.98 161.389 102.643C162.643 103.929 162.45 106.313 160.997 107.376C160.58 107.722 160.051 107.876 159.549 108.052C160.68 109.685 161.809 111.32 162.927 112.961C162.429 112.959 161.933 112.959 161.44 112.961C160.343 111.396 159.223 109.846 158.151 108.264C157.3 108.236 156.446 108.247 155.597 108.249C155.595 109.818 155.595 111.387 155.595 112.959C155.174 112.959 154.754 112.959 154.335 112.961C154.333 109.149 154.335 105.335 154.335 101.523ZM155.675 102.741C155.675 104.153 155.675 105.564 155.675 106.976C157.024 106.885 158.435 107.192 159.739 106.754C161.336 106.207 161.353 103.59 159.786 102.999C158.471 102.529 157.041 102.821 155.675 102.741Z" fill="white"/>
<path d="M169.879 101.523C172.143 101.523 174.405 101.523 176.668 101.523C176.662 101.93 176.656 102.338 176.652 102.747C174.815 102.734 172.979 102.743 171.145 102.743C171.139 103.941 171.137 105.14 171.145 106.339C172.905 106.341 174.665 106.341 176.427 106.339C176.427 106.745 176.427 107.15 176.429 107.559C174.667 107.559 172.905 107.559 171.143 107.559C171.162 108.531 171.073 109.511 171.224 110.475C171.302 111.097 171.827 111.601 172.444 111.69C173.867 111.947 175.313 111.69 176.743 111.635C176.74 112.019 176.74 112.404 176.743 112.792C174.966 112.967 173.106 113.325 171.368 112.747C170.296 112.338 169.913 111.102 169.896 110.051C169.864 107.209 169.896 104.365 169.879 101.523Z" fill="white"/>
<path d="M215.41 101.523C216.888 101.531 218.367 101.504 219.847 101.533C220.912 101.533 221.954 102.031 222.642 102.842C223.458 103.861 223.479 105.375 222.86 106.495C222.388 107.308 221.535 107.81 220.643 108.043C221.736 109.699 222.894 111.313 224.004 112.959C223.5 112.959 223 112.959 222.5 112.954C221.401 111.379 220.3 109.805 219.186 108.242C218.354 108.249 217.524 108.251 216.694 108.238C216.647 109.812 216.685 111.385 216.67 112.959C216.251 112.959 215.832 112.959 215.417 112.961C215.41 109.149 215.421 105.335 215.41 101.523ZM216.677 102.742C216.668 104.153 216.67 105.563 216.677 106.974C218.028 106.883 219.444 107.198 220.749 106.749C222.335 106.19 222.344 103.587 220.783 102.997C219.468 102.529 218.04 102.821 216.677 102.742Z" fill="white"/>
<path d="M228.902 101.523C232.087 101.523 235.27 101.518 238.453 101.527C238.449 101.929 238.449 102.336 238.451 102.74C237.055 102.74 235.662 102.74 234.268 102.74C234.264 106.148 234.275 109.553 234.264 112.958C233.843 112.958 233.425 112.958 233.008 112.961C232.989 109.551 233.036 106.141 232.985 102.732C231.625 102.749 230.264 102.738 228.904 102.74C228.9 102.334 228.9 101.927 228.902 101.523Z" fill="white"/>
</svg>
