<svg width="49" height="48" viewBox="0 0 49 48" fill="none" xmlns="http://www.w3.org/2000/svg">
<path d="M30.6665 20L22.9468 27.7787C22.6539 28.0738 22.1791 28.0738 21.8862 27.7787L18.6665 24.5344M41.5017 18.4327C40.9145 17.649 40.5882 16.8 40.4577 15.8204L39.9357 12.2286C39.6747 10.3347 38.1738 8.83265 36.2163 8.50612L32.6274 7.98367C31.7138 7.85306 30.8003 7.46122 30.0172 6.93878L27.2114 4.84898C26.4283 4.26122 25.5148 4 24.6013 4C23.6877 4 22.7742 4.26122 21.9911 4.84898L19.12 7.00408C18.337 7.59184 17.4887 7.91837 16.5099 8.04898L12.9862 8.57143C11.0939 8.83265 9.59309 10.3347 9.26683 12.2939L8.74481 15.8857C8.6143 16.8 8.22278 17.7143 7.70076 18.498L5.54742 21.3714C4.37287 22.9388 4.37287 25.0939 5.54742 26.5959L7.70076 29.4694C8.28804 30.2531 8.6143 31.102 8.74481 32.0816L9.26683 35.6735C9.52784 37.5673 11.0287 39.0694 12.9862 39.3959L16.5751 39.9184C17.4887 40.049 18.4022 40.4408 19.1853 40.9633L22.0564 43.1184C23.6225 44.2939 25.7758 44.2939 27.2766 43.1184L30.1477 40.9633C30.9308 40.3755 31.7791 40.049 32.7579 39.9184L36.3468 39.3959C38.2391 39.1347 39.7399 37.6327 40.0662 35.6735L40.5882 32.0816C40.7187 31.1673 41.1102 30.2531 41.6322 29.4694L43.7856 26.5959C44.9601 25.0286 44.9601 22.8735 43.7856 21.3714L41.5017 18.4327Z" stroke="#B98D75" stroke-width="2" stroke-linecap="round"/>
</svg>
