<svg width="48" height="48" viewBox="0 0 48 48" fill="none" xmlns="http://www.w3.org/2000/svg">
<path d="M16 16V14C16 9.58172 19.5817 6 24 6C28.4183 6 32 9.58172 32 14V16M6 24L22.3754 31.278C23.4097 31.7376 24.5903 31.7376 25.6246 31.278L42 24M12.4 42H35.6C37.8402 42 38.9603 42 39.816 41.564C40.5686 41.1805 41.1805 40.5686 41.564 39.816C42 38.9603 42 37.8402 42 35.6V22.4C42 20.1598 42 19.0397 41.564 18.184C41.1805 17.4314 40.5686 16.8195 39.816 16.436C38.9603 16 37.8402 16 35.6 16H12.4C10.1598 16 9.03968 16 8.18404 16.436C7.43139 16.8195 6.81947 17.4314 6.43597 18.184C6 19.0397 6 20.1598 6 22.4V35.6C6 37.8402 6 38.9603 6.43597 39.816C6.81947 40.5686 7.43139 41.1805 8.18404 41.564C9.03968 42 10.1598 42 12.4 42Z" stroke="#B98D75" stroke-width="2" stroke-linecap="round"/>
</svg>
