<svg width="220" height="120" viewBox="0 0 220 120" fill="none" xmlns="http://www.w3.org/2000/svg">
<path d="M148.476 70.8134C147.973 69.8059 147.58 69.4137 147.357 69.1343C147.133 68.8549 146.406 68.4627 145.903 68.9099C145.399 69.3572 144.727 69.638 144.28 69.861C143.833 70.0853 142.937 70.9249 142.825 71.2607C142.714 71.5965 141.706 72.8834 141.035 73.0513C140.363 73.2192 139.859 73.2192 139.523 73.3871C139.188 73.555 138.348 73.4986 138.012 73.3307C137.676 73.1628 136.761 72.7606 136.222 72.4911C135.886 72.3232 135.271 71.3722 134.486 71.1478C133.703 70.9235 133.646 70.3083 133.422 69.8045C133.198 69.3008 132.583 67.3973 132.022 66.8386C131.462 66.2784 131.462 65.4388 131.462 64.9915C131.462 64.5443 132.245 63.8726 133.196 64.097C134.147 64.3213 136.162 64.3213 136.722 64.0405C137.283 63.7611 139.464 63.7047 140.136 63.9291C140.807 64.1534 142.934 64.9365 143.662 64.7686C144.39 64.6007 146.292 64.4892 146.796 64.4892C147.299 64.4892 148.699 64.2098 148.699 63.2574C148.756 62.4743 148.699 61.7462 148.699 61.2425C148.699 60.7387 148.42 59.5083 148.307 58.9481C148.195 58.388 148.25 57.269 148.418 56.7103C148.586 56.1501 148.418 54.3045 148.083 53.1841C147.747 52.0652 146.571 50.6655 146.068 50.2746C145.564 49.8824 143.996 48.9313 143.605 48.0918C143.213 47.2522 142.542 46.9164 142.038 46.5806C141.534 46.2448 140.136 45.6296 138.68 45.9654C137.225 46.3012 135.714 46.5806 134.874 46.5806C134.034 46.5806 132.748 46.637 132.244 47.1407C131.74 47.6445 130.844 48.2047 130.453 48.484C130.061 48.7634 129.502 49.38 129.502 49.9388C129.502 50.499 128.495 51.8423 128.103 52.1216C127.71 52.401 126.591 53.4085 126.591 54.3045C126.591 55.1991 126.48 56.0386 126.256 56.4873C126.031 56.9346 125.695 57.7192 125.695 58.11C125.192 58.4458 123.848 59.1175 122.394 58.3344C122.337 57.6063 122.001 56.4873 121.665 55.8157C121.33 55.1441 121.162 53.6328 121.33 52.9612C121.498 52.2896 120.882 50.7233 120.379 50.1632C119.875 49.603 117.86 48.3161 117.469 47.7009C117.077 47.0857 115.679 45.2937 114.671 45.2937C113.664 45.2937 112.768 45.1823 112.265 45.0143C111.762 44.8464 109.524 45.2937 108.964 45.6296C108.403 45.9654 106.669 47.5316 105.605 47.756C104.541 47.9803 103.255 48.3161 102.975 48.9313C102.696 49.5465 102.079 50.2746 101.968 51.0013C101.856 51.7294 101.128 52.6804 100.624 53.0162C100.121 53.3521 98.7209 54.5839 99.0017 56.318C99.2811 58.0522 99.1132 59.1725 99.0582 59.7313C97.9942 59.6198 93.4056 60.2914 92.734 60.8502C92.0623 61.4104 91.7829 63.4803 91.9509 64.5443C92.1188 65.6082 91.6715 66.4477 91.3357 67.0629C90.9998 67.6781 89.9359 69.5816 90.1038 71.0364C90.2717 72.4911 89.8795 73.9459 89.4322 74.3381C88.9849 74.729 87.9774 74.729 87.4737 74.5625C86.97 74.3946 85.3473 74.1702 84.2834 74.1702C83.2195 74.1702 82.7722 73.8908 82.5478 73.3871C82.3235 72.8834 82.0441 70.9813 82.2684 70.1418C82.4928 69.3022 82.2684 67.7346 81.9891 66.7835C81.7097 65.8325 81.8211 63.9855 82.1005 62.978C82.3799 61.9706 83.5553 58.8367 82.9401 57.1011C82.3249 55.367 82.157 53.9673 82.1005 53.4635C82.0441 52.9598 81.9891 51.3921 81.7083 50.609C81.4289 49.8259 81.261 47.7545 81.4839 47.2508C81.7083 46.7471 82.1556 46.0754 82.8272 45.7396C83.4988 45.4038 84.2269 44.5078 84.282 43.7247C84.3384 42.9416 83.7782 42.102 83.4424 41.8212C83.1066 41.5418 82.4349 40.6458 82.3235 40.1421C82.212 39.6384 80.5879 38.8553 79.9727 39.0232C79.3575 39.1911 78.1257 39.1346 77.3976 39.3025C76.8939 39.6384 75.8864 39.8063 75.2148 39.8627C74.5431 39.9192 73.4242 40.7023 72.8076 41.4304C72.1924 42.1584 71.9116 42.9416 72.0245 43.5017C72.1359 44.0619 72.3603 45.5731 73.2563 46.1319C74.1523 46.692 74.5996 47.9225 74.5996 49.4337C74.5996 50.9449 74.8239 51.1692 75.0468 51.6165C75.2712 52.0638 75.607 52.9034 75.5506 53.7429C75.4941 54.5825 75.4391 56.1487 75.83 57.1562C76.2222 58.1636 76.1658 58.7788 75.9414 59.6184C75.7171 60.4579 74.7661 64.152 75.1019 65.999C75.4377 67.846 75.3813 68.5177 75.3262 69.1329C75.2698 69.7481 75.3262 70.867 75.6056 71.4272C75.885 71.9874 75.9979 73.4986 75.7735 74.2817C75.5492 75.0648 74.6546 77.1362 74.5417 77.8078C74.4302 78.4795 74.4302 79.4305 75.2134 80.0471C75.9965 80.6623 77.5641 81.4468 79.0189 80.9417C80.4736 80.438 82.7129 79.9907 84.0562 80.2701C85.3995 80.5494 87.1901 80.3265 87.8053 80.1586C88.4205 79.9907 89.3165 79.8792 89.6523 80.0471C89.9881 80.215 90.6598 80.2715 91.1071 80.215C91.5544 80.1586 92.171 80.215 92.6183 80.3829C93.0656 80.5508 94.3538 80.5508 95.0255 79.6548C95.6971 78.7588 95.9765 78.0322 95.865 76.9683C95.7535 75.9044 95.7536 75.625 95.9215 75.0648C96.0894 74.5046 96.1458 73.1063 96.0329 72.3782C95.9215 71.6501 96.2008 70.812 96.4802 70.4748C96.7596 70.1389 97.5992 68.4034 97.6556 67.3409C97.7121 66.2784 98.2158 65.9426 98.831 65.9976C99.4462 66.054 100.063 66.054 100.063 66.9486C100.063 67.8446 100.287 71.2579 101.014 71.7616C101.742 72.2653 102.414 73.5522 102.414 74.2238C102.414 74.8955 102.861 76.4617 103.421 77.0783C103.981 77.6935 104.428 78.1973 105.996 78.5331C107.562 78.8689 108.179 79.4291 108.626 79.7649C109.074 80.1007 111.089 80.7159 112.32 79.9893C113.552 79.2612 114.615 79.1497 115.286 79.2061C115.958 79.2626 116.741 78.9268 117.077 78.646C117.413 78.3666 117.86 78.1422 118.309 78.0858C118.756 78.0294 120.044 76.9104 120.099 76.2388C120.156 75.5671 120.267 75.2877 120.435 74.839C120.603 74.3917 120.827 72.7677 120.547 72.1525C120.267 71.5373 120.267 70.9206 120.211 70.3619C120.154 69.8017 119.651 69.298 119.092 69.2429C118.532 69.1865 118.028 69.4109 117.805 69.8031C117.581 70.1954 117.245 70.4183 116.909 70.5312C116.573 70.6427 115.509 71.5387 115.341 72.0988C115.173 72.659 114.558 73.5536 112.264 73.61C109.97 73.6665 108.347 72.9948 107.955 72.0438C107.562 71.0928 107.004 70.1418 106.611 69.5816C106.219 69.0214 106.164 68.5177 106.164 67.9025C106.164 67.2873 105.996 66.1119 105.717 65.6082C105.437 65.1044 106.109 64.3213 107.004 64.5443C107.9 64.7686 110.641 65.4402 111.481 65.4402C112.32 65.4402 114.279 64.9365 115.062 64.6007C115.845 64.2649 117.637 64.1534 118.532 64.3763C119.428 64.6007 121.778 64.8801 122.394 64.6557C123.009 64.4314 124.799 64.152 125.248 63.9276C125.64 64.0956 125.863 64.7108 125.863 65.2145C125.863 65.7182 125.695 68.4598 126.311 69.1315C126.926 69.8031 127.71 71.5937 127.933 72.2653C128.158 72.937 128.381 73.9995 129.165 74.5597C129.948 75.1198 130.116 75.6786 130.397 76.0709C130.676 76.4631 131.629 77.5256 132.355 77.9743C133.083 78.4216 134.259 79.3176 134.818 79.597C135.378 79.8764 136.889 80.3801 137.84 80.1007C138.791 79.8214 139.519 79.9893 140.023 79.9893C140.527 79.9893 141.702 79.7649 142.149 79.2612C142.597 78.7574 143.213 78.3652 143.828 78.4216C144.444 78.4781 145.396 77.6935 145.619 77.4141C145.843 77.1348 148.081 75.2877 148.528 74.0559C148.976 72.8241 148.976 71.8181 148.472 70.8106L148.476 70.8134ZM132.526 56.6538C132.973 56.2065 133.309 55.8143 133.758 55.1991C134.205 54.5839 134.597 53.8558 134.765 53.3521C134.933 52.8483 135.941 52.5125 136.445 52.5689C136.948 52.6254 137.396 52.6254 137.956 52.5689C138.516 52.5125 139.131 52.5689 139.41 53.0162C139.69 53.4635 140.082 53.9122 140.697 54.1916C141.313 54.471 141.816 55.3106 141.816 55.8143C141.816 56.318 142.096 57.3255 142.264 57.7177C142.431 58.11 142.152 58.5573 141.871 58.5573C141.592 58.5573 140.639 58.6137 140.137 58.7817C139.633 58.9496 138.011 59.061 137.562 58.8381C137.115 58.6137 136.387 58.5023 135.996 58.5023C135.604 58.5023 135.324 58.5587 134.932 58.3908C134.54 58.2229 133.7 58.1665 133.028 58.2229C132.245 58.1665 132.077 57.104 132.525 56.6567L132.526 56.6538ZM114.45 59.1725C113.666 59.5648 112.714 59.2289 111.987 59.0046C111.259 58.7802 107.063 58.6123 106.335 58.6688C105.663 58.6688 105.384 58.4444 105.271 57.8857C105.159 57.3255 105.775 56.5424 106.278 56.0951C106.782 55.6478 107.342 55.2555 107.397 54.5288C107.454 53.8008 108.405 53.1291 108.965 52.7383C109.525 52.346 109.748 51.8423 110.252 51.3385C110.755 50.8348 111.818 51.0591 112.267 51.3385C112.714 51.6179 113.331 52.0666 113.889 52.5139C114.45 52.9612 114.672 53.6328 114.729 54.2495C114.785 54.8647 115.457 56.04 115.793 56.4323C116.129 56.8246 116.408 57.832 116.408 58.3344C115.961 58.3344 115.233 58.7817 114.45 59.1739V59.1725Z" fill="black"/>
<path d="M140.267 39.7158C139.976 39.4251 139.626 39.2798 139.216 39.2798C138.825 39.2798 138.483 39.4138 138.193 39.6833C137.884 39.9712 137.729 40.3324 137.729 40.767C137.729 41.1847 137.872 41.5374 138.159 41.8238C138.445 42.1103 138.798 42.2542 139.216 42.2542C139.621 42.2542 139.968 42.1145 140.257 41.8351C140.555 41.5459 140.703 41.1903 140.703 40.7684C140.703 40.3578 140.558 40.0079 140.267 39.7172V39.7158ZM140.082 41.6432C139.842 41.8859 139.554 42.0059 139.216 42.0059C138.877 42.0059 138.588 41.8859 138.348 41.6446C138.107 41.4034 137.987 41.1113 137.987 40.767C137.987 40.434 138.105 40.1476 138.342 39.9049C138.584 39.6579 138.874 39.5338 139.216 39.5338C139.553 39.5338 139.842 39.6579 140.083 39.9049C140.322 40.149 140.44 40.4354 140.44 40.767C140.44 41.1071 140.321 41.3991 140.081 41.6432H140.082Z" fill="black"/>
<path d="M142.957 41.6193L143.494 39.2812H144.388V42.2557H143.81V40.2436C143.81 40.1857 143.81 40.1053 143.811 40.0009C143.813 39.8965 143.813 39.816 143.813 39.7596L143.25 42.2557H142.646L142.087 39.7596C142.087 39.816 142.087 39.8965 142.088 40.0009C142.09 40.1053 142.09 40.1857 142.09 40.2436V42.2557H141.51V39.2812H142.414L142.955 41.6193H142.957Z" fill="black"/>
<path d="M144.576 42.2544V41.6533H145.189V42.2544H144.576Z" fill="black"/>
<path d="M147.834 42.0106C147.823 41.9626 147.818 41.8695 147.818 41.734V41.5337C147.818 41.3248 147.79 41.1696 147.732 41.068C147.674 40.9664 147.579 40.8888 147.44 40.8324C147.604 40.776 147.722 40.68 147.793 40.5431C147.864 40.4063 147.9 40.268 147.9 40.1269C147.9 40.0098 147.882 39.9054 147.844 39.8136C147.806 39.7219 147.755 39.6387 147.69 39.5639C147.612 39.4722 147.516 39.403 147.405 39.3565C147.294 39.3099 147.133 39.2845 146.924 39.2803H145.465V42.2547H146.072V41.0878H146.714C146.897 41.0878 147.021 41.1202 147.088 41.1823C147.154 41.2458 147.189 41.3714 147.192 41.5619L147.196 41.8385C147.198 41.9259 147.206 42.012 147.223 42.0952C147.231 42.1362 147.244 42.1884 147.264 42.2547H147.948V42.1799C147.889 42.1432 147.851 42.0868 147.835 42.0106H147.834ZM147.092 40.5474C147.021 40.5798 146.917 40.5953 146.777 40.5953H146.073V39.7967H146.795C146.929 39.7967 147.031 39.8136 147.097 39.8489C147.217 39.911 147.277 40.0323 147.277 40.2115C147.277 40.378 147.215 40.4895 147.09 40.546L147.092 40.5474Z" fill="black"/>
<path d="M148.047 42.2544V41.6533H148.658V42.2544H148.047Z" fill="black"/>
<path d="M139.899 41.5488C139.893 41.5332 139.89 41.5163 139.887 41.5008C139.886 41.4853 139.885 41.4683 139.885 41.4528V41.3061C139.885 41.1382 139.837 41.0154 139.739 40.9364C139.687 40.8941 139.608 40.863 139.505 40.8419C139.618 40.8306 139.712 40.7925 139.79 40.7304C139.868 40.6683 139.906 40.5681 139.906 40.4298C139.906 40.2478 139.832 40.1166 139.686 40.0362C139.6 39.9896 139.491 39.9614 139.361 39.9515C139.339 39.9501 139.224 39.9487 139.021 39.9487C138.816 39.9487 138.664 39.9473 138.562 39.9473V41.5953H138.994V41.0126H139.085L139.179 41.0182C139.245 41.0225 139.295 41.0309 139.326 41.045C139.385 41.0676 139.425 41.1085 139.447 41.1664C139.461 41.2017 139.47 41.268 139.474 41.3682C139.478 41.4683 139.487 41.5431 139.501 41.5967H139.913L139.899 41.5502V41.5488ZM139.398 40.6542C139.341 40.6951 139.262 40.7149 139.162 40.7149H138.994V40.2365H139.099C139.206 40.2365 139.289 40.2478 139.348 40.2704C139.437 40.3057 139.481 40.3677 139.481 40.4581C139.481 40.5484 139.453 40.6133 139.396 40.6542H139.398Z" fill="black"/>
</svg>
