<svg width="220" height="120" viewBox="0 0 220 120" fill="none" xmlns="http://www.w3.org/2000/svg">
<path fill-rule="evenodd" clip-rule="evenodd" d="M106.682 13.53V13.8914C106.682 15.5752 108.007 15.724 108.007 17.1443C108.186 16.9387 108.248 16.935 108.248 16.5419C108.248 15.6816 107.164 15.0273 107.164 13.7709C107.164 13.0177 107.661 12.0357 108.128 11.7229C108.412 12.2595 108.851 12.7291 108.851 13.53V14.2528C108.851 14.6905 108.708 14.6755 108.61 15.0962H108.369C108.248 14.5767 108.007 14.4362 108.007 13.7709V12.6867H107.887C107.887 13.1514 107.766 12.9563 107.766 13.53V13.8914C107.766 14.6357 108.11 15.5708 108.369 16.0601C108.808 15.7662 109.333 14.878 109.333 14.1324V13.53C109.333 12.8478 108.399 11 108.007 11C107.547 11 106.682 12.7841 106.682 13.53Z" fill="black"/>
<path fill-rule="evenodd" clip-rule="evenodd" d="M102.947 13.289V14.1323C102.947 14.9523 103.539 15.9127 103.999 16.3337C104.331 16.637 104.556 16.7304 104.982 16.9177C105.398 17.1009 105.607 17.3894 105.96 17.6261C105.838 16.1573 103.429 16.4251 103.429 14.0118V13.53C103.429 13.2045 103.487 13.1977 103.55 12.9276C104.618 13.4923 105.599 14.2073 105.599 15.819C104.615 15.5564 104.582 14.7653 104.032 14.1323C104.13 15.3124 105.96 17.379 105.96 16.3009V15.2166C105.96 14.0088 104.17 12.3252 103.309 12.3252C103.043 12.3252 102.947 12.969 102.947 13.289Z" fill="black"/>
<path fill-rule="evenodd" clip-rule="evenodd" d="M99.332 14.4938C99.332 15.5484 99.9024 16.5736 100.511 17.05C101.022 17.4501 101.14 17.4499 101.818 17.6713C102.437 17.8735 102.506 18.1744 102.947 18.4695C102.521 16.6383 99.8141 17.3272 99.8141 14.6143V13.8914C101.037 14.1763 102.111 15.1764 102.224 16.542C101.015 16.2192 100.941 15.3558 100.296 14.6143C100.38 15.6184 101.69 17.0562 102.586 17.2648C102.669 17.1178 102.706 17.1359 102.706 16.9034V16.6624C102.706 14.9771 100.957 13.3253 99.332 13.2891V14.4938Z" fill="black"/>
<path fill-rule="evenodd" clip-rule="evenodd" d="M110.539 15.5784V16.3013C110.539 17.4284 112.588 15.0956 112.588 13.7712H112.467C112.467 14.6437 111.574 15.4495 111.021 15.8194V15.217C111.021 14.1082 112.185 13.332 112.949 12.928C112.981 13.3047 113.07 13.3559 113.07 13.7712V14.1327C113.07 16.2984 110.91 16.0334 110.539 17.6265C110.917 17.3734 110.97 17.1306 111.426 16.9472C111.885 16.7628 112.105 16.6773 112.439 16.3931C112.846 16.0459 113.552 15.0432 113.552 14.3736V13.0485C113.552 12.6108 113.409 12.6259 113.311 12.2051C111.999 12.8989 110.539 13.5852 110.539 15.5784Z" fill="black"/>
<path fill-rule="evenodd" clip-rule="evenodd" d="M113.913 16.301V17.2648C114.808 17.0562 116.119 15.6184 116.203 14.6143C115.576 15.3347 115.578 16.1458 114.395 16.4215C114.395 15.2002 115.579 13.9834 116.718 13.8949L116.564 15.2167C116.348 17.3085 113.801 16.8011 113.672 18.3491C114.29 17.9353 113.946 17.9072 114.862 17.6111C115.354 17.4523 115.743 17.2771 116.115 16.9362C116.727 16.3762 117.287 15.3804 117.287 14.2528V14.1324C117.287 13.717 117.198 13.6659 117.167 13.2891C115.753 13.2891 113.913 14.817 113.913 16.301Z" fill="black"/>
<path fill-rule="evenodd" clip-rule="evenodd" d="M94.752 15.819V16.6622C94.752 17.427 95.4151 18.5718 95.8809 18.907C96.2239 19.1538 96.5523 19.3364 96.9683 19.5066C97.7971 19.8458 97.5298 19.9279 98.0058 20.2765C97.9448 19.5435 97.4114 19.1894 96.8411 18.9109C95.8563 18.43 96.051 18.1684 95.475 17.7466C95.4603 17.0874 95.234 16.8971 95.234 16.1804V15.578C96.097 15.779 97.4032 16.8657 97.4032 17.867V18.349C96.8118 18.0361 95.8366 17.1606 95.8366 16.3008H95.7161C95.7161 17.372 97.029 18.9928 97.8853 19.1923V17.9875C97.8853 16.5494 96.1457 15.0815 94.8725 14.9756C94.8411 15.3525 94.752 15.4036 94.752 15.819Z" fill="black"/>
<path fill-rule="evenodd" clip-rule="evenodd" d="M89.4576 17.8896C88.5723 17.9207 86.9677 19.6729 86.7988 20.3973C87.3787 20.5323 87.554 20.7588 88.3655 20.7588H88.8475C89.885 20.7588 90.5053 20.3668 91.047 19.8252C91.5064 19.366 91.3831 19.3611 91.712 18.9238C91.9895 18.555 92.3615 18.411 92.5835 18.1083C90.6339 18.2704 91.3411 20.2768 88.8475 20.2768H88.3655C87.9501 20.2768 87.8989 20.1878 87.5219 20.1563C87.753 19.291 88.9497 18.3492 90.0527 18.3492H90.5348C90.3628 18.9927 89.2998 19.6744 88.486 19.6744V19.7949C89.4929 19.7949 91.3095 18.935 91.3838 18.0369L89.4576 17.8896Z" fill="black"/>
<path fill-rule="evenodd" clip-rule="evenodd" d="M118.615 18.108V18.8309C118.615 19.9102 120.682 17.6496 120.784 16.4213C120.099 17.2087 120.322 17.7007 119.097 18.349C119.097 16.8998 120.108 15.8476 121.266 15.578V16.1804C121.266 19.4249 118.645 18.4629 118.494 20.2765C118.832 20.0289 118.825 19.8202 119.335 19.5513C119.782 19.3161 119.972 19.3322 120.471 18.9996C120.936 18.6891 121.748 17.5731 121.748 16.9032V15.3371C121.748 15.1399 121.676 14.9756 121.507 14.9756C120.343 14.9756 118.615 16.7018 118.615 18.108Z" fill="black"/>
<path fill-rule="evenodd" clip-rule="evenodd" d="M125.121 18.1082C125.35 18.9637 127.083 19.7948 128.254 19.7948V19.6743C127.399 19.6743 126.137 18.9926 125.965 18.3492H126.567C127.432 18.3492 128.977 19.4367 128.977 19.9153C128.977 20.1107 128.805 20.1304 128.617 20.1608L127.531 20.2767C126.429 20.4278 125.211 18.8445 124.755 18.2545L123.916 18.1082C124.239 18.3886 124.485 18.3993 124.787 18.8032C125.012 19.1034 125.122 19.4489 125.391 19.7664C125.779 20.2247 126.726 20.7587 127.531 20.7587H128.254C128.829 20.7587 129.191 20.5158 129.701 20.3972C129.612 19.3336 127.848 17.8672 126.447 17.8672H126.206C125.687 17.8672 125.552 18.0077 125.121 18.1082Z" fill="black"/>
<path fill-rule="evenodd" clip-rule="evenodd" d="M128.135 25.3368C129.107 25.2559 130.461 23.8052 130.666 22.9273C129.996 23.4176 129.996 24.2928 128.617 24.614C128.712 23.4692 129.972 22.3023 131.148 22.2044C131.148 26.043 128.284 24.5111 127.773 26.4211C129.241 25.4389 131.75 25.3049 131.75 22.5658V21.6021C129.705 21.6021 128.135 23.1881 128.135 25.3368Z" fill="black"/>
<path fill-rule="evenodd" clip-rule="evenodd" d="M109.092 19.3131C109.092 20.826 110.285 22.3341 111.623 22.4454C111.623 21.3351 111.075 20.1149 110.417 19.6744C110.623 20.444 111.02 20.392 111.02 21.7226C110.413 21.4012 109.574 20.5387 109.574 19.6744V18.5902C110.675 18.8467 111.864 19.8955 111.864 21.2407V22.325C111.864 22.6213 112.263 23.0325 112.466 23.1683C112.385 22.8187 112.184 22.6379 112.217 22.3238L112.346 21.1202C112.418 20.5733 111.644 19.2687 111.354 18.979C110.919 18.5443 109.946 17.9878 109.092 17.9878V19.3131Z" fill="black"/>
<path fill-rule="evenodd" clip-rule="evenodd" d="M104.273 20.7588V22.4454C104.273 22.7708 104.215 22.7776 104.152 23.0478C104.542 22.7872 104.755 22.3678 104.755 21.7226V20.9997C104.755 19.8839 106.124 18.6668 107.045 18.5902V19.1926C107.045 20.2074 106.307 21.5295 105.478 21.7226C105.478 20.194 106.254 20.0176 106.442 19.3131C105.708 19.8042 104.875 21.2098 104.875 22.4454C106.245 22.415 107.406 20.8867 107.406 19.4335V17.9878C106.027 18.0185 104.273 19.5452 104.273 20.7588Z" fill="black"/>
<path fill-rule="evenodd" clip-rule="evenodd" d="M99.4531 21.4814V22.5656C99.4531 23.092 99.6942 23.0032 99.6942 23.5295V24.2524C99.8688 24.0515 100.089 23.8088 100.061 23.4085L99.9352 21.4814C99.8695 20.6931 101.043 19.5963 101.716 19.4373L101.863 20.5176C101.99 21.3624 101.365 22.6274 100.658 22.6861V22.0838C100.658 21.3558 101.003 20.9883 101.14 20.3971C100.662 20.7476 100.297 21.8463 100.297 22.6861V23.5295C101.051 23.3538 102.225 22.217 102.225 21.3609V19.6742C102.225 19.3543 102.129 18.7104 101.863 18.7104C100.985 18.7104 99.4531 20.4784 99.4531 21.4814Z" fill="black"/>
<path fill-rule="evenodd" clip-rule="evenodd" d="M93.4258 20.879V21.3609C93.4258 22.7739 94.523 23.7967 95.2335 24.6138V24.0114C95.2335 23.3773 93.9079 22.9251 93.9079 21.4814V21.3609C93.9079 20.4313 94.2334 20.1049 94.3899 19.4333C94.8962 19.7722 95.595 20.7436 95.595 21.6019V21.9633C95.595 22.3787 95.5058 22.4298 95.4745 22.8066C95.005 22.4924 94.6309 21.8965 94.6309 21.12V20.3971H94.5104V21.6019C94.5104 22.3541 95.0466 23.4571 95.4745 23.7704C95.708 23.3292 96.0771 22.7272 96.0771 22.0838V21.8429C96.0771 20.4261 95.1253 19.2834 94.2693 18.7104C93.9649 19.2856 93.4258 20.009 93.4258 20.879Z" fill="black"/>
<path fill-rule="evenodd" clip-rule="evenodd" d="M90.9161 21.8392C91.4096 22.1868 92.4622 23.2008 92.4622 24.0112V24.7341C92.4622 25.3057 92.3272 25.6043 92.2212 26.0593C91.5652 25.8842 90.775 24.7625 90.775 23.8907V22.927C91.3492 23.0802 91.8597 24.1075 91.8597 24.8545V25.216H91.9802C91.9802 22.8828 91.1802 23.0287 90.8955 21.9631H90.6546C90.5194 22.5429 90.293 22.7182 90.293 23.5294V24.1317C90.293 24.9888 91.6689 26.7162 92.4622 26.7822C92.568 26.3282 93.0648 25.4565 93.0648 24.975V24.6136C93.0648 23.7155 92.6595 22.9421 92.2483 22.418C92.0131 22.1183 91.7753 22.0587 91.467 21.7533C91.0816 21.3711 91.0624 21.2093 90.7545 20.8823L90.9161 21.8392Z" fill="black"/>
<path fill-rule="evenodd" clip-rule="evenodd" d="M114.275 19.9152V20.7586C114.275 22.3271 115.179 22.9875 116.204 23.5295V22.3247C116.204 21.6947 115.84 20.7809 115.481 20.5176C115.534 21.1543 115.842 21.2106 115.842 21.9633V22.6861C115.175 22.5081 114.637 21.3666 114.637 20.5176V20.1561C114.637 19.7886 114.753 19.67 114.878 19.4333C115.693 19.6231 116.686 20.8098 116.686 21.8429V22.0838C116.686 22.6101 116.445 22.5213 116.445 23.0476V23.168C116.445 23.727 116.602 24.1348 116.927 24.3728C116.885 23.8778 116.806 24.1037 116.806 23.6499C116.806 23.0692 117.168 22.7934 117.168 22.0838V21.8429C117.168 20.7002 115.644 18.7104 114.757 18.7104C114.301 18.7104 114.275 19.4427 114.275 19.9152Z" fill="black"/>
<path fill-rule="evenodd" clip-rule="evenodd" d="M120.422 21.6019V21.7224C120.422 22.5111 120.64 23.483 121.266 23.6499C121.446 22.973 122.109 22.3161 122.109 21.2405V20.6381C122.109 20.2988 122.057 20.415 121.868 20.2766V21.3609C121.868 22.0198 121.409 22.2688 121.266 22.8066H121.024C120.993 22.4298 120.904 22.3787 120.904 21.9633V21.7224C120.904 20.8046 121.56 19.8006 122.109 19.4333C122.236 19.6726 122.591 20.4336 122.591 20.7586V21.7224C122.591 22.8541 121.266 23.2352 121.266 24.2524V24.7343H121.386C121.386 23.8584 123.073 23.0856 123.073 21.8429V20.5176C123.073 19.9333 122.481 19.0854 122.23 18.7104C121.495 19.099 120.422 20.4951 120.422 21.6019Z" fill="black"/>
<path fill-rule="evenodd" clip-rule="evenodd" d="M123.555 24.1318V24.8546C123.555 25.4121 123.934 26.7822 124.278 26.7822C124.735 26.7822 126.206 24.9436 126.206 24.0113V23.1679C126.206 22.6364 126.028 22.3097 125.844 21.9632C125.202 22.3935 124.519 23.6489 124.519 24.7342V25.2161H124.639C124.639 24.171 125.1 23.2244 125.724 22.8066C125.755 23.1834 125.844 23.2345 125.844 23.6498V23.7703C125.844 24.6409 124.952 25.6888 124.398 26.0594C124.215 25.7129 124.037 25.3863 124.037 24.8546V24.0113C124.037 22.7312 125.724 22.2243 125.724 21.2404V20.8789C125.128 21.5643 125.049 21.6098 124.426 22.2316C124.06 22.5966 123.555 23.4274 123.555 24.1318Z" fill="black"/>
<path fill-rule="evenodd" clip-rule="evenodd" d="M84.75 21.9634V22.3249C84.75 25.4366 87.097 25.33 88.7269 26.4211C88.299 24.8192 85.3526 25.5867 85.3526 22.6863V22.2044C86.5427 22.4816 87.7748 23.3099 87.8834 24.614C86.6628 24.3297 86.7273 23.7661 86.0756 23.2887C86.2636 24.095 87.4731 25.2626 88.3653 25.3368V24.7345C88.3653 22.8191 86.4838 21.9778 84.8705 21.6021C84.7879 21.749 84.75 21.731 84.75 21.9634Z" fill="black"/>
<path fill-rule="evenodd" clip-rule="evenodd" d="M102.343 23.8911C102.343 24.537 102.584 24.7213 102.584 25.4574V25.8188C102.584 26.5858 101.498 27.827 100.897 27.9873C100.796 27.5561 100.656 27.4213 100.656 26.903C100.656 25.998 101.048 24.7989 101.741 24.614V25.3369C101.741 26.2133 101.431 26.397 101.379 27.0235C101.706 26.6471 102.102 25.902 102.102 25.2164V23.8911C101.18 23.9678 100.174 25.4086 100.174 26.4212C100.174 27.2417 100.391 28.1588 100.656 28.7102C101.795 28.4447 103.066 26.9625 103.066 25.5778C103.066 24.7642 102.705 24.2157 102.705 23.7706V23.0479C102.46 23.2271 102.343 23.4701 102.343 23.8911Z" fill="black"/>
<path fill-rule="evenodd" clip-rule="evenodd" d="M131.629 27.626H132.352C133.169 27.626 134.441 26.902 134.763 26.4212C134.12 26.5928 133.78 27.1441 132.834 27.1441H132.352C132.705 26.6177 133.445 25.8188 134.281 25.8188H135.606C135.397 26.717 134.437 27.8668 133.317 27.8668H131.991C131.493 27.8668 131.109 28.166 130.906 28.4692C131.272 28.3841 131.413 28.1931 131.749 28.232L133.196 28.3488H133.558C134.725 28.3488 136.235 26.588 136.327 25.4718L135.245 25.3369H134.642C133.144 25.3369 131.904 26.4456 131.629 27.626Z" fill="black"/>
<path fill-rule="evenodd" clip-rule="evenodd" d="M96.0781 25.5777V25.8187C96.0781 26.5433 96.4396 26.7808 96.4396 27.5054V28.2282C96.7267 28.018 96.8012 27.7647 96.8012 27.2644C96.8012 26.2024 96.3825 25.7012 96.7567 24.69C96.9594 24.1423 97.7011 23.314 98.2473 23.1682C98.2877 23.3415 98.4988 23.9357 98.5205 24.016L98.3679 25.0958C98.2866 25.6884 97.9183 26.2778 97.5243 26.5416C97.4417 26.3946 97.4038 26.4127 97.4038 26.1801V25.5777C97.4038 24.8251 97.7123 24.7687 97.7653 24.1321C97.4756 24.4652 97.2276 24.9102 97.1515 25.456L97.0423 26.662V27.2644C98.0186 27.1832 98.9704 25.7012 98.9704 24.6139C98.9704 23.8266 98.7419 22.9734 98.4884 22.4453C97.3295 22.7153 96.0781 24.1834 96.0781 25.5777Z" fill="black"/>
<path fill-rule="evenodd" clip-rule="evenodd" d="M103.912 25.9391L104.032 27.3847C104.067 27.722 103.876 27.8628 103.791 28.2281C104.047 28.0405 104.394 27.5923 104.394 27.1438V25.8186C104.394 24.8637 105.678 23.6031 106.563 23.5295V24.4933C106.563 25.4243 105.876 26.485 105.117 26.6618C105.117 25.5346 105.538 25.3894 105.719 24.6138C105.074 25.0455 104.635 26.2591 104.635 27.3847C105.703 27.2959 106.815 26.1409 106.928 25.0961L107.045 23.6499V23.168C107.045 22.7075 107.082 23.1242 106.924 22.8066C105.652 23.1031 103.754 24.4289 103.912 25.9391Z" fill="black"/>
<path fill-rule="evenodd" clip-rule="evenodd" d="M80.1719 25.4757C80.4104 26.489 80.9696 27.3222 81.7603 27.8426C83.0918 28.7189 83.2947 28.3483 84.9904 28.3483C85.3159 28.3483 85.3227 28.4058 85.5929 28.4687C85.4275 28.2217 85.0012 27.8663 84.6288 27.8663C83.4958 27.8663 83.1245 28.1791 82.1686 27.5549C81.6173 27.1948 81.0531 26.5055 80.893 25.8182H81.9775C83.0709 25.8182 83.6997 26.476 84.1468 27.1435H83.5442C82.5954 27.1435 82.5458 26.7015 81.857 26.5411C82.1816 27.0256 83.3378 27.6254 84.1468 27.6254H84.8699C84.5938 26.4404 83.3373 25.3364 81.857 25.3364L81.7336 25.3086L80.1719 25.4757Z" fill="black"/>
<path fill-rule="evenodd" clip-rule="evenodd" d="M109.455 23.6499V24.0114C109.455 25.5769 110.478 27.2693 111.865 27.3847V27.0233C111.865 26.0453 111.224 24.7502 110.66 24.3728C110.832 25.0156 111.383 25.3551 111.383 26.3004V26.6618C110.672 26.472 109.937 25.2931 109.937 24.3728V23.5295C110.873 23.6074 112.106 24.7537 112.106 25.6981V27.0233C112.106 27.5212 112.406 27.9046 112.709 28.1076C112.626 27.7502 112.429 27.5893 112.479 27.2656L112.588 26.0595C112.776 24.4727 110.964 22.9221 109.576 22.8066C109.544 23.1835 109.455 23.2346 109.455 23.6499Z" fill="black"/>
<path fill-rule="evenodd" clip-rule="evenodd" d="M117.648 24.2526V25.0958C117.648 25.8586 118.664 27.1986 119.456 27.2644V25.8187C119.456 25.1762 118.972 24.1544 118.613 23.8911C118.754 24.497 119.095 24.6826 119.095 25.4573V26.4211C118.608 26.2912 118.131 25.5691 118.131 24.9753L118.104 24.128L118.251 23.0478C118.826 23.4328 119.938 24.3193 119.938 25.2163V25.6982C119.938 26.4343 119.697 26.6186 119.697 27.2644C119.697 27.6855 119.814 27.9285 120.059 28.1078V27.3849C120.059 26.8887 120.42 26.5492 120.42 25.6982V25.4573C120.42 24.3516 119.087 22.4453 118.131 22.4453C117.793 22.4453 117.648 23.7958 117.648 24.2526Z" fill="black"/>
<path fill-rule="evenodd" clip-rule="evenodd" d="M93.6669 26.18C93.6669 26.8215 95.2337 27.5826 95.2337 28.71V29.6738C95.2337 30.0358 94.9717 30.4511 94.8721 30.8786C94.304 30.4983 93.5464 29.6573 93.5464 28.71V27.6258C94.2779 27.821 94.6311 29.0833 94.6311 30.0353H94.7516V29.3124C94.7516 28.4646 94.0647 27.0089 93.5464 26.6619C93.2816 27.1625 93.0645 27.5758 93.0645 28.3487V28.71C93.0645 29.8753 94.212 31.1885 94.9926 31.6015C95.2934 31.1524 95.7157 30.5288 95.7157 29.7943V28.8305C95.7157 28.096 95.2618 27.4198 94.9007 26.9948C94.6863 26.7426 94.4548 26.7228 94.1768 26.3932C93.9295 26.1003 93.9249 25.8743 93.6669 25.5776V26.18Z" fill="black"/>
<path fill-rule="evenodd" clip-rule="evenodd" d="M113.793 23.65C113.793 24.3747 113.432 24.6121 113.432 25.3368V25.6982C113.432 26.9112 114.874 28.4565 115.962 28.7101C116.009 28.1453 116.203 28.1143 116.203 27.5053C116.203 26.9315 116.324 27.1267 116.324 26.6619C116.324 25.3503 115.449 24.0158 114.396 23.7705V25.0958C114.396 25.6456 114.686 26.4334 114.998 26.6619C114.951 26.0971 114.757 26.0662 114.757 25.4573V25.2163C114.757 24.8909 114.815 24.8841 114.878 24.6139C115.276 24.8802 115.842 25.6797 115.842 26.3006L115.869 26.907L115.721 27.9872C114.887 27.7644 113.914 26.5144 113.914 25.4573C113.914 24.9599 114.155 24.6995 114.155 24.0115V23.891C114.155 23.3908 114.08 23.1375 113.793 22.9272V23.65Z" fill="black"/>
<path fill-rule="evenodd" clip-rule="evenodd" d="M107.285 27.3848C105.518 27.3848 104.031 28.9591 104.031 30.7582V31.1196H104.634C106.395 31.1196 107.865 29.7013 108.008 27.9872C106.969 28.0103 105.442 29.1457 105.236 29.9149C105.934 29.4479 106.317 28.6803 107.406 28.5896C107.143 29.7184 105.898 30.6069 104.513 30.6377C104.605 29.5329 105.556 27.9872 106.683 27.9872C107.295 27.9872 108.212 27.3848 108.249 27.3848C108.344 27.3848 108.77 27.8667 109.334 27.8667H109.454C110.826 27.8667 111.955 29.2842 111.985 30.6377C110.304 30.6002 109.683 29.7039 109.093 28.5896C110.113 28.6745 110.515 29.2542 111.142 29.6739C110.947 28.9465 109.569 28.0086 108.611 27.9872V28.4691C108.611 29.8466 110.587 31.1196 112.106 31.1196H112.588C112.588 29.251 111.246 27.3848 109.454 27.3848H109.093C108.629 27.3848 108.597 27.3181 108.49 27.0234H108.129C107.993 27.3593 107.771 27.3848 107.285 27.3848Z" fill="black"/>
<path fill-rule="evenodd" clip-rule="evenodd" d="M134.159 31.4808C135.422 31.4808 136.811 30.8743 137.293 30.1556C136.74 30.303 136.311 30.8784 135.605 30.8784H134.882C135.38 30.1361 136.053 29.5533 137.293 29.5533H138.136C137.981 30.2205 137.426 30.9038 136.934 31.2426C135.985 31.896 135.727 31.6013 134.641 31.6013C134.067 31.6013 133.788 31.8579 133.557 32.2037C133.88 32.1264 133.784 32.0832 134.039 32.0832C135.734 32.0832 135.937 32.4539 137.269 31.5775C137.989 31.1032 138.739 30.228 138.739 29.0713H137.052C135.752 29.0713 134.256 30.3145 134.159 31.4808Z" fill="black"/>
<path fill-rule="evenodd" clip-rule="evenodd" d="M89.4492 27.0234V27.8667C89.4492 28.6314 90.1122 29.7762 90.5782 30.1115C90.9504 30.3794 91.2323 30.5078 91.6589 30.7177C92.4448 31.1042 92.1116 31.1362 92.5826 31.481C92.4376 29.7403 89.9313 30.2539 89.9313 27.7463V27.5053C89.9313 27.09 90.0204 27.0388 90.0518 26.662C91.1302 27.2324 92.1005 27.8963 92.1005 29.5535C90.7241 28.8253 91.0814 28.2737 90.4133 27.5053C90.5035 28.5884 91.5868 30.1631 92.4414 30.3933L92.5826 29.433C92.7116 28.6696 92.0617 27.6547 91.7107 27.2927C91.4303 27.0035 90.2194 26.0596 89.8107 26.0596C89.545 26.0596 89.4492 26.7035 89.4492 27.0234Z" fill="black"/>
<path fill-rule="evenodd" clip-rule="evenodd" d="M102.104 29.4326L102.224 30.6374C102.354 31.7379 100.977 33.0906 100.055 33.1674V32.6854C100.055 31.3045 100.554 30.4677 101.38 29.9145V30.7579C101.38 31.2668 101.023 31.5504 100.898 32.083C101.323 31.7985 101.863 30.7536 101.863 30.035V29.1916C100.71 29.4601 99.6934 30.636 99.6934 32.083V33.5288C99.6934 34.6157 101.736 32.7919 101.954 32.5362C102.891 31.4413 102.586 30.8411 102.586 29.3121V29.0711C102.586 28.7458 102.643 28.739 102.706 28.4688C102.488 28.6146 102.065 29.1081 102.104 29.4326Z" fill="black"/>
<path fill-rule="evenodd" clip-rule="evenodd" d="M124.037 29.0715V30.0354C124.037 30.496 123.999 30.0792 124.157 30.3967C124.941 29.872 125.987 28.8019 126.085 27.6258C125.637 28.1414 125.374 29.2046 124.518 29.433V29.0715C124.518 27.9192 125.625 26.8814 126.567 26.662V27.8667C126.567 30.1539 124.359 29.5811 123.916 31.481C124.297 31.2019 124.166 31.0424 124.733 30.7314C125.193 30.4789 125.401 30.4622 125.846 30.1577C126.245 29.8851 127.049 28.7377 127.049 28.1077L127.076 27.1399L126.929 26.0596C125.699 26.0871 124.037 27.6885 124.037 29.0715Z" fill="black"/>
<path fill-rule="evenodd" clip-rule="evenodd" d="M77.3984 29.1918C77.428 30.5185 79.2078 32.3104 80.2938 32.2346L81.9779 32.0832C82.2803 32.0535 82.2807 32.1338 82.5805 32.2037C82.3819 31.9072 82.0956 31.6013 81.6164 31.6013C80.5549 31.6013 80.2302 31.9126 79.2767 31.2899C78.7254 30.9298 78.1612 30.2405 78.001 29.5533H78.8447C80.0846 29.5533 80.7577 30.1361 81.2549 30.8784H80.5318C79.8261 30.8784 79.3968 30.303 78.8447 30.1556C79.1758 30.6501 80.7278 31.4808 81.4959 31.4808H81.9779C81.8809 30.3145 80.3849 29.0713 79.0857 29.0713H78.2421C77.8287 29.0713 77.7727 29.1527 77.3984 29.1918Z" fill="black"/>
<path fill-rule="evenodd" clip-rule="evenodd" d="M86.3164 28.951C86.3164 29.7432 86.528 30.42 86.8705 30.927C87.1251 31.3038 87.1993 31.3278 87.4941 31.6289C87.8818 32.0251 87.6709 32.0622 88.0036 32.4448V31.963C88.0036 30.8949 86.7985 30.9141 86.7985 29.0714V28.951C86.7985 28.3076 87.1674 27.7056 87.4011 27.2643C87.8912 27.5924 88.4856 28.4929 88.4856 29.3124V29.7943C88.4856 30.2097 88.3965 30.2608 88.3651 30.6377H88.1241C87.9754 30.0807 87.5216 29.6908 87.5216 28.8305V28.2282H87.4011V29.4329C87.4011 29.9113 87.9285 31.481 88.2446 31.481C88.5889 31.481 88.9677 30.1109 88.9677 29.5534C88.9677 28.5905 87.9085 26.5415 87.4011 26.5415C86.9025 26.5415 86.3164 28.2781 86.3164 28.951Z" fill="black"/>
<path fill-rule="evenodd" clip-rule="evenodd" d="M120.783 28.951V29.4329C120.783 30.3632 121.178 30.9818 121.506 31.6015C122.168 31.2514 123.434 29.889 123.434 28.951V27.7463C123.434 27.2639 123.186 27.1475 123.073 26.6619C122.494 26.8165 121.868 28.169 121.868 28.951V29.5534H121.988V29.1919C121.988 28.596 122.578 27.7556 122.952 27.5053V28.71C122.952 29.5933 122.307 30.5766 121.627 30.7582C121.508 30.2491 121.265 29.8866 121.265 29.3124V29.1919C121.265 27.1987 122.832 27.1171 122.832 26.0595V25.5776H122.711C122.711 26.6411 120.783 26.9856 120.783 28.951Z" fill="black"/>
<path fill-rule="evenodd" clip-rule="evenodd" d="M96.5609 30.5172L96.6814 32.0833C96.7238 32.5372 96.5987 32.4716 96.5609 32.9267C96.7268 32.8052 97.0429 32.4648 97.0429 32.2038V30.2762C97.0429 29.3879 98.2104 28.2848 98.9489 28.1107L99.0917 29.3124C99.18 29.9542 98.3294 31.2101 97.7659 31.3605C97.7659 29.8959 98.1663 29.9394 98.3686 29.0714C97.7212 29.5049 97.2839 30.9518 97.2839 32.0833C98.2356 32.0042 99.4531 30.711 99.4531 29.7943V27.9871C99.4531 27.6617 99.3956 27.6549 99.3326 27.3848C98.1158 27.6682 96.4209 29.0196 96.5609 30.5172Z" fill="black"/>
<path fill-rule="evenodd" clip-rule="evenodd" d="M117.047 28.2281V29.4329C117.047 30.5741 118.196 31.9985 119.216 32.0833V31.7219C119.216 30.6601 118.632 29.2461 118.011 28.8305C118.183 29.4732 118.734 29.8127 118.734 30.7582V31.3605C118.215 31.0859 117.284 29.903 117.394 29.0692L117.529 27.9871C118.322 28.4068 119.71 29.3677 119.574 30.6373L119.457 32.0833C119.422 32.4166 119.75 32.6797 119.939 32.8062C119.876 32.536 119.819 32.5292 119.819 32.2038V32.0833C119.819 31.4256 120.06 31.4159 120.06 30.7582V30.6377C120.06 29.1615 118.569 27.5014 117.167 27.3848C117.136 27.7616 117.047 27.8127 117.047 28.2281Z" fill="black"/>
<path fill-rule="evenodd" clip-rule="evenodd" d="M127.531 29.1918C127.531 30.1704 127.795 31.0926 128.375 31.4809C128.625 31.0074 129.098 30.2226 129.098 29.5533V28.1076H128.977V28.7099C128.977 29.8789 128.559 29.9468 128.375 30.6376C128.13 30.4583 128.013 30.2153 128.013 29.7942C128.013 28.7745 128.442 27.4714 129.218 27.2642C129.377 27.9436 129.7 28.0797 129.7 29.0713V29.5533C129.7 30.618 128.495 31.0004 128.495 31.9628V32.5651H128.616C128.616 31.4959 130.183 31.0425 130.183 29.4328V28.5894C130.183 27.7497 129.568 26.9434 129.218 26.4209C128.646 26.804 127.531 28.2824 127.531 29.1918Z" fill="black"/>
<path fill-rule="evenodd" clip-rule="evenodd" d="M114.034 29.1919V29.3124C114.034 29.8387 113.793 29.7499 113.793 30.2762V30.5172C113.793 32.013 115.292 33.77 116.784 33.767L116.926 32.5652C117.004 32.0001 116.806 31.8967 116.806 31.481C116.806 30.5515 115.513 29.2648 114.637 29.1919V29.6738C114.637 30.6783 115.266 31.9389 115.842 32.3243C115.694 31.7724 115.119 31.3431 115.119 30.6377V29.9148C115.788 30.269 116.444 31.0797 116.444 32.0833V33.1677C115.757 33.0075 115.067 32.4435 114.707 31.8924C114.083 30.9367 114.396 30.5656 114.396 29.4329C114.396 28.9843 114.049 28.5361 113.793 28.3486C113.891 28.7693 114.034 28.7542 114.034 29.1919Z" fill="black"/>
<path fill-rule="evenodd" clip-rule="evenodd" d="M83.7852 31.4812C83.7852 32.4974 84.2608 33.4469 84.7774 33.9832C85.2295 34.4527 85.3023 34.3799 85.877 34.6909C86.448 34.9999 86.4102 35.2933 86.798 35.5774C86.387 33.8136 84.3877 33.8256 84.3877 32.2041V30.9993C84.3877 30.8021 84.4599 30.6379 84.6287 30.6379C85.0263 30.6379 86.3159 32.0854 86.3159 32.8065V33.5293C85.7776 33.2445 84.9903 32.3761 84.9903 31.6017H84.8698C84.8698 32.6488 85.8587 34.1541 86.6775 34.3726C86.7089 33.9958 86.798 33.9447 86.798 33.5293V33.1679C86.798 31.5947 85.3544 30.1964 84.1467 29.915C84.0376 30.3833 83.7852 30.9987 83.7852 31.4812Z" fill="black"/>
<path fill-rule="evenodd" clip-rule="evenodd" d="M89.4492 32.5654C89.4492 33.2749 90.3337 34.4876 90.8174 34.8119C91.6748 35.3869 92.4355 35.2756 93.4261 35.9388C92.9754 34.2512 89.9313 35.4292 89.9313 31.8426C91.0741 31.9377 92.4355 32.9411 92.462 34.1317C91.1563 33.8275 91.2377 33.157 90.5339 32.6859C90.7426 33.4675 92.0701 34.8323 93.0646 34.8544C93.0646 32.7597 91.3771 31.2831 89.4492 31.2402V32.5654Z" fill="black"/>
<path fill-rule="evenodd" clip-rule="evenodd" d="M129.34 33.1679V33.7702C129.34 34.0956 129.397 34.1024 129.46 34.3726C130.283 34.153 131.268 32.6609 131.268 31.6017H131.148C131.148 32.3836 130.391 33.2285 129.822 33.5293V33.0474C129.822 32.116 131.008 30.6379 131.509 30.6379C131.678 30.6379 131.75 30.8021 131.75 30.9993V32.2041C131.75 33.8256 129.751 33.8136 129.34 35.5774C129.69 35.321 129.72 35.0058 130.181 34.7319C130.615 34.4745 130.843 34.4895 131.24 34.1038C131.659 33.6969 132.353 32.5702 132.353 31.8427V31.7222C132.353 30.7933 132.144 30.5715 131.991 29.915C130.783 30.1964 129.34 31.5947 129.34 33.1679Z" fill="black"/>
<path fill-rule="evenodd" clip-rule="evenodd" d="M110.178 32.4475C109.99 32.4747 109.816 32.486 109.816 32.6856C109.816 33.8897 111.644 35.5771 113.191 35.5771H113.673C114.483 35.5771 113.294 34.3705 113.026 34.176C112.533 33.8181 111.785 33.4379 111.142 33.288C111.482 33.7514 112.865 33.8771 113.191 35.0952C111.816 35.0952 110.675 34.0263 110.419 32.9266H111.263C114.119 32.9266 113.386 35.443 114.998 35.5771C114.712 35.1493 114.558 35.178 114.321 34.5679C114.121 34.0525 113.984 33.788 113.645 33.4366C113.252 33.0295 111.949 32.1953 111.137 32.2942L110.178 32.4475Z" fill="black"/>
<path fill-rule="evenodd" clip-rule="evenodd" d="M123.434 34.493V34.8544C124.416 34.7728 125.739 33.5312 125.965 32.6859C125.261 33.157 125.342 33.8275 124.036 34.1317C124.062 33.0022 125.409 31.8684 126.567 31.8426V32.204C126.567 35.1679 123.526 34.2392 123.072 35.9388C123.414 35.71 123.71 35.3364 124.277 35.3364C125.679 35.3364 127.17 33.5247 127.17 32.0835V31.2402C125.348 31.2402 123.434 32.706 123.434 34.493Z" fill="black"/>
<path fill-rule="evenodd" clip-rule="evenodd" d="M123.555 37.5049H124.037C125.098 37.5049 126.394 36.7991 126.809 36.1796C125.933 36.4133 126.036 37.023 124.278 37.023C124.725 36.3554 125.354 35.6977 126.447 35.6977H127.532C127.338 36.5303 126.332 37.7458 125.363 37.7458H124.158C123.512 37.7458 123.093 37.9591 122.832 38.3482C123.102 38.2852 123.109 38.2277 123.435 38.2277H125.483C126.771 38.2277 127.983 36.5056 128.255 35.3363C127.878 35.305 127.827 35.2158 127.412 35.2158H126.327C124.737 35.2158 124.086 36.3986 123.555 37.5049Z" fill="black"/>
<path fill-rule="evenodd" clip-rule="evenodd" d="M74.0234 35.0955C74.1114 36.153 75.8064 37.1437 77.0363 37.1437H77.1568C78.5231 37.1437 78.6733 36.4208 79.8081 36.4208C79.6025 36.2421 79.5987 36.1798 79.2055 36.1798C78.3515 36.1798 78.1045 36.6618 77.0363 36.6618H76.6747C75.9231 36.6618 75.0187 35.8506 74.7465 35.3365C75.0932 35.1532 75.4199 34.9751 75.9516 34.9751H76.9158C77.4923 34.9751 77.638 35.3281 78.1209 35.457V35.6979C77.8506 35.7609 77.8438 35.8184 77.5184 35.8184H76.5542C76.0316 35.8184 76.1823 35.6267 75.5902 35.5774C75.8874 35.8358 77.0119 36.2801 77.6437 36.2098L78.6029 36.0593C78.7907 36.0294 78.9645 36.0181 78.9645 35.8184C78.9645 35.4736 77.5319 34.4932 76.9158 34.4932H75.9516C75.1345 34.4932 74.6564 34.9481 74.0234 35.0955Z" fill="black"/>
<path fill-rule="evenodd" clip-rule="evenodd" d="M93.9082 32.9267V33.0472C93.9082 34.2328 94.3256 35.2675 94.9592 35.8517C95.3084 36.1736 95.7095 36.3767 96.1842 36.5547C96.7914 36.7821 96.7941 37.0572 97.2826 37.3842C96.8695 35.6118 94.5108 36.0684 94.5108 33.7699V32.6857C95.6313 32.9467 96.68 34.0743 96.68 35.4567C95.2739 34.7129 95.7942 34.5713 94.9928 33.6495C95.0656 34.5235 96.2113 36.1104 97.0416 36.1795C97.1045 35.9093 97.1621 35.9025 97.1621 35.5771V35.0952C97.1621 34.3567 96.5147 33.5472 96.1076 33.1374C95.4334 32.4587 95.0025 32.3722 94.1492 31.9629C94.0093 32.2542 93.9082 32.4899 93.9082 32.9267Z" fill="black"/>
<path fill-rule="evenodd" clip-rule="evenodd" d="M119.458 34.9747V36.1795C120.384 35.964 121.541 34.4512 121.628 33.4086C121.044 34.0794 120.937 35.0702 119.941 35.3362V34.8542C119.941 33.8773 121.297 32.7821 122.11 32.5652V33.529C122.11 36.0611 119.467 35.7172 119.338 37.2637C119.791 36.9608 119.743 36.7694 120.316 36.5547C120.764 36.3869 121.059 36.2419 121.413 35.9647C121.929 35.5605 122.592 34.5186 122.592 33.6495V32.8062C122.592 32.3909 122.503 32.3397 122.471 31.9629C121.247 32.0647 119.458 33.6173 119.458 34.9747Z" fill="black"/>
<path fill-rule="evenodd" clip-rule="evenodd" d="M83.3032 36.9026H83.6648C84.2343 36.9026 84.1464 37.1352 84.6288 37.264C83.8454 36.0944 83.3928 36.6037 82.2156 36.0622C81.5951 35.7767 80.7725 34.7088 80.7725 33.8906V33.5293C82.0289 33.6338 83.2914 34.4921 83.5443 35.5773C82.6497 35.5574 82.2828 35.0998 81.7366 34.734C81.9171 35.4102 83.2897 36.2811 84.1468 36.3002C83.99 34.4165 82.5049 33.0474 80.5314 33.0474H80.1699C80.1699 34.1633 80.4799 35.0969 81.0417 35.6696C81.5392 36.1767 82.3646 36.9026 83.3032 36.9026Z" fill="black"/>
<path fill-rule="evenodd" clip-rule="evenodd" d="M104.996 32.3243C102.839 32.3243 101.381 33.971 101.381 36.1795C103.19 36.1795 105.358 35.0273 105.358 33.4086V32.9267C104.424 33.0044 102.91 34.0934 102.706 34.8542C103.362 34.4153 103.674 33.6736 104.755 33.6495C104.686 34.4844 103.309 35.5771 102.466 35.5771H101.983C102.006 34.5499 102.672 33.6476 103.35 33.2085C104.323 32.579 105.042 33.3338 105.96 31.9629C105.478 32.0916 105.566 32.3243 104.996 32.3243Z" fill="black"/>
<path fill-rule="evenodd" clip-rule="evenodd" d="M131.99 36.3002C132.847 36.2811 134.22 35.4102 134.4 34.734C133.854 35.0998 133.487 35.5574 132.592 35.5773C133.143 34.4299 133.812 33.6584 135.364 33.5293C135.364 36.7704 132.518 35.7553 131.508 37.264C131.99 37.1352 131.902 36.9026 132.472 36.9026H132.833C133.772 36.9026 134.598 36.1767 135.095 35.6696C135.657 35.0969 135.967 34.1633 135.967 33.0474H135.605C133.632 33.0474 132.147 34.4165 131.99 36.3002Z" fill="black"/>
<path fill-rule="evenodd" clip-rule="evenodd" d="M137.174 35.8179C137.174 36.0176 137.347 36.0289 137.536 36.0561L138.499 36.1793C139.049 36.2672 140.047 35.9229 140.307 35.6974C139.93 35.7288 139.879 35.8179 139.463 35.8179H138.62C138.294 35.8179 138.287 35.7604 138.017 35.6974V35.4565C138.5 35.3276 138.646 34.9746 139.222 34.9746H140.187C140.561 34.9746 141.392 35.1751 141.392 35.4565C141.392 35.6886 139.991 36.6613 139.463 36.6613H139.102C138.034 36.6613 137.787 36.1793 136.933 36.1793C136.539 36.1793 136.536 36.2417 136.33 36.4203C137.465 36.4203 137.615 37.1432 138.981 37.1432H139.102C140.328 37.1432 142.026 36.1555 142.115 35.0951C141.482 34.9477 141.004 34.4927 140.187 34.4927H139.222C138.606 34.4927 137.174 35.4731 137.174 35.8179Z" fill="black"/>
<path fill-rule="evenodd" clip-rule="evenodd" d="M106.563 32.5651C106.563 33.335 106.322 33.4819 106.322 34.2518V34.6132C106.322 36.1948 107.667 37.0616 108.732 37.6251C108.8 37.4851 109.094 36.6018 109.094 36.4204V35.0951C109.094 33.9055 108.087 33.1092 107.286 32.6856C107.258 33.0311 107.146 33.1465 107.134 33.2924L107.286 34.3722C107.358 34.8974 107.797 35.8151 108.13 36.0589C107.989 35.4529 107.648 35.2673 107.648 34.4927V33.5289C108.3 33.703 108.732 34.8259 108.732 35.6975C108.732 36.168 108.64 36.5926 108.491 36.9022C107.901 36.5068 106.804 35.6645 106.804 34.7337V34.1313C106.804 33.4735 107.045 33.4638 107.045 32.8061C107.045 32.3496 106.831 32.0383 106.563 31.8423V32.5651Z" fill="black"/>
<path fill-rule="evenodd" clip-rule="evenodd" d="M88.2447 39.794C86.9967 39.5033 85.9522 38.5577 85.8344 37.1436C86.9737 37.7461 86.8258 38.0797 87.5216 38.5892C87.3281 37.7588 86.2264 36.4934 85.3524 36.4207V37.3845C85.3524 39.1622 88.7268 41.129 88.7268 40.035V38.9507C88.7268 38.0927 87.9981 36.977 87.4497 36.6131C86.9714 36.2956 86.8194 36.2132 86.2157 36.0396C85.5893 35.8593 85.5596 35.6365 85.1113 35.3364C85.5562 37.2453 88.2447 35.8565 88.2447 39.794Z" fill="black"/>
<path fill-rule="evenodd" clip-rule="evenodd" d="M87.8828 35.3363C88.1552 36.5056 89.3665 38.2277 90.6546 38.2277H92.7033C93.0288 38.2277 93.0356 38.2852 93.3059 38.3482C93.0451 37.9591 92.6257 37.7458 91.9802 37.7458H90.7751C89.806 37.7458 88.7998 36.5303 88.6059 35.6977H89.6904C90.6943 35.6977 91.5053 36.3534 91.8597 37.023C90.1017 37.023 90.2044 36.4133 89.3289 36.1796C89.7438 36.7991 91.0399 37.5049 92.1007 37.5049H92.5828C92.3326 36.4315 91.1165 35.2158 89.8109 35.2158H88.7264C88.313 35.2158 88.257 35.2971 87.8828 35.3363Z" fill="black"/>
<path fill-rule="evenodd" clip-rule="evenodd" d="M114.516 37.2638C114.516 37.957 114.878 38.2581 114.878 38.5891C114.878 39.936 114.179 41.2167 113.19 41.4805C113.1 41.0912 112.949 40.7335 112.949 40.2757C112.949 39.3191 113.342 38.4895 113.914 38.1072C113.977 38.3773 114.034 38.3841 114.034 38.7096V39.071C114.034 39.6799 113.84 39.7109 113.793 40.2757C114.166 39.8464 114.396 39.1339 114.396 38.3482V37.6253C114.396 36.547 112.588 38.5539 112.588 39.4324V40.8781C112.588 41.1321 112.867 41.8497 112.949 42.2034C114.108 41.9335 115.36 40.4652 115.36 39.071V38.8301C115.36 38.0377 114.878 37.5784 114.878 37.0229V36.541C114.727 36.7138 114.516 36.9531 114.516 37.2638Z" fill="black"/>
<path fill-rule="evenodd" clip-rule="evenodd" d="M107.045 39.9143H107.768C108.377 39.9143 108.408 39.7203 108.973 39.6733C108.698 38.4938 107.286 36.9023 105.839 36.9023H105.357C104.942 36.9023 104.891 36.9915 104.514 37.0228C104.731 37.8376 106.433 38.9505 107.527 38.9505V38.83C106.508 38.83 105.78 38.0159 105.357 37.3842H105.839C106.933 37.3842 108.046 38.4379 108.25 39.3119C107.979 39.3748 107.973 39.4324 107.647 39.4324H107.286C104.612 39.4324 105.202 37.0599 103.309 36.9023C103.509 37.0766 104.035 37.4957 104.18 37.7176C104.417 38.0788 104.423 38.3777 104.784 38.8013C105.202 39.2923 106.191 39.9143 107.045 39.9143Z" fill="black"/>
<path fill-rule="evenodd" clip-rule="evenodd" d="M109.695 36.7818V36.9023C109.695 38.0333 110.405 39.324 111.262 39.5527C111.325 39.2826 111.382 39.2758 111.382 38.9505V37.7457C111.382 37.1553 111.123 36.4305 110.78 36.1794C111.128 37.6716 111.021 37.0762 111.021 38.7095C110.515 38.5745 110.177 37.7978 110.177 37.1433V36.5409C110.177 36.1664 110.378 35.3362 110.659 35.3362C111.036 35.3362 111.985 36.8788 111.985 37.6252V37.7457C111.985 38.6167 111.503 38.8183 111.503 39.4323V39.5527C111.503 40.1265 111.624 39.9313 111.624 40.3961H111.744C111.744 39.2423 112.347 39.1156 112.347 38.1071V37.2637C112.347 36.3238 111.084 34.6133 110.539 34.6133C110.049 34.6133 109.695 36.1747 109.695 36.7818Z" fill="black"/>
<path fill-rule="evenodd" clip-rule="evenodd" d="M127.412 39.1916V40.035C127.412 41.129 130.786 39.1622 130.786 37.3845V36.4207C129.912 36.4934 128.811 37.7588 128.617 38.5892C129.313 38.0797 129.165 37.7461 130.304 37.1436C130.185 38.579 129.163 39.4984 127.894 39.794V39.3121C127.894 36.2397 130.626 37.0597 131.027 35.3364C130.579 35.6365 130.55 35.8593 129.923 36.0396C129.296 36.2199 129.069 36.3458 128.615 36.6589C128.03 37.0615 127.412 38.1679 127.412 39.1916Z" fill="black"/>
<path fill-rule="evenodd" clip-rule="evenodd" d="M78.3633 38.2273C78.3633 40.7064 80.694 41.0345 82.2197 41.8416C81.7941 40.2484 78.8454 41.2739 78.8454 37.7454C80.0327 37.7719 81.3494 38.9574 81.3761 40.155C80.0676 39.4628 80.3666 39.2939 79.5684 38.7092C79.769 39.5701 80.9838 40.6742 81.8581 40.8778V40.155C81.8581 38.5225 79.9622 37.1431 78.3633 37.1431V38.2273Z" fill="black"/>
<path fill-rule="evenodd" clip-rule="evenodd" d="M88.2441 41.7214C88.8241 41.8565 88.9994 42.0828 89.8108 42.0828H90.5339C92.3639 42.0828 92.8788 40.327 93.9083 39.4324C92.4769 39.4642 92.3077 41.6009 90.6544 41.6009H89.8108C89.3954 41.6009 89.3442 41.5118 88.9672 41.4804C89.1517 40.7897 90.4086 39.6733 91.257 39.6733H91.9801C91.7981 40.3546 90.6869 40.9986 89.8108 40.9986V41.1191C91.2142 41.1191 92.3867 40.2646 92.9441 39.4324C92.5128 39.3319 92.3779 39.1914 91.8596 39.1914H91.3775C89.8298 39.1914 88.7969 40.677 88.2441 41.7214Z" fill="black"/>
<path fill-rule="evenodd" clip-rule="evenodd" d="M134.281 40.155V40.8778C135.156 40.6742 136.371 39.5701 136.571 38.7092C135.773 39.2939 136.072 39.4628 134.763 40.155C134.79 38.9782 136.122 37.7715 137.294 37.7454C137.294 41.2591 134.353 40.2186 133.92 41.8416C135.446 41.0345 137.776 40.7064 137.776 38.2273V37.1431C136.18 37.1786 134.281 38.5276 134.281 40.155Z" fill="black"/>
<path fill-rule="evenodd" clip-rule="evenodd" d="M101.863 37.0229C101.863 37.5784 101.381 38.0377 101.381 38.8301V39.071C101.381 40.3413 102.698 42.1124 103.791 42.2034C103.927 41.6188 104.153 41.251 104.153 40.5167V39.4324C104.153 38.5734 103.073 37.4334 102.345 37.2638V38.7096C102.345 39.2876 102.743 40.2787 103.068 40.5167C102.932 39.9322 102.706 39.5643 102.706 38.8301V38.4686C102.706 38.008 102.669 38.4248 102.827 38.1072C103.371 38.4713 103.791 39.3812 103.791 40.2757C103.791 40.7708 103.564 40.8461 103.55 41.4805C102.801 41.2806 101.863 40.0604 101.863 39.071C101.863 38.3011 102.104 38.1542 102.104 37.3843V37.1434C102.104 36.7503 102.042 36.7466 101.863 36.541V37.0229Z" fill="black"/>
<path fill-rule="evenodd" clip-rule="evenodd" d="M123.315 39.5528C123.315 40.1365 125.285 41.1191 126.328 41.1191V40.9986C125.452 40.9986 124.341 40.3546 124.159 39.6733H124.882C125.73 39.6733 126.987 40.7897 127.171 41.4804C126.795 41.5118 126.743 41.6009 126.328 41.6009H125.484C123.792 41.6009 123.748 39.4662 122.23 39.4324C123.26 40.327 123.775 42.0828 125.605 42.0828H126.328C127.139 42.0828 127.315 41.8565 127.895 41.7214C127.342 40.677 126.309 39.1914 124.761 39.1914H124.279C123.959 39.1914 123.315 39.2872 123.315 39.5528Z" fill="black"/>
<path fill-rule="evenodd" clip-rule="evenodd" d="M77.2776 43.0467H78.2418C78.7601 43.0467 78.895 43.1872 79.3263 43.2876C79.0985 42.9475 78.6804 42.5648 78.1213 42.5648H77.3981C76.2594 42.5648 75.3419 41.1569 75.1084 40.1553H75.711C76.7399 40.1553 77.9277 41.0116 78.1213 41.842C76.8946 41.842 76.8517 41.2949 76.1931 41.1191C76.6545 41.808 77.6798 42.4444 78.8444 42.4444C78.4712 40.8429 77.406 39.6733 75.47 39.6733H74.5059C74.5392 41.1685 75.9402 43.0467 77.2776 43.0467Z" fill="black"/>
<path fill-rule="evenodd" clip-rule="evenodd" d="M82.7012 39.7937V40.5165C82.7012 41.1827 83.1024 41.9387 83.4525 42.2954C83.679 42.5263 83.9189 42.7188 84.1193 42.954C84.3668 43.2446 84.3712 43.4725 84.6293 43.7693V43.2875C84.6293 42.4231 83.1832 41.7772 83.1832 40.637V40.1551C83.1832 39.4272 83.5275 39.0596 83.6652 38.4684C84.1982 38.8252 84.8704 39.7518 84.8704 40.637V41.4803C84.8704 41.9409 84.9074 41.5242 84.7499 41.8418C84.3659 41.5606 83.9062 40.7204 83.9062 40.0346V39.4323H83.7857V40.5165C83.7857 41.0882 84.421 42.6851 84.7499 42.6851C85.0941 42.6851 85.3525 41.4933 85.3525 40.9984V40.396C85.3525 39.5121 84.1135 38.1264 83.5447 37.7456C83.2326 38.2114 82.7012 39.0461 82.7012 39.7937Z" fill="black"/>
<path fill-rule="evenodd" clip-rule="evenodd" d="M96.0783 41.3598C96.0783 40.8774 96.3267 40.761 96.4398 40.2754C95.937 40.6121 95.5962 41.1365 95.5962 41.962C95.5962 43.2809 94.0996 43.9822 92.945 44.2511C92.945 42.8584 93.7777 41.6148 94.8732 41.3598C94.8466 42.5574 94.1353 42.8308 93.668 43.5283C94.4341 43.3239 95.5179 41.6987 95.5962 40.7573C93.6315 40.8011 92.4629 42.4605 92.4629 44.4921V44.8536C94.1885 44.8536 96.0783 43.4929 96.0783 41.8416V41.3598Z" fill="black"/>
<path fill-rule="evenodd" clip-rule="evenodd" d="M138.016 41.842C138.209 41.0116 139.397 40.1553 140.426 40.1553H141.029C140.795 41.1569 139.878 42.5648 138.739 42.5648H138.498C137.637 42.5648 137.159 42.7671 136.811 43.2876C137.242 43.1872 137.377 43.0467 137.895 43.0467H138.859C140.197 43.0467 141.598 41.1685 141.631 39.6733H140.787C138.792 39.6733 137.676 40.7987 137.293 42.4444C138.377 42.4444 139.396 41.8772 139.823 41.2396C139.145 41.4205 139.103 41.842 138.016 41.842Z" fill="black"/>
<path fill-rule="evenodd" clip-rule="evenodd" d="M131.267 40.3965C131.267 39.7358 132.054 38.7492 132.472 38.4689C132.631 39.1483 132.954 39.2844 132.954 40.276V40.6375C132.954 41.7687 131.508 42.4724 131.508 43.2879V43.8903H131.629C131.629 42.7071 133.436 42.3092 133.436 40.517V40.0351C133.436 39.0528 132.989 38.3381 132.593 37.7461C132.024 38.1268 130.785 39.5126 130.785 40.3965V40.9989C130.785 41.4938 131.044 42.6856 131.388 42.6856C131.717 42.6856 132.352 41.0887 132.352 40.517V39.7941H132.231C132.231 40.6794 131.876 41.4849 131.388 41.8423C131.23 41.5247 131.267 41.9414 131.267 41.4808V40.3965Z" fill="black"/>
<path fill-rule="evenodd" clip-rule="evenodd" d="M105.115 43.1671C105.115 41.8305 106.419 41.0154 107.525 40.7576C107.525 42.137 106.914 43.519 105.838 43.7695C105.863 42.6487 106.357 42.2648 106.802 41.6009C106.076 41.7947 105.236 43.4313 105.236 44.4924C107.314 44.0082 108.007 42.692 108.007 40.1553C106.468 40.1553 104.633 41.6193 104.633 42.9262V43.89C104.633 44.5552 104.393 44.6958 104.271 45.2152C104.716 44.9174 105.115 44.3959 105.115 43.6491V43.1671Z" fill="black"/>
<path fill-rule="evenodd" clip-rule="evenodd" d="M119.697 40.2754C119.802 40.509 120.059 41.1073 120.059 41.3598V41.8416C120.059 43.4907 121.968 44.8536 123.674 44.8536V44.4921C123.674 42.4605 122.506 40.8011 120.541 40.7573C120.773 41.7529 121.591 43.2937 122.469 43.5283C122.002 42.8308 121.291 42.5574 121.264 41.3598C122.359 41.6148 123.192 42.8584 123.192 44.2511C122.038 43.9822 120.541 43.2809 120.541 41.962V41.8416C120.541 40.9829 120.209 40.6177 119.697 40.2754Z" fill="black"/>
<path fill-rule="evenodd" clip-rule="evenodd" d="M86.0749 47.8659C86.9259 47.2962 87.5301 46.2765 87.6431 44.9672C87.7732 43.4605 86.557 42.9899 86.557 41.7217C86.3782 41.9273 86.3159 41.9309 86.3159 42.3241C86.3159 43.3138 87.1594 43.6149 87.1594 44.7336C87.1594 45.4231 86.5653 47.0226 86.1954 47.0226C85.9211 47.0226 85.4723 45.8008 85.4723 45.336V44.8541C85.4723 44.2782 85.6038 43.775 86.0749 43.6493C86.1242 44.2412 86.3159 44.0907 86.3159 44.6131V45.9384H86.4364L86.5837 44.8581L86.557 44.3721C86.557 43.5609 86.3305 43.3858 86.1954 42.806C85.5496 42.9784 84.9902 44.0288 84.9902 44.8541V45.095C84.9902 46.2396 85.613 47.1765 86.0749 47.8659Z" fill="black"/>
<path fill-rule="evenodd" clip-rule="evenodd" d="M111.865 45.456C111.781 45.0957 111.587 44.9423 111.624 44.6127L111.775 43.1705C111.889 41.8964 110.014 40.0347 108.852 40.0347C108.683 40.0347 108.611 40.1989 108.611 40.3961V41.3599C108.611 42.9653 109.602 44.4946 111.022 44.6127C111.022 43.4534 110.606 42.2895 109.937 41.8418C110.088 42.4881 110.419 42.4293 110.419 43.2875V43.8899C109.751 43.4429 109.093 42.8143 109.093 41.7213V40.6371C110.204 41.2246 111.263 41.7109 111.263 43.408V44.3718C111.263 44.8203 111.609 45.2686 111.865 45.456Z" fill="black"/>
<path fill-rule="evenodd" clip-rule="evenodd" d="M128.978 44.7336C128.978 43.624 129.822 43.2769 129.822 42.4446V42.3241C129.822 41.9309 129.759 41.9273 129.581 41.7217C129.581 43.0198 128.496 43.281 128.496 44.7336V45.095C128.496 46.2046 129.385 47.4124 130.063 47.8659C130.45 47.2874 131.147 46.2707 131.147 45.336V44.8541C131.147 44.0288 130.588 42.9784 129.942 42.806C129.824 43.315 129.581 43.6775 129.581 44.2516V44.8541L129.716 45.9362L129.822 45.9384V45.095C129.822 44.4613 129.967 44.0586 130.183 43.6493C130.508 43.8873 130.665 44.2951 130.665 44.8541V45.336C130.665 45.999 130.354 46.8806 129.822 47.0226C129.66 46.4156 128.978 46.035 128.978 44.9745V44.7336Z" fill="black"/>
<path fill-rule="evenodd" clip-rule="evenodd" d="M96.5604 46.2996C97.443 46.2996 98.3136 45.7383 98.7625 45.2482C99.0888 44.892 99.1673 44.5677 99.4248 44.2236C99.7271 43.8198 99.9736 43.8091 100.296 43.5287C98.4687 43.5694 98.6792 45.8177 96.5604 45.8177H96.4398C96.0863 45.8177 95.2348 45.7458 95.2348 45.4563C95.2348 44.9584 96.6583 43.8901 97.5245 43.8901H98.1271C97.9574 44.5255 96.7774 45.2154 95.9579 45.2154V45.3358C97.2207 45.3358 98.5833 44.4074 99.0912 43.6492C98.7815 43.5006 98.3567 43.4082 97.8861 43.4082H97.404C96.2991 43.4082 94.5117 45.1129 94.5117 45.8177C94.5117 46.0753 95.4898 46.2996 95.8374 46.2996H96.5604Z" fill="black"/>
<path fill-rule="evenodd" clip-rule="evenodd" d="M88.6055 43.0469C89.4349 44.9025 91.4977 44.0028 91.4977 47.1431V47.5045C90.4014 47.4132 89.208 46.1101 89.208 44.854C90.2964 45.1075 90.4782 46.1634 91.0157 46.7816C90.916 45.5841 88.726 43.2391 88.726 44.372V44.7335C88.726 46.4007 90.4031 48.0744 91.8593 48.1068C91.9222 47.8367 91.9798 47.8299 91.9798 47.5045V46.5407C91.9798 44.3934 89.8677 43.8919 88.6055 43.0469Z" fill="black"/>
<path fill-rule="evenodd" clip-rule="evenodd" d="M115.842 43.5287C116.166 43.8099 116.493 43.8858 116.763 44.2943C117.008 44.664 117.067 44.9111 117.376 45.2482C117.825 45.7383 118.695 46.2996 119.578 46.2996H120.301C120.648 46.2996 121.626 46.0753 121.626 45.8177C121.626 45.0915 119.827 43.4082 118.734 43.4082H118.252C117.781 43.4082 117.357 43.5006 117.047 43.6492C117.555 44.4074 118.917 45.3358 120.18 45.3358V45.2154C119.361 45.2154 118.181 44.5255 118.011 43.8901H118.373C119.129 43.8901 119.5 44.0641 119.941 44.3701C120.139 44.5074 120.903 45.249 120.903 45.4563C120.903 45.7458 120.052 45.8177 119.698 45.8177H119.578C117.471 45.8177 117.698 43.5701 115.842 43.5287Z" fill="black"/>
<path fill-rule="evenodd" clip-rule="evenodd" d="M124.64 47.0226C124.64 43.9174 127.154 44.6707 127.533 43.0469C126.083 44.0172 124.158 44.3337 124.158 46.7816V47.5045C124.158 47.8299 124.216 47.8367 124.279 48.1068C125.685 48.0755 127.412 46.4462 127.412 44.9744V44.372C127.412 43.2391 125.222 45.5841 125.122 46.7816C125.66 46.1634 125.842 45.1075 126.93 44.854C126.93 46.1314 125.734 47.4135 124.64 47.5045V47.0226Z" fill="black"/>
<path fill-rule="evenodd" clip-rule="evenodd" d="M77.879 47.2633C76.9724 47.2633 75.8845 45.9652 75.7098 45.2153H76.7944C77.6982 45.2153 78.7767 45.8407 78.9636 46.5405H78.4815C77.7067 46.5405 77.5211 46.1997 76.9149 46.0587C77.2542 46.5651 78.3293 47.0224 79.2046 47.0224H79.6867C79.6564 45.6642 77.9422 44.7334 76.4328 44.7334H76.1919L75.1094 44.8683C75.1369 46.1837 76.6663 47.7453 77.9995 47.7453H78.4815L80.4077 47.6735C80.2145 47.4536 80.0567 47.2633 79.5662 47.2633H77.879Z" fill="black"/>
<path fill-rule="evenodd" clip-rule="evenodd" d="M81.3747 43.7697C82.5681 43.7963 83.7848 45.0601 83.7848 46.2997C82.4768 45.6077 82.7171 45.2755 81.9771 44.7335C82.1901 45.6469 83.3225 46.8026 84.2669 47.0226V46.0588C84.2669 44.6317 82.2193 43.1572 80.8926 43.0469V44.2515C80.8926 46.8048 82.8571 47.1131 84.5079 47.9863C84.0864 46.4079 81.3747 47.2285 81.3747 44.1311V43.7697Z" fill="black"/>
<path fill-rule="evenodd" clip-rule="evenodd" d="M132.351 46.2997C132.351 44.6701 133.639 44.1877 134.762 43.6493C134.762 47.7587 132.013 46.0585 131.508 48.2273C131.933 47.9425 131.983 47.6793 132.549 47.4616C133.211 47.2077 133.23 47.3658 133.846 46.9504C134.351 46.6095 135.244 45.4653 135.244 44.7335V43.0469C133.788 43.1679 131.869 44.6177 131.869 46.2997V47.0226C132.818 46.8016 133.941 45.6683 134.159 44.7335C133.419 45.2755 133.66 45.6077 132.351 46.2997Z" fill="black"/>
<path fill-rule="evenodd" clip-rule="evenodd" d="M137.173 46.5405C137.355 45.8592 138.466 45.2153 139.342 45.2153H140.427C140.246 45.9898 139.181 47.2633 138.257 47.2633H136.45C136.189 47.2633 135.848 47.5794 135.727 47.7453L137.655 47.7298L138.137 47.7453C139.47 47.7453 140.999 46.1837 141.029 44.8539L139.949 44.7065L139.703 44.7334C138.133 44.7334 136.563 45.6558 136.45 47.0224H137.052C137.808 47.0224 138.92 46.5092 139.221 46.0586C138.615 46.1997 138.43 46.5405 137.655 46.5405H137.173Z" fill="black"/>
<path fill-rule="evenodd" clip-rule="evenodd" d="M99.0869 46.5137L99.4524 46.5405C100.305 46.5405 101.039 47.1149 101.381 47.6248H100.417C99.5179 47.6248 99.3233 47.1809 98.7293 47.0224C99.1421 47.6384 100.542 48.1066 101.622 48.1066H102.104C102.001 46.8735 100.429 46.0586 98.9703 46.0586C98.2002 46.0586 98.0533 46.2995 97.2832 46.2995C97.3984 47.6833 99.0577 48.95 100.658 48.95H100.778C101.541 48.95 101.672 48.5885 102.224 48.5885C102.678 48.5885 102.452 48.6678 102.947 48.709C102.686 48.4822 102.472 48.2271 101.983 48.2271H101.742C101.216 48.2271 101.305 48.468 100.778 48.468H100.417C99.3832 48.468 98.1961 47.4755 98.0084 46.6753L99.0869 46.5137Z" fill="black"/>
<path fill-rule="evenodd" clip-rule="evenodd" d="M93.668 51.6004C94.4221 51.2015 95.1142 49.9911 95.1142 48.8295V48.5885C95.1142 47.1341 93.7885 46.5885 93.7885 45.4561H93.668V46.2994C93.668 47.0642 94.6322 47.5403 94.6322 48.709C94.6322 49.4692 94.1036 50.5585 93.668 50.8775C93.5206 50.3255 92.945 49.8964 92.945 49.1908V48.709C92.945 48.1374 93.08 47.8388 93.1861 47.3837C93.4821 47.5819 93.7885 48.1146 93.7885 48.5885V49.9137H93.9091L94.0574 48.3505C94.0916 47.7691 93.6212 46.9072 93.427 46.5404C92.9273 46.875 92.4629 47.6443 92.4629 48.468V48.709C92.4629 50.0184 93.1393 50.811 93.668 51.6004Z" fill="black"/>
<path fill-rule="evenodd" clip-rule="evenodd" d="M114.756 47.6246C115.048 47.189 115.879 46.5403 116.564 46.5403H117.046L118.128 46.6752C117.941 47.4754 116.754 48.4679 115.72 48.4679H115.6C114.863 48.4679 114.679 48.227 114.033 48.227C113.659 48.227 113.4 48.5262 113.189 48.7088C113.566 48.6775 113.618 48.5884 114.033 48.5884C114.364 48.5884 114.665 48.9498 115.359 48.9498H115.479C117.079 48.9498 118.738 47.6831 118.854 46.2993L118.015 46.1529L116.809 46.0279C115.72 45.9145 114.115 47.1253 114.033 48.1065H114.515C115.501 48.1065 116.897 47.6742 117.287 47.1427C116.681 47.2839 116.495 47.6246 115.72 47.6246H114.756Z" fill="black"/>
<path fill-rule="evenodd" clip-rule="evenodd" d="M107.164 46.9018C107.164 46.0824 107.758 45.1818 108.248 44.8537C108.551 45.4249 108.851 45.9098 108.851 46.7813V47.0223C108.851 47.6876 108.61 47.8281 108.489 48.3475C108.164 48.1095 108.007 47.7016 108.007 47.1428V46.0585H107.887C107.887 46.5232 107.766 46.328 107.766 46.9018V47.7452C107.766 48.3193 108.009 48.6817 108.128 49.1908C108.739 49.0276 109.333 47.8327 109.333 47.0223V46.6608C109.333 45.5736 108.563 44.8594 108.369 44.1309C107.374 44.2136 106.682 46.0242 106.682 47.2632C106.682 48.6294 107.766 48.8879 107.766 50.2751H107.887C107.887 49.8104 108.007 50.0056 108.007 49.4318C108.007 48.9747 107.164 48.014 107.164 47.3837V46.9018Z" fill="black"/>
<path fill-rule="evenodd" clip-rule="evenodd" d="M121.506 48.5885C121.506 47.606 122.47 47.0126 122.47 46.2994V45.4561H122.349C122.349 46.5465 121.023 47.294 121.023 48.468V48.5885C121.023 50.006 121.624 51.0344 122.47 51.6004C122.789 51.1236 123.675 49.8954 123.675 49.1908V48.2271C123.675 47.6061 123.109 46.8067 122.711 46.5404C122.421 47.0875 122.108 47.8783 122.108 48.709V48.95C122.108 49.5236 122.229 49.3284 122.229 49.7932H122.349V48.5885C122.349 48.1275 122.68 47.5824 122.952 47.3837C123.05 47.8045 123.193 47.7894 123.193 48.2271V49.1908C123.193 49.8964 122.617 50.3255 122.47 50.8775C121.986 50.5232 121.506 49.4484 121.506 48.5885Z" fill="black"/>
<path fill-rule="evenodd" clip-rule="evenodd" d="M137.775 49.9137C138.204 49.8139 138.5 49.5523 138.98 49.5523C140.135 49.5523 140.543 49.8906 141.27 50.2751C140.977 50.7117 139.962 51.2389 139.221 51.2389H138.98C137.838 51.2389 137.478 50.3956 136.69 50.3956H136.088C136.282 50.6606 138.215 51.7208 138.86 51.7208H139.462C140.238 51.7208 141.993 50.7316 141.993 50.2751C141.993 49.9456 139.983 49.0703 139.342 49.0703H139.101C138.235 49.0703 137.284 49.6287 136.931 50.1547C137.289 50.3434 137.962 50.6366 138.498 50.6366H139.462C140.036 50.6366 139.841 50.5161 140.306 50.5161V50.3956H138.98C138.421 50.3956 138.013 50.2385 137.775 49.9137Z" fill="black"/>
<path fill-rule="evenodd" clip-rule="evenodd" d="M113.31 52.4439C113.337 51.2474 114.525 50.1238 115.6 50.0344V50.8777C115.6 53.3019 112.921 52.6715 112.467 54.3715C112.861 54.1074 113.13 53.7611 113.677 53.6536C114.246 53.5418 114.612 53.3683 114.969 53.0181C115.644 52.3571 116.203 51.6951 116.203 50.3958V49.9139C116.203 49.5885 116.145 49.5817 116.082 49.3115C114.798 49.6106 112.828 50.7467 112.828 52.2029V53.2872C113.706 53.0828 114.911 51.7686 115.118 50.8777C114.636 51.2308 114.321 52.3598 113.31 52.4439Z" fill="black"/>
<path fill-rule="evenodd" clip-rule="evenodd" d="M74.8676 50.2751C75.4118 49.9872 75.9697 49.5523 76.7958 49.5523H77.0368C77.7023 49.5523 77.8428 49.7926 78.3624 49.9137C78.1244 50.2385 77.7163 50.3956 77.1573 50.3956H75.8317V50.5161C76.2965 50.5161 76.1014 50.6366 76.6752 50.6366H77.6394C78.1756 50.6366 78.8491 50.3434 79.206 50.1547C78.8538 49.6287 77.9028 49.0703 77.0368 49.0703H76.7958C76.1548 49.0703 74.1445 49.9456 74.1445 50.2751C74.1445 50.7316 75.8998 51.7208 76.6752 51.7208H77.2778C78.5994 51.7208 79.2373 50.5161 80.1702 50.5161V50.3956H79.4471C78.6596 50.3956 78.2995 51.2389 77.1573 51.2389H76.9163C76.1643 51.2389 75.1775 50.698 74.8676 50.2751Z" fill="black"/>
<path fill-rule="evenodd" clip-rule="evenodd" d="M87.4002 48.7091C87.4002 48.4824 87.8447 48.3477 88.1233 48.3477H88.7258C89.6055 48.3477 90.4669 48.6108 90.6541 49.3115H89.4489C89.0869 49.3115 88.6714 49.0496 88.2438 48.9501C88.507 49.3093 89.4212 49.6729 90.0515 49.6729H91.4976C91.4149 48.6791 90.0045 47.8657 88.8463 47.8657H88.3643C87.9527 47.8657 86.8456 48.2091 86.5566 48.3477C87.0949 49.3646 88.0642 50.6367 89.5694 50.6367H90.172C90.9348 50.6367 91.0655 50.2753 91.6181 50.2753H92.4617C92.2514 49.9884 91.998 49.9139 91.4976 49.9139H91.136C90.6096 49.9139 90.6984 50.1549 90.172 50.1549H89.4489C88.8209 50.1549 87.4002 49.0747 87.4002 48.7091Z" fill="black"/>
<path fill-rule="evenodd" clip-rule="evenodd" d="M125.483 49.3115C125.671 48.6108 126.532 48.3477 127.412 48.3477H127.773L128.856 48.4826C128.693 49.0855 127.465 50.1549 126.689 50.1549H125.966C125.439 50.1549 125.528 49.9139 125.001 49.9139H124.519C124.104 49.9139 123.896 50.0842 123.676 50.2753H124.519C125.072 50.2753 125.203 50.6367 125.966 50.6367H126.568C128.073 50.6367 129.043 49.3646 129.581 48.3477C129.091 48.1129 128.028 47.8657 127.291 47.8657C126.133 47.8657 124.723 48.6791 124.64 49.6729H126.086C126.716 49.6729 127.63 49.3093 127.894 48.9501C127.466 49.0496 127.051 49.3115 126.689 49.3115H125.483Z" fill="black"/>
<path fill-rule="evenodd" clip-rule="evenodd" d="M96.1988 48.3479C97.416 48.4491 98.3842 49.7451 98.4886 50.9983C97.4001 50.7449 97.2184 49.6889 96.6809 49.0707C96.7653 50.0853 98.0214 51.6204 98.8501 51.8417C98.913 51.5714 98.9706 51.5646 98.9706 51.2393V50.9983C98.9706 49.2575 97.2799 47.961 95.8373 47.625C95.8058 48.0019 95.7168 48.053 95.7168 48.4683V49.0707C95.7168 50.1397 96.2187 51.0542 96.8754 51.5268C97.3347 51.8573 97.4783 51.986 98.0213 52.1882C98.743 52.4572 98.5711 52.5778 99.0911 52.926C98.6569 51.0624 96.1988 51.9307 96.1988 48.9503V48.3479Z" fill="black"/>
<path fill-rule="evenodd" clip-rule="evenodd" d="M117.649 50.9983C117.677 49.7629 118.789 48.4435 119.939 48.3479V49.1912C119.939 51.7221 117.458 51.1637 117.047 52.926C117.5 52.6227 117.451 52.4323 118.025 52.2168C118.504 52.0367 118.731 51.9242 119.144 51.649C119.609 51.3387 120.421 50.2223 120.421 49.5526V47.9864C120.421 47.7538 120.383 47.7719 120.301 47.625C119.175 47.887 117.288 49.1599 117.288 50.3959V51.8417C118.117 51.6204 119.373 50.0853 119.457 49.0707C118.92 49.6889 118.738 50.7449 117.649 50.9983Z" fill="black"/>
<path fill-rule="evenodd" clip-rule="evenodd" d="M134.279 51.6007C134.425 51.5441 134.692 51.4802 134.882 51.4802C135.543 51.4802 136.176 51.9172 136.449 52.3235C136.039 52.5401 135.636 52.6849 135.002 52.6849C134.172 52.6849 134.165 51.7454 133.074 51.7211C133.281 51.9006 133.435 51.918 133.58 52.0593C133.774 52.249 133.609 52.2561 133.96 52.5219C134.292 52.7735 134.591 52.9259 135.123 52.9259H135.605C136.053 52.9259 136.931 52.6576 136.931 52.3235C136.931 52.0797 135.732 51.2393 135.243 51.2393H134.761C134.173 51.2393 133.915 51.366 133.677 51.7211C134.524 51.9472 134.364 52.3235 135.846 52.3235V52.203L134.764 52.0681L134.279 51.6007Z" fill="black"/>
<path fill-rule="evenodd" clip-rule="evenodd" d="M82.3384 51.8416C82.0921 52.2094 81.6163 52.6849 81.0128 52.6849H80.8923C80.3606 52.6849 80.0338 52.5069 79.6872 52.3235C80.0015 51.8541 80.5976 51.4802 81.3744 51.4802H81.4949C81.7275 51.4802 81.7093 51.5181 81.8564 51.6007L81.3459 52.0449L80.2937 52.2298L80.2897 52.3235C81.5696 52.3235 81.5071 52.0352 82.3384 51.8416ZM82.3384 51.8416L82.4692 51.607C82.1228 51.3757 81.9507 51.2393 81.3744 51.2393H81.1333C80.4697 51.2393 79.2051 51.9889 79.2051 52.3235C79.2051 52.6576 80.0832 52.9259 80.5307 52.9259H81.0128C81.5349 52.9259 81.9505 52.7302 82.2467 52.4728C82.5631 52.198 82.3376 52.2302 82.6217 52.0043C82.7827 51.8763 82.8628 51.8938 83.0615 51.7211L82.3384 51.8416Z" fill="black"/>
<path fill-rule="evenodd" clip-rule="evenodd" d="M100.536 50.0344C101.611 50.1238 102.799 51.2474 102.826 52.4439C101.815 52.3598 101.5 51.2308 101.018 50.8777C101.226 51.7686 102.43 53.0828 103.308 53.2872V52.2029C103.308 50.732 101.339 49.6107 100.054 49.3115C99.9911 49.5817 99.9336 49.5885 99.9336 49.9139V50.6368C99.9336 51.7016 100.643 52.5371 101.226 53.0794C101.628 53.453 101.952 53.5256 102.565 53.6682C103.119 53.7966 103.271 54.1044 103.67 54.3715C103.414 53.4139 102.653 53.3234 101.861 52.9269C101.277 52.6349 100.536 51.8053 100.536 50.9982V50.0344Z" fill="black"/>
<path fill-rule="evenodd" clip-rule="evenodd" d="M76.9151 56.6603C79.2216 56.6603 79.545 54.8347 80.7716 53.7689C79.0212 53.9145 79.2107 56.1784 77.2766 56.1784H76.9151L75.8327 56.0435C76.0621 55.1906 77.2456 54.1303 78.3613 54.1303H78.8433C77.8747 55.5765 77.478 54.998 76.6741 55.6965C77.9174 55.6688 79.1741 54.655 79.6869 53.8893C79.3772 53.7408 78.9524 53.6484 78.4818 53.6484H78.3613C76.6716 53.6484 75.7053 55.1693 75.1074 56.2989C75.4927 56.4837 76.0978 56.6603 76.6741 56.6603H76.9151Z" fill="black"/>
<path fill-rule="evenodd" clip-rule="evenodd" d="M128.859 55.2145C128.859 54.7992 128.948 54.748 128.979 54.3711C128.574 54.6424 128.377 54.8993 128.377 55.5759V56.0578C128.377 57.3145 127.121 58.4917 125.966 58.5878V58.1059C125.966 57.0317 126.772 55.7813 127.654 55.5759C127.544 56.8891 127.093 57.0829 126.569 57.8649C127.336 57.6604 128.256 55.922 128.256 54.8531C126.459 55.0026 125.484 56.7195 125.484 58.7083V59.1902H125.966C127.323 59.1902 128.859 57.4899 128.859 55.9373V55.2145Z" fill="black"/>
<path fill-rule="evenodd" clip-rule="evenodd" d="M91.0154 55.3351C91.4839 55.2259 92.0994 54.9736 92.5822 54.9736H92.7027C94.4232 54.9736 94.6449 56.6602 95.7155 56.6602H96.077C95.7627 56.3871 95.5766 56.4047 95.262 56.0293C94.9927 55.7081 94.9552 55.545 94.6022 55.2433C94.1495 54.8564 93.2742 54.4917 92.4616 54.4917H92.3411C91.3766 54.4917 90.7659 55.056 90.1719 55.2146C90.697 55.9986 91.9227 57.2627 93.1847 57.2627H93.6667C94.3003 57.2627 94.8529 57.0484 95.1129 56.6602C94.3686 56.1621 93.573 55.576 92.3411 55.576H91.8591V55.6965H92.2206C92.9887 55.6965 93.988 56.1785 94.1488 56.7807H93.0642C92.3208 56.7807 91.1727 55.9234 91.0154 55.3351Z" fill="black"/>
<path fill-rule="evenodd" clip-rule="evenodd" d="M82.9418 55.9376C82.9418 55.2818 83.2884 54.9943 83.5443 54.6123C83.0084 54.7554 82.4597 55.3923 82.4597 56.0581C82.4597 57.2545 80.9195 58.3471 79.5674 58.3471C79.7107 56.626 80.5445 56.2067 81.7366 55.5761C81.7166 56.4766 81.1399 56.8348 80.7726 57.3832C81.4665 57.198 82.3904 55.9272 82.4597 55.0942C80.3664 55.0942 79.0087 56.8631 78.9648 58.829H79.6879C81.2267 58.829 82.9418 57.4759 82.9418 56.0581V55.9376Z" fill="black"/>
<path fill-rule="evenodd" clip-rule="evenodd" d="M120.422 56.6607C121.493 56.6607 121.714 54.9741 123.435 54.9741C124.169 54.9741 124.537 55.1994 125.122 55.3356C124.965 55.9239 123.817 56.7812 123.073 56.7812H121.989C122.15 56.179 123.149 55.697 123.917 55.697H124.278V55.5765H123.796C122.565 55.5765 121.769 56.1626 121.025 56.6607C121.285 57.0489 121.837 57.2632 122.471 57.2632H122.953C124.24 57.2632 125.43 56.0144 125.966 55.2151C125.372 55.0565 124.761 54.4922 123.796 54.4922H123.676C122.905 54.4922 121.958 54.8841 121.535 55.243C121.186 55.5383 121.141 55.7131 120.876 56.0298C120.561 56.4052 120.375 56.3876 120.061 56.6607H120.422Z" fill="black"/>
<path fill-rule="evenodd" clip-rule="evenodd" d="M132.232 57.6245C132.232 56.687 131.793 55.8406 131.268 55.456L131.127 54.4956C130.969 54.6977 130.906 54.7015 130.906 55.0945V55.215C130.906 56.0584 131.87 56.5766 131.87 57.745C131.87 58.5529 131.272 59.5879 130.786 59.9136C130.552 59.4723 130.183 58.8703 130.183 58.2269V57.3835C130.183 56.9459 130.326 56.9609 130.424 56.5402C130.94 56.6778 131.027 57.4746 131.027 58.1064V58.5883H131.147C131.147 58.1235 131.268 58.3187 131.268 57.745V57.3835C131.268 56.6825 130.921 56.1579 130.786 55.5764C130.236 55.7231 129.701 56.771 129.701 57.504V57.9859C129.701 59.4153 130.434 59.7719 130.665 60.6364C131.548 60.563 132.232 59.0114 132.232 57.9859V57.6245Z" fill="black"/>
<path fill-rule="evenodd" clip-rule="evenodd" d="M84.2678 57.7446C84.2678 56.6462 85.232 55.9346 85.232 55.3351C85.232 54.8703 85.1114 55.0655 85.1114 54.4917H84.9909V54.8532C84.9909 55.7363 83.9062 55.953 83.9062 57.6241V57.9855C83.9062 59.011 84.5899 60.5626 85.473 60.636C85.7039 59.7715 86.437 59.4149 86.437 57.9855V57.7446C86.437 56.8806 85.9665 55.7399 85.3525 55.576C85.1725 56.3482 84.8704 56.6312 84.8704 57.7446C84.8704 58.3183 84.9909 58.1231 84.9909 58.5879H85.1114V57.865C85.1114 57.1998 85.3519 57.0592 85.473 56.5398H85.714C85.8121 56.9605 85.9551 56.9455 85.9551 57.3831V58.2265C85.9551 58.8699 85.586 59.4719 85.3525 59.9131C84.8659 59.5874 84.2678 58.5525 84.2678 57.7446Z" fill="black"/>
<path fill-rule="evenodd" clip-rule="evenodd" d="M132.594 54.6123C133.372 55.7741 133.043 56.4687 133.843 57.5799C134.273 58.1771 135.712 58.9495 136.691 58.9495H137.173C137.133 57.135 135.851 55.0942 134.04 55.0942H133.678C133.746 55.9028 134.691 57.2031 135.366 57.3832C134.998 56.8348 134.421 56.4766 134.401 55.5761C135.596 56.2079 136.426 56.6149 136.571 58.3471C135.496 58.3471 134.444 57.7018 134.038 57.0243C133.503 56.1336 133.769 54.9259 132.594 54.6123Z" fill="black"/>
<path fill-rule="evenodd" clip-rule="evenodd" d="M87.7627 55.5759C87.7627 54.8993 87.5654 54.6424 87.1602 54.3711C87.2078 54.7414 87.2807 54.8041 87.2807 55.2145V56.0578C87.2807 57.4827 88.8706 59.1902 90.173 59.1902H90.6551L90.5485 57.5024C90.427 56.2215 89.182 54.9611 87.8833 54.8531C87.9061 55.8758 88.8325 57.6679 89.5704 57.8649C89.1188 57.1907 88.5121 56.7574 88.4858 55.5759C89.4355 55.7971 90.173 57.0241 90.173 58.2264V58.5878C89.0184 58.4917 87.7627 57.3145 87.7627 56.0578V55.5759Z" fill="black"/>
<path fill-rule="evenodd" clip-rule="evenodd" d="M121.024 60.8773C123.761 60.8773 123.609 58.8342 125.001 57.6245C122.976 57.793 124.246 60.3954 120.663 60.3954C120.385 60.3954 120.301 60.3116 120.301 60.034C120.301 59.8395 121.074 58.9249 121.31 58.7534C121.796 58.3993 122.146 58.2269 122.952 58.2269C122.644 59.3825 121.666 59.3556 121.024 59.9135C122.024 59.8304 123.717 58.6891 123.796 57.745H122.952C121.282 57.745 119.701 59.2846 119.578 60.7569C119.955 60.7883 120.006 60.8773 120.422 60.8773H121.024Z" fill="black"/>
<path fill-rule="evenodd" clip-rule="evenodd" d="M86.9187 58.3472C86.9611 58.442 87.0392 58.7956 87.0392 58.9496V59.07C87.0392 59.7946 86.6777 60.032 86.6777 60.7567C86.6777 62.4245 87.8998 63.9457 89.2085 64.2505C89.2635 63.59 89.57 62.8631 89.57 62.2024C89.57 60.9061 88.6758 59.5517 87.6418 59.3109V60.6362C87.6418 61.2662 88.0055 62.1801 88.3649 62.4434C88.2652 62.0159 88.0034 61.6005 88.0034 61.2386V60.1543C88.4951 60.2856 89.1569 61.3184 89.0879 61.9615L88.9397 63.5246C88.0904 63.2935 87.1597 62.1225 87.1597 60.9976V60.8771C87.1597 60.2194 87.4008 60.2097 87.4008 59.5519V59.3109C87.4008 58.8545 87.1864 58.5432 86.9187 58.3472Z" fill="black"/>
<path fill-rule="evenodd" clip-rule="evenodd" d="M122.954 63.1664C122.954 61.7893 124.219 60.544 125.484 60.5158V61.2387C125.484 62.0998 124.462 63.2243 123.677 63.4073C123.698 62.4596 124.257 62.1354 124.4 61.6001C123.793 62.0066 123.096 63.0292 123.074 64.0096C125.127 64.0096 126.087 61.9568 126.087 59.793C124.489 59.8286 122.471 61.2894 122.471 62.8049V63.6483C122.471 64.0859 122.328 64.0708 122.23 64.4915C122.614 64.2347 122.954 63.9246 122.954 63.2868V63.1664Z" fill="black"/>
<path fill-rule="evenodd" clip-rule="evenodd" d="M91.1367 57.6245C92.2526 58.5941 91.8365 58.9367 92.5499 59.7056C93.0511 60.2459 93.8906 60.8773 94.8726 60.8773H95.7163C96.1317 60.8773 96.1829 60.7883 96.5599 60.7569C96.4367 59.2777 94.8697 57.745 93.1855 57.745H92.3419C92.4205 58.6891 94.1142 59.8304 95.1136 59.9135C94.404 59.2968 93.484 59.3446 93.1855 58.2269C94.614 58.2269 95.6989 59.2868 95.9573 60.3954H95.2342C92.1317 60.3954 93.0437 57.7832 91.1367 57.6245Z" fill="black"/>
<path fill-rule="evenodd" clip-rule="evenodd" d="M132.834 60.3955C132.834 59.8431 133.195 59.7124 133.195 58.9498V58.7088C133.195 58.3158 133.133 58.312 132.954 58.1064C132.954 59.4203 132.352 59.486 132.352 60.516V60.757C132.352 62.1214 133.351 63.792 134.521 63.8893C134.659 63.298 135.003 62.9306 135.003 62.2026V61.2389C135.003 60.2563 134.21 59.1564 133.436 58.9498C133.405 59.3266 133.316 59.3778 133.316 59.7931V59.9136L133.425 61.1197C133.488 61.5544 133.639 61.9981 133.918 62.2026C133.818 61.7715 133.677 61.6366 133.677 61.1184V60.1546C133.677 59.922 133.715 59.94 133.798 59.7931C134.216 60.073 134.641 60.8982 134.641 61.6002V61.8412C134.641 62.4154 134.398 62.7778 134.28 63.2869C133.82 62.9793 132.834 61.9616 132.834 61.2389V60.3955Z" fill="black"/>
<path fill-rule="evenodd" clip-rule="evenodd" d="M81.7354 64.0098C82.6221 63.4162 83.7841 62.5591 83.7841 61.1184V60.516C83.7841 59.5682 83.1815 59.2529 83.1815 58.5883V58.1064C83.0029 58.312 82.9405 58.3158 82.9405 58.7088V58.9498C82.9405 59.6744 83.302 59.9118 83.302 60.6365V60.9979C83.302 61.9813 82.4465 62.8916 81.8559 63.2869C81.7735 62.9333 81.4944 62.2157 81.4944 61.9617V61.6002C81.4944 60.8982 81.9199 60.073 82.338 59.7931C82.4955 60.1107 82.4585 59.6939 82.4585 60.1546V60.8774C82.4585 61.6885 82.232 61.8638 82.097 62.4436C82.5497 62.112 82.82 60.9812 82.82 60.1546V59.7931C82.82 59.3778 82.7309 59.3266 82.6995 58.9498C81.9254 59.1564 81.1328 60.2563 81.1328 61.2389V61.9617C81.1328 62.8009 81.4448 63.4608 81.7354 64.0098Z" fill="black"/>
<path fill-rule="evenodd" clip-rule="evenodd" d="M129.097 58.9496C129.097 58.6241 129.155 58.6173 129.218 58.3472C128.95 58.5432 128.736 58.8545 128.736 59.3109V59.4314C128.736 60.1675 128.977 60.3518 128.977 60.9976C128.977 62.1413 128.053 63.2916 127.169 63.5276L127.021 62.2058C126.96 61.4928 127.559 60.3076 128.133 60.1543V61.2386C128.133 61.6005 127.871 62.0159 127.772 62.4434C128.131 62.1801 128.495 61.2662 128.495 60.6362V59.3109C127.594 59.5206 126.566 60.8489 126.566 61.9615C126.566 62.9155 126.865 63.4926 126.928 64.2505C128.301 63.9308 129.459 62.4041 129.459 60.6362C129.459 60.0554 129.097 59.7796 129.097 59.07V58.9496Z" fill="black"/>
<path fill-rule="evenodd" clip-rule="evenodd" d="M130.064 66.7806C130.988 66.5652 132.233 64.9339 132.233 63.8892V63.5278C132.233 62.6335 131.63 62.0627 131.63 61.4796V60.7568C131.433 60.9838 131.269 61.3001 131.269 61.7206C131.269 62.3044 131.751 62.7698 131.751 63.5278C131.751 64.6806 131 65.592 130.305 66.0577C130.203 65.8459 129.943 65.2503 129.943 64.9734V64.2506C129.943 63.5524 130.221 62.8353 130.787 62.6844L130.934 63.7647C130.969 64.1824 130.706 64.4886 130.666 64.9734C130.942 64.6558 131.148 64.2386 131.148 63.6483V62.082C131.148 61.8495 131.11 61.8675 131.028 61.7206C130.393 62.1453 129.461 63.0046 129.461 64.0096V64.371C129.461 65.248 129.778 66.1853 130.064 66.7806Z" fill="black"/>
<path fill-rule="evenodd" clip-rule="evenodd" d="M90.6553 60.5155C91.8143 60.5412 93.1861 61.7703 93.1861 62.925V63.0455L93.3272 64.0058L93.8882 64.5134C93.811 64.0705 93.6681 64.0855 93.6681 63.6479V63.166C93.6681 61.5002 92.0707 59.9131 90.5348 59.9131H90.0527V60.2745C90.0527 62.0815 91.2666 64.0093 93.0656 64.0093C93.0425 62.974 92.3776 62.0267 91.74 61.5997C91.8828 62.135 92.4419 62.4593 92.4629 63.4069C91.6773 63.2239 90.6553 62.0994 90.6553 61.2383V60.5155Z" fill="black"/>
<path fill-rule="evenodd" clip-rule="evenodd" d="M84.3883 63.6483C84.3883 62.9076 84.8704 62.2501 84.8704 61.6001C84.8704 61.274 84.6686 60.9405 84.5088 60.7568V61.4796C84.5088 62.0627 83.9062 62.6335 83.9062 63.5278C83.9062 64.86 85.0228 66.5354 86.0755 66.7806C86.3261 66.2586 86.6781 65.3671 86.6781 64.612V64.0096C86.6781 63.0046 85.7458 62.1453 85.1114 61.7206C84.9539 62.0382 84.9909 61.6214 84.9909 62.082V63.7687C84.9909 64.151 85.2905 64.7636 85.473 64.9734C85.4326 64.4886 85.1698 64.1824 85.232 63.7687L85.3669 62.6866C85.9176 62.8353 86.196 63.5524 86.196 64.2506V64.9734C86.196 65.2503 85.9363 65.8459 85.8345 66.0577C85.2126 65.6414 84.3883 64.6644 84.3883 63.6483Z" fill="black"/>
<path fill-rule="evenodd" clip-rule="evenodd" d="M111.865 45.4562V45.6971C110.471 46.718 108.98 52.6058 108.611 55.0943L108.324 57.2561C108.163 57.0247 107.527 53.8969 107.527 53.4076V53.1666C107.527 52.8502 107.09 50.9783 106.972 50.5889C106.735 49.8101 106.345 49.1193 106 48.4278C105.448 47.3217 104.37 45.5706 103.639 44.6442C102.717 43.4759 101.866 42.2569 100.973 41.044C100.212 40.0098 98.9914 38.5409 98.8496 37.0229L98.6945 35.4599L98.7291 35.0952L98.8269 33.6475L98.9845 32.5674C98.2608 33.0401 97.8855 34.3919 97.8855 35.5771V36.6615L98.0274 38.7077C97.1957 38.4932 96.0116 37.2638 94.8726 37.2638H93.9086C93.4931 37.2638 93.4419 37.3529 93.065 37.3843C93.347 37.6294 95.1871 38.2353 95.8825 38.6638C97.0091 39.3583 97.2713 39.798 98.1738 40.4694C99.2511 41.271 101.025 43.8639 101.742 45.0945C103.353 47.8592 105.237 53.4878 105.237 57.8652C104.681 57.4929 104.411 57.1435 103.958 56.6137C103.559 56.1474 103.153 55.8625 102.675 55.4871C101.842 54.8337 100.567 54.0996 99.5747 53.6465C97.5631 52.7274 94.4876 51.9062 91.7394 51.721L87.4039 51.4348L87.2804 51.48C85.2556 51.48 82.33 49.3493 81.0137 48.4681C81.0957 48.7754 82.3183 50.194 82.6104 50.4861C83.2729 51.1483 83.9672 51.5073 84.629 52.0824C83.3649 52.1105 81.2477 53.6158 81.0137 54.4919C81.5714 54.1969 82.9405 53.4076 83.6649 53.4076C84.2272 53.4076 84.3476 53.2372 84.9906 53.1666L87.7574 52.8794C89.2337 52.7644 93.2894 53.4969 94.4377 53.8425C96.6881 54.5198 97.6359 55.3926 99.2862 56.5855C100.355 57.358 101.835 59.7414 102.466 60.9969C103.281 62.621 103.921 64.5687 104.273 66.6601L104.559 68.4595L104.79 71.2345L104.623 74.2494L104.079 78.7145L104.032 78.9486C104.032 79.434 103.443 81.3322 103.307 81.8384C103.055 82.7728 102.671 83.7288 102.465 84.611L107.405 84.7608L113.432 84.7315L112.57 80.2778L111.799 74.4997L111.707 70.5168L111.744 70.1539L111.829 68.3444C112.225 62.734 113.616 60.8957 116.128 57.4287C117.829 55.0823 122.777 52.9257 126.809 52.9257H129.219C130.426 52.9257 131.716 53.2225 132.761 53.4805C133.577 53.6819 135.243 54.4785 135.847 54.4919V54.251C136.705 54.8252 136.723 56.6604 139.221 56.6604H139.462C140.039 56.6604 140.644 56.4839 141.029 56.2991C140.431 55.1695 139.465 53.6486 137.775 53.6486H137.655C137.184 53.6486 136.759 53.741 136.45 53.8895C136.962 54.6552 138.219 55.669 139.462 55.6967C138.676 55.0135 138.246 55.5527 137.293 54.1305H137.775C138.891 54.1305 140.074 55.1908 140.306 56.0582C139.929 56.0895 139.878 56.1786 139.462 56.1786H139.342C136.507 56.1786 137.13 53.7691 135.365 53.7691H135.124C134.586 52.9654 132.694 52.656 131.75 52.2029C131.981 51.8574 133.083 51.0674 133.529 50.6084C133.895 50.2324 134.634 49.1394 134.762 48.5886C133.95 49.1323 132.26 50.8776 131.147 50.8776C130.704 50.8776 129.799 51.2057 129.222 51.2419C124.958 51.51 120.023 52.222 116.203 54.1305C115.17 54.6468 114.352 55.1623 113.407 55.7923C112.965 56.0871 111.021 57.8577 111.021 57.0219C111.021 55.6473 111.723 51.0884 112.104 50.1532C112.944 48.0947 113.609 46.6348 114.782 44.8786C115.728 43.4613 117.016 41.4688 118.219 40.3634C118.993 39.6531 122.675 37.3575 122.832 37.1434C121.821 37.1434 121.166 37.3152 120.376 37.58C119.749 37.7902 118.834 38.3097 118.373 38.3481L118.518 37.7519L118.648 36.3036L118.614 35.2157C118.614 34.3577 118.147 33.1393 117.65 32.8062V34.8542L117.552 36.3021C117.336 38.4336 116.179 40.0245 115.143 41.3844C114.552 42.1608 112.435 45.039 111.865 45.4562Z" fill="black"/>
<path d="M41.9299 94.4804C42.1922 94.483 42.4116 94.5366 42.5856 94.6435C42.7623 94.748 42.8934 94.8844 42.9817 95.0504C43.07 95.2164 43.1155 95.393 43.1155 95.5803C43.1182 95.7677 43.0727 95.9444 42.9871 96.1103C42.8987 96.2762 42.7676 96.4126 42.591 96.5171C42.4143 96.6214 42.1948 96.6776 41.9299 96.6804C41.59 96.6804 41.2447 96.6804 40.8968 96.6804C40.5462 96.6804 40.2063 96.6804 39.8744 96.6804V94.4804H41.9299ZM39.8744 91.9431V90.5781H45.0774V88.0088H37V99.2497H41.946C42.5428 99.2443 43.0754 99.1586 43.541 98.9955C44.0041 98.8294 44.4029 98.6047 44.7348 98.3209C45.0666 98.0373 45.3343 97.7134 45.5323 97.3494C45.7304 96.9827 45.8642 96.6 45.9311 96.1959C45.998 95.7917 45.998 95.3876 45.9311 94.9835C45.8642 94.5821 45.7304 94.1966 45.5323 93.8327C45.3343 93.4714 45.0666 93.1475 44.7348 92.8638C44.4029 92.5801 44.0041 92.3553 43.541 92.192C43.0754 92.0287 42.5428 91.9458 41.946 91.9431H39.8744ZM66.5741 99.2497H69.3843V98.8322L64.3098 87.8643H63.0733L58.0149 98.8322V99.2497H60.8252L61.4835 97.8365H65.9157L66.5741 99.2497ZM64.9843 95.3796H62.4149L63.6835 92.4249L64.9843 95.3796ZM85.0197 99.2497V96.3752H87.0913C87.6881 96.3699 88.2207 96.2762 88.6863 96.0888C89.1494 95.9015 89.5482 95.6445 89.8801 95.3207C90.2119 94.9969 90.4796 94.6248 90.6776 94.21C90.8757 93.7925 91.0095 93.3536 91.0764 92.8905C91.1433 92.4302 91.1433 91.9671 91.0764 91.5041C91.0095 91.0411 90.8757 90.6022 90.6776 90.1847C90.4796 89.7672 90.2119 89.3978 89.8801 89.0713C89.5482 88.7448 89.1494 88.4879 88.6863 88.3005C88.2207 88.1105 87.6881 88.0141 87.0913 88.0088C86.2616 88.0088 85.4346 88.0088 84.6075 88.0088C83.7779 88.0088 82.9589 88.0088 82.1453 88.0088C82.1453 89.8877 82.1453 91.7637 82.1453 93.6345C82.1453 95.5081 82.1453 97.3789 82.1453 99.2497C82.619 99.2497 83.0954 99.2497 83.5772 99.2497C84.0562 99.2497 84.5379 99.2497 85.0197 99.2497ZM87.0752 93.7898H85.0197C85.0197 93.5597 85.0197 93.3053 85.0197 93.0297C85.0197 92.7567 85.0197 92.473 85.0197 92.184C85.0197 91.8949 85.0197 91.6112 85.0197 91.3382C85.0197 91.0626 85.0197 90.8083 85.0197 90.5781C85.3516 90.5755 85.6915 90.5755 86.0421 90.5728C86.39 90.5675 86.7353 90.5701 87.0752 90.5781C87.3134 90.5835 87.5168 90.645 87.6827 90.7601C87.8514 90.8779 87.9825 91.0305 88.0815 91.2205C88.1778 91.4132 88.2421 91.6219 88.2715 91.8494C88.301 92.0769 88.2983 92.3045 88.2608 92.5319C88.2261 92.7567 88.1565 92.9655 88.0548 93.1555C87.9557 93.3456 87.8219 93.4981 87.6586 93.6132C87.4954 93.7282 87.3 93.7871 87.0752 93.7898ZM112.876 91.4614C112.873 90.9715 112.782 90.5192 112.603 90.1017C112.423 89.6842 112.174 89.3202 111.853 89.0071C111.535 88.6939 111.163 88.4504 110.743 88.2737C110.32 88.0998 109.865 88.0115 109.375 88.0088H104.573V99.2497H109.841C110.416 99.247 110.919 99.1533 111.353 98.9713C111.789 98.7867 112.153 98.5351 112.445 98.2085C112.739 97.8847 112.961 97.51 113.111 97.0818C113.261 96.6535 113.336 96.1932 113.341 95.7008C113.341 95.1976 113.232 94.7506 113.009 94.3545C112.787 93.9584 112.45 93.6427 111.992 93.4044C112.174 93.2519 112.332 93.0672 112.463 92.8504C112.595 92.6337 112.696 92.4062 112.769 92.1653C112.838 91.9244 112.876 91.6889 112.876 91.4614ZM109.632 94.7855C109.825 94.7881 109.985 94.8363 110.114 94.9273C110.245 95.0183 110.341 95.136 110.408 95.2806C110.472 95.4251 110.504 95.5777 110.507 95.7409C110.507 95.9041 110.478 96.0567 110.413 96.2012C110.352 96.3458 110.255 96.4635 110.13 96.5546C110.001 96.6455 109.841 96.6937 109.648 96.6964H107.352V94.7855H109.632ZM109.15 90.5781C109.343 90.5808 109.503 90.6263 109.632 90.712C109.76 90.8003 109.857 90.91 109.921 91.0492C109.985 91.1857 110.017 91.3302 110.02 91.4855C110.02 91.638 109.988 91.7852 109.926 91.9217C109.862 92.0582 109.768 92.1706 109.64 92.2589C109.514 92.3446 109.356 92.39 109.166 92.3928H107.352V90.5781H109.15ZM133.585 93.7256V99.2497C134.083 99.2497 134.581 99.2497 135.076 99.2497C135.574 99.2497 136.066 99.2497 136.556 99.2497V87.9606H135.513L129.828 93.5088V88.0088C128.848 88.0088 127.869 88.0088 126.889 88.0088V99.2497H127.917L133.585 93.7256ZM154.729 95.7169L156.784 99.2497H159.884V98.8161L156.239 93.292L159.482 88.4424V88.0088H156.511L154.713 90.9314H154.633L152.85 88.0088H149.863V88.4424L153.107 93.292L149.478 98.8161V99.2497H152.577L154.633 95.7169H154.729ZM179.951 99.2497H182.762V98.8322L177.687 87.8643H176.451L171.392 98.8322V99.2497H174.202L174.861 97.8365H179.293L179.951 99.2497ZM178.362 95.3796H175.792L177.061 92.4249L178.362 95.3796Z" fill="black"/>
<path d="M64.9808 105.5C64.7889 105.5 64.6 105.5 64.4122 105.5C64.2243 105.5 64.0365 105.5 63.8477 105.5V109.907C64.2956 109.907 64.7501 109.907 65.2097 109.907C65.6681 109.907 66.1256 109.907 66.58 109.907C66.58 109.782 66.58 109.667 66.58 109.561C66.58 109.454 66.58 109.347 66.58 109.24C66.58 109.134 66.58 109.019 66.58 108.894H64.9808C64.9808 108.687 64.9808 108.508 64.9808 108.359C64.9808 108.208 64.9808 108.079 64.9808 107.971C64.9808 107.863 64.9808 107.769 64.9808 107.687C64.9808 107.605 64.9808 107.529 64.9808 107.457C64.9808 107.386 64.9808 107.311 64.9808 107.236C64.9808 107.159 64.9808 107.073 64.9808 106.976C64.9808 106.879 64.9808 106.765 64.9808 106.631C64.9808 106.498 64.9808 106.34 64.9808 106.155C64.9808 105.97 64.9808 105.752 64.9808 105.5ZM84.4367 107.71C84.4357 107.406 84.3926 107.131 84.3098 106.887C84.2269 106.644 84.1125 106.43 83.9666 106.247C83.8208 106.065 83.6519 105.913 83.4609 105.79C83.2689 105.668 83.0642 105.577 82.846 105.516C82.6267 105.455 82.4042 105.425 82.1766 105.425C81.9489 105.425 81.7264 105.455 81.5071 105.516C81.2889 105.577 81.0843 105.668 80.8933 105.79C80.7013 105.913 80.5323 106.065 80.3865 106.247C80.2406 106.43 80.1263 106.644 80.0433 106.887C79.9604 107.131 79.9185 107.406 79.9164 107.71C79.9185 108.015 79.9604 108.29 80.0433 108.535C80.1263 108.778 80.2406 108.992 80.3865 109.176C80.5323 109.359 80.7013 109.512 80.8933 109.633C81.0843 109.756 81.2889 109.848 81.5071 109.908C81.7264 109.969 81.9489 110 82.1766 110C82.4042 110 82.6267 109.969 82.846 109.908C83.0642 109.848 83.2689 109.756 83.4609 109.633C83.6519 109.512 83.8208 109.359 83.9666 109.176C84.1125 108.992 84.2269 108.779 84.3098 108.535C84.3926 108.29 84.4357 108.015 84.4367 107.71ZM81.0748 107.71C81.0759 107.512 81.1084 107.339 81.1693 107.19C81.2311 107.041 81.3151 106.917 81.4201 106.817C81.525 106.719 81.6435 106.644 81.7736 106.595C81.9048 106.545 82.0401 106.52 82.1797 106.52C82.3193 106.52 82.4546 106.545 82.5857 106.595C82.7169 106.644 82.8345 106.719 82.9394 106.817C83.0443 106.917 83.1283 107.041 83.1902 107.19C83.2521 107.339 83.2836 107.512 83.2846 107.71C83.2836 107.91 83.2521 108.085 83.1902 108.235C83.1283 108.385 83.0443 108.51 82.9394 108.609C82.8345 108.709 82.7169 108.785 82.5857 108.835C82.4546 108.884 82.3193 108.909 82.1797 108.909C82.0401 108.909 81.9048 108.884 81.7736 108.835C81.6435 108.785 81.525 108.709 81.4201 108.609C81.3151 108.51 81.2311 108.385 81.1693 108.235C81.1084 108.085 81.0759 107.91 81.0748 107.71ZM99.8256 108.957C99.7427 108.957 99.6618 108.946 99.5821 108.923C99.5023 108.901 99.431 108.869 99.366 108.823C99.3009 108.779 99.2495 108.724 99.2107 108.657C99.1729 108.589 99.1529 108.512 99.1519 108.422V105.5C98.9746 105.5 98.7951 105.5 98.6136 105.5C98.4321 105.5 98.2527 105.5 98.0754 105.5V108.44C98.0764 108.635 98.1079 108.812 98.1708 108.971C98.2338 109.132 98.3209 109.274 98.4321 109.397C98.5434 109.521 98.6734 109.626 98.8203 109.711C98.9683 109.796 99.1268 109.86 99.2978 109.904C99.4688 109.948 99.6441 109.97 99.8256 109.97C100.008 109.97 100.184 109.948 100.355 109.904C100.525 109.86 100.685 109.796 100.831 109.711C100.978 109.626 101.107 109.521 101.217 109.397C101.327 109.274 101.413 109.132 101.475 108.971C101.537 108.812 101.568 108.635 101.569 108.44V105.5C101.393 105.5 101.214 105.5 101.033 105.5C100.853 105.5 100.673 105.5 100.493 105.5V108.422C100.492 108.512 100.473 108.589 100.435 108.657C100.397 108.724 100.346 108.779 100.282 108.823C100.218 108.869 100.147 108.901 100.068 108.923C99.9892 108.946 99.9085 108.957 99.8256 108.957ZM118.885 109.907H119.288V105.5C118.904 105.5 118.52 105.5 118.136 105.5V107.657L115.907 105.481H115.498V109.907C115.69 109.907 115.883 109.907 116.078 109.907C116.272 109.907 116.467 109.907 116.662 109.907V107.742L118.885 109.907ZM132.97 107.704C132.974 108.005 133.017 108.276 133.101 108.516C133.185 108.756 133.3 108.967 133.446 109.148C133.593 109.327 133.762 109.477 133.953 109.598C134.143 109.717 134.348 109.808 134.565 109.867C134.784 109.927 135.005 109.958 135.231 109.958C135.435 109.958 135.637 109.935 135.836 109.888C136.035 109.841 136.222 109.768 136.399 109.666C136.576 109.565 136.732 109.434 136.87 109.273C137.006 109.111 137.115 108.915 137.195 108.686C137.244 108.543 137.28 108.401 137.3 108.259C137.321 108.117 137.331 107.975 137.333 107.831C137.334 107.687 137.33 107.542 137.321 107.395H135.237V108.371H136.175C136.108 108.511 136.03 108.62 135.941 108.699C135.852 108.778 135.749 108.834 135.632 108.866C135.515 108.898 135.382 108.914 135.231 108.913C135.007 108.912 134.813 108.861 134.65 108.761C134.487 108.662 134.36 108.522 134.27 108.342C134.181 108.161 134.136 107.948 134.135 107.704C134.135 107.534 134.159 107.375 134.206 107.227C134.254 107.08 134.323 106.949 134.416 106.837C134.509 106.725 134.623 106.637 134.759 106.573C134.896 106.51 135.052 106.477 135.231 106.476C135.453 106.474 135.639 106.515 135.789 106.599C135.939 106.682 136.06 106.817 136.15 107.005H137.258C137.214 106.786 137.144 106.592 137.05 106.423C136.956 106.253 136.841 106.107 136.707 105.984C136.574 105.861 136.427 105.759 136.266 105.681C136.106 105.601 135.938 105.542 135.761 105.503C135.586 105.465 135.409 105.445 135.231 105.444C135.005 105.444 134.784 105.474 134.565 105.534C134.348 105.595 134.143 105.685 133.953 105.806C133.762 105.926 133.593 106.077 133.446 106.258C133.3 106.439 133.185 106.65 133.101 106.891C133.017 107.132 132.974 107.403 132.97 107.704ZM153.799 105.5C153.543 105.5 153.301 105.5 153.077 105.5C152.851 105.5 152.632 105.5 152.418 105.5C152.205 105.5 151.986 105.5 151.762 105.5C151.54 105.5 151.3 105.5 151.048 105.5C151.048 106.231 151.048 106.964 151.048 107.699C151.048 108.434 151.048 109.171 151.048 109.907C151.302 109.907 151.543 109.907 151.772 109.907C152 109.907 152.226 109.907 152.446 109.907C152.668 109.907 152.894 109.907 153.124 109.907C153.355 109.907 153.598 109.907 153.855 109.907C153.855 109.74 153.855 109.573 153.855 109.405C153.855 109.237 153.855 109.07 153.855 108.906C153.692 108.906 153.541 108.906 153.404 108.906C153.267 108.906 153.135 108.906 153.007 108.906C152.88 108.906 152.747 108.906 152.612 108.906C152.477 108.906 152.329 108.906 152.168 108.906C152.168 108.774 152.168 108.645 152.168 108.517C152.168 108.389 152.168 108.261 152.168 108.132H153.667C153.667 107.798 153.667 107.465 153.667 107.131H152.168V106.508C152.329 106.508 152.474 106.508 152.605 106.508C152.735 106.508 152.861 106.508 152.981 106.508C153.102 106.508 153.228 106.508 153.359 106.508C153.49 106.508 153.637 106.508 153.799 106.508C153.799 106.338 153.799 106.168 153.799 105.999C153.799 105.831 153.799 105.664 153.799 105.5Z" fill="black"/>
</svg>
