<svg width="220" height="120" viewBox="0 0 220 120" fill="none" xmlns="http://www.w3.org/2000/svg">
<path d="M130.004 58.9824L129.707 58.6253C132.176 57.4951 133.099 56.6914 133.099 55.8878C133.099 55.3227 132.831 55.2922 132.652 55.2922C132.355 55.2922 132.206 55.9172 130.748 55.9172C129.438 55.9172 128.754 55.4708 128.754 54.7271C128.754 54.0128 129.944 53.4771 131.165 53.4771C132.95 53.4771 134.29 54.1315 134.29 55.5013C134.29 56.9593 131.998 58.2387 130.004 58.9836V58.9824Z" fill="black"/>
<path d="M186.843 62.4342C186.872 61.1254 187.171 60.1432 187.794 59.5476C188.419 58.9225 189.431 58.6253 190.801 58.6253C192.17 58.6253 193.181 58.9531 193.777 59.5476C194.402 60.1726 194.73 61.1243 194.73 62.4342C194.73 63.8029 194.402 64.7851 193.777 65.3807C193.152 65.9764 192.14 66.2736 190.741 66.2736C189.402 66.2736 188.419 65.9764 187.794 65.3807C187.169 64.7557 186.843 63.7735 186.843 62.4342ZM183.539 62.4342C183.568 63.8334 184.193 64.9343 185.562 65.7673C186.902 66.6308 188.627 67.0467 190.8 67.0467C192.941 67.0467 194.669 66.6308 195.977 65.7673C197.346 64.9343 198 63.8029 198 62.4342C197.971 61.0949 197.346 59.994 196.007 59.161C194.667 58.2975 192.912 57.8511 190.8 57.8511C188.627 57.8511 186.871 58.2975 185.562 59.161C184.193 59.994 183.539 61.0949 183.539 62.4342Z" fill="black"/>
<path d="M173.659 66.7494H181.754V65.9752L180.325 65.9153C179.878 65.9153 179.581 65.8859 179.461 65.7661C179.283 65.6768 179.223 65.5276 179.223 65.2303V53L173.568 53.2373V53.9517C173.718 53.9517 173.866 53.9517 174.104 53.9517C174.283 53.9517 174.461 53.9517 174.521 53.9517C175.265 53.9517 175.711 53.981 175.95 54.1009C176.158 54.1901 176.307 54.3981 176.307 54.6965V65.2315C176.248 65.5287 176.188 65.6779 176.07 65.7672C175.92 65.8859 175.623 65.9164 175.206 65.9164L173.659 65.9763V66.7505V66.7494Z" fill="black"/>
<path d="M161.607 62.4342C161.637 61.1254 161.935 60.1432 162.56 59.5476C163.185 58.9225 164.197 58.6253 165.565 58.6253C166.934 58.6253 167.946 58.9531 168.541 59.5476C169.166 60.1726 169.494 61.1243 169.494 62.4342C169.494 63.8029 169.166 64.7851 168.541 65.3807C167.916 65.9764 166.905 66.2736 165.536 66.2736C164.167 66.2736 163.185 65.9764 162.56 65.3807C161.935 64.7557 161.607 63.7735 161.607 62.4342ZM158.305 62.4342C158.334 63.8334 158.959 64.9343 160.329 65.7673C161.668 66.6308 163.394 67.0467 165.566 67.0467C167.709 67.0467 169.435 66.6308 170.744 65.7673C172.113 64.9343 172.798 63.8029 172.798 62.4342C172.768 61.0949 172.113 59.994 170.775 59.161C169.435 58.2975 167.68 57.8511 165.566 57.8511C163.394 57.8511 161.638 58.2975 160.329 59.161C158.96 59.994 158.305 61.0949 158.305 62.4342Z" fill="black"/>
<path d="M143.662 55.0843C143.692 54.7271 143.781 54.4886 144.02 54.37C144.228 54.2513 144.705 54.1914 145.33 54.1914H147.502C149.346 54.1914 150.656 54.3994 151.46 54.8458C152.323 55.3216 152.71 56.0359 152.71 57.0475C152.681 58.1484 152.174 58.8932 151.163 59.3385C150.121 59.7556 148.247 59.9929 145.539 59.9929C145.181 59.9635 144.854 59.9635 144.527 59.9635C144.199 59.9341 143.931 59.9341 143.664 59.9341V55.0843H143.662ZM136.759 66.7495H147.353V65.886H145.33C144.675 65.886 144.198 65.8261 143.99 65.678C143.752 65.5593 143.662 65.3209 143.662 64.9637V60.7976C144.228 60.8282 144.794 60.8282 145.299 60.8575C145.864 60.8575 146.4 60.8575 146.876 60.8575C150.09 60.8575 152.47 60.5298 154.047 59.9059C155.654 59.2515 156.427 58.2987 156.427 57.0486C156.427 55.8879 155.802 54.9656 154.523 54.3112C153.243 53.6568 151.458 53.3584 149.167 53.3584H136.758V54.2219H138.424C139.109 54.2219 139.584 54.2818 139.792 54.4005C140.031 54.5497 140.15 54.7576 140.15 55.1148V64.9648C140.15 65.322 140 65.5899 139.792 65.6791C139.554 65.8283 139.108 65.8871 138.424 65.8871H136.758V66.7506L136.759 66.7495Z" fill="black"/>
<path d="M105.542 60.0527C105.542 61.0643 105.75 61.9571 106.167 62.7314C106.643 63.535 107.357 64.2493 108.28 64.9037C109.322 65.618 110.481 66.1831 111.761 66.5403C113.07 66.8974 114.498 67.076 116.105 67.076C117.682 67.076 119.141 66.868 120.421 66.5109C121.731 66.1831 122.921 65.618 123.932 64.9037C124.885 64.2493 125.539 63.535 125.955 62.7607C126.402 61.9571 126.61 61.0948 126.61 60.0527C126.579 59.0411 126.371 58.1482 125.895 57.3153C125.389 56.4529 124.645 55.7081 123.693 55.0536C122.681 54.3393 121.55 53.833 120.301 53.5063C119.051 53.1786 117.622 53 116.105 53C114.529 53 113.129 53.208 111.821 53.5357C110.541 53.8929 109.41 54.3992 108.428 55.083C107.476 55.7374 106.731 56.4811 106.285 57.3153C105.779 58.1788 105.541 59.0705 105.541 60.0527H105.542ZM109.53 60.0527C109.53 57.9697 110.036 56.4224 111.166 55.3803C112.238 54.3687 113.874 53.8624 116.106 53.8624C118.339 53.8918 120.005 54.3687 121.047 55.3803C122.118 56.3918 122.654 57.9697 122.654 60.0527C122.654 62.1063 122.118 63.6536 121.047 64.6946C119.946 65.7062 118.279 66.2125 116.106 66.2125C113.845 66.2125 112.238 65.7073 111.166 64.6946C110.035 63.683 109.53 62.1052 109.53 60.0527Z" fill="black"/>
<path d="M95.3944 64.3383L94.2337 64.0117C93.7872 64.6661 93.2515 65.1419 92.5666 65.4403C91.8828 65.7681 91.0792 65.9161 90.097 65.9161C88.6096 65.9161 87.5087 65.6189 86.7639 65.0232C86.0202 64.4276 85.6631 63.5053 85.6631 62.2847C85.6631 61.0945 86.0202 60.1722 86.6452 59.5472C87.3595 58.9222 88.3711 58.5944 89.681 58.5944C90.366 58.6238 90.9017 58.6543 91.347 58.773C91.7641 58.8917 91.9427 59.0409 91.9427 59.2195C91.9427 59.2794 91.7935 59.398 91.4363 59.606C91.1086 59.7846 90.9605 60.0524 90.9605 60.3203C90.9605 60.6176 91.1391 60.8854 91.4657 61.064C91.8522 61.2132 92.2987 61.3025 92.8638 61.3025C93.4888 61.3025 94.054 61.1838 94.4111 60.9747C94.8282 60.7362 95.0067 60.4096 95.0067 59.9925C95.0067 59.3969 94.5309 58.8917 93.5193 58.4746C92.5665 58.0587 91.347 57.8496 89.8291 57.8496C87.5675 57.8496 85.7817 58.2961 84.413 59.1889C83.0443 60.0524 82.3594 61.1827 82.3594 62.5819C82.3594 63.9213 83.0138 64.9927 84.2932 65.8257C85.6031 66.6293 87.2691 67.0452 89.3228 67.0452C90.8102 67.0452 92.0308 66.8068 93.013 66.3908C94.0246 65.9444 94.7988 65.2606 95.3944 64.3372V64.3383Z" fill="black"/>
<path d="M72.8073 65.2316V63.2379C72.8073 61.9878 73.2538 60.9469 74.0574 60.054C74.8904 59.1905 75.8431 58.7452 76.9734 58.7452H77.1813C76.9734 58.8639 76.8242 58.9531 76.7055 59.1023C76.5563 59.2515 76.5269 59.3996 76.5269 59.5488C76.5269 59.9059 76.7055 60.1444 77.0627 60.3524C77.4198 60.531 77.8663 60.6202 78.4314 60.6202C78.9965 60.5909 79.443 60.5016 79.8001 60.2925C80.1573 60.0845 80.3053 59.7861 80.3053 59.4595C80.3053 59.0131 80.0081 58.6265 79.4723 58.3293C78.9366 58.032 78.2223 57.8828 77.3599 57.8828C76.319 57.8828 75.3956 58.1202 74.5931 58.5666C73.7895 59.0131 73.1351 59.6968 72.6593 60.5604V57.9416L67.0352 58.1495V58.8932H68.0174C68.8504 58.8932 69.3567 58.9532 69.594 59.0424C69.8325 59.1317 69.9512 59.3397 69.9512 59.6076V65.2316C69.9218 65.5289 69.8619 65.7075 69.7433 65.7674C69.5941 65.886 69.2968 65.9166 68.8808 65.9166L67.363 65.9765V66.7507H75.8443V65.9765L73.8799 65.9166C73.4335 65.9166 73.1362 65.8872 73.047 65.7674C72.8978 65.6781 72.8084 65.5289 72.8084 65.2316H72.8073Z" fill="black"/>
<path d="M60.6373 65.5595C60.7864 66.0059 61.0837 66.3337 61.4996 66.5711C61.9754 66.8084 62.5711 66.9282 63.256 66.9282C63.9997 66.9282 64.6847 66.8095 65.2792 66.5711C65.9042 66.3032 66.1721 66.0353 66.1721 65.7968C66.1427 65.7076 66.1121 65.6476 66.0534 65.5889C65.9641 65.529 65.9042 65.4996 65.8149 65.4996C65.7256 65.529 65.4871 65.5595 65.2193 65.6183C64.922 65.7076 64.6541 65.7675 64.4755 65.7675C64.0585 65.7381 63.7907 65.6782 63.6121 65.5595C63.4041 65.3809 63.3148 65.173 63.3148 64.9051V60.6203C63.3148 59.6382 62.8389 58.9532 61.9754 58.5079C61.0826 58.0615 59.5952 57.8535 57.6014 57.8535C55.8462 57.8535 54.4175 58.092 53.2862 58.5678C52.1559 59.0143 51.5897 59.55 51.5897 60.2349C51.6191 60.5921 51.7683 60.86 52.0961 61.0385C52.4238 61.1877 52.8703 61.277 53.4354 61.277C53.9711 61.277 54.3283 61.2171 54.6255 61.069C54.9228 60.8905 55.072 60.6531 55.072 60.3853C55.0121 60.1468 54.9227 59.9094 54.6854 59.7003C54.4469 59.4924 54.2989 59.3726 54.2989 59.3432C54.2989 59.1646 54.5668 59.0165 55.1025 58.8673C55.6089 58.7182 56.2632 58.6594 57.1256 58.6594C58.3757 58.6594 59.2086 58.8086 59.715 59.0459C60.1908 59.3138 60.4587 59.7896 60.4587 60.444V61.3075C56.9775 61.6647 54.5374 62.1111 53.0195 62.6469C51.5015 63.1826 50.7578 63.8969 50.7578 64.7898C50.7872 65.4747 51.1737 66.0398 51.9186 66.4264C52.7222 66.8434 53.7643 67.0514 55.0731 67.0514C56.1739 67.0514 57.216 66.9327 58.1971 66.6649C59.2392 66.3676 60.0416 66.0105 60.6373 65.564V65.5595ZM60.4587 62.1077V63.3578C60.4587 64.1908 60.0721 64.8452 59.3284 65.3221C58.5847 65.7686 57.5427 66.0365 56.2633 66.0365C55.4303 66.0059 54.8346 65.8873 54.4187 65.6499C54.0016 65.382 53.823 65.0249 53.823 64.5185C53.823 63.8641 54.3283 63.3578 55.3997 62.9419C56.4712 62.5847 58.1372 62.2874 60.4587 62.1089V62.1077Z" fill="black"/>
<path d="M26.2963 54.5487L33.7061 66.7496H34.9268L41.8608 54.5487V64.9638C41.8608 65.321 41.7116 65.5889 41.5036 65.6782C41.2957 65.8274 40.8493 65.8861 40.2242 65.8861H38.3492V66.7496H48.3778V65.8861H46.7412C46.0868 65.8861 45.6697 65.8262 45.4324 65.6782C45.2244 65.5595 45.1351 65.321 45.1351 64.9638V55.1138C45.1351 54.7567 45.2244 54.5182 45.4324 54.3995C45.7003 54.2808 46.0868 54.2209 46.7412 54.2209H48.3778V53.3574H40.8187L35.0161 63.594L29.0054 53.3574H21.269V54.2209H23.0842C23.768 54.2209 24.1556 54.2808 24.393 54.3995C24.6009 54.5487 24.7207 54.7567 24.7207 55.1138V63.5657C24.7207 64.5174 24.4822 65.1729 23.9465 65.4702C23.4108 65.7675 22.4591 65.946 21 65.946V66.7496H29.9865V65.946C28.5285 65.9166 27.5757 65.7675 27.0705 65.4702C26.5642 65.113 26.2963 64.488 26.2963 63.5657V54.5487Z" fill="black"/>
</svg>
