<svg width="180" height="71" viewBox="0 0 180 71" fill="none" xmlns="http://www.w3.org/2000/svg">
<path d="M108.077 1.91902C108.733 1.26164 109.468 0.687924 110.094 0C108.851 2.27891 107.278 4.36659 105.567 6.30818C101.932 10.3056 97.3156 13.3548 92.2904 15.2791C89.7962 16.1914 87.2295 16.9259 84.6061 17.3508C78.1134 18.3774 71.4057 17.9458 65.0701 16.2087L65.0767 16.1436C72.8467 16.72 80.7712 16.0825 88.2153 13.6868C92.2323 12.3986 96.0791 10.5831 99.6368 8.30555C102.659 6.47286 105.41 4.23246 108.077 1.91902Z" fill="white"/>
<path d="M40.0444 28.5906C41.7375 28.3436 43.4702 28.394 45.1501 28.7221C47.0636 29.1205 48.886 30.0182 50.2901 31.3994C52.0254 33.0249 53.0257 35.3211 53.3477 37.6598C53.766 40.523 53.3372 43.5974 51.7694 46.0623C50.6979 47.798 49.0417 49.1234 47.1929 49.9415C45.1342 50.7967 42.8539 51.0305 40.6488 50.7994C37.9936 50.5723 35.4111 49.3651 33.6164 47.3664C32.0196 45.5775 31.1289 43.2242 30.9547 40.8391C30.7118 38.1073 31.2226 35.2215 32.7969 32.9399C34.4095 30.4923 37.1742 28.9465 40.0444 28.5906ZM40.7873 32.3941C39.019 32.6504 37.314 33.6425 36.385 35.2056C35.2514 37.0223 35.1129 39.2787 35.4164 41.353C35.7067 43.3 36.8192 45.1738 38.5875 46.0955C40.1499 46.8564 41.9526 47.0317 43.6562 46.7675C45.319 46.5576 46.9118 45.6639 47.8725 44.2694C48.9256 42.6824 49.2383 40.7023 49.1103 38.8284C48.9493 37.0608 48.3687 35.2321 47.0491 33.9904C45.3823 32.4565 42.9621 32.0355 40.7873 32.3941Z" fill="white"/>
<path d="M96.2206 28.5116C98.5708 28.2858 101.012 28.5448 103.17 29.5567C105.296 30.5913 107.087 32.3748 108.005 34.578C108.733 36.2102 108.979 38.007 109.041 39.78C108.972 42.0217 108.459 44.3126 107.2 46.1931C106.225 47.7256 104.78 48.9156 103.172 49.727C100.645 50.9302 97.7329 51.1201 95.0065 50.6354C92.8093 50.2184 90.7506 49.1081 89.2198 47.4667C87.7168 45.8079 86.7904 43.6552 86.5317 41.4307C86.186 38.6657 86.566 35.7109 88.0678 33.323C89.1116 31.5634 90.7533 30.1902 92.6206 29.392C93.7581 28.8874 94.9893 28.6351 96.2206 28.5116ZM96.9688 32.3058C95.248 32.4372 93.5258 33.1557 92.3989 34.501C90.6992 36.606 90.4524 39.5728 91.0964 42.1306C91.5385 43.8982 92.7446 45.5051 94.4219 46.2449C96.1493 46.9713 98.0997 47.0417 99.9129 46.6287C101.487 46.2276 102.939 45.2156 103.698 43.7468C104.66 42.031 104.739 39.9871 104.538 38.0708C104.253 36.3071 103.454 34.4997 101.927 33.489C100.5 32.4744 98.6804 32.173 96.9688 32.3058Z" fill="white"/>
<path d="M18.1108 28.8173C19.4872 28.8133 20.8636 28.8146 22.2413 28.816C22.2347 36.0285 22.2584 43.2424 22.2294 50.455C20.952 50.4763 19.6403 50.471 18.417 50.0513C16.5536 49.3634 14.9635 48.0831 13.6293 46.6289C11.2275 44.1256 9.36684 41.1747 7.29896 38.4017C6.28547 37.0963 5.30893 35.7244 4.00776 34.6899C3.98929 39.9436 4.02492 45.1973 3.99061 50.451C2.6604 50.4617 1.3302 50.4537 0 50.4563V28.8133C1.00557 28.8438 2.04941 28.7017 3.01407 29.0643C4.71113 29.6526 6.07037 30.8917 7.29632 32.1693C10.3803 35.4522 12.7227 39.3367 15.6167 42.779C16.3649 43.6701 17.1725 44.5213 18.1016 45.2252C18.1148 39.7563 18.0963 34.2875 18.1108 28.8173Z" fill="white"/>
<path d="M140.331 28.8099C145.53 28.8245 150.731 28.8006 155.931 28.8219C155.961 30.1154 155.935 31.4089 155.944 32.7024C154.641 32.8206 153.327 32.7237 152.02 32.7555C149.5 32.7781 146.975 32.7091 144.459 32.7901C144.473 34.3412 144.456 35.8924 144.468 37.4435C148.013 37.486 151.559 37.4369 155.103 37.4688C155.13 38.7596 155.114 40.0531 155.112 41.3453C153.997 41.4436 152.878 41.332 151.762 41.3586C149.562 41.3719 147.365 41.3626 145.166 41.3639C144.927 41.3705 144.691 41.3958 144.459 41.4316C144.508 42.7756 144.275 44.267 145.053 45.4556C145.797 46.5632 147.242 46.7438 148.461 46.8394C150.969 46.9191 153.485 46.8128 155.965 46.4104C155.946 47.6867 155.995 48.9669 155.941 50.2405C154.607 50.5619 153.233 50.6827 151.87 50.8248C149.679 50.9112 147.449 50.9855 145.303 50.453C143.692 50.0559 142.132 49.1236 141.3 47.6402C140.492 46.2258 140.314 44.5618 140.299 42.9602C140.297 38.6653 140.299 34.3704 140.298 30.0756C140.295 29.6532 140.285 29.2296 140.331 28.8099Z" fill="white"/>
<path d="M164.89 28.8194C166.285 28.8247 167.682 28.7835 169.077 28.8406C169.077 33.6362 169.077 38.4317 169.077 43.2273C169.073 44.0347 169.182 44.878 169.614 45.5752C170.068 46.2937 170.924 46.631 171.726 46.7705C174.484 47.0268 177.256 46.7386 180 46.4464V50.2738C178.087 50.6284 176.148 50.8396 174.203 50.8688C172.357 50.9113 170.443 50.8874 168.706 50.1756C167.842 49.8475 167.042 49.3243 166.449 48.6085C165.566 47.4929 165.12 46.0865 164.99 44.6801C164.836 43.6257 164.903 42.5579 164.889 41.4981C164.889 37.271 164.887 33.0452 164.89 28.8194Z" fill="white"/>
<path d="M58.5413 28.8284C60.1182 28.8191 61.6939 28.831 63.2709 28.8231C65.542 33.774 67.6758 38.79 69.943 43.7422C72.1943 38.782 74.3361 33.7687 76.6112 28.8177C78.2 28.8377 79.7889 28.8164 81.3777 28.8297C77.9202 36.1007 74.4021 43.3438 70.9169 50.6029C70.2623 50.6122 69.6091 50.6122 68.9559 50.6029C65.4852 43.3452 61.9935 36.0954 58.5413 28.8284Z" fill="white"/>
<path d="M113.705 28.8348C120.256 28.8189 126.806 28.8295 133.358 28.8295C133.361 30.0726 133.356 31.3169 133.361 32.5613C130.777 32.5932 128.193 32.5653 125.609 32.5759C125.6 38.5348 125.607 44.4924 125.607 50.4513C124.222 50.4779 122.838 50.4473 121.454 50.4686C121.356 50.0064 121.385 49.535 121.387 49.0675C121.385 43.5707 121.385 38.0753 121.387 32.5786C118.822 32.552 116.257 32.6144 113.696 32.5467C113.692 31.309 113.676 30.0712 113.705 28.8348Z" fill="white"/>
<path d="M115.698 63.6332C116.727 63.3184 117.866 63.4393 118.866 63.8098C118.862 64.0528 118.862 64.2972 118.864 64.5416C117.876 64.268 116.757 63.8709 115.786 64.4034C115.089 64.7594 115.109 65.9108 115.814 66.2481C116.747 66.7262 117.899 66.7222 118.725 67.4261C119.676 68.3211 119.401 70.1366 118.201 70.6784C117.032 71.2176 115.629 71.0051 114.486 70.4885C114.486 70.2428 114.486 69.9985 114.488 69.7554C115.539 70.114 116.73 70.5044 117.803 70.0038C118.606 69.7063 118.755 68.4911 118.102 67.9679C117.213 67.3477 116.014 67.4407 115.147 66.7833C114.122 65.9493 114.459 64.0767 115.698 63.6332Z" fill="white"/>
<path d="M152.667 64.195C153.002 63.7328 153.57 63.5203 154.122 63.4818C154.95 63.4075 155.799 63.5097 156.579 63.8046C156.577 64.0489 156.577 64.2946 156.578 64.5416C155.596 64.2707 154.486 63.8749 153.516 64.3969C152.8 64.7435 152.82 65.9254 153.543 66.2561C154.502 66.7422 155.712 66.7236 156.521 67.5071C157.416 68.4593 157.012 70.1977 155.827 70.7077C154.679 71.2097 153.33 70.9853 152.213 70.5018C152.205 70.2362 152.189 69.9693 152.188 69.705C153.117 70.1114 154.175 70.4129 155.183 70.13C155.504 70.0344 155.842 69.883 156.028 69.5868C156.371 69.0702 156.272 68.2575 155.735 67.9122C154.88 67.3783 153.796 67.4115 152.953 66.8551C152.123 66.2681 152.038 64.9613 152.667 64.195Z" fill="white"/>
<path d="M35.3775 63.5653C36.1758 63.4179 37.0336 63.5533 37.7436 63.9518C38.695 64.4803 39.2387 65.5507 39.3549 66.6118C39.5145 67.8124 39.2308 69.1391 38.3651 70.0209C37.1154 71.3569 34.715 71.3264 33.5247 69.924C32.6524 68.9239 32.4703 67.4711 32.7223 66.2028C32.9823 64.8947 34.0327 63.7446 35.3775 63.5653ZM35.4355 64.2997C34.8932 64.4073 34.4022 64.7287 34.075 65.1749C33.241 66.3196 33.2423 67.9943 34.0011 69.1776C34.7889 70.4047 36.7195 70.5362 37.7146 69.5003C38.7399 68.4472 38.7848 66.7008 38.0999 65.4498C37.5773 64.5348 36.4569 64.0527 35.4355 64.2997Z" fill="white"/>
<path d="M71.1316 63.929C72.2309 63.2716 73.5822 63.516 74.7528 63.8347C74.7541 64.0883 74.7554 64.342 74.7607 64.5996C73.7802 64.2875 72.6334 64.0352 71.6648 64.504C70.9706 64.8427 71.034 65.9277 71.6608 66.3022C72.4856 66.8188 73.5281 66.8068 74.3542 67.3261C75.2239 67.844 75.4403 69.1402 74.8702 69.9583C74.473 70.5267 73.8026 70.8773 73.1217 70.949C72.1715 71.0526 71.1857 70.9105 70.3267 70.4802C70.3293 70.2385 70.3306 69.9968 70.3333 69.7564C71.4008 70.1203 72.6162 70.5147 73.697 69.9795C74.4809 69.6488 74.5825 68.4191 73.8989 67.9357C73.0517 67.3872 71.9709 67.4137 71.1171 66.8799C70.1406 66.2318 70.1234 64.5585 71.1316 63.929Z" fill="white"/>
<path d="M84.9721 63.6651C85.7573 63.4048 86.6204 63.4738 87.3937 63.7461C87.3923 63.9772 87.3923 64.2082 87.395 64.4406C86.7404 64.2202 86.0278 64.1153 85.3522 64.3039C84.8626 64.4898 84.5036 65.0223 84.6 65.5589C84.6937 66.2149 85.2374 66.6611 85.6412 67.1406C86.1835 67.6864 86.7101 68.2534 87.2894 68.7634C87.4465 68.2096 87.4728 67.6319 87.4029 67.0635C87.6312 67.0635 87.8595 67.0635 88.0878 67.0649C88.2435 67.8338 88.1749 68.6426 87.8437 69.3584C88.3359 69.8405 88.8215 70.3292 89.3085 70.8166C88.9654 70.8166 88.6236 70.8166 88.2831 70.8179C87.9954 70.5337 87.7104 70.2468 87.4214 69.9653C86.747 70.7063 85.7019 71.037 84.7227 70.8923C83.828 70.8551 82.9227 70.203 82.8066 69.2721C82.6034 68.207 83.2421 67.122 84.1935 66.6638C83.8623 66.1312 83.6393 65.4805 83.8253 64.8563C83.9547 64.2826 84.4297 63.847 84.9721 63.6651ZM83.605 69.2442C83.6921 69.7183 84.1262 70.0397 84.5683 70.1552C85.401 70.3969 86.3525 70.114 86.9252 69.458C86.1532 68.709 85.4142 67.9228 84.629 67.1884C83.894 67.5522 83.4044 68.4221 83.605 69.2442Z" fill="white"/>
<path d="M125.817 63.6172C126.676 63.3941 127.624 63.5149 128.402 63.9425C129.318 64.4472 129.866 65.4538 130.008 66.4724C130.207 67.7168 129.934 69.1086 129.033 70.0263C127.775 71.3636 125.363 71.3224 124.181 69.9054C123.347 68.9346 123.16 67.5468 123.369 66.3171C123.593 65.0514 124.53 63.8788 125.817 63.6172ZM126.099 64.3024C124.964 64.5189 124.251 65.653 124.14 66.7474C124.051 67.7248 124.251 68.8058 124.962 69.5243C125.863 70.438 127.497 70.4141 128.39 69.5004C129.413 68.4419 129.459 66.6929 128.768 65.4406C128.241 64.5269 127.118 64.0528 126.099 64.3024Z" fill="white"/>
<path d="M22.6858 63.6446C22.9471 63.6432 23.2084 63.6432 23.4696 63.6446C23.4696 64.6844 23.4696 65.7243 23.4696 66.7641C24.8302 66.7654 26.1908 66.7654 27.5513 66.7641C27.5513 65.7243 27.5513 64.6844 27.5513 63.6446C27.8126 63.6432 28.0752 63.6432 28.3378 63.6446C28.3365 66.035 28.3391 68.4255 28.3365 70.816C28.0752 70.816 27.8126 70.816 27.5513 70.816C27.5513 69.7203 27.5513 68.6247 27.5513 67.5304C26.1908 67.5277 24.8302 67.5291 23.4696 67.5291C23.4696 68.6247 23.4696 69.7203 23.4683 70.816C23.207 70.816 22.9457 70.816 22.6845 70.816C22.6845 68.4255 22.6818 66.035 22.6858 63.6446Z" fill="white"/>
<path d="M42.4983 63.6446C44.4989 63.6433 46.4995 63.6446 48.5 63.6446C48.4987 63.8983 48.4974 64.1533 48.4974 64.4083C47.6291 64.4109 46.7607 64.4043 45.8924 64.4122C45.8951 66.5464 45.8924 68.6806 45.8937 70.8147C45.6351 70.816 45.3764 70.8174 45.1191 70.8227C45.0927 68.6845 45.1138 66.5464 45.1072 64.4096C44.2389 64.4083 43.3706 64.4069 42.5022 64.4096C42.5009 64.1546 42.4996 63.8996 42.4983 63.6446Z" fill="white"/>
<path d="M52.8252 68.1983C52.8332 66.679 52.8147 65.1584 52.8345 63.6392C54.2412 63.6511 55.648 63.6405 57.0547 63.6445C57.0534 63.8981 57.0534 64.1518 57.0547 64.4081C55.9079 64.4094 54.7612 64.4094 53.6144 64.4068C53.6118 65.1611 53.6078 65.9141 53.617 66.6684C54.7137 66.6631 55.8103 66.6631 56.9069 66.6684C56.9056 66.9207 56.9043 67.1744 56.9043 67.4294C55.8076 67.4294 54.7097 67.4294 53.6131 67.4294C53.6289 68.0403 53.5656 68.6578 53.6659 69.2647C53.7134 69.6592 54.0525 69.9726 54.4379 70.0244C55.3207 70.1771 56.2167 70.0217 57.1035 69.9859C57.1022 70.2249 57.1035 70.4666 57.1035 70.7083C56.0584 70.8225 54.9829 71.0084 53.9443 70.7468C53.5009 70.6485 53.1459 70.2926 52.9942 69.869C52.8002 69.3351 52.8279 68.7574 52.8252 68.1983Z" fill="white"/>
<path d="M62.218 63.7144C62.4766 63.7117 62.7366 63.7091 62.9966 63.7051C63.0203 65.5497 62.986 67.3957 63.0124 69.2403C63.0032 69.6069 63.1774 70.008 63.568 70.089C64.464 70.3028 65.393 70.1301 66.2996 70.085C66.297 70.3293 66.297 70.5763 66.2944 70.8234C65.2136 70.9323 64.0866 71.1182 63.0309 70.7676C62.4806 70.5777 62.2246 69.9748 62.2299 69.4263C62.2035 67.5232 62.2285 65.6188 62.218 63.7144Z" fill="white"/>
<path d="M96.1471 63.6455C97.088 63.6521 98.0289 63.6309 98.9698 63.6548C99.5597 63.6641 100.127 63.9323 100.543 64.348C101.324 65.1541 101.204 66.6495 100.299 67.3162C100.039 67.5326 99.7088 67.6296 99.396 67.7398C100.101 68.7637 100.804 69.789 101.501 70.8182C101.191 70.8169 100.882 70.8169 100.574 70.8182C99.8909 69.8368 99.1928 68.8647 98.5251 67.8726C97.9946 67.8554 97.4628 67.862 96.9336 67.8633C96.9323 68.8474 96.9323 69.8315 96.9323 70.8169C96.6697 70.8169 96.4084 70.8169 96.1471 70.8182C96.1458 68.4277 96.1471 66.0359 96.1471 63.6455ZM96.9824 64.4091C96.9824 65.2949 96.9824 66.1794 96.9824 67.0652C97.823 67.0081 98.7019 67.2006 99.5148 66.9257C100.51 66.5831 100.52 64.9416 99.5438 64.5711C98.7243 64.2763 97.8336 64.4596 96.9824 64.4091Z" fill="white"/>
<path d="M105.833 63.6455C107.244 63.6455 108.653 63.6455 110.064 63.6455C110.06 63.9005 110.056 64.1568 110.053 64.4131C108.909 64.4051 107.765 64.4105 106.622 64.4105C106.618 65.1621 106.617 65.9138 106.622 66.6655C107.719 66.6668 108.816 66.6668 109.914 66.6655C109.914 66.9204 109.914 67.1741 109.915 67.4304C108.817 67.4304 107.719 67.4304 106.621 67.4304C106.633 68.04 106.578 68.6549 106.671 69.2591C106.72 69.6496 107.047 69.9656 107.431 70.0214C108.318 70.1821 109.219 70.0214 110.11 69.9869C110.109 70.2273 110.109 70.469 110.11 70.712C109.003 70.8222 107.844 71.0467 106.761 70.6841C106.093 70.4278 105.854 69.6522 105.844 68.9935C105.824 67.2113 105.844 65.4277 105.833 63.6455Z" fill="white"/>
<path d="M134.205 63.6453C135.126 63.6506 136.048 63.6333 136.97 63.6519C137.634 63.6519 138.283 63.964 138.712 64.4727C139.22 65.1115 139.233 66.061 138.848 66.7635C138.554 67.2735 138.022 67.5882 137.466 67.7343C138.147 68.7729 138.869 69.7848 139.56 70.8167C139.246 70.8167 138.935 70.8167 138.623 70.814C137.939 69.826 137.252 68.8393 136.558 67.8592C136.04 67.8631 135.522 67.8645 135.005 67.8565C134.976 68.8432 135 69.83 134.991 70.8167C134.729 70.8167 134.468 70.8167 134.209 70.818C134.205 68.4276 134.212 66.0358 134.205 63.6453ZM134.994 64.4103C134.989 65.2947 134.991 66.1792 134.994 67.0637C135.836 67.0066 136.719 67.2044 137.532 66.9229C138.521 66.5723 138.526 64.9401 137.553 64.5696C136.734 64.2761 135.844 64.4594 134.994 64.4103Z" fill="white"/>
<path d="M142.613 63.6447C144.597 63.6447 146.581 63.6421 148.564 63.6474C148.562 63.8997 148.562 64.1547 148.563 64.4083C147.693 64.4083 146.825 64.4083 145.957 64.4083C145.954 66.5451 145.961 68.6806 145.954 70.8161C145.691 70.8161 145.431 70.8161 145.171 70.8174C145.16 68.6793 145.189 66.5412 145.157 64.403C144.31 64.4136 143.461 64.407 142.614 64.4083C142.611 64.1533 142.611 63.8984 142.613 63.6447Z" fill="white"/>
</svg>
