<svg width="32" height="33" viewBox="0 0 32 33" fill="none" xmlns="http://www.w3.org/2000/svg">
<path d="M19.8978 10.1247L17.1479 5.33775C16.6373 4.44894 15.3565 4.44468 14.8401 5.33008L11.9383 10.3046C11.5539 10.9635 10.9058 11.4262 10.1578 11.5758L6.19288 12.3688C5.16597 12.5742 4.76582 13.829 5.48425 14.5909L8.35202 17.6325C8.96525 18.2829 9.21181 19.1973 9.00869 20.0678L7.71064 25.6309C7.44381 26.7744 8.67861 27.6795 9.68884 27.0809L14.6411 24.1462C15.4794 23.6495 16.5218 23.6495 17.3601 24.1462L22.3124 27.0809C23.3226 27.6795 24.5574 26.7744 24.2906 25.6309L22.9811 20.0191C22.7843 19.1755 23.0095 18.2889 23.585 17.6415L26.4563 14.4113C27.1404 13.6417 26.731 12.42 25.7212 12.218L21.6871 11.4112C20.9331 11.2604 20.2809 10.7915 19.8978 10.1247Z" stroke="#B98D75" stroke-width="2" stroke-miterlimit="10"/>
</svg>
