<svg width="32" height="33" viewBox="0 0 32 33" fill="none" xmlns="http://www.w3.org/2000/svg">
<path d="M10.6667 19.3405L10.6667 16.6738M16 19.3405L16 11.3405M21.3333 19.3405V14.0072M12 28.6738L15.9057 24.7681C15.9578 24.716 16.0422 24.716 16.0943 24.7681L20 28.6738M8.26667 24.6738H23.7333C25.2268 24.6738 25.9735 24.6738 26.544 24.3832C27.0457 24.1275 27.4537 23.7196 27.7094 23.2178C28 22.6474 28 21.9006 28 20.4072V8.94049C28 7.44702 28 6.70028 27.7094 6.12985C27.4537 5.62809 27.0457 5.22014 26.544 4.96448C25.9735 4.67383 25.2268 4.67383 23.7333 4.67383H8.26667C6.77319 4.67383 6.02646 4.67383 5.45603 4.96448C4.95426 5.22014 4.54631 5.62809 4.29065 6.12985C4 6.70028 4 7.44702 4 8.94049V20.4072C4 21.9006 4 22.6474 4.29065 23.2178C4.54631 23.7196 4.95426 24.1275 5.45603 24.3832C6.02646 24.6738 6.77319 24.6738 8.26667 24.6738Z" stroke="#B98D75" stroke-width="2" stroke-linecap="round"/>
</svg>
