<svg width="32" height="33" viewBox="0 0 32 33" fill="none" xmlns="http://www.w3.org/2000/svg">
<path d="M24.0001 20.6739C21.7909 20.6739 20.0001 18.883 20.0001 16.6739V14.0072C20.0001 12.5344 21.194 11.3405 22.6667 11.3405H25.3334C26.8062 11.3405 28.0001 12.5344 28.0001 14.0072V16.6739C28.0001 18.883 26.2092 20.6739 24.0001 20.6739ZM24.0001 20.6739V27.3405M21.3334 27.3405H26.6667M16.0001 13.6924C15.2924 13.059 14.3579 12.6739 13.3334 12.6739C11.1243 12.6739 9.33341 14.4647 9.33341 16.6739C9.33341 18.883 11.1243 20.6739 13.3334 20.6739C14.3579 20.6739 15.2924 20.2887 16.0001 19.6553M18.6667 7.43421C17.0978 6.52664 15.2763 6.0072 13.3334 6.0072C7.44238 6.0072 2.66675 10.7828 2.66675 16.6739C2.66675 22.5649 7.44238 27.3405 13.3334 27.3405C14.2542 27.3405 15.1478 27.2239 16.0001 27.0045" stroke="#B98D75" stroke-width="2" stroke-linecap="round"/>
</svg>
