<svg width="220" height="120" viewBox="0 0 220 120" fill="none" xmlns="http://www.w3.org/2000/svg">
<path fill-rule="evenodd" clip-rule="evenodd" d="M61.9124 50.5802C61.2622 50.5958 60.5901 50.6068 59.9196 50.6068H56.0792C55.3759 50.6068 54.6772 50.5958 53.9911 50.5802C53.3033 50.5646 52.6046 50.5489 51.9013 50.5161L51.5527 55.4506L51.8747 55.5506C52.192 54.5565 52.514 53.7781 52.8313 53.2076C53.1486 52.6371 53.5346 52.2135 53.9785 51.9338C54.4224 51.6587 54.9461 51.4836 55.5541 51.4211C56.1574 51.357 55.8667 51.3258 56.7388 51.3258V59.5175C56.7388 60.2256 56.7169 60.8086 56.6747 61.2634C56.6279 61.7292 56.5216 62.0996 56.3465 62.3841C56.1667 62.6748 55.9182 62.8811 55.5791 63.014C55.2399 63.1515 54.7694 63.2359 54.1677 63.2938V63.6064C54.771 63.5751 55.3743 63.5532 55.9823 63.5376C56.5794 63.522 57.189 63.511 57.8126 63.511C58.4472 63.511 59.0771 63.522 59.7117 63.5376C60.3572 63.5595 60.9918 63.5751 61.6264 63.6064V63.2938C61.0027 63.2406 60.5151 63.1515 60.1665 63.014C59.818 62.8811 59.5476 62.6748 59.3741 62.3841C59.2053 62.1043 59.0943 61.7276 59.0521 61.2634C59.0099 60.8086 58.988 60.2271 58.988 59.5175V51.3258C59.8758 51.3258 59.6023 51.357 60.2259 51.4211C60.8496 51.4852 61.3732 51.654 61.8124 51.9338C62.2454 52.2089 62.6267 52.6371 62.9549 53.2092C63.2879 53.775 63.6114 54.5581 63.9225 55.5522L64.2554 55.4521L63.9006 50.5177C63.2238 50.5489 62.5673 50.5646 61.9124 50.5818V50.5802Z" fill="black"/>
<path fill-rule="evenodd" clip-rule="evenodd" d="M40.8073 70.0207H40.8292H40.8713C41.7435 70.0207 42.5688 69.9144 43.3409 69.7081C44.124 69.4971 44.8055 69.1688 45.3979 68.7187C45.9856 68.2748 46.456 67.709 46.8046 67.026C47.1531 66.3382 47.3282 65.5239 47.3282 64.572C47.3282 63.3935 47.0484 62.4197 46.4873 61.6632C45.9262 60.8958 45.2337 60.2565 44.3991 59.7329C43.5691 59.2093 42.6704 58.7654 41.6919 58.384C40.7182 58.0089 39.8148 57.6119 38.9785 57.1946C38.1533 56.7819 37.4561 56.3052 36.8888 55.7769C36.3339 55.2424 36.0526 54.5656 36.0526 53.7356C36.0526 52.6931 36.4074 51.9694 37.1107 51.5677C37.8141 51.1598 38.7191 50.955 39.8241 50.955C40.5587 50.955 41.2527 51.0972 41.8967 51.388C42.5422 51.674 43.1236 52.0601 43.6473 52.5305C44.1709 53.001 44.6257 53.5402 45.0321 54.1436C45.4229 54.7563 45.7464 55.3705 45.9949 55.9832H46.4029C46.3075 55.1533 46.2435 54.3217 46.2169 53.4918C46.1903 52.6665 46.17 51.8256 46.17 50.9738C45.551 50.9738 44.9743 50.9206 44.4303 50.8143C43.8911 50.7034 43.3409 50.5924 42.7798 50.4705C42.2406 50.3486 41.6857 50.2485 41.1136 50.1485C40.5431 50.0531 39.9023 50 39.188 50C38.469 50 37.7859 50.1157 37.1248 50.3486C36.4699 50.5814 35.8978 50.9144 35.4008 51.3473C34.9084 51.7803 34.5114 52.3101 34.2223 52.9228C33.9316 53.5418 33.7878 54.2295 33.7878 54.9798C33.7878 55.9848 34.0675 56.8148 34.624 57.4712C35.1898 58.1214 35.8775 58.6982 36.7075 59.1796C37.5374 59.6657 38.4424 60.1002 39.4209 60.4863C40.3946 60.8724 41.298 61.2897 42.128 61.7445C42.9642 62.1994 43.6567 62.723 44.2178 63.3263C44.7789 63.9234 45.054 64.6908 45.054 65.6161C45.054 66.2554 44.943 66.7899 44.7101 67.2245C44.4772 67.6637 44.1646 68.0122 43.7692 68.2873C43.3722 68.5515 42.9127 68.7531 42.3937 68.8797C41.8701 69.0063 41.3309 69.0641 40.7698 69.0641C39.9023 69.0641 39.0926 68.8641 38.3471 68.4561C37.6062 68.0482 36.9247 67.5417 36.3058 66.9384C35.6868 66.3257 35.1366 65.6489 34.6396 64.9018C34.1473 64.1609 33.7252 63.4638 33.3814 62.8027L33 63.009C33.2532 64.0875 33.497 65.1613 33.7252 66.2241C33.9581 67.287 34.1645 68.3717 34.3395 69.4768C34.5505 69.3971 34.7521 69.3236 34.9475 69.2548C35.1429 69.186 35.3445 69.1595 35.5602 69.1595C35.7884 69.1595 36.0994 69.2017 36.4965 69.2861C36.8935 69.3752 37.3374 69.4768 37.8141 69.5831C38.3002 69.6893 38.7972 69.7847 39.3271 69.8738C39.8398 69.9801 40.3368 70.016 40.8073 70.016V70.0207Z" fill="black"/>
<path fill-rule="evenodd" clip-rule="evenodd" d="M87.4399 70.0205H87.4618C88.3933 70.0205 89.3014 69.9096 90.1861 69.6767C91.0739 69.4438 91.8679 69.0952 92.565 68.6341C93.2575 68.1684 93.8186 67.5916 94.2469 66.8945C94.6751 66.1958 94.8814 65.3815 94.8814 64.4562V53.4463C94.8814 52.9602 94.9346 52.5679 95.0237 52.2615C95.1237 51.9489 95.2722 51.7067 95.4894 51.5207C95.7004 51.3362 95.9755 51.1924 96.3147 51.0877C96.6476 50.9814 97.0712 50.897 97.5729 50.8392V50.4844C96.7633 50.5266 95.9708 50.5531 95.1987 50.5797C94.4219 50.6016 93.6341 50.6063 92.8135 50.6063C92.0945 50.6063 91.3912 50.6016 90.7144 50.5797C90.022 50.5531 89.3233 50.5266 88.609 50.4844V50.8392C89.2217 50.897 89.7672 50.9767 90.233 51.0721C90.6988 51.1674 91.0786 51.3253 91.3756 51.5472C91.6772 51.7692 91.8992 52.0708 92.0477 52.4413C92.1962 52.8226 92.2649 53.3244 92.2649 53.959V63.5793C92.2649 64.1764 92.218 64.8063 92.1383 65.4628C92.0539 66.1239 91.8523 66.7163 91.5413 67.2509C91.2349 67.7745 90.7957 68.2137 90.2143 68.5669C89.6328 68.9155 88.8654 69.0858 87.8979 69.0858C87.5337 69.0858 87.1679 69.0546 86.8131 68.9858C86.4583 68.917 86.1254 68.7904 85.83 68.6107C85.533 68.42 85.2751 68.1715 85.0626 67.8542C84.8516 67.5416 84.7031 67.1243 84.6233 66.6272C84.8187 66.4162 84.9453 66.1255 85.0141 65.7551C85.0876 65.3909 85.1204 65.0673 85.1204 64.7985C85.1204 64.4546 84.9406 64.117 84.5811 63.7982C84.2263 63.4809 83.8199 63.3167 83.3542 63.3167C82.6774 63.3167 82.185 63.5496 81.874 64.0092C81.5676 64.4749 81.4082 64.961 81.4082 65.4846C81.4082 66.3365 81.6302 67.0555 82.0803 67.6322C82.5242 68.209 83.0634 68.6795 83.7043 69.028C84.3435 69.3766 85.011 69.6251 85.7034 69.7845C86.3802 69.9486 86.9679 70.0221 87.443 70.0221L87.4399 70.0205Z" fill="black"/>
<path fill-rule="evenodd" clip-rule="evenodd" d="M107.594 52.8339L110.201 60.1958H104.754L107.594 52.8339ZM118.61 69.5551V69.2065C117.658 69.0893 116.944 68.8095 116.463 68.3813C115.981 67.9483 115.6 67.3497 115.331 66.5994L109.303 50.0205C108.859 50.1956 108.457 50.3597 108.087 50.5175C107.722 50.6707 107.288 50.7926 106.786 50.8927C106.886 51.0458 106.966 51.2209 107.035 51.4163C107.099 51.6117 107.13 51.7555 107.13 51.8446C107.13 51.9446 107.108 52.0509 107.061 52.1665C107.014 52.2822 106.961 52.4104 106.903 52.5417L101.889 64.8692C101.694 65.3553 101.498 65.832 101.292 66.3025C101.09 66.7729 100.853 67.2059 100.584 67.592C100.309 67.978 99.9807 68.3109 99.579 68.5923C99.1883 68.8721 98.685 69.0737 98.0879 69.2112V69.5598C98.7068 69.5223 99.2883 69.491 99.8385 69.4754C100.389 69.4535 100.959 69.4441 101.536 69.4441C102.133 69.4441 102.725 69.4551 103.302 69.4754C103.884 69.4973 104.465 69.5223 105.042 69.5598V69.2112C104.831 69.1737 104.567 69.105 104.259 69.0049C103.952 68.9049 103.651 68.7767 103.355 68.6142C103.069 68.45 102.827 68.2437 102.621 67.9905C102.421 67.742 102.319 67.4403 102.319 67.0918C102.319 66.9589 102.341 66.8276 102.388 66.7104C102.435 66.5947 102.488 66.4619 102.552 66.3087L104.467 61.0789H110.526L112.408 66.3931C112.45 66.5307 112.499 66.6729 112.568 66.8261C112.636 66.9792 112.668 67.1324 112.668 67.2918C112.668 67.8311 112.388 68.2594 111.842 68.5767C111.292 68.8893 110.615 69.1003 109.801 69.2003V69.5488C110.129 69.527 110.431 69.5176 110.716 69.5067C110.995 69.4957 111.292 69.4848 111.599 69.4754C111.905 69.4644 112.255 69.4535 112.641 69.4441C113.027 69.4394 113.482 69.4285 114.006 69.4285C114.793 69.4285 115.566 69.4394 116.327 69.4598C117.077 69.4863 117.833 69.5176 118.612 69.5551H118.61Z" fill="black"/>
<path fill-rule="evenodd" clip-rule="evenodd" d="M119.996 69.2067V69.5552C120.593 69.5177 121.191 69.4865 121.784 69.4708C122.376 69.4489 122.973 69.4396 123.566 69.4396C124.385 69.4396 125.179 69.4505 125.955 69.4708C126.728 69.4927 127.526 69.5177 128.33 69.5552V69.2067C127.637 69.1645 127.065 69.0691 126.632 68.916C126.199 68.7628 125.855 68.5299 125.601 68.2173C125.352 67.9109 125.183 67.5249 125.093 67.0638C125.008 66.598 124.966 66.0478 124.966 65.4132C124.966 64.91 125.008 64.155 125.082 63.139C125.155 62.1293 125.257 61.0024 125.383 59.7817C125.51 58.55 125.648 57.2902 125.801 56.0007C125.954 54.705 126.113 53.5249 126.26 52.4683H126.318C127.629 55.2286 128.878 57.9998 130.068 60.7976C131.253 63.5845 132.3 66.4667 133.209 69.4443H133.263C133.713 67.9953 134.21 66.5621 134.754 65.1553C135.304 63.7486 135.87 62.3575 136.446 60.9883C137.023 59.6129 137.616 58.2546 138.213 56.8901C138.805 55.5256 139.376 54.1501 139.921 52.7544H139.974L141.984 64.4317C142.084 64.9287 142.137 65.3789 142.164 65.7649C142.186 66.1463 142.191 66.4573 142.191 66.6855C142.191 67.1669 142.117 67.5686 141.953 67.875C141.8 68.1876 141.583 68.4252 141.303 68.6049C141.023 68.7737 140.699 68.9066 140.329 68.991C139.965 69.0754 139.572 69.1489 139.166 69.2129V69.5615C139.907 69.524 140.626 69.4927 141.329 69.4771C142.037 69.4552 142.758 69.4458 143.497 69.4458C144.269 69.4458 145.041 69.4568 145.803 69.4771C146.564 69.499 147.331 69.524 148.103 69.5615V69.2129C147.469 69.1332 146.95 69.0222 146.57 68.88C146.184 68.7378 145.878 68.5518 145.656 68.3298C145.434 68.1079 145.27 67.8437 145.159 67.5468C145.052 67.2513 144.952 66.9122 144.852 66.548C144.715 65.9509 144.566 65.2569 144.408 64.4645C144.244 63.6767 144.08 62.8405 143.927 61.9793C143.774 61.1118 143.63 60.2334 143.477 59.3566C143.335 58.4781 143.207 57.6591 143.086 56.8917C142.97 56.1305 142.88 55.4428 142.811 54.8347C142.742 54.2267 142.705 53.7609 142.705 53.4327C142.705 52.9732 142.774 52.5871 142.911 52.2855C143.049 51.9838 143.244 51.7415 143.493 51.5508C143.746 51.3555 144.043 51.207 144.382 51.1007C144.715 50.9944 145.09 50.91 145.498 50.8522V50.4974C144.874 50.5396 144.266 50.5661 143.658 50.5927C143.055 50.6146 142.436 50.6193 141.812 50.6193C141.12 50.6193 140.426 50.6146 139.733 50.5927C139.035 50.5661 138.338 50.5396 137.644 50.4974V50.8522C137.95 50.9522 138.252 51.0741 138.542 51.2273C138.833 51.3805 139.082 51.5868 139.293 51.84C138.563 54.0032 137.748 56.1133 136.861 58.1702C135.978 60.2334 135.03 62.2841 134.052 64.3316L129.958 54.3002C129.826 53.9782 129.705 53.6547 129.599 53.3436C129.493 53.031 129.435 52.72 129.435 52.3871C129.435 51.9056 129.593 51.5508 129.905 51.3242C130.212 51.1023 130.551 50.9491 130.921 50.8475V50.4927C130.318 50.5349 129.725 50.5614 129.133 50.588C128.547 50.6099 127.948 50.6146 127.356 50.6146C126.526 50.6146 125.701 50.6099 124.875 50.588C124.061 50.5614 123.236 50.5349 122.401 50.4927V50.8475C122.962 50.9475 123.522 51.1007 124.083 51.3133C124.638 51.5243 125.126 51.7994 125.532 52.1276L124.141 62.4341C124.045 63.1688 123.945 63.9049 123.85 64.6505C123.755 65.4007 123.648 66.1041 123.533 66.7824C123.475 67.1529 123.326 67.4749 123.094 67.7656C122.865 68.0563 122.586 68.3001 122.268 68.5002C121.951 68.7065 121.596 68.8644 121.195 68.9754C120.808 69.0926 120.407 69.166 119.994 69.2082L119.996 69.2067Z" fill="black"/>
<path fill-rule="evenodd" clip-rule="evenodd" d="M162.588 50.5754C161.234 50.5911 159.88 50.602 158.525 50.602C157.638 50.602 156.839 50.5973 156.129 50.5864C155.421 50.5754 154.754 50.5645 154.13 50.5598C153.5 50.5489 152.888 50.5379 152.306 50.5285C151.714 50.5176 151.09 50.502 150.434 50.4863V50.8411C151.132 50.899 151.682 51.0053 152.084 51.1584C152.486 51.3179 152.787 51.5554 152.983 51.8837C153.174 52.2166 153.295 52.6402 153.342 53.1747C153.389 53.7093 153.416 54.3751 153.416 55.1895V64.8614C153.416 65.671 153.389 66.3416 153.342 66.8761C153.289 67.4107 153.174 67.839 152.983 68.1672C152.787 68.4954 152.501 68.733 152.111 68.8971C151.729 69.0456 151.185 69.1503 150.493 69.2144V69.563C151.054 69.5255 151.609 69.4942 152.175 69.4786C152.73 69.4567 153.295 69.4473 153.852 69.4473H164.762C165.09 69.4473 165.428 69.4582 165.771 69.4786C166.12 69.5004 166.464 69.5255 166.787 69.563L169.426 63.7251L169.109 63.4656C168.416 64.3909 167.728 65.185 167.052 65.8399C166.379 66.4963 165.661 67.0403 164.895 67.4638C164.133 67.8874 163.297 68.1984 162.377 68.3891C161.456 68.5845 160.415 68.6799 159.262 68.6799C158.718 68.6799 158.125 68.6377 157.484 68.547C156.85 68.4673 156.368 68.3782 156.035 68.3032V59.344H157.886C158.658 59.344 159.319 59.3908 159.87 59.4862C160.42 59.5815 160.89 59.766 161.287 60.0364C161.684 60.3068 162.001 60.6975 162.244 61.2055C162.488 61.7182 162.694 62.384 162.867 63.1937H163.222C163.222 62.495 163.211 61.8026 163.196 61.1102C163.174 60.4177 163.164 59.7191 163.164 59.0157C163.164 58.3342 163.175 57.6512 163.196 56.9541C163.217 56.2664 163.222 55.563 163.222 54.8643H162.867C162.699 56.2757 162.217 57.2495 161.439 57.7778C160.656 58.3124 159.599 58.5765 158.271 58.5765C157.88 58.5765 157.509 58.5875 157.155 58.6078C156.8 58.6234 156.425 58.6343 156.039 58.6343V51.4257C157.414 51.3038 158.768 51.2506 160.101 51.2506C160.835 51.2506 161.534 51.3038 162.191 51.4195C162.852 51.5367 163.455 51.7586 164.005 52.0853C164.549 52.4135 165.037 52.8731 165.454 53.4608C165.867 54.0484 166.2 54.8034 166.459 55.7349L166.834 55.6193C166.792 55.0957 166.755 54.6252 166.712 54.186C166.675 53.753 166.655 53.3185 166.655 52.8949V51.7368C166.655 51.3507 166.676 50.9271 166.712 50.4785C165.31 50.5254 163.941 50.5473 162.588 50.5739V50.5754Z" fill="black"/>
<path fill-rule="evenodd" clip-rule="evenodd" d="M179.909 70.0207H179.931H179.973C180.845 70.0207 181.666 69.9144 182.432 69.7081C183.219 69.4971 183.902 69.1688 184.493 68.7187C185.086 68.2748 185.551 67.709 185.9 67.026C186.248 66.3382 186.424 65.5239 186.424 64.572C186.424 63.3935 186.144 62.4197 185.583 61.6632C185.021 60.8958 184.329 60.2565 183.499 59.7329C182.669 59.2093 181.764 58.7654 180.792 58.384C179.814 58.0089 178.915 57.6119 178.079 57.1946C177.249 56.7819 176.55 56.3052 175.995 55.7769C175.434 55.2424 175.154 54.5656 175.154 53.7356C175.154 52.6931 175.509 51.9694 176.206 51.5677C176.914 51.1598 177.819 50.955 178.924 50.955C179.654 50.955 180.347 51.0972 180.992 51.388C181.638 51.674 182.219 52.0601 182.747 52.5305C183.266 53.001 183.726 53.5402 184.127 54.1436C184.518 54.7563 184.846 55.3705 185.095 55.9832H185.503C185.403 55.1533 185.343 54.3217 185.312 53.4918C185.281 52.6665 185.27 51.8256 185.27 50.9738C184.651 50.9738 184.07 50.9206 183.535 50.8143C182.996 50.7034 182.441 50.5924 181.885 50.4705C181.345 50.3486 180.784 50.2485 180.218 50.1485C179.648 50.0531 179.007 50 178.288 50C177.574 50 176.886 50.1157 176.231 50.3486C175.575 50.5814 174.999 50.9144 174.502 51.3473C174.01 51.7803 173.615 52.3101 173.324 52.9228C173.033 53.5418 172.891 54.2295 172.891 54.9798C172.891 55.9848 173.171 56.8148 173.727 57.4712C174.288 58.1214 174.981 58.6982 175.815 59.1796C176.652 59.6657 177.55 60.1002 178.529 60.4863C179.502 60.8724 180.406 61.2897 181.242 61.7445C182.067 62.1994 182.764 62.723 183.326 63.3263C183.887 63.9234 184.162 64.6908 184.162 65.6161C184.162 66.2554 184.046 66.7899 183.813 67.2245C183.587 67.6637 183.269 68.0122 182.872 68.2873C182.475 68.5515 182.016 68.7531 181.492 68.8797C180.969 69.0063 180.429 69.0641 179.868 69.0641C179.001 69.0641 178.191 68.8641 177.446 68.4561C176.705 68.0482 176.023 67.5417 175.404 66.9384C174.781 66.3257 174.23 65.6489 173.733 64.9018C173.241 64.1609 172.824 63.4638 172.475 62.8027L172.094 63.009C172.342 64.0875 172.591 65.1613 172.819 66.2241C173.052 67.287 173.258 68.3717 173.427 69.4768C173.638 69.3971 173.84 69.3236 174.035 69.2548C174.226 69.186 174.432 69.1595 174.643 69.1595C174.876 69.1595 175.187 69.2017 175.59 69.2861C175.981 69.3752 176.42 69.4768 176.906 69.5831C177.392 69.6893 177.889 69.7847 178.419 69.8738C178.937 69.9801 179.435 70.016 179.91 70.016L179.909 70.0207Z" fill="black"/>
<path fill-rule="evenodd" clip-rule="evenodd" d="M76.6895 57.5558C76.3925 57.6027 76.0815 57.6293 75.7486 57.6293C75.2093 57.6293 74.681 57.598 74.1621 57.5183C73.6338 57.4386 73.1039 57.4027 72.5647 57.4027C72.0098 57.4027 71.4378 57.4824 70.8626 57.6355L70.6562 59.7191C71.0798 59.6081 71.5081 59.5284 71.9364 59.4924C72.3599 59.4549 72.7929 59.4346 73.2368 59.4346C73.565 59.4346 73.9558 59.4721 74.4059 59.5502C74.8608 59.6237 75.3156 59.6659 75.7814 59.6659C76.3003 59.6659 76.8021 59.6081 77.2882 59.4908L77.6054 57.3433C77.2881 57.4339 76.9912 57.5074 76.6911 57.5543L76.6895 57.5558Z" fill="black"/>
</svg>
