<svg width="220" height="120" viewBox="0 0 220 120" fill="none" xmlns="http://www.w3.org/2000/svg">
<path fill-rule="evenodd" clip-rule="evenodd" d="M151.79 76.0555L151.93 51.0114L163.5 76.2847L175.123 76.2856C175.467 74.8218 175.444 46.2446 175.106 44.9923L168.381 45.0019L168.248 70.3063L156.81 45.2069C156.066 44.5554 145.524 44.8889 144.836 44.9842C144.518 46.3943 144.499 74.5802 144.814 76.3697L151.025 76.3896C152.376 76.3629 151.408 76.4368 151.79 76.0549L151.79 76.0555ZM88.2686 66.8043L88.3605 76.2415C88.9412 76.4986 95.0574 76.9159 95.6008 76.1502C95.4437 73.7611 95.109 67.6535 96.0415 65.8373C97.7341 62.5412 106.902 46.0655 107.028 44.9883L99.3242 45.1106C98.7892 45.3236 95.6794 52.4475 95.4748 52.9077C94.3864 55.3527 93.0878 58.3868 91.7874 60.6116L84.2726 44.9963L76.7562 44.9942C76.8211 45.9981 86.893 64.2515 88.2689 66.8043H88.2686ZM131.113 57.0761L126.061 70.8963C125.449 70.1051 121.354 58.461 121.135 57.0342L131.113 57.0761ZM109.538 45.051L120.699 76.2816L131.444 76.267C132.444 74.2952 142.289 45.7369 142.262 44.9948L135.347 44.9942C134.426 46.4005 133.974 50.6537 132.628 51.5318L119.488 51.5321C118.888 51.38 118.729 50.5816 118.546 50.0053L116.746 44.9942L109.538 45.0513V45.051ZM69.3643 63.3088C68.9886 68.6329 65.2376 71.5546 59.3964 70.7475C53.9201 69.9908 51.8602 66.5177 51.7884 60.6324C51.7189 54.9363 53.9782 50.8744 59.1688 50.2441C65.0696 49.5274 68.5567 52.3016 69.215 57.5257L76.6115 57.4965C76.1631 47.7224 69.0262 43.3078 58.7822 44.0878C49.0866 44.8259 44.168 50.6111 44.0032 60.6312C43.8432 70.3479 49.7639 76.3303 59.0322 76.9305C69.5808 77.6137 75.969 73.2739 76.6081 63.2122L69.364 63.3088H69.3643Z" fill="black"/>
</svg>
