<svg width="32" height="33" viewBox="0 0 32 33" fill="none" xmlns="http://www.w3.org/2000/svg">
<path d="M5.33325 10.0072L5.72378 9.61664C6.32745 9.01297 7.1462 8.67383 7.99992 8.67383C8.85364 8.67383 9.67239 9.01297 10.2761 9.61664L11.0571 10.3977C11.6608 11.0014 12.4795 11.3405 13.3333 11.3405C14.187 11.3405 15.0057 11.0014 15.6094 10.3977L16.3904 9.61664C16.9941 9.01297 17.8129 8.67383 18.6666 8.67383C19.5203 8.67383 20.3391 9.01297 20.9427 9.61664L21.7238 10.3977C22.3274 11.0014 23.1462 11.3405 23.9999 11.3405C24.8536 11.3405 25.6724 11.0014 26.2761 10.3977L26.6666 10.0072M5.33325 16.6738L5.72378 16.2833C6.32745 15.6796 7.1462 15.3405 7.99992 15.3405C8.85364 15.3405 9.67239 15.6796 10.2761 16.2833L11.0571 17.0644C11.6608 17.668 12.4795 18.0072 13.3333 18.0072C14.187 18.0072 15.0057 17.668 15.6094 17.0644L16.3904 16.2833C16.9941 15.6796 17.8129 15.3405 18.6666 15.3405C19.5203 15.3405 20.3391 15.6796 20.9427 16.2833L21.7238 17.0644C22.3274 17.668 23.1462 18.0072 23.9999 18.0072C24.8536 18.0072 25.6724 17.668 26.2761 17.0644L26.6666 16.6738M5.33325 23.3405L5.72378 22.95C6.32745 22.3463 7.1462 22.0072 7.99992 22.0072C8.85364 22.0072 9.67239 22.3463 10.2761 22.95L11.0571 23.731C11.6608 24.3347 12.4795 24.6738 13.3333 24.6738C14.187 24.6738 15.0057 24.3347 15.6094 23.731L16.3904 22.95C16.9941 22.3463 17.8129 22.0072 18.6666 22.0072C19.5203 22.0072 20.3391 22.3463 20.9427 22.95L21.7238 23.731C22.3274 24.3347 23.1462 24.6738 23.9999 24.6738C24.8536 24.6738 25.6724 24.3347 26.2761 23.731L26.6666 23.3405" stroke="#B98D75" stroke-width="2" stroke-linecap="round"/>
</svg>
