<svg width="220" height="120" viewBox="0 0 220 120" fill="none" xmlns="http://www.w3.org/2000/svg">
<path fill-rule="evenodd" clip-rule="evenodd" d="M183.227 67.4879C179.211 66.9045 175.207 66.3519 171.237 66.2385C170.568 64.5928 170.2 62.7963 170.2 60.9161C170.2 60.8754 170.202 60.8368 170.203 60.7961L170.983 60.8258H171.522L173.146 58.8367L175.022 59.7228L174.127 60.9458L176.234 61.0262L180.233 57.7381L181.243 58.851L177.218 61.0647L180.571 61.1935L182.652 60.4042L183.425 61.2552L183.228 67.4857L183.227 67.4879ZM24.8718 50.3197C24.8718 51.4216 24.8718 70.2311 24.8718 71.1866C24.8718 72.1421 25.0201 72.5098 23.9038 73.3178C22.7874 74.1258 23.7555 74.9921 25.5421 74.9921H30.9946C32.0999 74.9921 32.8906 74.6608 33.0702 74.2161C33.1917 74.6157 33.6211 74.9921 34.1029 74.9921H40.3562C41.1748 74.9921 41.8451 73.9045 41.1012 73.4642C40.3562 73.0239 40.2079 72.5087 40.2079 71.9946C40.2079 71.9946 40.2079 58.1817 40.2079 56.8585C40.2079 55.5354 39.6123 55.095 39.2398 55.095C38.3465 55.095 34.1776 56.8585 33.2096 57.3737C32.2426 57.8878 32.9865 58.5494 33.4326 58.7706C33.8799 58.9908 34.2523 59.2121 34.2523 60.3866C34.2523 61.5623 34.2523 71.4817 34.2523 71.9957C34.2523 72.5098 34.1029 73.025 33.359 73.4653C33.2029 73.5578 33.1092 73.6789 33.0657 73.8132C32.9999 73.6513 32.8616 73.484 32.6329 73.3189C31.5166 72.5109 31.6649 72.1432 31.6649 71.1877C31.6649 70.2322 31.6649 51.4227 31.6649 50.3208C31.6649 49.2178 31.5902 48.3361 32.1857 48.3361C33.6746 48.3361 34.4932 51.1288 35.313 53.0387C36.1316 54.9497 38.8115 53.9194 38.5137 52.5973C38.216 51.2741 37.6204 47.527 37.3227 46.2049C37.0249 44.8817 36.5041 44 35.9821 44C35.4613 44 34.5679 44.808 34.5679 44.808L28.2689 44.9192L21.9688 44.808C21.9688 44.808 21.0755 44 20.5547 44C20.0338 44 19.5119 44.8817 19.2141 46.2049C18.9163 47.5281 18.3208 51.2752 18.023 52.5973C17.7252 53.9194 20.4052 54.9486 21.2238 53.0387C22.0424 51.1277 22.861 48.3361 24.3499 48.3361C24.9454 48.3361 24.8707 49.2178 24.8707 50.3208L24.8718 50.3197ZM42.7429 60.3855C42.7429 61.5612 42.7429 71.4806 42.7429 71.9946C42.7429 72.5087 42.5945 73.0239 41.8495 73.4642C41.1056 73.9045 41.7759 74.9921 42.5945 74.9921H48.8478C49.6664 74.9921 50.3367 73.9045 49.5917 73.4642C48.8478 73.0239 48.6984 72.5087 48.6984 71.9946C48.6984 71.9946 48.6984 65.5208 48.6984 61.013C48.6984 59.8714 49.5337 59.1372 50.1828 59.1372C50.8519 59.1372 51.3828 59.5786 51.3828 60.9007C51.3828 62.0764 51.3828 71.4817 51.3828 71.9957C51.3828 72.5098 51.2334 73.025 50.4895 73.4653C49.7456 73.9056 50.4148 74.9932 51.2334 74.9932H56.861C57.6796 74.9932 58.3499 73.9056 57.606 73.4653C56.861 73.025 56.7126 72.5098 56.7126 71.9957C56.7126 71.9957 56.7115 60.2259 56.7104 60.1819C56.7104 59.79 57.2792 59.4311 57.7755 59.4311C59.3391 59.4311 59.8677 70.3786 59.8677 71.9957C59.8677 72.5098 59.7183 73.025 58.9744 73.4653C58.2305 73.9056 58.8997 74.9932 59.7183 74.9932H65.3459C65.9091 74.9932 66.401 74.4803 66.4121 74.0157C66.6697 75.1187 67.1984 74.9932 67.5274 74.9932C67.9735 74.9932 68.3951 75.2475 69.6118 73.2451C69.8349 72.8786 70.3557 73.0987 71.0259 73.833C71.6962 74.5672 72.0687 75.449 74.897 75.449C77.7253 75.449 80.7778 75.0086 80.7778 64.9418C80.7778 57.006 76.3859 54.8022 74.7487 54.8022C73.1204 54.8022 73.3992 55.5199 72.217 55.8337C72.217 50.9494 72.217 46.8643 72.217 46.4262C72.217 45.1019 71.6215 44.6627 71.249 44.6627C70.3557 44.6627 66.5738 46.4262 65.6058 46.9403C64.6377 47.4543 65.3827 48.4825 65.8288 48.7037C66.2761 48.9239 66.2615 49.1441 66.2615 50.3208C66.2615 51.316 66.2615 69.8569 66.2615 72.2896C66.2615 72.9083 66.2983 73.385 66.3597 73.7537C66.3095 73.6436 66.2225 73.5435 66.0886 73.4653C65.3448 73.025 65.1953 72.5098 65.1953 71.9957C65.1953 70.9676 65.5165 55.3174 59.6357 55.3174C57.4989 55.3174 57.3985 56.9125 56.0557 57.2416C55.4836 56.0626 54.4631 55.0961 52.7122 55.0961C49.8114 55.0961 50.1794 56.7672 48.6972 57.1491C48.6972 57.0248 48.6972 56.9268 48.6972 56.8607C48.6972 55.5376 48.1017 55.0972 47.7292 55.0972C46.8359 55.0972 42.667 56.8607 41.6989 57.3759C40.7309 57.89 41.4759 58.5516 41.922 58.7728C42.3681 58.993 42.7406 59.2143 42.7406 60.3888L42.7429 60.3855ZM73.8543 70.5251C72.3654 70.5251 72.1423 66.0426 72.1423 64.5003C72.1423 62.957 72.6632 57.8878 74.0037 57.8878C75.3431 57.8878 75.9398 62.2965 75.9398 64.5003C75.9398 66.7053 75.3442 70.5251 73.8554 70.5251H73.8543ZM80.9261 65.676C80.9261 71.2604 83.6061 75.5216 88.4442 75.5216C93.2833 75.5216 94.0272 72.5098 94.0272 70.5988C94.0272 68.3939 91.1989 67.8809 91.1989 69.1292C91.1989 70.6726 90.455 70.5988 89.71 70.5988C89.149 70.5988 87.4549 70.699 86.2661 67.8171C86.2326 67.4714 86.2527 66.5732 87.3289 66.3376C87.3289 66.3376 92.4658 64.3539 93.0602 64.06C93.6558 63.7661 93.7294 62.7368 93.7294 61.9288C93.7294 61.1209 92.4647 54.9497 87.6256 54.9497C82.7864 54.9497 80.9261 60.0927 80.9261 65.6771V65.676ZM86.1367 64.2802C85.801 64.2802 85.3616 64.2416 85.3181 63.9125C84.5742 58.2918 85.8389 57.6676 86.5092 57.6676C87.1794 57.6676 88.6683 59.725 88.6683 61.7087C88.6683 63.6923 86.9564 64.2802 86.1367 64.2802ZM94.4833 60.3855C94.4833 61.5612 94.4833 71.4806 94.4833 71.9946C94.4833 72.5087 94.335 73.0239 93.59 73.4642C92.8461 73.9045 93.5153 74.9921 94.3339 74.9921H100.587C101.406 74.9921 102.076 73.9045 101.331 73.4642C100.587 73.0239 100.438 72.5087 100.438 71.9946C100.438 71.9946 100.438 68.2343 100.438 64.4486C100.902 62.9614 102.046 59.9804 103.778 59.9804C104.523 59.9804 104.299 61.9641 106.011 61.9641C106.405 61.9641 107.012 61.122 107.43 60.0333C107.43 65.6562 107.43 71.7128 107.43 71.9935C107.43 72.5076 107.282 73.0228 106.537 73.4631C105.792 73.9034 106.462 74.991 107.281 74.991H113.534C114.353 74.991 115.023 73.9034 114.278 73.4631C113.534 73.0228 113.385 72.5076 113.385 71.9935C113.385 71.9935 113.385 48.2722 113.385 46.9491C113.385 45.6259 112.789 45.1856 112.417 45.1856C111.525 45.1856 107.356 46.9491 106.388 47.4631C105.42 47.9783 106.163 48.6388 106.611 48.8601C107.058 49.0802 107.429 49.2993 107.429 50.4772C107.429 50.8525 107.429 53.1323 107.429 56.0792C107.04 55.5464 106.38 55.204 105.34 55.204C101.82 55.204 102.389 57.7194 100.437 58.261C100.437 57.5608 100.437 57.06 100.437 56.8563C100.437 55.5332 99.8421 55.0928 99.4696 55.0928C98.5763 55.0928 94.4075 56.8563 93.4394 57.3715C92.4714 57.8856 93.2164 58.5472 93.6625 58.7684C94.1086 58.9886 94.4811 59.2099 94.4811 60.3844L94.4833 60.3855ZM122.018 65.0882C122.018 65.0882 122.018 70.3049 122.018 70.9665C122.018 71.6281 121.87 72.4361 120.974 72.4361C120.082 72.4361 119.189 72.1421 119.189 69.203C119.189 66.2638 120.454 65.0882 122.018 65.0882ZM118.445 63.4722C115.347 65.0001 113.829 67.4395 113.829 70.4524C113.829 73.4653 115.615 74.9932 116.211 74.9932C116.806 74.9932 120.231 74.9932 121.421 74.9932C122.613 74.9932 123.134 74.3471 123.506 74.3471C123.878 74.3471 124.101 74.9932 124.548 74.9932C124.994 74.9932 125.665 74.9932 127.823 74.9932C128.825 74.9932 129.297 74.838 129.516 74.6057C129.716 74.8303 130.01 74.9932 130.327 74.9932H136.579C137.398 74.9932 138.068 73.9056 137.324 73.4653C136.579 73.025 136.431 72.5098 136.431 71.9957C136.431 71.9957 136.431 65.0739 136.431 60.5605C136.431 60.107 137.021 59.4311 137.682 59.4311C139.244 59.4311 139.773 70.3786 139.773 71.9957C139.773 72.5098 139.625 73.025 138.881 73.4653C138.136 73.9056 138.806 74.9932 139.625 74.9932H145.252C146.071 74.9932 146.741 73.9056 145.997 73.4653C145.251 73.025 145.104 72.5098 145.104 71.9957C145.104 70.9676 145.424 55.3174 139.543 55.3174C137.684 55.3174 137.367 56.5272 136.431 57.0578C136.431 56.9763 136.431 56.9092 136.431 56.8607C136.431 55.5376 135.835 55.0972 135.463 55.0972C134.57 55.0972 130.4 56.8607 129.433 57.3759C128.465 57.89 129.209 58.5516 129.657 58.7728C130.104 58.993 130.476 59.2143 130.476 60.3888C130.476 61.5645 130.476 71.4839 130.476 71.9979C130.476 72.4922 130.337 72.9854 129.668 73.4147C129.567 72.7883 129.032 72.0717 128.494 72.0717C127.899 72.0717 127.749 71.5576 127.749 70.896C127.749 70.2344 127.749 69.9405 127.154 62.6664C126.559 55.3923 123.432 55.6135 120.157 55.6135C116.881 55.6135 114.053 57.1557 114.053 59.6546C114.053 62.1523 115.691 62.3725 116.956 62.3725C118.222 62.3725 119.19 62.0786 119.19 60.4626C119.19 58.8466 118.148 58.3314 118.148 58.3314C118.148 58.3314 118.669 58.1839 119.86 58.1839C121.051 58.1839 121.72 60.0211 121.72 61.6371C121.72 62.9592 119.339 63.033 118.446 63.4744L118.445 63.4722ZM152.242 59.211C153.06 59.211 154.476 61.5623 154.476 65.7498C154.476 69.9383 153.434 71.7756 152.763 71.7756C152.093 71.7756 150.605 70.0847 150.605 65.8235C150.605 61.5623 151.722 59.211 152.243 59.211H152.242ZM151.348 55.8304C149.412 55.8304 145.468 59.4311 145.468 66.9992C145.468 70.1585 146.436 72.4372 147.031 73.833C147.628 75.2288 148.297 74.9932 149.266 74.9932C150.005 74.9932 160.293 74.9932 160.293 74.9932C161.111 74.9932 161.782 73.9056 161.037 73.4653C160.293 73.025 160.143 72.5098 160.143 71.9957C160.143 71.9957 160.143 48.936 160.143 47.614C160.143 46.2908 159.548 45.8505 159.176 45.8505C158.555 45.8505 156.534 47.0569 154.923 47.7482C154.215 48.0532 153.442 47.9706 153.146 48.128C152.178 48.6421 152.922 49.3026 153.369 49.5239C153.816 49.7451 154.189 49.9642 154.189 51.1409C154.189 51.5317 154.189 53.915 154.189 56.94C153.779 56.5646 152.792 55.8315 151.351 55.8315L151.348 55.8304ZM191.675 70.819C189.051 70.7925 181.911 70.1695 178.003 70.131C174.963 70.1001 172.496 70.3753 171.549 70.4986C171.868 70.9202 172.205 71.3253 172.563 71.715C173.829 71.726 177.398 71.8757 184.027 72.9876C189.537 73.9122 192.608 74.0564 194.093 74.0432C195.595 72.992 196.913 71.6963 197.98 70.2157C196.476 70.481 193.681 70.841 191.673 70.8212L191.675 70.819ZM183.849 73.4048C177.942 72.3656 174.467 72.1124 172.888 72.0552C175.859 75.1033 180.035 77 184.66 77C187.854 77 190.832 76.0951 193.348 74.5331C191.704 74.4935 188.737 74.2645 183.849 73.4048ZM168.318 60.871C168.318 64.3693 169.447 67.6079 171.365 70.251C172.136 70.1365 174.734 69.7908 177.997 69.7908C181.904 69.7908 189.052 70.3423 191.675 70.3423C193.897 70.3423 197.08 69.8679 198.409 69.5883C200.048 67.074 201 64.082 201 60.871C201 59.4256 200.806 58.0254 200.445 56.6923L191.69 58.8972L192.631 57.1403C194.7 56.82 197.342 56.1661 199.82 54.8441C199.629 54.3795 199.419 53.9238 199.187 53.4813C197.061 54.5237 195.17 55.0037 193.67 55.2007L195.038 52.6501L198.57 52.4058C198.262 51.9126 197.926 51.4371 197.567 50.9813H193.484L195.092 48.4572C194.759 48.1853 194.415 47.9244 194.061 47.6778L190.779 52.1889L189.823 50.3186L189.982 49.6592L193.094 47.0547C192.755 46.8533 192.408 46.6629 192.052 46.4845L188.756 48.2315L187.061 44.917C186.575 44.8465 186.082 44.797 185.583 44.7695L187.382 49.3356L186.856 49.8068L184.193 44.7496C184.036 44.7552 183.881 44.7607 183.725 44.7695L181.683 49.0153L179.564 45.5444C178.875 45.7679 178.206 46.0332 177.563 46.3414L177.466 49.1375L174.448 48.2821C173.823 48.7753 173.236 49.3136 172.692 49.8915L176.337 54.3069L175.322 54.3795L172.048 50.617C171.65 51.0925 171.282 51.5912 170.94 52.1107L172.976 54.549L169.523 54.7967C168.749 56.6725 168.321 58.7233 168.321 60.8721L168.318 60.871ZM178.742 56.492L176.434 58.3292L174.23 57.5069L175.557 55.881L177.921 55.804L178.742 56.4931V56.492ZM186.718 67.9921C185.983 64.912 186.334 61.7813 186.334 61.7813L191.681 60.4692L192.438 61.5612L193.853 61.4874L193.483 60.0256L195.574 59.5115C195.938 60.0256 196.882 61.2629 197.873 61.7802L198.989 61.2662C198.989 61.2662 197.955 60.0046 197.648 59.0018L199.441 58.5615C199.565 59.3276 199.632 60.1136 199.632 60.915C199.632 63.8971 198.734 66.6722 197.19 68.9916C193.706 68.9058 190.211 68.4831 186.719 67.991L186.718 67.9921ZM190.753 55.2723L192.303 52.8395L193.193 52.7778L191.641 55.3229C191.291 55.3174 190.993 55.2965 190.753 55.2723ZM184.854 53.26L183.476 54.2496L182.687 51.1894L184.102 47.9695L185.337 50.5388L184.854 53.26ZM179.107 49.7319L179.039 48.4836L179.808 49.8189L179.107 49.733V49.7319ZM177.366 52.463L174.797 49.9532L177.244 50.727L177.366 52.463ZM181.869 56.8596L180.698 55.717L181.455 53.9964L181.87 56.8596H181.869ZM180.603 51.7904L179.337 53.9205L179.195 51.3446L180.602 51.7893L180.603 51.7904ZM184.762 57.1238L184.028 57.082L183.771 56.0021L184.732 55.5761L184.762 57.1238ZM186.633 57.89L186.523 54.6118L188.836 53.0233L189.305 54.2166L186.633 57.89ZM189.056 59.5632L187.824 59.8736L189.371 57.4453C189.625 57.4387 189.966 57.4254 190.378 57.3968L189.056 59.5632ZM171.42 58.0254L170.267 59.5599C170.329 58.9027 170.436 58.2599 170.587 57.6313L171.42 58.0254ZM172.967 55.9669L172.339 56.8024L170.33 56.0527L172.967 55.9669Z" fill="black"/>
</svg>
