<svg width="220" height="120" viewBox="0 0 220 120" fill="none" xmlns="http://www.w3.org/2000/svg">
<path d="M99.2739 55.8354L100.348 43.9177H90.8456L90.5771 46.6019H86.3899L77.049 32H65.9902L81.0215 55.8354H99.2739ZM139.483 55.8354H150.219L135.242 32H117.473L116.506 42.5756L110.279 32H91.8656L91.114 41.1799H95.9992V41.2335H104.964L114.466 55.8354H124.237L124.076 55.5133L125.364 41.2335H129.981L139.483 55.8354ZM52.6767 83.8044L48.1673 72.1014H45L51.2273 87.1865H54.1799L60.4071 72.1014H57.2398L52.6767 83.8044ZM62.1787 87.1328H64.9702V72.1014H62.1787V87.1328ZM74.0427 77.8993C72.2175 77.6845 70.7143 77.3087 70.7143 76.0203C70.7143 74.893 71.7343 74.0341 73.828 74.0341C75.4385 74.0341 76.8879 74.8393 77.3711 75.6982L79.6258 74.5172C78.4984 72.2088 76.0827 71.5109 73.7206 71.5109C70.9291 71.5109 67.9228 72.7993 67.9228 75.913C67.9228 79.295 70.768 80.1003 73.828 80.4761C75.8142 80.6908 77.3174 81.2813 77.3174 82.6771C77.3174 84.2876 75.6532 84.9318 73.8816 84.9318C72.0564 84.9318 70.3385 84.1802 69.6406 82.5697L67.2786 83.8044C68.4059 86.5423 70.768 87.5086 73.828 87.5086C77.1563 87.5086 80.1626 86.0591 80.1626 82.7308C80.0552 79.134 77.1563 78.3287 74.0427 77.8993ZM87.4635 72.1014L80.6994 87.1328H83.7594L85.0478 84.2876H92.8855L94.1739 87.1328H97.2876L90.5235 72.1014H87.4635ZM86.2288 81.6571L89.0203 75.2688L91.8119 81.6571H86.2288ZM103.139 78.5434L98.4149 72.1014H95.1402V76.9329L97.9855 83.3749V76.1814L102.763 82.7308H103.3L108.185 76.1814V87.0791H111.031V72.0478H107.81L103.139 78.5434ZM113.661 87.1328H124.934V84.3413H116.506V80.9592H124.666V78.3287H116.506V74.893H124.934V72.1551H113.661V87.1328ZM127.136 74.6783H131.913V87.1328H134.759V74.6783H139.536V72.1014H127.189V74.6783H127.136ZM153.762 77.0403C153.762 74.4635 151.884 72.1014 148.34 72.0478C145.978 72.0478 143.563 72.0478 141.201 72.0478V87.0791H144.046V82.0866H146.784L151.186 87.1328H154.568V86.9181L150.005 81.7644C152.85 81.2276 153.762 79.134 153.762 77.0403ZM144.046 79.5098V74.6783H148.34C150.112 74.6783 150.917 75.8593 150.917 77.094C150.917 78.275 150.166 79.5098 148.34 79.5098H144.046ZM155.749 87.1328H158.54V72.1014H155.749V87.1328ZM172.498 83.2676C171.532 84.2339 170.028 84.7707 168.74 84.7707C165.036 84.7707 163.586 82.1939 163.586 79.6708C163.586 77.1477 165.143 74.4635 168.74 74.4635C170.028 74.4635 171.371 74.893 172.391 75.8593L174.269 74.0341C172.713 72.5309 170.78 71.7257 168.74 71.7257C163.318 71.7257 160.741 75.6982 160.795 79.6708C160.795 83.5897 163.157 87.4012 168.74 87.4012C170.887 87.4012 172.927 86.7033 174.431 85.1465L172.498 83.2676Z" fill="black"/>
</svg>
