<svg width="220" height="120" viewBox="0 0 220 120" fill="none" xmlns="http://www.w3.org/2000/svg">
<path fill-rule="evenodd" clip-rule="evenodd" d="M112.05 46.489H118.58V47.153H116.867L109.765 61.5751H111.535V62.2199H105.023V61.5751H106.736L108.011 58.9601L103.442 48.3247C103.176 47.699 102.929 47.153 102.129 47.153H101.253V46.489H105.841V47.153H105.041C104.356 47.153 104.09 47.367 104.09 47.7197C104.09 48.1285 104.26 48.5786 104.641 49.4374L108.373 58.2193L113.817 47.1545H112.047V46.4904L112.05 46.489ZM62.2348 33.2298H157.774V87.7702H62.2348V33.2298ZM60 90H160V31H60V90ZM77.0162 76.4486V73.1327C77.0162 72.389 76.8091 71.1494 76.3743 70.5768C76.0341 70.1282 75.5623 69.9098 74.9574 69.9098C74.2963 69.9098 73.8807 70.1887 73.579 70.5916C73.0687 71.2734 72.9371 72.6059 72.9371 73.1327V76.4486C72.9371 77.1762 73.0509 78.3685 73.5982 79.0046C74.07 79.5476 74.6557 79.6243 74.9574 79.6243C75.5239 79.6243 76.0534 79.3927 76.3743 79.0208C76.8461 78.463 77.0162 77.0065 77.0162 76.4486ZM123.685 65.7528V41.7298H124.067V65.7528H123.685ZM133.224 59.7024V47.1353H131.396V46.4904H136.29L140.363 57.8489L144.362 46.4904H149.199V47.1353H147.371V61.4777H149.199V62.1225H142.704V61.4777H144.648V47.9543H144.608L139.828 61.4777H138.763L133.889 48.2081H133.852V59.7009C133.852 61.1073 134.043 61.4777 135.145 61.4777H135.964V62.1225H131.396V61.4777H131.93C133.033 61.4777 133.224 61.1073 133.224 59.7009V59.7024ZM155.539 85.5419V35.4625H64.4696V85.5419H155.539ZM140.48 69.6944H148.564L148.659 72.9778H148.168C148.073 72.42 147.884 71.7692 147.658 71.3206C147.053 70.0972 146.241 70.0352 145.902 70.0352H145.543V79.5019H146.656V79.8428H142.386V79.5019H143.5V70.0352H143.141C142.045 70.0352 141.517 71.0107 141.366 71.3206C141.101 71.8326 140.987 72.327 140.875 72.9778H140.384L140.478 69.6944H140.48ZM126.858 69.6944H134.414L134.509 72.9483H134.037C133.999 72.4982 133.83 71.8017 133.508 71.2438C133.243 70.779 132.62 70.0352 131.26 70.0352H129.993V74.0949H130.863C131.203 74.0949 131.486 74.0182 131.789 73.661C132.11 73.2744 132.242 72.7166 132.242 72.2517H132.696V76.3114H132.242C132.242 75.9853 132.185 75.5514 132.052 75.2415C131.731 74.4668 131.109 74.4358 130.863 74.4358H129.993V79.5019H131.26C132.298 79.5019 133.111 78.8821 133.564 78.2475C133.941 77.7207 134.206 77.0079 134.283 76.4811H134.735L134.604 79.8428H126.858V79.5019H127.954V70.0352H126.858V69.6944ZM112.726 69.6944H116.996V70.0352H115.882V79.5019H116.864C117.809 79.5019 118.602 79.037 119.168 78.2475C119.603 77.6425 119.812 77.0079 119.887 76.4811H120.359L120.208 79.8428H112.727V79.5019H113.843V70.0352H112.727V69.6944H112.726ZM98.19 69.6944H106.274L106.369 72.9778H105.878C105.783 72.42 105.594 71.7692 105.368 71.3206C104.763 70.0972 103.951 70.0352 103.611 70.0352H103.251V79.5019H104.366V79.8428H100.096V79.5019H101.212V70.0352H100.852C99.7563 70.0352 99.2282 71.0107 99.0774 71.3206C98.8126 71.8326 98.6988 72.327 98.5863 72.9778H98.0953L98.19 69.6944ZM96.1726 41.7313V65.7336H95.791V41.7313H96.1726ZM88.1917 69.6944V70.0352H87.0766V77.1924C87.0766 77.8904 87.115 78.4792 87.4744 78.8821C87.7954 79.2392 88.3618 79.4561 88.9283 79.4561C89.3631 79.4561 90.0612 79.3469 90.6292 78.6814C91.2149 77.9996 91.1779 77.3178 91.1779 76.5593V72.082C91.1779 71.1686 91.1394 70.1917 90.0257 70.0367V69.6958H92.6318V70.0367C92.0845 70.0515 91.5935 70.3304 91.5935 72.0201V76.7305C91.5935 77.3503 91.555 77.9391 91.1971 78.5589C90.7431 79.3336 89.8749 79.9682 88.3633 79.9682C86.5693 79.9682 85.7573 79.1167 85.4733 78.6976C84.963 77.9539 85.0385 77.1481 85.0385 76.4973V70.0367H83.9233V69.6958H88.1932L88.1917 69.6944ZM85.7395 47.1353V61.4777H87.643V63.644H87.3768C87.3768 63.6263 87.3768 63.6263 87.3768 63.6056C87.3768 62.9622 86.7852 62.1225 86.0427 62.1225H70.8102V61.4777H72.696V47.1353H70.8102V46.4904H77.3046V47.1353H75.4189V61.4777H83.0344V47.1353H81.1486V46.4904H87.643V47.1353H85.7395ZM77.5457 70.6078C79.0573 71.9566 79.322 73.6301 79.322 74.7767C79.322 75.3965 79.2466 77.4875 77.5457 78.9588C76.5444 79.8265 75.5431 79.9652 74.9574 79.9652C74.2208 79.9652 73.295 79.7173 72.4076 78.9588C71.6902 78.339 70.6312 77.0684 70.6312 74.7767C70.6312 72.7313 71.4817 71.415 72.4076 70.6078C73.3334 69.8021 74.2401 69.5704 74.9574 69.5704C76.0726 69.5704 76.9216 70.05 77.5457 70.6078Z" fill="black"/>
</svg>
